<svg width="105" height="32" viewBox="0 0 105 32" fill="none" xmlns="http://www.w3.org/2000/svg">
<path d="M16.5308 0.859155C16.5308 0.384657 16.1529 0 15.6867 0C15.2205 0 14.8426 0.384657 14.8426 0.859155V5.80639C14.8426 6.05735 14.5445 6.18303 14.3701 6.00557L11.8858 3.47699C11.5561 3.14147 11.0217 3.14147 10.692 3.47699C10.3624 3.81251 10.3624 4.3565 10.692 4.69202L14.3562 8.42147C14.6676 8.73843 14.8426 9.16833 14.8426 9.61658V14.0192C14.8426 14.2361 14.6119 14.3716 14.4274 14.2632L10.6694 12.0548C10.288 11.8307 10.0097 11.4615 9.89569 11.0286L8.5545 5.93403C8.43385 5.4757 7.97098 5.2037 7.52068 5.32651C7.07037 5.44932 6.80314 5.92043 6.9238 6.37876L7.83312 9.83287C7.89694 10.0753 7.64094 10.2752 7.42741 10.1497L3.22996 7.68315C2.82622 7.4459 2.30997 7.58669 2.07687 7.99762C1.84378 8.40855 1.98211 8.934 2.38584 9.17125L6.58797 11.6406C6.8015 11.7661 6.75938 12.0917 6.52122 12.1566L3.1202 13.0841C2.66989 13.207 2.40266 13.6781 2.52332 14.1364C2.64398 14.5947 3.10684 14.8667 3.55715 14.7439L8.56988 13.3768C8.99528 13.2608 9.44853 13.3215 9.82994 13.5457L13.586 15.7529C13.7705 15.8613 13.7705 16.1324 13.586 16.2408L9.82256 18.4523C9.44115 18.6764 8.9879 18.7372 8.5625 18.6212L3.55715 17.2561C3.10684 17.1333 2.64398 17.4053 2.52332 17.8636C2.40266 18.3219 2.66989 18.793 3.1202 18.9159L6.51384 19.8414C6.752 19.9063 6.79412 20.2319 6.58059 20.3574L2.38314 22.824C1.9794 23.0612 1.84107 23.5867 2.07417 23.9976C2.30726 24.4085 2.82352 24.5493 3.22725 24.3121L7.42939 21.8428C7.64292 21.7173 7.89892 21.9172 7.8351 22.1596L6.9238 25.6212C6.80314 26.0796 7.07037 26.5507 7.52068 26.6735C7.97098 26.7963 8.43384 26.5243 8.5545 26.066L9.89766 20.9639C10.0117 20.5309 10.29 20.1618 10.6714 19.9377L14.4274 17.7305C14.6119 17.622 14.8426 17.7576 14.8426 17.9744V22.3975C14.8426 22.8458 14.6676 23.2756 14.3562 23.5926L10.692 27.3221C10.3624 27.6576 10.3624 28.2016 10.692 28.5371C11.0217 28.8726 11.5561 28.8726 11.8858 28.5371L14.3701 26.0085C14.5445 25.8311 14.8426 25.9567 14.8426 26.2077V31.1408C14.8426 31.6153 15.2205 32 15.6867 32C16.1529 32 16.5308 31.6153 16.5308 31.1408V26.2022C16.5308 25.9512 16.8289 25.8256 17.0033 26.003L19.493 28.5371C19.8226 28.8726 20.3571 28.8726 20.6867 28.5371C21.0164 28.2016 21.0164 27.6576 20.6867 27.3221L17.0172 23.5871C16.7058 23.2701 16.5308 22.8403 16.5308 22.392V17.9712C16.5308 17.7544 16.7614 17.6189 16.9459 17.7273L20.6955 19.9306C21.0769 20.1548 21.3552 20.5239 21.4691 20.9569L22.8123 26.0589C22.933 26.5173 23.3958 26.7893 23.8461 26.6664C24.2964 26.5436 24.5637 26.0725 24.443 25.6142L23.5317 22.1526C23.4679 21.9102 23.7239 21.7103 23.9374 21.8357L28.1515 24.3121C28.5553 24.5493 29.0715 24.4086 29.3046 23.9976C29.5377 23.5867 29.3994 23.0612 28.9956 22.824L24.7862 20.3504C24.5727 20.2249 24.6148 19.8993 24.853 19.8343L28.2466 18.9088C28.6969 18.786 28.9641 18.3149 28.8435 17.8566C28.7228 17.3982 28.26 17.1262 27.8097 17.249L22.8043 18.6141C22.3789 18.7301 21.9256 18.6694 21.5442 18.4453L17.7928 16.2408C17.6083 16.1324 17.6083 15.8613 17.7928 15.7529L21.5369 13.5527C21.9183 13.3286 22.3715 13.2678 22.7969 13.3839L27.8097 14.751C28.26 14.8738 28.7228 14.6018 28.8435 14.1434C28.9641 13.6851 28.6969 13.214 28.2466 13.0912L24.8456 12.1637C24.6074 12.0987 24.5653 11.7731 24.7788 11.6476L28.9929 9.17125C29.3967 8.934 29.535 8.40855 29.3019 7.99762C29.0688 7.58669 28.5526 7.4459 28.1488 7.68315L23.9394 10.1568C23.7259 10.2822 23.4699 10.0823 23.5337 9.8399L24.443 6.3858C24.5637 5.92747 24.2964 5.45637 23.8461 5.33356C23.3958 5.21075 22.933 5.48274 22.8123 5.94107L21.4711 11.0356C21.3571 11.4686 21.0788 11.8377 20.6974 12.0619L16.9459 14.2664C16.7614 14.3748 16.5308 14.2393 16.5308 14.0224V9.62208C16.5308 9.17383 16.7058 8.74394 17.0172 8.42697L20.6867 4.69202C21.0164 4.3565 21.0164 3.81251 20.6867 3.47699C20.3571 3.14147 19.8226 3.14147 19.493 3.47699L17.0033 6.01107C16.8289 6.18853 16.5308 6.06285 16.5308 5.81189V0.859155Z" fill="#95A4FC"/>
<path d="M65.1718 23.3845V14.7691C65.1718 12.7299 63.5507 11.0768 61.5511 11.0768C59.5514 11.0768 57.9304 12.7299 57.9304 14.7691V23.3845H55.5166V14.7691C55.5166 11.3704 58.2183 8.61523 61.5511 8.61523C64.8838 8.61523 67.5856 11.3704 67.5856 14.7691V23.3845H65.1718Z" fill="#1C1C1C"/>
<path fill-rule="evenodd" clip-rule="evenodd" d="M78.4484 20.9229C81.1146 20.9229 83.276 18.7188 83.276 15.9998C83.276 13.2809 81.1146 11.0768 78.4484 11.0768C75.7822 11.0768 73.6208 13.2809 73.6208 15.9998C73.6208 18.7188 75.7822 20.9229 78.4484 20.9229ZM78.4484 23.3845C82.4477 23.3845 85.6898 20.0783 85.6898 15.9998C85.6898 11.9214 82.4477 8.61523 78.4484 8.61523C74.4491 8.61523 71.207 11.9214 71.207 15.9998C71.207 20.0783 74.4491 23.3845 78.4484 23.3845Z" fill="#95A4FC"/>
<path d="M88.1035 8.61523L90.3784 21.3556C90.8502 23.9984 94.3106 24.084 94.8932 21.4674L96.2418 14.2052C96.2913 13.9384 96.6419 13.9438 96.6845 14.212L97.8192 21.3595C98.3229 23.9981 101.789 24.032 102.336 21.4037L105 8.61523H102.657L100.313 20.8742C100.263 21.1377 99.9173 21.1343 99.8713 20.8698L97.7421 8.61523H95.3839L92.8904 20.9102C92.8371 21.1729 92.4921 21.1652 92.4487 20.9004L90.4353 8.61523H88.1035Z" fill="#1C1C1C"/>
<path d="M46.3396 23.3845C48.0349 23.3845 49.3848 23.0242 50.3894 22.2738C51.394 21.5233 51.8962 20.5027 51.8962 19.1518C51.8962 17.9811 51.4881 17.1105 50.7033 16.4801C49.8871 15.8498 48.8197 15.3094 47.4698 14.8291C46.5594 14.4689 45.7746 14.1387 45.1781 13.8385C44.5816 13.5383 44.2677 13.088 44.2677 12.4877C44.2677 11.9473 44.4874 11.5271 44.9583 11.2569C45.4292 10.9867 46.0571 10.8666 46.8419 10.8666C47.4384 10.8666 48.0349 10.9567 48.6 11.1368C49.1336 11.3169 49.6987 11.5571 50.2952 11.8873L51.2684 9.846C50.6091 9.42574 49.8871 9.12555 49.1336 8.91542C48.3802 8.70529 47.6268 8.61523 46.8419 8.61523C45.2723 8.61523 44.0165 8.94544 43.0433 9.63587C42.0702 10.3263 41.5993 11.2869 41.6307 12.5177C41.662 13.6584 42.0702 14.5289 42.8864 15.1293C43.6712 15.7297 44.7386 16.27 46.0885 16.7503C46.9989 17.0805 47.7523 17.4107 48.3488 17.7409C48.9453 18.0711 49.2278 18.5815 49.2278 19.2419C49.2278 19.8423 48.9767 20.2925 48.4744 20.6227C47.9407 20.9529 47.2187 21.103 46.2455 21.103C45.5862 21.103 44.8956 20.983 44.2049 20.7728C43.5142 20.5627 42.7922 20.2325 42.0074 19.7222L41.0342 21.8535C41.819 22.3338 42.6666 22.694 43.5142 22.9642C44.3619 23.2344 45.3037 23.3845 46.3396 23.3845Z" fill="#1C1C1C"/>
</svg>
