<svg width="520" height="260" viewBox="0 0 520 260" fill="none" xmlns="http://www.w3.org/2000/svg">
<rect width="520" height="260" rx="16" fill="#F7F9FB"/>
<path d="M25.0043 39V28.8182H28.902C29.6378 28.8182 30.2493 28.9342 30.7365 29.1662C31.227 29.3949 31.5933 29.7081 31.8352 30.1058C32.0805 30.5036 32.2031 30.9543 32.2031 31.4581C32.2031 31.8724 32.1236 32.227 31.9645 32.522C31.8054 32.8137 31.5916 33.0507 31.3232 33.233C31.0547 33.4152 30.7547 33.5462 30.4233 33.6257V33.7251C30.7846 33.745 31.1309 33.8561 31.4624 34.0582C31.7971 34.2571 32.0705 34.5388 32.2827 34.9034C32.4948 35.268 32.6009 35.7088 32.6009 36.2259C32.6009 36.7528 32.4732 37.2268 32.218 37.6477C31.9628 38.0653 31.5784 38.3951 31.0646 38.6371C30.5509 38.879 29.9046 39 29.1257 39H25.0043ZM26.8487 37.4588H28.8324C29.5019 37.4588 29.9841 37.3312 30.2791 37.076C30.5774 36.8175 30.7266 36.486 30.7266 36.0817C30.7266 35.7801 30.652 35.5083 30.5028 35.2663C30.3537 35.0211 30.1416 34.8288 29.8665 34.6896C29.5914 34.5471 29.2633 34.4759 28.8821 34.4759H26.8487V37.4588ZM26.8487 33.1484H28.6733C28.9915 33.1484 29.2782 33.0904 29.5334 32.9744C29.7886 32.8551 29.9891 32.6877 30.1349 32.4723C30.2841 32.2536 30.3587 31.995 30.3587 31.6967C30.3587 31.3023 30.2195 30.9775 29.9411 30.7223C29.666 30.4671 29.2566 30.3395 28.7131 30.3395H26.8487V33.1484ZM36.3233 39.1541C35.8394 39.1541 35.4036 39.0679 35.0158 38.8956C34.6313 38.7199 34.3264 38.4614 34.101 38.12C33.879 37.7786 33.7679 37.3577 33.7679 36.8572C33.7679 36.4264 33.8475 36.0701 34.0066 35.7884C34.1657 35.5066 34.3828 35.2812 34.6578 35.1122C34.9329 34.9432 35.2428 34.8156 35.5875 34.7294C35.9355 34.6399 36.2952 34.5753 36.6664 34.5355C37.1138 34.4891 37.4767 34.4477 37.7551 34.4112C38.0336 34.3714 38.2357 34.3118 38.3617 34.2322C38.4909 34.1494 38.5556 34.0218 38.5556 33.8494V33.8196C38.5556 33.4451 38.4445 33.1551 38.2225 32.9496C38.0004 32.7441 37.6806 32.6413 37.263 32.6413C36.8221 32.6413 36.4725 32.7375 36.214 32.9297C35.9587 33.1219 35.7864 33.349 35.6969 33.6108L34.0165 33.3722C34.1491 32.9081 34.3678 32.5204 34.6728 32.2088C34.9777 31.8939 35.3506 31.6586 35.7914 31.5028C36.2322 31.3438 36.7194 31.2642 37.253 31.2642C37.6209 31.2642 37.9872 31.3073 38.3517 31.3935C38.7163 31.4796 39.0494 31.6222 39.351 31.821C39.6526 32.0166 39.8946 32.2834 40.0769 32.6214C40.2625 32.9595 40.3553 33.3821 40.3553 33.8892V39H38.6252V37.951H38.5655C38.4561 38.1631 38.302 38.362 38.1032 38.5476C37.9076 38.7299 37.6607 38.8774 37.3624 38.9901C37.0674 39.0994 36.7211 39.1541 36.3233 39.1541ZM36.7907 37.8317C37.1519 37.8317 37.4651 37.7604 37.7303 37.6179C37.9954 37.4721 38.1993 37.2798 38.3418 37.0412C38.4876 36.8026 38.5605 36.5424 38.5605 36.2607V35.3608C38.5042 35.4072 38.4081 35.4503 38.2722 35.4901C38.1396 35.5298 37.9905 35.5646 37.8248 35.5945C37.659 35.6243 37.495 35.6508 37.3326 35.674C37.1702 35.6972 37.0293 35.7171 36.91 35.7337C36.6415 35.7701 36.4012 35.8298 36.1891 35.9126C35.977 35.9955 35.8096 36.1115 35.687 36.2607C35.5643 36.4065 35.503 36.5954 35.503 36.8274C35.503 37.1589 35.624 37.4091 35.8659 37.5781C36.1079 37.7472 36.4161 37.8317 36.7907 37.8317ZM42.165 39V31.3636H43.91V32.6364H43.9895C44.1287 32.1955 44.3674 31.8558 44.7054 31.6172C45.0468 31.3752 45.4363 31.2543 45.8738 31.2543C45.9732 31.2543 46.0842 31.2592 46.2069 31.2692C46.3328 31.2758 46.4372 31.2874 46.5201 31.304V32.9595C46.4438 32.933 46.3229 32.9098 46.1571 32.8899C45.9947 32.8667 45.8373 32.8551 45.6848 32.8551C45.3567 32.8551 45.0617 32.9264 44.7999 33.0689C44.5414 33.2081 44.3375 33.402 44.1884 33.6506C44.0392 33.8991 43.9647 34.1858 43.9647 34.5107V39H42.165ZM54.5194 39.1491C53.757 39.1491 53.1025 38.9818 52.5556 38.647C52.012 38.3123 51.5927 37.8499 51.2978 37.2599C51.0061 36.6667 50.8603 35.9839 50.8603 35.2116C50.8603 34.4361 51.0094 33.7517 51.3077 33.1584C51.606 32.5618 52.0269 32.0978 52.5705 31.7663C53.1174 31.4316 53.7637 31.2642 54.5094 31.2642C55.1292 31.2642 55.6777 31.3786 56.155 31.6072C56.6356 31.8326 57.0184 32.1525 57.3034 32.5668C57.5885 32.9777 57.7509 33.4583 57.7907 34.0085H56.0705C56.0009 33.6406 55.8352 33.334 55.5733 33.0888C55.3148 32.8402 54.9685 32.7159 54.5343 32.7159C54.1664 32.7159 53.8432 32.8153 53.5648 33.0142C53.2864 33.2098 53.0693 33.4915 52.9135 33.8594C52.7611 34.2273 52.6848 34.6681 52.6848 35.1818C52.6848 35.7022 52.7611 36.1496 52.9135 36.5241C53.066 36.8954 53.2798 37.1821 53.5549 37.3842C53.8333 37.5831 54.1597 37.6825 54.5343 37.6825C54.7994 37.6825 55.0364 37.6328 55.2452 37.5334C55.4573 37.4306 55.6346 37.2831 55.7772 37.0909C55.9197 36.8987 56.0175 36.665 56.0705 36.3899H57.7907C57.7476 36.9302 57.5885 37.4091 57.3134 37.8267C57.0383 38.241 56.6638 38.5658 56.1898 38.8011C55.7159 39.0331 55.159 39.1491 54.5194 39.1491ZM61.0682 34.5256V39H59.2685V28.8182H61.0284V32.6612H61.1179C61.2969 32.2304 61.5736 31.8906 61.9482 31.642C62.326 31.3902 62.8066 31.2642 63.3899 31.2642C63.9202 31.2642 64.3826 31.3752 64.777 31.5973C65.1714 31.8194 65.4763 32.1442 65.6918 32.5717C65.9105 32.9993 66.0199 33.5213 66.0199 34.1378V39H64.2202V34.4162C64.2202 33.9025 64.0876 33.5031 63.8224 33.218C63.5606 32.9297 63.1927 32.7855 62.7188 32.7855C62.4006 32.7855 62.1155 32.8551 61.8636 32.9943C61.6151 33.1302 61.4195 33.3274 61.277 33.5859C61.1378 33.8445 61.0682 34.1577 61.0682 34.5256ZM70.0518 39.1541C69.5679 39.1541 69.1321 39.0679 68.7443 38.8956C68.3598 38.7199 68.0549 38.4614 67.8295 38.12C67.6075 37.7786 67.4964 37.3577 67.4964 36.8572C67.4964 36.4264 67.576 36.0701 67.7351 35.7884C67.8942 35.5066 68.1113 35.2812 68.3864 35.1122C68.6615 34.9432 68.9714 34.8156 69.3161 34.7294C69.6641 34.6399 70.0237 34.5753 70.3949 34.5355C70.8423 34.4891 71.2053 34.4477 71.4837 34.4112C71.7621 34.3714 71.9643 34.3118 72.0902 34.2322C72.2195 34.1494 72.2841 34.0218 72.2841 33.8494V33.8196C72.2841 33.4451 72.1731 33.1551 71.951 32.9496C71.7289 32.7441 71.4091 32.6413 70.9915 32.6413C70.5507 32.6413 70.201 32.7375 69.9425 32.9297C69.6873 33.1219 69.5149 33.349 69.4254 33.6108L67.745 33.3722C67.8776 32.9081 68.0964 32.5204 68.4013 32.2088C68.7062 31.8939 69.0791 31.6586 69.5199 31.5028C69.9607 31.3438 70.4479 31.2642 70.9815 31.2642C71.3494 31.2642 71.7157 31.3073 72.0803 31.3935C72.4448 31.4796 72.7779 31.6222 73.0795 31.821C73.3812 32.0166 73.6231 32.2834 73.8054 32.6214C73.991 32.9595 74.0838 33.3821 74.0838 33.8892V39H72.3537V37.951H72.294C72.1847 38.1631 72.0305 38.362 71.8317 38.5476C71.6361 38.7299 71.3892 38.8774 71.0909 38.9901C70.7959 39.0994 70.4496 39.1541 70.0518 39.1541ZM70.5192 37.8317C70.8804 37.8317 71.1937 37.7604 71.4588 37.6179C71.724 37.4721 71.9278 37.2798 72.0703 37.0412C72.2161 36.8026 72.2891 36.5424 72.2891 36.2607V35.3608C72.2327 35.4072 72.1366 35.4503 72.0007 35.4901C71.8681 35.5298 71.719 35.5646 71.5533 35.5945C71.3875 35.6243 71.2235 35.6508 71.0611 35.674C70.8987 35.6972 70.7578 35.7171 70.6385 35.7337C70.37 35.7701 70.1297 35.8298 69.9176 35.9126C69.7055 35.9955 69.5381 36.1115 69.4155 36.2607C69.2929 36.4065 69.2315 36.5954 69.2315 36.8274C69.2315 37.1589 69.3525 37.4091 69.5945 37.5781C69.8364 37.7472 70.1446 37.8317 70.5192 37.8317ZM75.8935 39V31.3636H77.6385V32.6364H77.718C77.8572 32.1955 78.0959 31.8558 78.4339 31.6172C78.7753 31.3752 79.1648 31.2543 79.6023 31.2543C79.7017 31.2543 79.8127 31.2592 79.9354 31.2692C80.0613 31.2758 80.1657 31.2874 80.2486 31.304V32.9595C80.1723 32.933 80.0514 32.9098 79.8857 32.8899C79.7232 32.8667 79.5658 32.8551 79.4134 32.8551C79.0852 32.8551 78.7902 32.9264 78.5284 33.0689C78.2699 33.2081 78.0661 33.402 77.9169 33.6506C77.7678 33.8991 77.6932 34.1858 77.6932 34.5107V39H75.8935ZM85.6676 31.3636V32.7557H81.2777V31.3636H85.6676ZM82.3615 29.5341H84.1612V36.7031C84.1612 36.9451 84.1977 37.1307 84.2706 37.2599C84.3468 37.3859 84.4463 37.4721 84.5689 37.5185C84.6915 37.5649 84.8274 37.5881 84.9766 37.5881C85.0893 37.5881 85.192 37.5798 85.2848 37.5632C85.3809 37.5466 85.4538 37.5317 85.5036 37.5185L85.8068 38.9254C85.7107 38.9586 85.5732 38.995 85.3942 39.0348C85.2185 39.0746 85.0031 39.0978 84.7479 39.1044C84.2971 39.1177 83.8911 39.0497 83.5298 38.9006C83.1686 38.7481 82.8819 38.5128 82.6697 38.1946C82.4609 37.8764 82.3582 37.4787 82.3615 37.0014V29.5341Z" fill="#1C1C1C"/>
<line x1="64.5" y1="67.5" x2="64.5" y2="231.5" stroke="black" stroke-opacity="0.2" stroke-linecap="round"/>
<line x1="136.5" y1="67.5" x2="136.5" y2="231.5" stroke="black" stroke-opacity="0.05" stroke-linecap="round"/>
<line x1="208.5" y1="67.5" x2="208.5" y2="231.5" stroke="black" stroke-opacity="0.05" stroke-linecap="round"/>
<line x1="280.5" y1="67.5" x2="280.5" y2="231.5" stroke="black" stroke-opacity="0.05" stroke-linecap="round"/>
<line x1="352.5" y1="67.5" x2="352.5" y2="231.5" stroke="black" stroke-opacity="0.05" stroke-linecap="round"/>
<line x1="424.5" y1="67.5" x2="424.5" y2="231.5" stroke="black" stroke-opacity="0.05" stroke-linecap="round"/>
<line x1="496.5" y1="67.5" x2="496.5" y2="231.5" stroke="black" stroke-opacity="0.05" stroke-linecap="round"/>
<path d="M73.0568 218.273H74.3182L77.2841 225.517H77.3864L80.3523 218.273H81.6136V227H80.625V220.369H80.5398L77.8125 227H76.858L74.1307 220.369H74.0455V227H73.0568V218.273ZM86.2553 227.136C85.6644 227.136 85.146 226.996 84.6999 226.714C84.2567 226.433 83.9102 226.04 83.6602 225.534C83.413 225.028 83.2894 224.437 83.2894 223.761C83.2894 223.08 83.413 222.484 83.6602 221.976C83.9102 221.467 84.2567 221.072 84.6999 220.791C85.146 220.51 85.6644 220.369 86.2553 220.369C86.8462 220.369 87.3633 220.51 87.8065 220.791C88.2525 221.072 88.5991 221.467 88.8462 221.976C89.0962 222.484 89.2212 223.08 89.2212 223.761C89.2212 224.437 89.0962 225.028 88.8462 225.534C88.5991 226.04 88.2525 226.433 87.8065 226.714C87.3633 226.996 86.8462 227.136 86.2553 227.136ZM86.2553 226.233C86.7042 226.233 87.0735 226.118 87.3633 225.888C87.6531 225.658 87.8675 225.355 88.0067 224.98C88.146 224.605 88.2156 224.199 88.2156 223.761C88.2156 223.324 88.146 222.916 88.0067 222.538C87.8675 222.161 87.6531 221.855 87.3633 221.622C87.0735 221.389 86.7042 221.273 86.2553 221.273C85.8065 221.273 85.4371 221.389 85.1474 221.622C84.8576 221.855 84.6431 222.161 84.5039 222.538C84.3647 222.916 84.2951 223.324 84.2951 223.761C84.2951 224.199 84.3647 224.605 84.5039 224.98C84.6431 225.355 84.8576 225.658 85.1474 225.888C85.4371 226.118 85.8065 226.233 86.2553 226.233ZM91.7621 223.062V227H90.7564V220.455H91.728V221.477H91.8132C91.9666 221.145 92.1996 220.878 92.5121 220.676C92.8246 220.472 93.228 220.369 93.7223 220.369C94.1655 220.369 94.5533 220.46 94.8857 220.642C95.218 220.821 95.4766 221.094 95.6612 221.46C95.8459 221.824 95.9382 222.284 95.9382 222.841V227H94.9325V222.909C94.9325 222.395 94.799 221.994 94.532 221.707C94.2649 221.418 93.8984 221.273 93.4325 221.273C93.1115 221.273 92.8246 221.342 92.5717 221.482C92.3217 221.621 92.1243 221.824 91.9794 222.091C91.8345 222.358 91.7621 222.682 91.7621 223.062Z" fill="black" fill-opacity="0.4"/>
<path d="M144.58 219.21V218.273H151.125V219.21H148.381V227H147.324V219.21H144.58ZM155.854 224.324V220.455H156.86V227H155.854V225.892H155.786C155.632 226.224 155.394 226.507 155.07 226.74C154.746 226.97 154.337 227.085 153.843 227.085C153.434 227.085 153.07 226.996 152.752 226.817C152.434 226.635 152.184 226.362 152.002 225.999C151.82 225.632 151.729 225.17 151.729 224.614V220.455H152.735V224.545C152.735 225.023 152.868 225.403 153.135 225.688C153.405 225.972 153.749 226.114 154.167 226.114C154.417 226.114 154.671 226.05 154.929 225.922C155.191 225.794 155.409 225.598 155.586 225.334C155.765 225.07 155.854 224.733 155.854 224.324ZM161.446 227.136C160.815 227.136 160.271 226.997 159.814 226.719C159.359 226.438 159.009 226.045 158.761 225.543C158.517 225.037 158.395 224.449 158.395 223.778C158.395 223.108 158.517 222.517 158.761 222.006C159.009 221.491 159.352 221.091 159.793 220.804C160.236 220.514 160.753 220.369 161.344 220.369C161.685 220.369 162.021 220.426 162.354 220.54C162.686 220.653 162.989 220.838 163.261 221.094C163.534 221.347 163.751 221.682 163.913 222.099C164.075 222.517 164.156 223.031 164.156 223.642V224.068H159.111V223.199H163.134C163.134 222.83 163.06 222.5 162.912 222.21C162.767 221.92 162.56 221.692 162.29 221.524C162.023 221.357 161.707 221.273 161.344 221.273C160.943 221.273 160.597 221.372 160.304 221.571C160.014 221.767 159.791 222.023 159.635 222.338C159.479 222.653 159.401 222.991 159.401 223.352V223.932C159.401 224.426 159.486 224.845 159.656 225.189C159.83 225.53 160.07 225.79 160.376 225.969C160.683 226.145 161.04 226.233 161.446 226.233C161.71 226.233 161.949 226.196 162.162 226.122C162.378 226.045 162.564 225.932 162.72 225.781C162.876 225.628 162.997 225.437 163.082 225.21L164.054 225.483C163.952 225.812 163.78 226.102 163.538 226.352C163.297 226.599 162.999 226.793 162.643 226.932C162.288 227.068 161.889 227.136 161.446 227.136Z" fill="black" fill-opacity="0.4"/>
<path d="M218.642 227L216.256 218.273H217.33L219.153 225.381H219.239L221.097 218.273H222.29L224.148 225.381H224.233L226.057 218.273H227.131L224.744 227H223.653L221.727 220.045H221.659L219.733 227H218.642ZM230.446 227.136C229.815 227.136 229.271 226.997 228.814 226.719C228.359 226.438 228.009 226.045 227.761 225.543C227.517 225.037 227.395 224.449 227.395 223.778C227.395 223.108 227.517 222.517 227.761 222.006C228.009 221.491 228.352 221.091 228.793 220.804C229.236 220.514 229.753 220.369 230.344 220.369C230.685 220.369 231.021 220.426 231.354 220.54C231.686 220.653 231.989 220.838 232.261 221.094C232.534 221.347 232.751 221.682 232.913 222.099C233.075 222.517 233.156 223.031 233.156 223.642V224.068H228.111V223.199H232.134C232.134 222.83 232.06 222.5 231.912 222.21C231.767 221.92 231.56 221.692 231.29 221.524C231.023 221.357 230.707 221.273 230.344 221.273C229.943 221.273 229.597 221.372 229.304 221.571C229.014 221.767 228.791 222.023 228.635 222.338C228.479 222.653 228.401 222.991 228.401 223.352V223.932C228.401 224.426 228.486 224.845 228.656 225.189C228.83 225.53 229.07 225.79 229.376 225.969C229.683 226.145 230.04 226.233 230.446 226.233C230.71 226.233 230.949 226.196 231.162 226.122C231.378 226.045 231.564 225.932 231.72 225.781C231.876 225.628 231.997 225.437 232.082 225.21L233.054 225.483C232.952 225.812 232.78 226.102 232.538 226.352C232.297 226.599 231.999 226.793 231.643 226.932C231.288 227.068 230.889 227.136 230.446 227.136ZM237.158 227.136C236.612 227.136 236.131 226.999 235.713 226.723C235.295 226.445 234.969 226.053 234.733 225.547C234.497 225.038 234.379 224.438 234.379 223.744C234.379 223.057 234.497 222.46 234.733 221.955C234.969 221.449 235.297 221.058 235.717 220.783C236.138 220.507 236.624 220.369 237.175 220.369C237.601 220.369 237.938 220.44 238.185 220.582C238.435 220.722 238.625 220.881 238.756 221.06C238.889 221.236 238.993 221.381 239.067 221.494H239.152V218.273H240.158V227H239.186V225.994H239.067C238.993 226.114 238.888 226.264 238.751 226.446C238.615 226.625 238.42 226.786 238.168 226.928C237.915 227.067 237.578 227.136 237.158 227.136ZM237.294 226.233C237.697 226.233 238.038 226.128 238.317 225.918C238.595 225.705 238.807 225.411 238.952 225.036C239.097 224.658 239.169 224.222 239.169 223.727C239.169 223.239 239.098 222.811 238.956 222.445C238.814 222.075 238.604 221.788 238.325 221.584C238.047 221.376 237.703 221.273 237.294 221.273C236.868 221.273 236.513 221.382 236.229 221.601C235.947 221.817 235.736 222.111 235.594 222.483C235.455 222.852 235.385 223.267 235.385 223.727C235.385 224.193 235.456 224.616 235.598 224.997C235.743 225.375 235.956 225.676 236.237 225.901C236.521 226.122 236.874 226.233 237.294 226.233Z" fill="black" fill-opacity="0.4"/>
<path d="M288.58 219.21V218.273H295.125V219.21H292.381V227H291.324V219.21H288.58ZM297.625 223.062V227H296.62V218.273H297.625V221.477H297.711C297.864 221.139 298.094 220.871 298.401 220.672C298.711 220.47 299.123 220.369 299.637 220.369C300.083 220.369 300.473 220.459 300.809 220.638C301.144 220.814 301.404 221.085 301.588 221.452C301.776 221.815 301.87 222.278 301.87 222.841V227H300.864V222.909C300.864 222.389 300.729 221.987 300.459 221.703C300.192 221.416 299.821 221.273 299.347 221.273C299.017 221.273 298.722 221.342 298.461 221.482C298.202 221.621 297.998 221.824 297.847 222.091C297.699 222.358 297.625 222.682 297.625 223.062ZM307.835 224.324V220.455H308.84V227H307.835V225.892H307.766C307.613 226.224 307.374 226.507 307.05 226.74C306.727 226.97 306.317 227.085 305.823 227.085C305.414 227.085 305.05 226.996 304.732 226.817C304.414 226.635 304.164 226.362 303.982 225.999C303.8 225.632 303.71 225.17 303.71 224.614V220.455H304.715V224.545C304.715 225.023 304.849 225.403 305.116 225.688C305.386 225.972 305.729 226.114 306.147 226.114C306.397 226.114 306.651 226.05 306.91 225.922C307.171 225.794 307.39 225.598 307.566 225.334C307.745 225.07 307.835 224.733 307.835 224.324Z" fill="black" fill-opacity="0.4"/>
<path d="M361.057 227V218.273H366.29V219.21H362.114V222.159H365.898V223.097H362.114V227H361.057ZM367.893 227V220.455H368.865V221.443H368.933C369.052 221.119 369.268 220.857 369.581 220.655C369.893 220.453 370.245 220.352 370.637 220.352C370.711 220.352 370.804 220.354 370.914 220.357C371.025 220.359 371.109 220.364 371.166 220.369V221.392C371.132 221.384 371.054 221.371 370.931 221.354C370.812 221.334 370.686 221.324 370.552 221.324C370.234 221.324 369.95 221.391 369.7 221.524C369.453 221.655 369.257 221.837 369.112 222.07C368.97 222.3 368.899 222.562 368.899 222.858V227H367.893ZM372.358 227V220.455H373.364V227H372.358ZM372.869 219.364C372.673 219.364 372.504 219.297 372.362 219.163C372.223 219.03 372.153 218.869 372.153 218.682C372.153 218.494 372.223 218.334 372.362 218.2C372.504 218.067 372.673 218 372.869 218C373.065 218 373.233 218.067 373.372 218.2C373.514 218.334 373.585 218.494 373.585 218.682C373.585 218.869 373.514 219.03 373.372 219.163C373.233 219.297 373.065 219.364 372.869 219.364Z" fill="black" fill-opacity="0.4"/>
<path d="M437.83 220.455C437.778 220.023 437.571 219.688 437.207 219.449C436.844 219.21 436.398 219.091 435.869 219.091C435.483 219.091 435.145 219.153 434.855 219.278C434.568 219.403 434.344 219.575 434.182 219.794C434.023 220.013 433.943 220.261 433.943 220.54C433.943 220.773 433.999 220.973 434.109 221.141C434.223 221.305 434.368 221.443 434.544 221.554C434.72 221.662 434.905 221.751 435.098 221.822C435.291 221.891 435.469 221.946 435.631 221.989L436.517 222.227C436.744 222.287 436.997 222.369 437.276 222.474C437.557 222.58 437.825 222.723 438.081 222.905C438.339 223.084 438.553 223.314 438.72 223.595C438.888 223.876 438.972 224.222 438.972 224.631C438.972 225.102 438.848 225.528 438.601 225.909C438.357 226.29 437.999 226.592 437.527 226.817C437.058 227.041 436.489 227.153 435.818 227.153C435.193 227.153 434.652 227.053 434.195 226.851C433.74 226.649 433.382 226.368 433.121 226.007C432.862 225.646 432.716 225.227 432.682 224.75H433.773C433.801 225.08 433.912 225.352 434.105 225.568C434.301 225.781 434.548 225.94 434.847 226.045C435.148 226.148 435.472 226.199 435.818 226.199C436.222 226.199 436.584 226.134 436.905 226.003C437.226 225.869 437.48 225.685 437.668 225.449C437.855 225.21 437.949 224.932 437.949 224.614C437.949 224.324 437.868 224.088 437.706 223.906C437.544 223.724 437.331 223.577 437.067 223.463C436.803 223.349 436.517 223.25 436.21 223.165L435.136 222.858C434.455 222.662 433.915 222.382 433.517 222.018C433.119 221.655 432.92 221.179 432.92 220.591C432.92 220.102 433.053 219.676 433.317 219.312C433.584 218.946 433.942 218.662 434.391 218.46C434.842 218.256 435.347 218.153 435.903 218.153C436.466 218.153 436.966 218.254 437.403 218.456C437.841 218.655 438.188 218.928 438.443 219.274C438.702 219.621 438.838 220.014 438.852 220.455H437.83ZM442.499 227.153C442.084 227.153 441.708 227.075 441.37 226.919C441.032 226.76 440.763 226.531 440.564 226.233C440.365 225.932 440.266 225.568 440.266 225.142C440.266 224.767 440.34 224.463 440.488 224.23C440.635 223.994 440.833 223.81 441.08 223.676C441.327 223.543 441.6 223.443 441.898 223.378C442.199 223.31 442.502 223.256 442.806 223.216C443.203 223.165 443.526 223.126 443.773 223.101C444.023 223.072 444.205 223.026 444.319 222.96C444.435 222.895 444.493 222.781 444.493 222.619V222.585C444.493 222.165 444.378 221.838 444.148 221.605C443.921 221.372 443.576 221.256 443.113 221.256C442.632 221.256 442.256 221.361 441.983 221.571C441.711 221.781 441.519 222.006 441.408 222.244L440.453 221.903C440.624 221.506 440.851 221.196 441.135 220.974C441.422 220.75 441.735 220.594 442.073 220.506C442.414 220.415 442.749 220.369 443.078 220.369C443.289 220.369 443.53 220.395 443.803 220.446C444.078 220.494 444.344 220.595 444.6 220.749C444.858 220.902 445.073 221.134 445.243 221.443C445.414 221.753 445.499 222.168 445.499 222.688V227H444.493V226.114H444.442C444.374 226.256 444.26 226.408 444.101 226.57C443.942 226.732 443.73 226.869 443.466 226.983C443.202 227.097 442.88 227.153 442.499 227.153ZM442.652 226.25C443.05 226.25 443.385 226.172 443.658 226.016C443.934 225.859 444.141 225.658 444.28 225.411C444.422 225.163 444.493 224.903 444.493 224.631V223.71C444.451 223.761 444.357 223.808 444.212 223.851C444.07 223.891 443.905 223.926 443.718 223.957C443.533 223.986 443.353 224.011 443.176 224.034C443.003 224.054 442.863 224.071 442.755 224.085C442.493 224.119 442.249 224.175 442.022 224.251C441.797 224.325 441.615 224.437 441.476 224.588C441.34 224.736 441.272 224.937 441.272 225.193C441.272 225.543 441.401 225.807 441.659 225.986C441.921 226.162 442.252 226.25 442.652 226.25ZM450.181 220.455V221.307H446.789V220.455H450.181ZM447.778 218.886H448.783V225.125C448.783 225.409 448.825 225.622 448.907 225.764C448.992 225.903 449.1 225.997 449.231 226.045C449.364 226.091 449.505 226.114 449.653 226.114C449.763 226.114 449.854 226.108 449.925 226.097C449.996 226.082 450.053 226.071 450.096 226.062L450.3 226.966C450.232 226.991 450.137 227.017 450.015 227.043C449.893 227.071 449.738 227.085 449.55 227.085C449.266 227.085 448.988 227.024 448.715 226.902C448.445 226.78 448.221 226.594 448.042 226.344C447.866 226.094 447.778 225.778 447.778 225.398V218.886Z" fill="black" fill-opacity="0.4"/>
<rect x="92" y="108" width="18" height="68" rx="9" fill="url(#paint0_linear_24476_69641)"/>
<rect x="164" y="87" width="18" height="101" rx="9" fill="url(#paint1_linear_24476_69641)"/>
<rect x="236" y="116" width="18" height="67" rx="9" fill="url(#paint2_linear_24476_69641)"/>
<rect x="308" y="112" width="18" height="47" rx="9" fill="url(#paint3_linear_24476_69641)"/>
<rect x="380" y="96" width="18" height="100" rx="9" fill="url(#paint4_linear_24476_69641)"/>
<rect x="452" y="119" width="18" height="50" rx="9" fill="url(#paint5_linear_24476_69641)"/>
<line x1="86" y1="149.5" x2="496" y2="149.5" stroke="black" stroke-opacity="0.2"/>
<rect x="24" y="140" width="55" height="20" rx="4" fill="black" fill-opacity="0.8"/>
<path d="M29.4148 154H28.3068L31.5114 145.273H32.6023L35.8068 154H34.6989L32.0909 146.653H32.0227L29.4148 154ZM29.8239 150.591H34.2898V151.528H29.8239V150.591ZM41.5618 147.455L39.1413 154H38.1186L35.6982 147.455H36.7891L38.5959 152.67H38.6641L40.4709 147.455H41.5618ZM45.2969 156.591C44.8111 156.591 44.3935 156.528 44.044 156.403C43.6946 156.281 43.4034 156.119 43.1705 155.918C42.9403 155.719 42.7571 155.506 42.6207 155.278L43.4219 154.716C43.5128 154.835 43.6278 154.972 43.767 155.125C43.9063 155.281 44.0966 155.416 44.3381 155.53C44.5824 155.646 44.902 155.705 45.2969 155.705C45.8253 155.705 46.2614 155.577 46.6051 155.321C46.9489 155.065 47.1207 154.665 47.1207 154.119V152.79H47.0355C46.9616 152.909 46.8565 153.057 46.7202 153.233C46.5866 153.406 46.3935 153.561 46.1406 153.697C45.8906 153.831 45.5526 153.898 45.1264 153.898C44.598 153.898 44.1236 153.773 43.7031 153.523C43.2855 153.273 42.9545 152.909 42.7102 152.432C42.4688 151.955 42.348 151.375 42.348 150.693C42.348 150.023 42.4659 149.439 42.7017 148.942C42.9375 148.442 43.2656 148.055 43.6861 147.783C44.1065 147.507 44.5923 147.369 45.1435 147.369C45.5696 147.369 45.9077 147.44 46.1577 147.582C46.4105 147.722 46.6037 147.881 46.7372 148.06C46.8736 148.236 46.9787 148.381 47.0526 148.494H47.1548V147.455H48.1264V154.188C48.1264 154.75 47.9986 155.207 47.7429 155.56C47.4901 155.915 47.1491 156.175 46.7202 156.339C46.294 156.507 45.8196 156.591 45.2969 156.591ZM45.2628 152.994C45.6662 152.994 46.0071 152.902 46.2855 152.717C46.5639 152.533 46.7756 152.267 46.9205 151.92C47.0653 151.574 47.1378 151.159 47.1378 150.676C47.1378 150.205 47.0668 149.788 46.9247 149.428C46.7827 149.067 46.5724 148.784 46.294 148.58C46.0156 148.375 45.6719 148.273 45.2628 148.273C44.8366 148.273 44.4815 148.381 44.1974 148.597C43.9162 148.812 43.7045 149.102 43.5625 149.466C43.4233 149.83 43.3537 150.233 43.3537 150.676C43.3537 151.131 43.4247 151.533 43.5668 151.882C43.7116 152.229 43.9247 152.501 44.206 152.7C44.4901 152.896 44.8423 152.994 45.2628 152.994ZM50.7003 154.068C50.4901 154.068 50.3097 153.993 50.1591 153.842C50.0085 153.692 49.9332 153.511 49.9332 153.301C49.9332 153.091 50.0085 152.911 50.1591 152.76C50.3097 152.609 50.4901 152.534 50.7003 152.534C50.9105 152.534 51.0909 152.609 51.2415 152.76C51.392 152.911 51.4673 153.091 51.4673 153.301C51.4673 153.44 51.4318 153.568 51.3608 153.685C51.2926 153.801 51.2003 153.895 51.0838 153.966C50.9702 154.034 50.8423 154.068 50.7003 154.068ZM59.6982 145.273V154H58.6413V146.381H58.5902L56.4595 147.795V146.722L58.6413 145.273H59.6982ZM65.2763 145.273V154H64.2195V146.381H64.1683L62.0376 147.795V146.722L64.2195 145.273H65.2763ZM70.6328 154.119C69.9908 154.119 69.4439 153.945 68.9922 153.595C68.5405 153.243 68.1953 152.733 67.9567 152.065C67.718 151.395 67.5987 150.585 67.5987 149.636C67.5987 148.693 67.718 147.888 67.9567 147.22C68.1982 146.55 68.5447 146.038 68.9964 145.686C69.451 145.331 69.9964 145.153 70.6328 145.153C71.2692 145.153 71.8132 145.331 72.2649 145.686C72.7195 146.038 73.0661 146.55 73.3047 147.22C73.5462 147.888 73.6669 148.693 73.6669 149.636C73.6669 150.585 73.5476 151.395 73.3089 152.065C73.0703 152.733 72.7251 153.243 72.2734 153.595C71.8217 153.945 71.2749 154.119 70.6328 154.119ZM70.6328 153.182C71.2692 153.182 71.7635 152.875 72.1158 152.261C72.468 151.648 72.6442 150.773 72.6442 149.636C72.6442 148.881 72.5632 148.237 72.4013 147.706C72.2422 147.175 72.0121 146.77 71.7109 146.491C71.4126 146.213 71.0533 146.074 70.6328 146.074C70.0021 146.074 69.5092 146.385 69.1541 147.007C68.799 147.626 68.6214 148.503 68.6214 149.636C68.6214 150.392 68.701 151.034 68.8601 151.562C69.0192 152.091 69.2479 152.493 69.5462 152.768C69.8473 153.044 70.2095 153.182 70.6328 153.182Z" fill="white"/>
<path fill-rule="evenodd" clip-rule="evenodd" d="M75 160H77.0996C78.3021 160 79.4408 159.459 80.2005 158.527L85.0898 152.527C86.2887 151.056 86.2887 148.944 85.0898 147.473L80.2005 141.473C79.4408 140.541 78.3021 140 77.0996 140H75C77.2091 140 79 141.791 79 144V156C79 158.209 77.2091 160 75 160Z" fill="black" fill-opacity="0.8"/>
<circle cx="173" cy="96" r="3" fill="#F7F9FB"/>
<circle cx="389" cy="187" r="3" fill="#F7F9FB"/>
<defs>
<linearGradient id="paint0_linear_24476_69641" x1="101" y1="108" x2="101" y2="176" gradientUnits="userSpaceOnUse">
<stop stop-color="#C6C7F8"/>
<stop offset="1" stop-color="#C6C7F8" stop-opacity="0.8"/>
</linearGradient>
<linearGradient id="paint1_linear_24476_69641" x1="173" y1="87" x2="173" y2="188" gradientUnits="userSpaceOnUse">
<stop stop-color="#1C1C1C"/>
<stop offset="1" stop-color="#1C1C1C" stop-opacity="0.8"/>
</linearGradient>
<linearGradient id="paint2_linear_24476_69641" x1="245" y1="116" x2="245" y2="183" gradientUnits="userSpaceOnUse">
<stop stop-color="#C6C7F8"/>
<stop offset="1" stop-color="#C6C7F8" stop-opacity="0.8"/>
</linearGradient>
<linearGradient id="paint3_linear_24476_69641" x1="317" y1="112" x2="317" y2="159" gradientUnits="userSpaceOnUse">
<stop stop-color="#1C1C1C"/>
<stop offset="1" stop-color="#1C1C1C" stop-opacity="0.8"/>
</linearGradient>
<linearGradient id="paint4_linear_24476_69641" x1="389" y1="96" x2="389" y2="196" gradientUnits="userSpaceOnUse">
<stop stop-color="#C6C7F8"/>
<stop offset="1" stop-color="#C6C7F8" stop-opacity="0.8"/>
</linearGradient>
<linearGradient id="paint5_linear_24476_69641" x1="461" y1="119" x2="461" y2="169" gradientUnits="userSpaceOnUse">
<stop stop-color="#1C1C1C"/>
<stop offset="1" stop-color="#1C1C1C" stop-opacity="0.8"/>
</linearGradient>
</defs>
</svg>
