<svg width="520" height="260" viewBox="0 0 520 260" fill="none" xmlns="http://www.w3.org/2000/svg">
<rect width="520" height="260" rx="16" fill="#F7F9FB"/>
<path d="M25.0043 39V28.8182H28.902C29.6378 28.8182 30.2493 28.9342 30.7365 29.1662C31.227 29.3949 31.5933 29.7081 31.8352 30.1058C32.0805 30.5036 32.2031 30.9543 32.2031 31.4581C32.2031 31.8724 32.1236 32.227 31.9645 32.522C31.8054 32.8137 31.5916 33.0507 31.3232 33.233C31.0547 33.4152 30.7547 33.5462 30.4233 33.6257V33.7251C30.7846 33.745 31.1309 33.8561 31.4624 34.0582C31.7971 34.2571 32.0705 34.5388 32.2827 34.9034C32.4948 35.268 32.6009 35.7088 32.6009 36.2259C32.6009 36.7528 32.4732 37.2268 32.218 37.6477C31.9628 38.0653 31.5784 38.3951 31.0646 38.6371C30.5509 38.879 29.9046 39 29.1257 39H25.0043ZM26.8487 37.4588H28.8324C29.5019 37.4588 29.9841 37.3312 30.2791 37.076C30.5774 36.8175 30.7266 36.486 30.7266 36.0817C30.7266 35.7801 30.652 35.5083 30.5028 35.2663C30.3537 35.0211 30.1416 34.8288 29.8665 34.6896C29.5914 34.5471 29.2633 34.4759 28.8821 34.4759H26.8487V37.4588ZM26.8487 33.1484H28.6733C28.9915 33.1484 29.2782 33.0904 29.5334 32.9744C29.7886 32.8551 29.9891 32.6877 30.1349 32.4723C30.2841 32.2536 30.3587 31.995 30.3587 31.6967C30.3587 31.3023 30.2195 30.9775 29.9411 30.7223C29.666 30.4671 29.2566 30.3395 28.7131 30.3395H26.8487V33.1484ZM36.3233 39.1541C35.8394 39.1541 35.4036 39.0679 35.0158 38.8956C34.6313 38.7199 34.3264 38.4614 34.101 38.12C33.879 37.7786 33.7679 37.3577 33.7679 36.8572C33.7679 36.4264 33.8475 36.0701 34.0066 35.7884C34.1657 35.5066 34.3828 35.2812 34.6578 35.1122C34.9329 34.9432 35.2428 34.8156 35.5875 34.7294C35.9355 34.6399 36.2952 34.5753 36.6664 34.5355C37.1138 34.4891 37.4767 34.4477 37.7551 34.4112C38.0336 34.3714 38.2357 34.3118 38.3617 34.2322C38.4909 34.1494 38.5556 34.0218 38.5556 33.8494V33.8196C38.5556 33.4451 38.4445 33.1551 38.2225 32.9496C38.0004 32.7441 37.6806 32.6413 37.263 32.6413C36.8221 32.6413 36.4725 32.7375 36.214 32.9297C35.9587 33.1219 35.7864 33.349 35.6969 33.6108L34.0165 33.3722C34.1491 32.9081 34.3678 32.5204 34.6728 32.2088C34.9777 31.8939 35.3506 31.6586 35.7914 31.5028C36.2322 31.3438 36.7194 31.2642 37.253 31.2642C37.6209 31.2642 37.9872 31.3073 38.3517 31.3935C38.7163 31.4796 39.0494 31.6222 39.351 31.821C39.6526 32.0166 39.8946 32.2834 40.0769 32.6214C40.2625 32.9595 40.3553 33.3821 40.3553 33.8892V39H38.6252V37.951H38.5655C38.4561 38.1631 38.302 38.362 38.1032 38.5476C37.9076 38.7299 37.6607 38.8774 37.3624 38.9901C37.0674 39.0994 36.7211 39.1541 36.3233 39.1541ZM36.7907 37.8317C37.1519 37.8317 37.4651 37.7604 37.7303 37.6179C37.9954 37.4721 38.1993 37.2798 38.3418 37.0412C38.4876 36.8026 38.5605 36.5424 38.5605 36.2607V35.3608C38.5042 35.4072 38.4081 35.4503 38.2722 35.4901C38.1396 35.5298 37.9905 35.5646 37.8248 35.5945C37.659 35.6243 37.495 35.6508 37.3326 35.674C37.1702 35.6972 37.0293 35.7171 36.91 35.7337C36.6415 35.7701 36.4012 35.8298 36.1891 35.9126C35.977 35.9955 35.8096 36.1115 35.687 36.2607C35.5643 36.4065 35.503 36.5954 35.503 36.8274C35.503 37.1589 35.624 37.4091 35.8659 37.5781C36.1079 37.7472 36.4161 37.8317 36.7907 37.8317ZM42.165 39V31.3636H43.91V32.6364H43.9895C44.1287 32.1955 44.3674 31.8558 44.7054 31.6172C45.0468 31.3752 45.4363 31.2543 45.8738 31.2543C45.9732 31.2543 46.0842 31.2592 46.2069 31.2692C46.3328 31.2758 46.4372 31.2874 46.5201 31.304V32.9595C46.4438 32.933 46.3229 32.9098 46.1571 32.8899C45.9947 32.8667 45.8373 32.8551 45.6848 32.8551C45.3567 32.8551 45.0617 32.9264 44.7999 33.0689C44.5414 33.2081 44.3375 33.402 44.1884 33.6506C44.0392 33.8991 43.9647 34.1858 43.9647 34.5107V39H42.165ZM54.5194 39.1491C53.757 39.1491 53.1025 38.9818 52.5556 38.647C52.012 38.3123 51.5927 37.8499 51.2978 37.2599C51.0061 36.6667 50.8603 35.9839 50.8603 35.2116C50.8603 34.4361 51.0094 33.7517 51.3077 33.1584C51.606 32.5618 52.0269 32.0978 52.5705 31.7663C53.1174 31.4316 53.7637 31.2642 54.5094 31.2642C55.1292 31.2642 55.6777 31.3786 56.155 31.6072C56.6356 31.8326 57.0184 32.1525 57.3034 32.5668C57.5885 32.9777 57.7509 33.4583 57.7907 34.0085H56.0705C56.0009 33.6406 55.8352 33.334 55.5733 33.0888C55.3148 32.8402 54.9685 32.7159 54.5343 32.7159C54.1664 32.7159 53.8432 32.8153 53.5648 33.0142C53.2864 33.2098 53.0693 33.4915 52.9135 33.8594C52.7611 34.2273 52.6848 34.6681 52.6848 35.1818C52.6848 35.7022 52.7611 36.1496 52.9135 36.5241C53.066 36.8954 53.2798 37.1821 53.5549 37.3842C53.8333 37.5831 54.1597 37.6825 54.5343 37.6825C54.7994 37.6825 55.0364 37.6328 55.2452 37.5334C55.4573 37.4306 55.6346 37.2831 55.7772 37.0909C55.9197 36.8987 56.0175 36.665 56.0705 36.3899H57.7907C57.7476 36.9302 57.5885 37.4091 57.3134 37.8267C57.0383 38.241 56.6638 38.5658 56.1898 38.8011C55.7159 39.0331 55.159 39.1491 54.5194 39.1491ZM61.0682 34.5256V39H59.2685V28.8182H61.0284V32.6612H61.1179C61.2969 32.2304 61.5736 31.8906 61.9482 31.642C62.326 31.3902 62.8066 31.2642 63.3899 31.2642C63.9202 31.2642 64.3826 31.3752 64.777 31.5973C65.1714 31.8194 65.4763 32.1442 65.6918 32.5717C65.9105 32.9993 66.0199 33.5213 66.0199 34.1378V39H64.2202V34.4162C64.2202 33.9025 64.0876 33.5031 63.8224 33.218C63.5606 32.9297 63.1927 32.7855 62.7188 32.7855C62.4006 32.7855 62.1155 32.8551 61.8636 32.9943C61.6151 33.1302 61.4195 33.3274 61.277 33.5859C61.1378 33.8445 61.0682 34.1577 61.0682 34.5256ZM70.0518 39.1541C69.5679 39.1541 69.1321 39.0679 68.7443 38.8956C68.3598 38.7199 68.0549 38.4614 67.8295 38.12C67.6075 37.7786 67.4964 37.3577 67.4964 36.8572C67.4964 36.4264 67.576 36.0701 67.7351 35.7884C67.8942 35.5066 68.1113 35.2812 68.3864 35.1122C68.6615 34.9432 68.9714 34.8156 69.3161 34.7294C69.6641 34.6399 70.0237 34.5753 70.3949 34.5355C70.8423 34.4891 71.2053 34.4477 71.4837 34.4112C71.7621 34.3714 71.9643 34.3118 72.0902 34.2322C72.2195 34.1494 72.2841 34.0218 72.2841 33.8494V33.8196C72.2841 33.4451 72.1731 33.1551 71.951 32.9496C71.7289 32.7441 71.4091 32.6413 70.9915 32.6413C70.5507 32.6413 70.201 32.7375 69.9425 32.9297C69.6873 33.1219 69.5149 33.349 69.4254 33.6108L67.745 33.3722C67.8776 32.9081 68.0964 32.5204 68.4013 32.2088C68.7062 31.8939 69.0791 31.6586 69.5199 31.5028C69.9607 31.3438 70.4479 31.2642 70.9815 31.2642C71.3494 31.2642 71.7157 31.3073 72.0803 31.3935C72.4448 31.4796 72.7779 31.6222 73.0795 31.821C73.3812 32.0166 73.6231 32.2834 73.8054 32.6214C73.991 32.9595 74.0838 33.3821 74.0838 33.8892V39H72.3537V37.951H72.294C72.1847 38.1631 72.0305 38.362 71.8317 38.5476C71.6361 38.7299 71.3892 38.8774 71.0909 38.9901C70.7959 39.0994 70.4496 39.1541 70.0518 39.1541ZM70.5192 37.8317C70.8804 37.8317 71.1937 37.7604 71.4588 37.6179C71.724 37.4721 71.9278 37.2798 72.0703 37.0412C72.2161 36.8026 72.2891 36.5424 72.2891 36.2607V35.3608C72.2327 35.4072 72.1366 35.4503 72.0007 35.4901C71.8681 35.5298 71.719 35.5646 71.5533 35.5945C71.3875 35.6243 71.2235 35.6508 71.0611 35.674C70.8987 35.6972 70.7578 35.7171 70.6385 35.7337C70.37 35.7701 70.1297 35.8298 69.9176 35.9126C69.7055 35.9955 69.5381 36.1115 69.4155 36.2607C69.2929 36.4065 69.2315 36.5954 69.2315 36.8274C69.2315 37.1589 69.3525 37.4091 69.5945 37.5781C69.8364 37.7472 70.1446 37.8317 70.5192 37.8317ZM75.8935 39V31.3636H77.6385V32.6364H77.718C77.8572 32.1955 78.0959 31.8558 78.4339 31.6172C78.7753 31.3752 79.1648 31.2543 79.6023 31.2543C79.7017 31.2543 79.8127 31.2592 79.9354 31.2692C80.0613 31.2758 80.1657 31.2874 80.2486 31.304V32.9595C80.1723 32.933 80.0514 32.9098 79.8857 32.8899C79.7232 32.8667 79.5658 32.8551 79.4134 32.8551C79.0852 32.8551 78.7902 32.9264 78.5284 33.0689C78.2699 33.2081 78.0661 33.402 77.9169 33.6506C77.7678 33.8991 77.6932 34.1858 77.6932 34.5107V39H75.8935ZM85.6676 31.3636V32.7557H81.2777V31.3636H85.6676ZM82.3615 29.5341H84.1612V36.7031C84.1612 36.9451 84.1977 37.1307 84.2706 37.2599C84.3468 37.3859 84.4463 37.4721 84.5689 37.5185C84.6915 37.5649 84.8274 37.5881 84.9766 37.5881C85.0893 37.5881 85.192 37.5798 85.2848 37.5632C85.3809 37.5466 85.4538 37.5317 85.5036 37.5185L85.8068 38.9254C85.7107 38.9586 85.5732 38.995 85.3942 39.0348C85.2185 39.0746 85.0031 39.0978 84.7479 39.1044C84.2971 39.1177 83.8911 39.0497 83.5298 38.9006C83.1686 38.7481 82.8819 38.5128 82.6697 38.1946C82.4609 37.8764 82.3582 37.4787 82.3615 37.0014V29.5341Z" fill="#1C1C1C"/>
<path d="M28.2116 80.1193C27.6491 80.1193 27.1477 80.0227 26.7074 79.8295C26.2699 79.6364 25.9219 79.3679 25.6634 79.0241C25.4077 78.6776 25.2685 78.2756 25.2457 77.8182H26.3196C26.3423 78.0994 26.4389 78.3423 26.6094 78.5469C26.7798 78.7486 27.0028 78.9048 27.2784 79.0156C27.554 79.1264 27.8594 79.1818 28.1946 79.1818C28.5696 79.1818 28.902 79.1165 29.1918 78.9858C29.4815 78.8551 29.7088 78.6733 29.8736 78.4403C30.0384 78.2074 30.1207 77.9375 30.1207 77.6307C30.1207 77.3097 30.0412 77.027 29.8821 76.7827C29.723 76.5355 29.4901 76.3423 29.1832 76.2031C28.8764 76.0639 28.5014 75.9943 28.0582 75.9943H27.3594V75.0568H28.0582C28.4048 75.0568 28.7088 74.9943 28.9702 74.8693C29.2344 74.7443 29.4403 74.5682 29.5881 74.3409C29.7386 74.1136 29.8139 73.8466 29.8139 73.5398C29.8139 73.2443 29.7486 72.9872 29.6179 72.7685C29.4872 72.5497 29.3026 72.3793 29.0639 72.2571C28.8281 72.1349 28.5497 72.0739 28.2287 72.0739C27.9276 72.0739 27.6435 72.1293 27.3764 72.2401C27.1122 72.348 26.8963 72.5057 26.7287 72.7131C26.5611 72.9176 26.4702 73.1648 26.456 73.4545H25.4332C25.4503 72.9972 25.5881 72.5966 25.8466 72.2528C26.1051 71.9062 26.4432 71.6364 26.8608 71.4432C27.2813 71.25 27.7429 71.1534 28.2457 71.1534C28.7855 71.1534 29.2486 71.2628 29.6349 71.4815C30.0213 71.6974 30.3182 71.983 30.5256 72.3381C30.733 72.6932 30.8366 73.0767 30.8366 73.4886C30.8366 73.9801 30.7074 74.3991 30.4489 74.7457C30.1932 75.0923 29.8452 75.3324 29.4048 75.4659V75.5341C29.956 75.625 30.3864 75.8594 30.696 76.2372C31.0057 76.6122 31.1605 77.0767 31.1605 77.6307C31.1605 78.1051 31.0313 78.5312 30.7727 78.9091C30.517 79.2841 30.1676 79.5795 29.7244 79.7955C29.2813 80.0114 28.777 80.1193 28.2116 80.1193ZM35.75 80.1193C35.108 80.1193 34.5611 79.9446 34.1094 79.5952C33.6577 79.2429 33.3125 78.733 33.0739 78.0653C32.8352 77.3949 32.7159 76.5852 32.7159 75.6364C32.7159 74.6932 32.8352 73.8878 33.0739 73.2202C33.3153 72.5497 33.6619 72.0384 34.1136 71.6861C34.5682 71.331 35.1136 71.1534 35.75 71.1534C36.3864 71.1534 36.9304 71.331 37.3821 71.6861C37.8366 72.0384 38.1832 72.5497 38.4219 73.2202C38.6634 73.8878 38.7841 74.6932 38.7841 75.6364C38.7841 76.5852 38.6648 77.3949 38.4261 78.0653C38.1875 78.733 37.8423 79.2429 37.3906 79.5952C36.9389 79.9446 36.392 80.1193 35.75 80.1193ZM35.75 79.1818C36.3864 79.1818 36.8807 78.875 37.233 78.2614C37.5852 77.6477 37.7614 76.7727 37.7614 75.6364C37.7614 74.8807 37.6804 74.2372 37.5185 73.706C37.3594 73.1747 37.1293 72.7699 36.8281 72.4915C36.5298 72.2131 36.1705 72.0739 35.75 72.0739C35.1193 72.0739 34.6264 72.3849 34.2713 73.0071C33.9162 73.6264 33.7386 74.5028 33.7386 75.6364C33.7386 76.392 33.8182 77.0341 33.9773 77.5625C34.1364 78.0909 34.3651 78.4929 34.6634 78.7685C34.9645 79.044 35.3267 79.1818 35.75 79.1818ZM43.25 80.1193C42.608 80.1193 42.0611 79.9446 41.6094 79.5952C41.1577 79.2429 40.8125 78.733 40.5739 78.0653C40.3352 77.3949 40.2159 76.5852 40.2159 75.6364C40.2159 74.6932 40.3352 73.8878 40.5739 73.2202C40.8153 72.5497 41.1619 72.0384 41.6136 71.6861C42.0682 71.331 42.6136 71.1534 43.25 71.1534C43.8864 71.1534 44.4304 71.331 44.8821 71.6861C45.3366 72.0384 45.6832 72.5497 45.9219 73.2202C46.1634 73.8878 46.2841 74.6932 46.2841 75.6364C46.2841 76.5852 46.1648 77.3949 45.9261 78.0653C45.6875 78.733 45.3423 79.2429 44.8906 79.5952C44.4389 79.9446 43.892 80.1193 43.25 80.1193ZM43.25 79.1818C43.8864 79.1818 44.3807 78.875 44.733 78.2614C45.0852 77.6477 45.2614 76.7727 45.2614 75.6364C45.2614 74.8807 45.1804 74.2372 45.0185 73.706C44.8594 73.1747 44.6293 72.7699 44.3281 72.4915C44.0298 72.2131 43.6705 72.0739 43.25 72.0739C42.6193 72.0739 42.1264 72.3849 41.7713 73.0071C41.4162 73.6264 41.2386 74.5028 41.2386 75.6364C41.2386 76.392 41.3182 77.0341 41.4773 77.5625C41.6364 78.0909 41.8651 78.4929 42.1634 78.7685C42.4645 79.044 42.8267 79.1818 43.25 79.1818Z" fill="black" fill-opacity="0.4"/>
<path d="M25.6378 119V118.233L28.5185 115.08C28.8565 114.71 29.1349 114.389 29.3537 114.116C29.5724 113.841 29.7344 113.582 29.8395 113.341C29.9474 113.097 30.0014 112.841 30.0014 112.574C30.0014 112.267 29.9276 112.001 29.7798 111.777C29.6349 111.553 29.4361 111.379 29.1832 111.257C28.9304 111.135 28.6463 111.074 28.331 111.074C27.9957 111.074 27.7031 111.143 27.4531 111.283C27.206 111.419 27.0142 111.611 26.8778 111.858C26.7443 112.105 26.6776 112.395 26.6776 112.727H25.6719C25.6719 112.216 25.7898 111.767 26.0256 111.381C26.2614 110.994 26.5824 110.693 26.9886 110.477C27.3977 110.261 27.8565 110.153 28.3651 110.153C28.8764 110.153 29.3295 110.261 29.7244 110.477C30.1193 110.693 30.429 110.984 30.6534 111.351C30.8778 111.717 30.9901 112.125 30.9901 112.574C30.9901 112.895 30.9318 113.209 30.8153 113.516C30.7017 113.82 30.5028 114.159 30.2188 114.534C29.9375 114.906 29.5469 115.361 29.0469 115.898L27.0866 117.994V118.062H31.1435V119H25.6378ZM35.75 119.119C35.108 119.119 34.5611 118.945 34.1094 118.595C33.6577 118.243 33.3125 117.733 33.0739 117.065C32.8352 116.395 32.7159 115.585 32.7159 114.636C32.7159 113.693 32.8352 112.888 33.0739 112.22C33.3153 111.55 33.6619 111.038 34.1136 110.686C34.5682 110.331 35.1136 110.153 35.75 110.153C36.3864 110.153 36.9304 110.331 37.3821 110.686C37.8366 111.038 38.1832 111.55 38.4219 112.22C38.6634 112.888 38.7841 113.693 38.7841 114.636C38.7841 115.585 38.6648 116.395 38.4261 117.065C38.1875 117.733 37.8423 118.243 37.3906 118.595C36.9389 118.945 36.392 119.119 35.75 119.119ZM35.75 118.182C36.3864 118.182 36.8807 117.875 37.233 117.261C37.5852 116.648 37.7614 115.773 37.7614 114.636C37.7614 113.881 37.6804 113.237 37.5185 112.706C37.3594 112.175 37.1293 111.77 36.8281 111.491C36.5298 111.213 36.1705 111.074 35.75 111.074C35.1193 111.074 34.6264 111.385 34.2713 112.007C33.9162 112.626 33.7386 113.503 33.7386 114.636C33.7386 115.392 33.8182 116.034 33.9773 116.562C34.1364 117.091 34.3651 117.493 34.6634 117.768C34.9645 118.044 35.3267 118.182 35.75 118.182ZM43.25 119.119C42.608 119.119 42.0611 118.945 41.6094 118.595C41.1577 118.243 40.8125 117.733 40.5739 117.065C40.3352 116.395 40.2159 115.585 40.2159 114.636C40.2159 113.693 40.3352 112.888 40.5739 112.22C40.8153 111.55 41.1619 111.038 41.6136 110.686C42.0682 110.331 42.6136 110.153 43.25 110.153C43.8864 110.153 44.4304 110.331 44.8821 110.686C45.3366 111.038 45.6832 111.55 45.9219 112.22C46.1634 112.888 46.2841 113.693 46.2841 114.636C46.2841 115.585 46.1648 116.395 45.9261 117.065C45.6875 117.733 45.3423 118.243 44.8906 118.595C44.4389 118.945 43.892 119.119 43.25 119.119ZM43.25 118.182C43.8864 118.182 44.3807 117.875 44.733 117.261C45.0852 116.648 45.2614 115.773 45.2614 114.636C45.2614 113.881 45.1804 113.237 45.0185 112.706C44.8594 112.175 44.6293 111.77 44.3281 111.491C44.0298 111.213 43.6705 111.074 43.25 111.074C42.6193 111.074 42.1264 111.385 41.7713 112.007C41.4162 112.626 41.2386 113.503 41.2386 114.636C41.2386 115.392 41.3182 116.034 41.4773 116.562C41.6364 117.091 41.8651 117.493 42.1634 117.768C42.4645 118.044 42.8267 118.182 43.25 118.182Z" fill="black" fill-opacity="0.4"/>
<path d="M30.3935 149.273V158H29.3366V150.381H29.2855L27.1548 151.795V150.722L29.3366 149.273H30.3935ZM35.75 158.119C35.108 158.119 34.5611 157.945 34.1094 157.595C33.6577 157.243 33.3125 156.733 33.0739 156.065C32.8352 155.395 32.7159 154.585 32.7159 153.636C32.7159 152.693 32.8352 151.888 33.0739 151.22C33.3153 150.55 33.6619 150.038 34.1136 149.686C34.5682 149.331 35.1136 149.153 35.75 149.153C36.3864 149.153 36.9304 149.331 37.3821 149.686C37.8366 150.038 38.1832 150.55 38.4219 151.22C38.6634 151.888 38.7841 152.693 38.7841 153.636C38.7841 154.585 38.6648 155.395 38.4261 156.065C38.1875 156.733 37.8423 157.243 37.3906 157.595C36.9389 157.945 36.392 158.119 35.75 158.119ZM35.75 157.182C36.3864 157.182 36.8807 156.875 37.233 156.261C37.5852 155.648 37.7614 154.773 37.7614 153.636C37.7614 152.881 37.6804 152.237 37.5185 151.706C37.3594 151.175 37.1293 150.77 36.8281 150.491C36.5298 150.213 36.1705 150.074 35.75 150.074C35.1193 150.074 34.6264 150.385 34.2713 151.007C33.9162 151.626 33.7386 152.503 33.7386 153.636C33.7386 154.392 33.8182 155.034 33.9773 155.562C34.1364 156.091 34.3651 156.493 34.6634 156.768C34.9645 157.044 35.3267 157.182 35.75 157.182ZM43.25 158.119C42.608 158.119 42.0611 157.945 41.6094 157.595C41.1577 157.243 40.8125 156.733 40.5739 156.065C40.3352 155.395 40.2159 154.585 40.2159 153.636C40.2159 152.693 40.3352 151.888 40.5739 151.22C40.8153 150.55 41.1619 150.038 41.6136 149.686C42.0682 149.331 42.6136 149.153 43.25 149.153C43.8864 149.153 44.4304 149.331 44.8821 149.686C45.3366 150.038 45.6832 150.55 45.9219 151.22C46.1634 151.888 46.2841 152.693 46.2841 153.636C46.2841 154.585 46.1648 155.395 45.9261 156.065C45.6875 156.733 45.3423 157.243 44.8906 157.595C44.4389 157.945 43.892 158.119 43.25 158.119ZM43.25 157.182C43.8864 157.182 44.3807 156.875 44.733 156.261C45.0852 155.648 45.2614 154.773 45.2614 153.636C45.2614 152.881 45.1804 152.237 45.0185 151.706C44.8594 151.175 44.6293 150.77 44.3281 150.491C44.0298 150.213 43.6705 150.074 43.25 150.074C42.6193 150.074 42.1264 150.385 41.7713 151.007C41.4162 151.626 41.2386 152.503 41.2386 153.636C41.2386 154.392 41.3182 155.034 41.4773 155.562C41.6364 156.091 41.8651 156.493 42.1634 156.768C42.4645 157.044 42.8267 157.182 43.25 157.182Z" fill="black" fill-opacity="0.4"/>
<path d="M43.25 197.119C42.608 197.119 42.0611 196.945 41.6094 196.595C41.1577 196.243 40.8125 195.733 40.5739 195.065C40.3352 194.395 40.2159 193.585 40.2159 192.636C40.2159 191.693 40.3352 190.888 40.5739 190.22C40.8153 189.55 41.1619 189.038 41.6136 188.686C42.0682 188.331 42.6136 188.153 43.25 188.153C43.8864 188.153 44.4304 188.331 44.8821 188.686C45.3366 189.038 45.6832 189.55 45.9219 190.22C46.1634 190.888 46.2841 191.693 46.2841 192.636C46.2841 193.585 46.1648 194.395 45.9261 195.065C45.6875 195.733 45.3423 196.243 44.8906 196.595C44.4389 196.945 43.892 197.119 43.25 197.119ZM43.25 196.182C43.8864 196.182 44.3807 195.875 44.733 195.261C45.0852 194.648 45.2614 193.773 45.2614 192.636C45.2614 191.881 45.1804 191.237 45.0185 190.706C44.8594 190.175 44.6293 189.77 44.3281 189.491C44.0298 189.213 43.6705 189.074 43.25 189.074C42.6193 189.074 42.1264 189.385 41.7713 190.007C41.4162 190.626 41.2386 191.503 41.2386 192.636C41.2386 193.392 41.3182 194.034 41.4773 194.562C41.6364 195.091 41.8651 195.493 42.1634 195.768C42.4645 196.044 42.8267 196.182 43.25 196.182Z" fill="black" fill-opacity="0.4"/>
<line x1="63.5" y1="82.5" x2="495.5" y2="82.5" stroke="black" stroke-opacity="0.05" stroke-linecap="round"/>
<line x1="63.5" y1="122.167" x2="495.5" y2="122.167" stroke="black" stroke-opacity="0.05" stroke-linecap="round"/>
<line x1="63.5" y1="161.833" x2="495.5" y2="161.833" stroke="black" stroke-opacity="0.05" stroke-linecap="round"/>
<line x1="63.5" y1="201.5" x2="495.5" y2="201.5" stroke="black" stroke-opacity="0.2" stroke-linecap="round"/>
<path d="M69.6707 218.273H70.9321L73.898 225.517H74.0003L76.9662 218.273H78.2276V227H77.2389V220.369H77.1537L74.4264 227H73.4719L70.7446 220.369H70.6594V227H69.6707V218.273ZM82.8693 227.136C82.2783 227.136 81.7599 226.996 81.3139 226.714C80.8707 226.433 80.5241 226.04 80.2741 225.534C80.0269 225.028 79.9033 224.437 79.9033 223.761C79.9033 223.08 80.0269 222.484 80.2741 221.976C80.5241 221.467 80.8707 221.072 81.3139 220.791C81.7599 220.51 82.2783 220.369 82.8693 220.369C83.4602 220.369 83.9772 220.51 84.4204 220.791C84.8664 221.072 85.213 221.467 85.4602 221.976C85.7102 222.484 85.8352 223.08 85.8352 223.761C85.8352 224.437 85.7102 225.028 85.4602 225.534C85.213 226.04 84.8664 226.433 84.4204 226.714C83.9772 226.996 83.4602 227.136 82.8693 227.136ZM82.8693 226.233C83.3181 226.233 83.6874 226.118 83.9772 225.888C84.267 225.658 84.4815 225.355 84.6207 224.98C84.7599 224.605 84.8295 224.199 84.8295 223.761C84.8295 223.324 84.7599 222.916 84.6207 222.538C84.4815 222.161 84.267 221.855 83.9772 221.622C83.6874 221.389 83.3181 221.273 82.8693 221.273C82.4204 221.273 82.0511 221.389 81.7613 221.622C81.4715 221.855 81.257 222.161 81.1178 222.538C80.9786 222.916 80.909 223.324 80.909 223.761C80.909 224.199 80.9786 224.605 81.1178 224.98C81.257 225.355 81.4715 225.658 81.7613 225.888C82.0511 226.118 82.4204 226.233 82.8693 226.233ZM88.376 223.062V227H87.3703V220.455H88.3419V221.477H88.4271C88.5806 221.145 88.8135 220.878 89.126 220.676C89.4385 220.472 89.8419 220.369 90.3362 220.369C90.7794 220.369 91.1672 220.46 91.4996 220.642C91.832 220.821 92.0905 221.094 92.2752 221.46C92.4598 221.824 92.5521 222.284 92.5521 222.841V227H91.5465V222.909C91.5465 222.395 91.4129 221.994 91.1459 221.707C90.8788 221.418 90.5124 221.273 90.0465 221.273C89.7254 221.273 89.4385 221.342 89.1857 221.482C88.9357 221.621 88.7382 221.824 88.5933 222.091C88.4484 222.358 88.376 222.682 88.376 223.062Z" fill="black" fill-opacity="0.4"/>
<path d="M107.321 219.21V218.273H113.867V219.21H111.123V227H110.066V219.21H107.321ZM118.596 224.324V220.455H119.602V227H118.596V225.892H118.528C118.374 226.224 118.136 226.507 117.812 226.74C117.488 226.97 117.079 227.085 116.585 227.085C116.175 227.085 115.812 226.996 115.494 226.817C115.175 226.635 114.925 226.362 114.744 225.999C114.562 225.632 114.471 225.17 114.471 224.614V220.455H115.477V224.545C115.477 225.023 115.61 225.403 115.877 225.688C116.147 225.972 116.491 226.114 116.908 226.114C117.158 226.114 117.413 226.05 117.671 225.922C117.933 225.794 118.151 225.598 118.327 225.334C118.506 225.07 118.596 224.733 118.596 224.324ZM124.188 227.136C123.557 227.136 123.013 226.997 122.556 226.719C122.101 226.438 121.75 226.045 121.503 225.543C121.259 225.037 121.137 224.449 121.137 223.778C121.137 223.108 121.259 222.517 121.503 222.006C121.75 221.491 122.094 221.091 122.534 220.804C122.978 220.514 123.495 220.369 124.086 220.369C124.427 220.369 124.763 220.426 125.096 220.54C125.428 220.653 125.73 220.838 126.003 221.094C126.276 221.347 126.493 221.682 126.655 222.099C126.817 222.517 126.898 223.031 126.898 223.642V224.068H121.853V223.199H125.875C125.875 222.83 125.802 222.5 125.654 222.21C125.509 221.92 125.302 221.692 125.032 221.524C124.765 221.357 124.449 221.273 124.086 221.273C123.685 221.273 123.338 221.372 123.046 221.571C122.756 221.767 122.533 222.023 122.377 222.338C122.221 222.653 122.142 222.991 122.142 223.352V223.932C122.142 224.426 122.228 224.845 122.398 225.189C122.571 225.53 122.811 225.79 123.118 225.969C123.425 226.145 123.782 226.233 124.188 226.233C124.452 226.233 124.691 226.196 124.904 226.122C125.12 226.045 125.306 225.932 125.462 225.781C125.618 225.628 125.739 225.437 125.824 225.21L126.796 225.483C126.694 225.812 126.522 226.102 126.28 226.352C126.039 226.599 125.74 226.793 125.385 226.932C125.03 227.068 124.631 227.136 124.188 227.136Z" fill="black" fill-opacity="0.4"/>
<path d="M143.241 227L140.855 218.273H141.929L143.753 225.381H143.838L145.696 218.273H146.889L148.747 225.381H148.832L150.656 218.273H151.73L149.344 227H148.253L146.327 220.045H146.258L144.332 227H143.241ZM155.045 227.136C154.415 227.136 153.871 226.997 153.413 226.719C152.959 226.438 152.608 226.045 152.361 225.543C152.116 225.037 151.994 224.449 151.994 223.778C151.994 223.108 152.116 222.517 152.361 222.006C152.608 221.491 152.952 221.091 153.392 220.804C153.835 220.514 154.352 220.369 154.943 220.369C155.284 220.369 155.621 220.426 155.953 220.54C156.285 220.653 156.588 220.838 156.861 221.094C157.133 221.347 157.351 221.682 157.513 222.099C157.675 222.517 157.756 223.031 157.756 223.642V224.068H152.71V223.199H156.733C156.733 222.83 156.659 222.5 156.511 222.21C156.366 221.92 156.159 221.692 155.889 221.524C155.622 221.357 155.307 221.273 154.943 221.273C154.542 221.273 154.196 221.372 153.903 221.571C153.613 221.767 153.39 222.023 153.234 222.338C153.078 222.653 153 222.991 153 223.352V223.932C153 224.426 153.085 224.845 153.256 225.189C153.429 225.53 153.669 225.79 153.976 225.969C154.283 226.145 154.639 226.233 155.045 226.233C155.31 226.233 155.548 226.196 155.761 226.122C155.977 226.045 156.163 225.932 156.319 225.781C156.476 225.628 156.596 225.437 156.682 225.21L157.653 225.483C157.551 225.812 157.379 226.102 157.138 226.352C156.896 226.599 156.598 226.793 156.243 226.932C155.888 227.068 155.488 227.136 155.045 227.136ZM161.757 227.136C161.211 227.136 160.73 226.999 160.312 226.723C159.895 226.445 159.568 226.053 159.332 225.547C159.096 225.038 158.979 224.438 158.979 223.744C158.979 223.057 159.096 222.46 159.332 221.955C159.568 221.449 159.896 221.058 160.317 220.783C160.737 220.507 161.223 220.369 161.774 220.369C162.2 220.369 162.537 220.44 162.784 220.582C163.034 220.722 163.224 220.881 163.355 221.06C163.488 221.236 163.592 221.381 163.666 221.494H163.751V218.273H164.757V227H163.785V225.994H163.666C163.592 226.114 163.487 226.264 163.351 226.446C163.214 226.625 163.02 226.786 162.767 226.928C162.514 227.067 162.177 227.136 161.757 227.136ZM161.893 226.233C162.297 226.233 162.638 226.128 162.916 225.918C163.194 225.705 163.406 225.411 163.551 225.036C163.696 224.658 163.768 224.222 163.768 223.727C163.768 223.239 163.697 222.811 163.555 222.445C163.413 222.075 163.203 221.788 162.925 221.584C162.646 221.376 162.302 221.273 161.893 221.273C161.467 221.273 161.112 221.382 160.828 221.601C160.547 221.817 160.335 222.111 160.193 222.483C160.054 222.852 159.984 223.267 159.984 223.727C159.984 224.193 160.055 224.616 160.197 224.997C160.342 225.375 160.555 225.676 160.836 225.901C161.121 226.122 161.473 226.233 161.893 226.233Z" fill="black" fill-opacity="0.4"/>
<path d="M178.99 219.21V218.273H185.536V219.21H182.791V227H181.735V219.21H178.99ZM188.036 223.062V227H187.03V218.273H188.036V221.477H188.121C188.275 221.139 188.505 220.871 188.812 220.672C189.121 220.47 189.533 220.369 190.048 220.369C190.494 220.369 190.884 220.459 191.219 220.638C191.555 220.814 191.815 221.085 191.999 221.452C192.187 221.815 192.28 222.278 192.28 222.841V227H191.275V222.909C191.275 222.389 191.14 221.987 190.87 221.703C190.603 221.416 190.232 221.273 189.758 221.273C189.428 221.273 189.133 221.342 188.871 221.482C188.613 221.621 188.408 221.824 188.258 222.091C188.11 222.358 188.036 222.682 188.036 223.062ZM198.245 224.324V220.455H199.251V227H198.245V225.892H198.177C198.024 226.224 197.785 226.507 197.461 226.74C197.137 226.97 196.728 227.085 196.234 227.085C195.825 227.085 195.461 226.996 195.143 226.817C194.825 226.635 194.575 226.362 194.393 225.999C194.211 225.632 194.12 225.17 194.12 224.614V220.455H195.126V224.545C195.126 225.023 195.26 225.403 195.527 225.688C195.796 225.972 196.14 226.114 196.558 226.114C196.808 226.114 197.062 226.05 197.321 225.922C197.582 225.794 197.801 225.598 197.977 225.334C198.156 225.07 198.245 224.733 198.245 224.324Z" fill="black" fill-opacity="0.4"/>
<path d="M219.289 227V218.273H224.522V219.21H220.346V222.159H224.13V223.097H220.346V227H219.289ZM226.125 227V220.455H227.097V221.443H227.165C227.284 221.119 227.5 220.857 227.813 220.655C228.125 220.453 228.477 220.352 228.87 220.352C228.943 220.352 229.036 220.354 229.147 220.357C229.257 220.359 229.341 220.364 229.398 220.369V221.392C229.364 221.384 229.286 221.371 229.164 221.354C229.044 221.334 228.918 221.324 228.784 221.324C228.466 221.324 228.182 221.391 227.932 221.524C227.685 221.655 227.489 221.837 227.344 222.07C227.202 222.3 227.131 222.562 227.131 222.858V227H226.125ZM230.59 227V220.455H231.596V227H230.59ZM231.101 219.364C230.905 219.364 230.736 219.297 230.594 219.163C230.455 219.03 230.386 218.869 230.386 218.682C230.386 218.494 230.455 218.334 230.594 218.2C230.736 218.067 230.905 218 231.101 218C231.297 218 231.465 218.067 231.604 218.2C231.746 218.334 231.817 218.494 231.817 218.682C231.817 218.869 231.746 219.03 231.604 219.163C231.465 219.297 231.297 219.364 231.101 219.364Z" fill="black" fill-opacity="0.4"/>
<path d="M257.901 220.455C257.85 220.023 257.643 219.688 257.279 219.449C256.916 219.21 256.47 219.091 255.941 219.091C255.555 219.091 255.217 219.153 254.927 219.278C254.64 219.403 254.416 219.575 254.254 219.794C254.095 220.013 254.015 220.261 254.015 220.54C254.015 220.773 254.071 220.973 254.181 221.141C254.295 221.305 254.44 221.443 254.616 221.554C254.792 221.662 254.977 221.751 255.17 221.822C255.363 221.891 255.541 221.946 255.703 221.989L256.589 222.227C256.816 222.287 257.069 222.369 257.348 222.474C257.629 222.58 257.897 222.723 258.153 222.905C258.411 223.084 258.624 223.314 258.792 223.595C258.96 223.876 259.044 224.222 259.044 224.631C259.044 225.102 258.92 225.528 258.673 225.909C258.428 226.29 258.071 226.592 257.599 226.817C257.13 227.041 256.561 227.153 255.89 227.153C255.265 227.153 254.724 227.053 254.267 226.851C253.812 226.649 253.454 226.368 253.193 226.007C252.934 225.646 252.788 225.227 252.754 224.75H253.845C253.873 225.08 253.984 225.352 254.177 225.568C254.373 225.781 254.62 225.94 254.919 226.045C255.22 226.148 255.544 226.199 255.89 226.199C256.294 226.199 256.656 226.134 256.977 226.003C257.298 225.869 257.552 225.685 257.74 225.449C257.927 225.21 258.021 224.932 258.021 224.614C258.021 224.324 257.94 224.088 257.778 223.906C257.616 223.724 257.403 223.577 257.139 223.463C256.874 223.349 256.589 223.25 256.282 223.165L255.208 222.858C254.526 222.662 253.987 222.382 253.589 222.018C253.191 221.655 252.992 221.179 252.992 220.591C252.992 220.102 253.124 219.676 253.389 219.312C253.656 218.946 254.014 218.662 254.463 218.46C254.914 218.256 255.419 218.153 255.975 218.153C256.538 218.153 257.038 218.254 257.475 218.456C257.913 218.655 258.259 218.928 258.515 219.274C258.774 219.621 258.91 220.014 258.924 220.455H257.901ZM262.571 227.153C262.156 227.153 261.78 227.075 261.442 226.919C261.104 226.76 260.835 226.531 260.636 226.233C260.437 225.932 260.338 225.568 260.338 225.142C260.338 224.767 260.412 224.463 260.56 224.23C260.707 223.994 260.905 223.81 261.152 223.676C261.399 223.543 261.672 223.443 261.97 223.378C262.271 223.31 262.574 223.256 262.878 223.216C263.275 223.165 263.598 223.126 263.845 223.101C264.095 223.072 264.277 223.026 264.39 222.96C264.507 222.895 264.565 222.781 264.565 222.619V222.585C264.565 222.165 264.45 221.838 264.22 221.605C263.993 221.372 263.648 221.256 263.185 221.256C262.704 221.256 262.328 221.361 262.055 221.571C261.783 221.781 261.591 222.006 261.48 222.244L260.525 221.903C260.696 221.506 260.923 221.196 261.207 220.974C261.494 220.75 261.807 220.594 262.145 220.506C262.486 220.415 262.821 220.369 263.15 220.369C263.361 220.369 263.602 220.395 263.875 220.446C264.15 220.494 264.416 220.595 264.672 220.749C264.93 220.902 265.145 221.134 265.315 221.443C265.486 221.753 265.571 222.168 265.571 222.688V227H264.565V226.114H264.514C264.446 226.256 264.332 226.408 264.173 226.57C264.014 226.732 263.802 226.869 263.538 226.983C263.274 227.097 262.952 227.153 262.571 227.153ZM262.724 226.25C263.122 226.25 263.457 226.172 263.73 226.016C264.006 225.859 264.213 225.658 264.352 225.411C264.494 225.163 264.565 224.903 264.565 224.631V223.71C264.523 223.761 264.429 223.808 264.284 223.851C264.142 223.891 263.977 223.926 263.79 223.957C263.605 223.986 263.425 224.011 263.248 224.034C263.075 224.054 262.935 224.071 262.827 224.085C262.565 224.119 262.321 224.175 262.094 224.251C261.869 224.325 261.687 224.437 261.548 224.588C261.412 224.736 261.344 224.937 261.344 225.193C261.344 225.543 261.473 225.807 261.731 225.986C261.993 226.162 262.324 226.25 262.724 226.25ZM270.253 220.455V221.307H266.861V220.455H270.253ZM267.85 218.886H268.855V225.125C268.855 225.409 268.897 225.622 268.979 225.764C269.064 225.903 269.172 225.997 269.303 226.045C269.436 226.091 269.577 226.114 269.725 226.114C269.835 226.114 269.926 226.108 269.997 226.097C270.068 226.082 270.125 226.071 270.168 226.062L270.372 226.966C270.304 226.991 270.209 227.017 270.087 227.043C269.965 227.071 269.81 227.085 269.622 227.085C269.338 227.085 269.06 227.024 268.787 226.902C268.517 226.78 268.293 226.594 268.114 226.344C267.938 226.094 267.85 225.778 267.85 225.398V218.886Z" fill="black" fill-opacity="0.4"/>
<path d="M292.549 220.455C292.498 220.023 292.29 219.688 291.927 219.449C291.563 219.21 291.117 219.091 290.589 219.091C290.202 219.091 289.864 219.153 289.575 219.278C289.288 219.403 289.063 219.575 288.901 219.794C288.742 220.013 288.663 220.261 288.663 220.54C288.663 220.773 288.718 220.973 288.829 221.141C288.942 221.305 289.087 221.443 289.263 221.554C289.44 221.662 289.624 221.751 289.817 221.822C290.011 221.891 290.188 221.946 290.35 221.989L291.236 222.227C291.464 222.287 291.717 222.369 291.995 222.474C292.276 222.58 292.545 222.723 292.8 222.905C293.059 223.084 293.272 223.314 293.44 223.595C293.607 223.876 293.691 224.222 293.691 224.631C293.691 225.102 293.567 225.528 293.32 225.909C293.076 226.29 292.718 226.592 292.246 226.817C291.778 227.041 291.208 227.153 290.538 227.153C289.913 227.153 289.371 227.053 288.914 226.851C288.459 226.649 288.102 226.368 287.84 226.007C287.582 225.646 287.435 225.227 287.401 224.75H288.492C288.521 225.08 288.631 225.352 288.825 225.568C289.021 225.781 289.268 225.94 289.566 226.045C289.867 226.148 290.191 226.199 290.538 226.199C290.941 226.199 291.303 226.134 291.624 226.003C291.945 225.869 292.2 225.685 292.387 225.449C292.575 225.21 292.668 224.932 292.668 224.614C292.668 224.324 292.587 224.088 292.425 223.906C292.263 223.724 292.05 223.577 291.786 223.463C291.522 223.349 291.236 223.25 290.93 223.165L289.856 222.858C289.174 222.662 288.634 222.382 288.236 222.018C287.839 221.655 287.64 221.179 287.64 220.591C287.64 220.102 287.772 219.676 288.036 219.312C288.303 218.946 288.661 218.662 289.11 218.46C289.562 218.256 290.066 218.153 290.623 218.153C291.185 218.153 291.685 218.254 292.123 218.456C292.56 218.655 292.907 218.928 293.163 219.274C293.421 219.621 293.557 220.014 293.572 220.455H292.549ZM299.417 224.324V220.455H300.423V227H299.417V225.892H299.349C299.196 226.224 298.957 226.507 298.633 226.74C298.309 226.97 297.9 227.085 297.406 227.085C296.997 227.085 296.633 226.996 296.315 226.817C295.997 226.635 295.747 226.362 295.565 225.999C295.383 225.632 295.292 225.17 295.292 224.614V220.455H296.298V224.545C296.298 225.023 296.431 225.403 296.698 225.688C296.968 225.972 297.312 226.114 297.73 226.114C297.98 226.114 298.234 226.05 298.492 225.922C298.754 225.794 298.973 225.598 299.149 225.334C299.328 225.07 299.417 224.733 299.417 224.324ZM303.271 223.062V227H302.265V220.455H303.236V221.477H303.322C303.475 221.145 303.708 220.878 304.021 220.676C304.333 220.472 304.736 220.369 305.231 220.369C305.674 220.369 306.062 220.46 306.394 220.642C306.727 220.821 306.985 221.094 307.17 221.46C307.354 221.824 307.447 222.284 307.447 222.841V227H306.441V222.909C306.441 222.395 306.307 221.994 306.04 221.707C305.773 221.418 305.407 221.273 304.941 221.273C304.62 221.273 304.333 221.342 304.08 221.482C303.83 221.621 303.633 221.824 303.488 222.091C303.343 222.358 303.271 222.682 303.271 223.062Z" fill="black" fill-opacity="0.4"/>
<path d="M322.254 218.273H323.515L326.481 225.517H326.583L329.549 218.273H330.811V227H329.822V220.369H329.737L327.009 227H326.055L323.328 220.369H323.242V227H322.254V218.273ZM335.452 227.136C334.861 227.136 334.343 226.996 333.897 226.714C333.454 226.433 333.107 226.04 332.857 225.534C332.61 225.028 332.486 224.437 332.486 223.761C332.486 223.08 332.61 222.484 332.857 221.976C333.107 221.467 333.454 221.072 333.897 220.791C334.343 220.51 334.861 220.369 335.452 220.369C336.043 220.369 336.56 220.51 337.003 220.791C337.449 221.072 337.796 221.467 338.043 221.976C338.293 222.484 338.418 223.08 338.418 223.761C338.418 224.437 338.293 225.028 338.043 225.534C337.796 226.04 337.449 226.433 337.003 226.714C336.56 226.996 336.043 227.136 335.452 227.136ZM335.452 226.233C335.901 226.233 336.27 226.118 336.56 225.888C336.85 225.658 337.064 225.355 337.204 224.98C337.343 224.605 337.412 224.199 337.412 223.761C337.412 223.324 337.343 222.916 337.204 222.538C337.064 222.161 336.85 221.855 336.56 221.622C336.27 221.389 335.901 221.273 335.452 221.273C335.003 221.273 334.634 221.389 334.344 221.622C334.055 221.855 333.84 222.161 333.701 222.538C333.562 222.916 333.492 223.324 333.492 223.761C333.492 224.199 333.562 224.605 333.701 224.98C333.84 225.355 334.055 225.658 334.344 225.888C334.634 226.118 335.003 226.233 335.452 226.233ZM340.959 223.062V227H339.953V220.455H340.925V221.477H341.01C341.164 221.145 341.397 220.878 341.709 220.676C342.022 220.472 342.425 220.369 342.919 220.369C343.362 220.369 343.75 220.46 344.083 220.642C344.415 220.821 344.674 221.094 344.858 221.46C345.043 221.824 345.135 222.284 345.135 222.841V227H344.129V222.909C344.129 222.395 343.996 221.994 343.729 221.707C343.462 221.418 343.095 221.273 342.629 221.273C342.308 221.273 342.022 221.342 341.769 221.482C341.519 221.621 341.321 221.824 341.176 222.091C341.031 222.358 340.959 222.682 340.959 223.062Z" fill="black" fill-opacity="0.4"/>
<path d="M359.905 219.21V218.273H366.451V219.21H363.707V227H362.65V219.21H359.905ZM371.18 224.324V220.455H372.186V227H371.18V225.892H371.112C370.958 226.224 370.72 226.507 370.396 226.74C370.072 226.97 369.663 227.085 369.169 227.085C368.759 227.085 368.396 226.996 368.078 226.817C367.759 226.635 367.509 226.362 367.328 225.999C367.146 225.632 367.055 225.17 367.055 224.614V220.455H368.061V224.545C368.061 225.023 368.194 225.403 368.461 225.688C368.731 225.972 369.075 226.114 369.492 226.114C369.742 226.114 369.997 226.05 370.255 225.922C370.517 225.794 370.735 225.598 370.911 225.334C371.09 225.07 371.18 224.733 371.18 224.324ZM376.772 227.136C376.141 227.136 375.597 226.997 375.14 226.719C374.685 226.438 374.334 226.045 374.087 225.543C373.843 225.037 373.721 224.449 373.721 223.778C373.721 223.108 373.843 222.517 374.087 222.006C374.334 221.491 374.678 221.091 375.118 220.804C375.562 220.514 376.079 220.369 376.67 220.369C377.011 220.369 377.347 220.426 377.68 220.54C378.012 220.653 378.314 220.838 378.587 221.094C378.86 221.347 379.077 221.682 379.239 222.099C379.401 222.517 379.482 223.031 379.482 223.642V224.068H374.437V223.199H378.459C378.459 222.83 378.386 222.5 378.238 222.21C378.093 221.92 377.886 221.692 377.616 221.524C377.349 221.357 377.033 221.273 376.67 221.273C376.269 221.273 375.922 221.372 375.63 221.571C375.34 221.767 375.117 222.023 374.961 222.338C374.805 222.653 374.726 222.991 374.726 223.352V223.932C374.726 224.426 374.812 224.845 374.982 225.189C375.155 225.53 375.395 225.79 375.702 225.969C376.009 226.145 376.366 226.233 376.772 226.233C377.036 226.233 377.275 226.196 377.488 226.122C377.704 226.045 377.89 225.932 378.046 225.781C378.202 225.628 378.323 225.437 378.408 225.21L379.38 225.483C379.278 225.812 379.106 226.102 378.864 226.352C378.623 226.599 378.324 226.793 377.969 226.932C377.614 227.068 377.215 227.136 376.772 227.136Z" fill="black" fill-opacity="0.4"/>
<path d="M395.824 227L393.438 218.273H394.512L396.336 225.381H396.421L398.279 218.273H399.472L401.33 225.381H401.415L403.239 218.273H404.313L401.927 227H400.836L398.91 220.045H398.841L396.915 227H395.824ZM407.628 227.136C406.998 227.136 406.454 226.997 405.996 226.719C405.542 226.438 405.191 226.045 404.944 225.543C404.699 225.037 404.577 224.449 404.577 223.778C404.577 223.108 404.699 222.517 404.944 222.006C405.191 221.491 405.535 221.091 405.975 220.804C406.418 220.514 406.935 220.369 407.526 220.369C407.867 220.369 408.204 220.426 408.536 220.54C408.868 220.653 409.171 220.838 409.444 221.094C409.716 221.347 409.934 221.682 410.096 222.099C410.258 222.517 410.339 223.031 410.339 223.642V224.068H405.293V223.199H409.316C409.316 222.83 409.242 222.5 409.094 222.21C408.949 221.92 408.742 221.692 408.472 221.524C408.205 221.357 407.89 221.273 407.526 221.273C407.125 221.273 406.779 221.372 406.486 221.571C406.196 221.767 405.973 222.023 405.817 222.338C405.661 222.653 405.583 222.991 405.583 223.352V223.932C405.583 224.426 405.668 224.845 405.839 225.189C406.012 225.53 406.252 225.79 406.559 225.969C406.866 226.145 407.222 226.233 407.628 226.233C407.893 226.233 408.131 226.196 408.344 226.122C408.56 226.045 408.746 225.932 408.902 225.781C409.059 225.628 409.179 225.437 409.265 225.21L410.236 225.483C410.134 225.812 409.962 226.102 409.721 226.352C409.479 226.599 409.181 226.793 408.826 226.932C408.471 227.068 408.071 227.136 407.628 227.136ZM414.34 227.136C413.795 227.136 413.313 226.999 412.895 226.723C412.478 226.445 412.151 226.053 411.915 225.547C411.679 225.038 411.562 224.438 411.562 223.744C411.562 223.057 411.679 222.46 411.915 221.955C412.151 221.449 412.479 221.058 412.9 220.783C413.32 220.507 413.806 220.369 414.357 220.369C414.783 220.369 415.12 220.44 415.367 220.582C415.617 220.722 415.807 220.881 415.938 221.06C416.071 221.236 416.175 221.381 416.249 221.494H416.334V218.273H417.34V227H416.368V225.994H416.249C416.175 226.114 416.07 226.264 415.934 226.446C415.797 226.625 415.603 226.786 415.35 226.928C415.097 227.067 414.76 227.136 414.34 227.136ZM414.476 226.233C414.88 226.233 415.221 226.128 415.499 225.918C415.777 225.705 415.989 225.411 416.134 225.036C416.279 224.658 416.351 224.222 416.351 223.727C416.351 223.239 416.28 222.811 416.138 222.445C415.996 222.075 415.786 221.788 415.508 221.584C415.229 221.376 414.885 221.273 414.476 221.273C414.05 221.273 413.695 221.382 413.411 221.601C413.13 221.817 412.918 222.111 412.776 222.483C412.637 222.852 412.567 223.267 412.567 223.727C412.567 224.193 412.638 224.616 412.78 224.997C412.925 225.375 413.138 225.676 413.42 225.901C413.704 226.122 414.056 226.233 414.476 226.233Z" fill="black" fill-opacity="0.4"/>
<path d="M431.573 219.21V218.273H438.119V219.21H435.374V227H434.318V219.21H431.573ZM440.619 223.062V227H439.613V218.273H440.619V221.477H440.704C440.858 221.139 441.088 220.871 441.395 220.672C441.704 220.47 442.116 220.369 442.631 220.369C443.077 220.369 443.467 220.459 443.802 220.638C444.138 220.814 444.398 221.085 444.582 221.452C444.77 221.815 444.863 222.278 444.863 222.841V227H443.858V222.909C443.858 222.389 443.723 221.987 443.453 221.703C443.186 221.416 442.815 221.273 442.341 221.273C442.011 221.273 441.716 221.342 441.454 221.482C441.196 221.621 440.991 221.824 440.841 222.091C440.693 222.358 440.619 222.682 440.619 223.062ZM450.828 224.324V220.455H451.834V227H450.828V225.892H450.76C450.607 226.224 450.368 226.507 450.044 226.74C449.72 226.97 449.311 227.085 448.817 227.085C448.408 227.085 448.044 226.996 447.726 226.817C447.408 226.635 447.158 226.362 446.976 225.999C446.794 225.632 446.703 225.17 446.703 224.614V220.455H447.709V224.545C447.709 225.023 447.843 225.403 448.11 225.688C448.379 225.972 448.723 226.114 449.141 226.114C449.391 226.114 449.645 226.05 449.904 225.922C450.165 225.794 450.384 225.598 450.56 225.334C450.739 225.07 450.828 224.733 450.828 224.324Z" fill="black" fill-opacity="0.4"/>
<path d="M471.873 227V218.273H477.106V219.21H472.93V222.159H476.714V223.097H472.93V227H471.873ZM478.709 227V220.455H479.681V221.443H479.749C479.868 221.119 480.084 220.857 480.397 220.655C480.709 220.453 481.061 220.352 481.454 220.352C481.527 220.352 481.62 220.354 481.73 220.357C481.841 220.359 481.925 220.364 481.982 220.369V221.392C481.948 221.384 481.87 221.371 481.748 221.354C481.628 221.334 481.502 221.324 481.368 221.324C481.05 221.324 480.766 221.391 480.516 221.524C480.269 221.655 480.073 221.837 479.928 222.07C479.786 222.3 479.715 222.562 479.715 222.858V227H478.709ZM483.174 227V220.455H484.18V227H483.174ZM483.685 219.364C483.489 219.364 483.32 219.297 483.178 219.163C483.039 219.03 482.969 218.869 482.969 218.682C482.969 218.494 483.039 218.334 483.178 218.2C483.32 218.067 483.489 218 483.685 218C483.881 218 484.049 218.067 484.188 218.2C484.33 218.334 484.401 218.494 484.401 218.682C484.401 218.869 484.33 219.03 484.188 219.163C484.049 219.297 483.881 219.364 483.685 219.364Z" fill="black" fill-opacity="0.4"/>
<path d="M77 95C77 92.7909 78.7909 91 81 91C83.2091 91 85 92.7909 85 95V122H77V95Z" fill="url(#paint0_linear_24476_69705)"/>
<path d="M77 122H85V154C85 156.209 83.2091 158 81 158C78.7909 158 77 156.209 77 154V122Z" fill="#C6C7F8"/>
<path d="M113 98C113 95.7909 114.791 94 117 94C119.209 94 121 95.7909 121 98V122H113V98Z" fill="url(#paint1_linear_24476_69705)"/>
<path d="M113 122H121V187C121 189.209 119.209 191 117 191C114.791 191 113 189.209 113 187V122Z" fill="#C6C7F8"/>
<path d="M149 71C149 68.7909 150.791 67 153 67C155.209 67 157 68.7909 157 71V122H149V71Z" fill="url(#paint2_linear_24476_69705)"/>
<path d="M149 122H157V172C157 174.209 155.209 176 153 176C150.791 176 149 174.209 149 172V122Z" fill="#C6C7F8"/>
<path d="M185 98C185 95.7909 186.791 94 189 94C191.209 94 193 95.7909 193 98V122H185V98Z" fill="url(#paint3_linear_24476_69705)"/>
<path d="M185 122H193V147C193 149.209 191.209 151 189 151C186.791 151 185 149.209 185 147V122Z" fill="#C6C7F8"/>
<path d="M221 106C221 103.791 222.791 102 225 102C227.209 102 229 103.791 229 106V122H221V106Z" fill="url(#paint4_linear_24476_69705)"/>
<path d="M221 122H229V144C229 146.209 227.209 148 225 148C222.791 148 221 146.209 221 144V122Z" fill="#C6C7F8"/>
<path d="M257 98C257 95.7909 258.791 94 261 94C263.209 94 265 95.7909 265 98V122H257V98Z" fill="url(#paint5_linear_24476_69705)"/>
<path d="M257 122H265V154C265 156.209 263.209 158 261 158C258.791 158 257 156.209 257 154V122Z" fill="#C6C7F8"/>
<path d="M474 98C474 95.7909 475.791 94 478 94C480.209 94 482 95.7909 482 98V122H474V98Z" fill="url(#paint6_linear_24476_69705)"/>
<path d="M474 122H482V154C482 156.209 480.209 158 478 158C475.791 158 474 156.209 474 154V122Z" fill="#C6C7F8"/>
<path d="M294 91C294 88.7909 295.791 87 298 87C300.209 87 302 88.7909 302 91V122H294V91Z" fill="url(#paint7_linear_24476_69705)"/>
<path d="M294 122H302V147C302 149.209 300.209 151 298 151C295.791 151 294 149.209 294 147V122Z" fill="#C6C7F8"/>
<path d="M330 106C330 103.791 331.791 102 334 102C336.209 102 338 103.791 338 106V122H330V106Z" fill="url(#paint8_linear_24476_69705)"/>
<path d="M330 122H338V144C338 146.209 336.209 148 334 148C331.791 148 330 146.209 330 144V122Z" fill="#C6C7F8"/>
<path d="M438 101C438 98.7909 439.791 97 442 97C444.209 97 446 98.7909 446 101V122H438V101Z" fill="url(#paint9_linear_24476_69705)"/>
<path d="M438 122H446V144C446 146.209 444.209 148 442 148C439.791 148 438 146.209 438 144V122Z" fill="#C6C7F8"/>
<path d="M366 80C366 77.7909 367.791 76 370 76C372.209 76 374 77.7909 374 80V122H366V80Z" fill="url(#paint10_linear_24476_69705)"/>
<path d="M366 122H374V163C374 165.209 372.209 167 370 167C367.791 167 366 165.209 366 163V122Z" fill="#C6C7F8"/>
<path d="M402 74C402 71.7909 403.791 70 406 70C408.209 70 410 71.7909 410 74V122H402V74Z" fill="url(#paint11_linear_24476_69705)"/>
<path d="M402 122H410V186C410 188.209 408.209 190 406 190C403.791 190 402 188.209 402 186V122Z" fill="#C6C7F8"/>
<defs>
<linearGradient id="paint0_linear_24476_69705" x1="81" y1="91" x2="81" y2="122" gradientUnits="userSpaceOnUse">
<stop stop-color="#1C1C1C"/>
<stop offset="1" stop-color="#1C1C1C" stop-opacity="0.6"/>
</linearGradient>
<linearGradient id="paint1_linear_24476_69705" x1="117" y1="94" x2="117" y2="122" gradientUnits="userSpaceOnUse">
<stop stop-color="#1C1C1C"/>
<stop offset="1" stop-color="#1C1C1C" stop-opacity="0.6"/>
</linearGradient>
<linearGradient id="paint2_linear_24476_69705" x1="153" y1="67" x2="153" y2="122" gradientUnits="userSpaceOnUse">
<stop stop-color="#1C1C1C"/>
<stop offset="1" stop-color="#1C1C1C" stop-opacity="0.6"/>
</linearGradient>
<linearGradient id="paint3_linear_24476_69705" x1="189" y1="94" x2="189" y2="122" gradientUnits="userSpaceOnUse">
<stop stop-color="#1C1C1C"/>
<stop offset="1" stop-color="#1C1C1C" stop-opacity="0.6"/>
</linearGradient>
<linearGradient id="paint4_linear_24476_69705" x1="225" y1="102" x2="225" y2="122" gradientUnits="userSpaceOnUse">
<stop stop-color="#1C1C1C"/>
<stop offset="1" stop-color="#1C1C1C" stop-opacity="0.6"/>
</linearGradient>
<linearGradient id="paint5_linear_24476_69705" x1="261" y1="94" x2="261" y2="122" gradientUnits="userSpaceOnUse">
<stop stop-color="#1C1C1C"/>
<stop offset="1" stop-color="#1C1C1C" stop-opacity="0.6"/>
</linearGradient>
<linearGradient id="paint6_linear_24476_69705" x1="478" y1="94" x2="478" y2="122" gradientUnits="userSpaceOnUse">
<stop stop-color="#1C1C1C"/>
<stop offset="1" stop-color="#1C1C1C" stop-opacity="0.6"/>
</linearGradient>
<linearGradient id="paint7_linear_24476_69705" x1="298" y1="87" x2="298" y2="122" gradientUnits="userSpaceOnUse">
<stop stop-color="#1C1C1C"/>
<stop offset="1" stop-color="#1C1C1C" stop-opacity="0.6"/>
</linearGradient>
<linearGradient id="paint8_linear_24476_69705" x1="334" y1="102" x2="334" y2="122" gradientUnits="userSpaceOnUse">
<stop stop-color="#1C1C1C"/>
<stop offset="1" stop-color="#1C1C1C" stop-opacity="0.6"/>
</linearGradient>
<linearGradient id="paint9_linear_24476_69705" x1="442" y1="97" x2="442" y2="122" gradientUnits="userSpaceOnUse">
<stop stop-color="#1C1C1C"/>
<stop offset="1" stop-color="#1C1C1C" stop-opacity="0.6"/>
</linearGradient>
<linearGradient id="paint10_linear_24476_69705" x1="370" y1="76" x2="370" y2="122" gradientUnits="userSpaceOnUse">
<stop stop-color="#1C1C1C"/>
<stop offset="1" stop-color="#1C1C1C" stop-opacity="0.6"/>
</linearGradient>
<linearGradient id="paint11_linear_24476_69705" x1="406" y1="70" x2="406" y2="122" gradientUnits="userSpaceOnUse">
<stop stop-color="#1C1C1C"/>
<stop offset="1" stop-color="#1C1C1C" stop-opacity="0.6"/>
</linearGradient>
</defs>
</svg>
