<svg width="520" height="260" viewBox="0 0 520 260" fill="none" xmlns="http://www.w3.org/2000/svg">
<rect width="520" height="260" rx="16" fill="#F7F9FB"/>
<path d="M25.0043 39V28.8182H28.902C29.6378 28.8182 30.2493 28.9342 30.7365 29.1662C31.227 29.3949 31.5933 29.7081 31.8352 30.1058C32.0805 30.5036 32.2031 30.9543 32.2031 31.4581C32.2031 31.8724 32.1236 32.227 31.9645 32.522C31.8054 32.8137 31.5916 33.0507 31.3232 33.233C31.0547 33.4152 30.7547 33.5462 30.4233 33.6257V33.7251C30.7846 33.745 31.1309 33.8561 31.4624 34.0582C31.7971 34.2571 32.0705 34.5388 32.2827 34.9034C32.4948 35.268 32.6009 35.7088 32.6009 36.2259C32.6009 36.7528 32.4732 37.2268 32.218 37.6477C31.9628 38.0653 31.5784 38.3951 31.0646 38.6371C30.5509 38.879 29.9046 39 29.1257 39H25.0043ZM26.8487 37.4588H28.8324C29.5019 37.4588 29.9841 37.3312 30.2791 37.076C30.5774 36.8175 30.7266 36.486 30.7266 36.0817C30.7266 35.7801 30.652 35.5083 30.5028 35.2663C30.3537 35.0211 30.1416 34.8288 29.8665 34.6896C29.5914 34.5471 29.2633 34.4759 28.8821 34.4759H26.8487V37.4588ZM26.8487 33.1484H28.6733C28.9915 33.1484 29.2782 33.0904 29.5334 32.9744C29.7886 32.8551 29.9891 32.6877 30.1349 32.4723C30.2841 32.2536 30.3587 31.995 30.3587 31.6967C30.3587 31.3023 30.2195 30.9775 29.9411 30.7223C29.666 30.4671 29.2566 30.3395 28.7131 30.3395H26.8487V33.1484ZM36.3233 39.1541C35.8394 39.1541 35.4036 39.0679 35.0158 38.8956C34.6313 38.7199 34.3264 38.4614 34.101 38.12C33.879 37.7786 33.7679 37.3577 33.7679 36.8572C33.7679 36.4264 33.8475 36.0701 34.0066 35.7884C34.1657 35.5066 34.3828 35.2812 34.6578 35.1122C34.9329 34.9432 35.2428 34.8156 35.5875 34.7294C35.9355 34.6399 36.2952 34.5753 36.6664 34.5355C37.1138 34.4891 37.4767 34.4477 37.7551 34.4112C38.0336 34.3714 38.2357 34.3118 38.3617 34.2322C38.4909 34.1494 38.5556 34.0218 38.5556 33.8494V33.8196C38.5556 33.4451 38.4445 33.1551 38.2225 32.9496C38.0004 32.7441 37.6806 32.6413 37.263 32.6413C36.8221 32.6413 36.4725 32.7375 36.214 32.9297C35.9587 33.1219 35.7864 33.349 35.6969 33.6108L34.0165 33.3722C34.1491 32.9081 34.3678 32.5204 34.6728 32.2088C34.9777 31.8939 35.3506 31.6586 35.7914 31.5028C36.2322 31.3438 36.7194 31.2642 37.253 31.2642C37.6209 31.2642 37.9872 31.3073 38.3517 31.3935C38.7163 31.4796 39.0494 31.6222 39.351 31.821C39.6526 32.0166 39.8946 32.2834 40.0769 32.6214C40.2625 32.9595 40.3553 33.3821 40.3553 33.8892V39H38.6252V37.951H38.5655C38.4561 38.1631 38.302 38.362 38.1032 38.5476C37.9076 38.7299 37.6607 38.8774 37.3624 38.9901C37.0674 39.0994 36.7211 39.1541 36.3233 39.1541ZM36.7907 37.8317C37.1519 37.8317 37.4651 37.7604 37.7303 37.6179C37.9954 37.4721 38.1993 37.2798 38.3418 37.0412C38.4876 36.8026 38.5605 36.5424 38.5605 36.2607V35.3608C38.5042 35.4072 38.4081 35.4503 38.2722 35.4901C38.1396 35.5298 37.9905 35.5646 37.8248 35.5945C37.659 35.6243 37.495 35.6508 37.3326 35.674C37.1702 35.6972 37.0293 35.7171 36.91 35.7337C36.6415 35.7701 36.4012 35.8298 36.1891 35.9126C35.977 35.9955 35.8096 36.1115 35.687 36.2607C35.5643 36.4065 35.503 36.5954 35.503 36.8274C35.503 37.1589 35.624 37.4091 35.8659 37.5781C36.1079 37.7472 36.4161 37.8317 36.7907 37.8317ZM42.165 39V31.3636H43.91V32.6364H43.9895C44.1287 32.1955 44.3674 31.8558 44.7054 31.6172C45.0468 31.3752 45.4363 31.2543 45.8738 31.2543C45.9732 31.2543 46.0842 31.2592 46.2069 31.2692C46.3328 31.2758 46.4372 31.2874 46.5201 31.304V32.9595C46.4438 32.933 46.3229 32.9098 46.1571 32.8899C45.9947 32.8667 45.8373 32.8551 45.6848 32.8551C45.3567 32.8551 45.0617 32.9264 44.7999 33.0689C44.5414 33.2081 44.3375 33.402 44.1884 33.6506C44.0392 33.8991 43.9647 34.1858 43.9647 34.5107V39H42.165ZM54.5194 39.1491C53.757 39.1491 53.1025 38.9818 52.5556 38.647C52.012 38.3123 51.5927 37.8499 51.2978 37.2599C51.0061 36.6667 50.8603 35.9839 50.8603 35.2116C50.8603 34.4361 51.0094 33.7517 51.3077 33.1584C51.606 32.5618 52.0269 32.0978 52.5705 31.7663C53.1174 31.4316 53.7637 31.2642 54.5094 31.2642C55.1292 31.2642 55.6777 31.3786 56.155 31.6072C56.6356 31.8326 57.0184 32.1525 57.3034 32.5668C57.5885 32.9777 57.7509 33.4583 57.7907 34.0085H56.0705C56.0009 33.6406 55.8352 33.334 55.5733 33.0888C55.3148 32.8402 54.9685 32.7159 54.5343 32.7159C54.1664 32.7159 53.8432 32.8153 53.5648 33.0142C53.2864 33.2098 53.0693 33.4915 52.9135 33.8594C52.7611 34.2273 52.6848 34.6681 52.6848 35.1818C52.6848 35.7022 52.7611 36.1496 52.9135 36.5241C53.066 36.8954 53.2798 37.1821 53.5549 37.3842C53.8333 37.5831 54.1597 37.6825 54.5343 37.6825C54.7994 37.6825 55.0364 37.6328 55.2452 37.5334C55.4573 37.4306 55.6346 37.2831 55.7772 37.0909C55.9197 36.8987 56.0175 36.665 56.0705 36.3899H57.7907C57.7476 36.9302 57.5885 37.4091 57.3134 37.8267C57.0383 38.241 56.6638 38.5658 56.1898 38.8011C55.7159 39.0331 55.159 39.1491 54.5194 39.1491ZM61.0682 34.5256V39H59.2685V28.8182H61.0284V32.6612H61.1179C61.2969 32.2304 61.5736 31.8906 61.9482 31.642C62.326 31.3902 62.8066 31.2642 63.3899 31.2642C63.9202 31.2642 64.3826 31.3752 64.777 31.5973C65.1714 31.8194 65.4763 32.1442 65.6918 32.5717C65.9105 32.9993 66.0199 33.5213 66.0199 34.1378V39H64.2202V34.4162C64.2202 33.9025 64.0876 33.5031 63.8224 33.218C63.5606 32.9297 63.1927 32.7855 62.7188 32.7855C62.4006 32.7855 62.1155 32.8551 61.8636 32.9943C61.6151 33.1302 61.4195 33.3274 61.277 33.5859C61.1378 33.8445 61.0682 34.1577 61.0682 34.5256ZM70.0518 39.1541C69.5679 39.1541 69.1321 39.0679 68.7443 38.8956C68.3598 38.7199 68.0549 38.4614 67.8295 38.12C67.6075 37.7786 67.4964 37.3577 67.4964 36.8572C67.4964 36.4264 67.576 36.0701 67.7351 35.7884C67.8942 35.5066 68.1113 35.2812 68.3864 35.1122C68.6615 34.9432 68.9714 34.8156 69.3161 34.7294C69.6641 34.6399 70.0237 34.5753 70.3949 34.5355C70.8423 34.4891 71.2053 34.4477 71.4837 34.4112C71.7621 34.3714 71.9643 34.3118 72.0902 34.2322C72.2195 34.1494 72.2841 34.0218 72.2841 33.8494V33.8196C72.2841 33.4451 72.1731 33.1551 71.951 32.9496C71.7289 32.7441 71.4091 32.6413 70.9915 32.6413C70.5507 32.6413 70.201 32.7375 69.9425 32.9297C69.6873 33.1219 69.5149 33.349 69.4254 33.6108L67.745 33.3722C67.8776 32.9081 68.0964 32.5204 68.4013 32.2088C68.7062 31.8939 69.0791 31.6586 69.5199 31.5028C69.9607 31.3438 70.4479 31.2642 70.9815 31.2642C71.3494 31.2642 71.7157 31.3073 72.0803 31.3935C72.4448 31.4796 72.7779 31.6222 73.0795 31.821C73.3812 32.0166 73.6231 32.2834 73.8054 32.6214C73.991 32.9595 74.0838 33.3821 74.0838 33.8892V39H72.3537V37.951H72.294C72.1847 38.1631 72.0305 38.362 71.8317 38.5476C71.6361 38.7299 71.3892 38.8774 71.0909 38.9901C70.7959 39.0994 70.4496 39.1541 70.0518 39.1541ZM70.5192 37.8317C70.8804 37.8317 71.1937 37.7604 71.4588 37.6179C71.724 37.4721 71.9278 37.2798 72.0703 37.0412C72.2161 36.8026 72.2891 36.5424 72.2891 36.2607V35.3608C72.2327 35.4072 72.1366 35.4503 72.0007 35.4901C71.8681 35.5298 71.719 35.5646 71.5533 35.5945C71.3875 35.6243 71.2235 35.6508 71.0611 35.674C70.8987 35.6972 70.7578 35.7171 70.6385 35.7337C70.37 35.7701 70.1297 35.8298 69.9176 35.9126C69.7055 35.9955 69.5381 36.1115 69.4155 36.2607C69.2929 36.4065 69.2315 36.5954 69.2315 36.8274C69.2315 37.1589 69.3525 37.4091 69.5945 37.5781C69.8364 37.7472 70.1446 37.8317 70.5192 37.8317ZM75.8935 39V31.3636H77.6385V32.6364H77.718C77.8572 32.1955 78.0959 31.8558 78.4339 31.6172C78.7753 31.3752 79.1648 31.2543 79.6023 31.2543C79.7017 31.2543 79.8127 31.2592 79.9354 31.2692C80.0613 31.2758 80.1657 31.2874 80.2486 31.304V32.9595C80.1723 32.933 80.0514 32.9098 79.8857 32.8899C79.7232 32.8667 79.5658 32.8551 79.4134 32.8551C79.0852 32.8551 78.7902 32.9264 78.5284 33.0689C78.2699 33.2081 78.0661 33.402 77.9169 33.6506C77.7678 33.8991 77.6932 34.1858 77.6932 34.5107V39H75.8935ZM85.6676 31.3636V32.7557H81.2777V31.3636H85.6676ZM82.3615 29.5341H84.1612V36.7031C84.1612 36.9451 84.1977 37.1307 84.2706 37.2599C84.3468 37.3859 84.4463 37.4721 84.5689 37.5185C84.6915 37.5649 84.8274 37.5881 84.9766 37.5881C85.0893 37.5881 85.192 37.5798 85.2848 37.5632C85.3809 37.5466 85.4538 37.5317 85.5036 37.5185L85.8068 38.9254C85.7107 38.9586 85.5732 38.995 85.3942 39.0348C85.2185 39.0746 85.0031 39.0978 84.7479 39.1044C84.2971 39.1177 83.8911 39.0497 83.5298 38.9006C83.1686 38.7481 82.8819 38.5128 82.6697 38.1946C82.4609 37.8764 82.3582 37.4787 82.3615 37.0014V29.5341Z" fill="#1C1C1C"/>
<path d="M30.5085 86.2727H31.6676L32.6392 87.5511L32.8949 87.892L34.3438 89.8182H33.1847L32.2301 88.5398L31.9915 88.2159L30.5085 86.2727ZM34.7017 84.6364C34.7017 85.5568 34.5355 86.3523 34.2031 87.0227C33.8707 87.6932 33.4148 88.2102 32.8352 88.5739C32.2557 88.9375 31.5938 89.1193 30.8494 89.1193C30.1051 89.1193 29.4432 88.9375 28.8636 88.5739C28.2841 88.2102 27.8281 87.6932 27.4957 87.0227C27.1634 86.3523 26.9972 85.5568 26.9972 84.6364C26.9972 83.7159 27.1634 82.9205 27.4957 82.25C27.8281 81.5795 28.2841 81.0625 28.8636 80.6989C29.4432 80.3352 30.1051 80.1534 30.8494 80.1534C31.5938 80.1534 32.2557 80.3352 32.8352 80.6989C33.4148 81.0625 33.8707 81.5795 34.2031 82.25C34.5355 82.9205 34.7017 83.7159 34.7017 84.6364ZM33.679 84.6364C33.679 83.8807 33.5526 83.2429 33.2997 82.723C33.0497 82.2031 32.7102 81.8097 32.2812 81.5426C31.8551 81.2756 31.3778 81.142 30.8494 81.142C30.321 81.142 29.8423 81.2756 29.4134 81.5426C28.9872 81.8097 28.6477 82.2031 28.3949 82.723C28.1449 83.2429 28.0199 83.8807 28.0199 84.6364C28.0199 85.392 28.1449 86.0298 28.3949 86.5497C28.6477 87.0696 28.9872 87.4631 29.4134 87.7301C29.8423 87.9972 30.321 88.1307 30.8494 88.1307C31.3778 88.1307 31.8551 87.9972 32.2812 87.7301C32.7102 87.4631 33.0497 87.0696 33.2997 86.5497C33.5526 86.0298 33.679 85.392 33.679 84.6364ZM39.3935 80.2727V89H38.3366V81.3807H38.2855L36.1548 82.7955V81.7216L38.3366 80.2727H39.3935Z" fill="black" fill-opacity="0.4"/>
<path d="M28.821 123.606H29.9801L30.9517 124.884L31.2074 125.225L32.6562 127.151H31.4972L30.5426 125.873L30.304 125.549L28.821 123.606ZM33.0142 121.969C33.0142 122.89 32.848 123.685 32.5156 124.356C32.1832 125.026 31.7273 125.543 31.1477 125.907C30.5682 126.271 29.9063 126.452 29.1619 126.452C28.4176 126.452 27.7557 126.271 27.1761 125.907C26.5966 125.543 26.1406 125.026 25.8082 124.356C25.4759 123.685 25.3097 122.89 25.3097 121.969C25.3097 121.049 25.4759 120.253 25.8082 119.583C26.1406 118.913 26.5966 118.396 27.1761 118.032C27.7557 117.668 28.4176 117.486 29.1619 117.486C29.9063 117.486 30.5682 117.668 31.1477 118.032C31.7273 118.396 32.1832 118.913 32.5156 119.583C32.848 120.253 33.0142 121.049 33.0142 121.969ZM31.9915 121.969C31.9915 121.214 31.8651 120.576 31.6122 120.056C31.3622 119.536 31.0227 119.143 30.5938 118.876C30.1676 118.609 29.6903 118.475 29.1619 118.475C28.6335 118.475 28.1548 118.609 27.7259 118.876C27.2997 119.143 26.9602 119.536 26.7074 120.056C26.4574 120.576 26.3324 121.214 26.3324 121.969C26.3324 122.725 26.4574 123.363 26.7074 123.883C26.9602 124.403 27.2997 124.796 27.7259 125.063C28.1548 125.33 28.6335 125.464 29.1619 125.464C29.6903 125.464 30.1676 125.33 30.5938 125.063C31.0227 124.796 31.3622 124.403 31.6122 123.883C31.8651 123.363 31.9915 122.725 31.9915 121.969ZM34.6378 126.333V125.566L37.5185 122.413C37.8565 122.043 38.1349 121.722 38.3537 121.449C38.5724 121.174 38.7344 120.915 38.8395 120.674C38.9474 120.43 39.0014 120.174 39.0014 119.907C39.0014 119.6 38.9276 119.334 38.7798 119.11C38.6349 118.886 38.4361 118.712 38.1832 118.59C37.9304 118.468 37.6463 118.407 37.331 118.407C36.9957 118.407 36.7031 118.476 36.4531 118.616C36.206 118.752 36.0142 118.944 35.8778 119.191C35.7443 119.438 35.6776 119.728 35.6776 120.06H34.6719C34.6719 119.549 34.7898 119.1 35.0256 118.714C35.2614 118.327 35.5824 118.026 35.9886 117.81C36.3977 117.594 36.8565 117.486 37.3651 117.486C37.8764 117.486 38.3295 117.594 38.7244 117.81C39.1193 118.026 39.429 118.317 39.6534 118.684C39.8778 119.05 39.9901 119.458 39.9901 119.907C39.9901 120.228 39.9318 120.542 39.8153 120.849C39.7017 121.153 39.5028 121.492 39.2188 121.867C38.9375 122.239 38.5469 122.694 38.0469 123.231L36.0866 125.327V125.396H40.1435V126.333H34.6378Z" fill="black" fill-opacity="0.4"/>
<path d="M28.446 160.94H29.6051L30.5767 162.218L30.8324 162.559L32.2812 164.485H31.1222L30.1676 163.207L29.929 162.883L28.446 160.94ZM32.6392 159.303C32.6392 160.224 32.473 161.019 32.1406 161.69C31.8082 162.36 31.3523 162.877 30.7727 163.241C30.1932 163.604 29.5313 163.786 28.7869 163.786C28.0426 163.786 27.3807 163.604 26.8011 163.241C26.2216 162.877 25.7656 162.36 25.4332 161.69C25.1009 161.019 24.9347 160.224 24.9347 159.303C24.9347 158.383 25.1009 157.587 25.4332 156.917C25.7656 156.247 26.2216 155.729 26.8011 155.366C27.3807 155.002 28.0426 154.82 28.7869 154.82C29.5313 154.82 30.1932 155.002 30.7727 155.366C31.3523 155.729 31.8082 156.247 32.1406 156.917C32.473 157.587 32.6392 158.383 32.6392 159.303ZM31.6165 159.303C31.6165 158.548 31.4901 157.91 31.2372 157.39C30.9872 156.87 30.6477 156.477 30.2188 156.21C29.7926 155.943 29.3153 155.809 28.7869 155.809C28.2585 155.809 27.7798 155.943 27.3509 156.21C26.9247 156.477 26.5852 156.87 26.3324 157.39C26.0824 157.91 25.9574 158.548 25.9574 159.303C25.9574 160.059 26.0824 160.697 26.3324 161.217C26.5852 161.737 26.9247 162.13 27.3509 162.397C27.7798 162.664 28.2585 162.798 28.7869 162.798C29.3153 162.798 29.7926 162.664 30.2188 162.397C30.6477 162.13 30.9872 161.737 31.2372 161.217C31.4901 160.697 31.6165 160.059 31.6165 159.303ZM37.2116 163.786C36.6491 163.786 36.1477 163.69 35.7074 163.497C35.2699 163.303 34.9219 163.035 34.6634 162.691C34.4077 162.345 34.2685 161.943 34.2457 161.485H35.3196C35.3423 161.766 35.4389 162.009 35.6094 162.214C35.7798 162.416 36.0028 162.572 36.2784 162.683C36.554 162.793 36.8594 162.849 37.1946 162.849C37.5696 162.849 37.902 162.783 38.1918 162.653C38.4815 162.522 38.7088 162.34 38.8736 162.107C39.0384 161.874 39.1207 161.604 39.1207 161.298C39.1207 160.977 39.0412 160.694 38.8821 160.45C38.723 160.203 38.4901 160.009 38.1832 159.87C37.8764 159.731 37.5014 159.661 37.0582 159.661H36.3594V158.724H37.0582C37.4048 158.724 37.7088 158.661 37.9702 158.536C38.2344 158.411 38.4403 158.235 38.5881 158.008C38.7386 157.781 38.8139 157.514 38.8139 157.207C38.8139 156.911 38.7486 156.654 38.6179 156.435C38.4872 156.217 38.3026 156.046 38.0639 155.924C37.8281 155.802 37.5497 155.741 37.2287 155.741C36.9276 155.741 36.6435 155.796 36.3764 155.907C36.1122 156.015 35.8963 156.173 35.7287 156.38C35.5611 156.585 35.4702 156.832 35.456 157.122H34.4332C34.4503 156.664 34.5881 156.264 34.8466 155.92C35.1051 155.573 35.4432 155.303 35.8608 155.11C36.2813 154.917 36.7429 154.82 37.2457 154.82C37.7855 154.82 38.2486 154.93 38.6349 155.149C39.0213 155.364 39.3182 155.65 39.5256 156.005C39.733 156.36 39.8366 156.744 39.8366 157.156C39.8366 157.647 39.7074 158.066 39.4489 158.413C39.1932 158.759 38.8452 158.999 38.4048 159.133V159.201C38.956 159.292 39.3864 159.526 39.696 159.904C40.0057 160.279 40.1605 160.744 40.1605 161.298C40.1605 161.772 40.0313 162.198 39.7727 162.576C39.517 162.951 39.1676 163.247 38.7244 163.462C38.2813 163.678 37.777 163.786 37.2116 163.786Z" fill="black" fill-opacity="0.4"/>
<path d="M28.3874 198.273H29.5465L30.5181 199.551L30.7738 199.892L32.2227 201.818H31.0636L30.109 200.54L29.8704 200.216L28.3874 198.273ZM32.5806 196.636C32.5806 197.557 32.4144 198.352 32.082 199.023C31.7496 199.693 31.2937 200.21 30.7141 200.574C30.1346 200.938 29.4727 201.119 28.7283 201.119C27.984 201.119 27.3221 200.938 26.7425 200.574C26.163 200.21 25.707 199.693 25.3746 199.023C25.0423 198.352 24.8761 197.557 24.8761 196.636C24.8761 195.716 25.0423 194.92 25.3746 194.25C25.707 193.58 26.163 193.062 26.7425 192.699C27.3221 192.335 27.984 192.153 28.7283 192.153C29.4727 192.153 30.1346 192.335 30.7141 192.699C31.2937 193.062 31.7496 193.58 32.082 194.25C32.4144 194.92 32.5806 195.716 32.5806 196.636ZM31.5579 196.636C31.5579 195.881 31.4315 195.243 31.1786 194.723C30.9286 194.203 30.5891 193.81 30.1602 193.543C29.734 193.276 29.2567 193.142 28.7283 193.142C28.1999 193.142 27.7212 193.276 27.2923 193.543C26.8661 193.81 26.5266 194.203 26.2738 194.723C26.0238 195.243 25.8988 195.881 25.8988 196.636C25.8988 197.392 26.0238 198.03 26.2738 198.55C26.5266 199.07 26.8661 199.463 27.2923 199.73C27.7212 199.997 28.1999 200.131 28.7283 200.131C29.2567 200.131 29.734 199.997 30.1602 199.73C30.5891 199.463 30.9286 199.07 31.1786 198.55C31.4315 198.03 31.5579 197.392 31.5579 196.636ZM33.9996 199.21V198.341L37.8349 192.273H38.4656V193.619H38.0394L35.1417 198.205V198.273H40.3065V199.21H33.9996ZM38.1076 201V198.946V198.541V192.273H39.1133V201H38.1076Z" fill="black" fill-opacity="0.4"/>
<line x1="57.5" y1="60.5" x2="57.5" y2="235.5" stroke="black" stroke-opacity="0.2" stroke-linecap="round"/>
<line x1="130.667" y1="60.5" x2="130.667" y2="235.5" stroke="black" stroke-opacity="0.05" stroke-linecap="round"/>
<line x1="203.833" y1="60.5" x2="203.833" y2="235.5" stroke="black" stroke-opacity="0.05" stroke-linecap="round"/>
<line x1="277" y1="60.5" x2="277" y2="235.5" stroke="black" stroke-opacity="0.05" stroke-linecap="round"/>
<line x1="350.167" y1="60.5" x2="350.167" y2="235.5" stroke="black" stroke-opacity="0.05" stroke-linecap="round"/>
<line x1="423.333" y1="60.5" x2="423.333" y2="235.5" stroke="black" stroke-opacity="0.05" stroke-linecap="round"/>
<line x1="496.5" y1="60.5" x2="496.5" y2="235.5" stroke="black" stroke-opacity="0.05" stroke-linecap="round"/>
<path d="M68.75 231.119C68.108 231.119 67.5611 230.945 67.1094 230.595C66.6577 230.243 66.3125 229.733 66.0739 229.065C65.8352 228.395 65.7159 227.585 65.7159 226.636C65.7159 225.693 65.8352 224.888 66.0739 224.22C66.3153 223.55 66.6619 223.038 67.1136 222.686C67.5682 222.331 68.1136 222.153 68.75 222.153C69.3864 222.153 69.9304 222.331 70.3821 222.686C70.8366 223.038 71.1832 223.55 71.4219 224.22C71.6634 224.888 71.7841 225.693 71.7841 226.636C71.7841 227.585 71.6648 228.395 71.4261 229.065C71.1875 229.733 70.8423 230.243 70.3906 230.595C69.9389 230.945 69.392 231.119 68.75 231.119ZM68.75 230.182C69.3864 230.182 69.8807 229.875 70.233 229.261C70.5852 228.648 70.7614 227.773 70.7614 226.636C70.7614 225.881 70.6804 225.237 70.5185 224.706C70.3594 224.175 70.1293 223.77 69.8281 223.491C69.5298 223.213 69.1705 223.074 68.75 223.074C68.1193 223.074 67.6264 223.385 67.2713 224.007C66.9162 224.626 66.7386 225.503 66.7386 226.636C66.7386 227.392 66.8182 228.034 66.9773 228.562C67.1364 229.091 67.3651 229.493 67.6634 229.768C67.9645 230.044 68.3267 230.182 68.75 230.182Z" fill="black" fill-opacity="0.4"/>
<path d="M142.139 222.273V231H141.082V223.381H141.031L138.9 224.795V223.722L141.082 222.273H142.139ZM145.65 229.807L145.582 230.267C145.533 230.591 145.46 230.938 145.36 231.307C145.264 231.676 145.163 232.024 145.058 232.351C144.953 232.678 144.866 232.938 144.798 233.131H144.031C144.068 232.949 144.116 232.709 144.176 232.411C144.235 232.112 144.295 231.778 144.354 231.409C144.417 231.043 144.468 230.668 144.508 230.284L144.559 229.807H145.65ZM150.038 231.119C149.396 231.119 148.849 230.945 148.397 230.595C147.946 230.243 147.601 229.733 147.362 229.065C147.123 228.395 147.004 227.585 147.004 226.636C147.004 225.693 147.123 224.888 147.362 224.22C147.603 223.55 147.95 223.038 148.402 222.686C148.856 222.331 149.402 222.153 150.038 222.153C150.674 222.153 151.218 222.331 151.67 222.686C152.125 223.038 152.471 223.55 152.71 224.22C152.951 224.888 153.072 225.693 153.072 226.636C153.072 227.585 152.953 228.395 152.714 229.065C152.476 229.733 152.13 230.243 151.679 230.595C151.227 230.945 150.68 231.119 150.038 231.119ZM150.038 230.182C150.674 230.182 151.169 229.875 151.521 229.261C151.873 228.648 152.049 227.773 152.049 226.636C152.049 225.881 151.968 225.237 151.807 224.706C151.647 224.175 151.417 223.77 151.116 223.491C150.818 223.213 150.459 223.074 150.038 223.074C149.407 223.074 148.915 223.385 148.559 224.007C148.204 224.626 148.027 225.503 148.027 226.636C148.027 227.392 148.106 228.034 148.265 228.562C148.424 229.091 148.653 229.493 148.951 229.768C149.253 230.044 149.615 230.182 150.038 230.182ZM157.538 231.119C156.896 231.119 156.349 230.945 155.897 230.595C155.446 230.243 155.101 229.733 154.862 229.065C154.623 228.395 154.504 227.585 154.504 226.636C154.504 225.693 154.623 224.888 154.862 224.22C155.103 223.55 155.45 223.038 155.902 222.686C156.356 222.331 156.902 222.153 157.538 222.153C158.174 222.153 158.718 222.331 159.17 222.686C159.625 223.038 159.971 223.55 160.21 224.22C160.451 224.888 160.572 225.693 160.572 226.636C160.572 227.585 160.453 228.395 160.214 229.065C159.976 229.733 159.63 230.243 159.179 230.595C158.727 230.945 158.18 231.119 157.538 231.119ZM157.538 230.182C158.174 230.182 158.669 229.875 159.021 229.261C159.373 228.648 159.549 227.773 159.549 226.636C159.549 225.881 159.468 225.237 159.307 224.706C159.147 224.175 158.917 223.77 158.616 223.491C158.318 223.213 157.959 223.074 157.538 223.074C156.907 223.074 156.415 223.385 156.059 224.007C155.704 224.626 155.527 225.503 155.527 226.636C155.527 227.392 155.606 228.034 155.765 228.562C155.924 229.091 156.153 229.493 156.451 229.768C156.753 230.044 157.115 230.182 157.538 230.182ZM165.038 231.119C164.396 231.119 163.849 230.945 163.397 230.595C162.946 230.243 162.601 229.733 162.362 229.065C162.123 228.395 162.004 227.585 162.004 226.636C162.004 225.693 162.123 224.888 162.362 224.22C162.603 223.55 162.95 223.038 163.402 222.686C163.856 222.331 164.402 222.153 165.038 222.153C165.674 222.153 166.218 222.331 166.67 222.686C167.125 223.038 167.471 223.55 167.71 224.22C167.951 224.888 168.072 225.693 168.072 226.636C168.072 227.585 167.953 228.395 167.714 229.065C167.476 229.733 167.13 230.243 166.679 230.595C166.227 230.945 165.68 231.119 165.038 231.119ZM165.038 230.182C165.674 230.182 166.169 229.875 166.521 229.261C166.873 228.648 167.049 227.773 167.049 226.636C167.049 225.881 166.968 225.237 166.807 224.706C166.647 224.175 166.417 223.77 166.116 223.491C165.818 223.213 165.459 223.074 165.038 223.074C164.407 223.074 163.915 223.385 163.559 224.007C163.204 224.626 163.027 225.503 163.027 226.636C163.027 227.392 163.106 228.034 163.265 228.562C163.424 229.091 163.653 229.493 163.951 229.768C164.253 230.044 164.615 230.182 165.038 230.182Z" fill="black" fill-opacity="0.4"/>
<path d="M212.236 231V230.233L215.117 227.08C215.455 226.71 215.734 226.389 215.952 226.116C216.171 225.841 216.333 225.582 216.438 225.341C216.546 225.097 216.6 224.841 216.6 224.574C216.6 224.267 216.526 224.001 216.378 223.777C216.234 223.553 216.035 223.379 215.782 223.257C215.529 223.135 215.245 223.074 214.93 223.074C214.594 223.074 214.302 223.143 214.052 223.283C213.805 223.419 213.613 223.611 213.476 223.858C213.343 224.105 213.276 224.395 213.276 224.727H212.271C212.271 224.216 212.388 223.767 212.624 223.381C212.86 222.994 213.181 222.693 213.587 222.477C213.996 222.261 214.455 222.153 214.964 222.153C215.475 222.153 215.928 222.261 216.323 222.477C216.718 222.693 217.028 222.984 217.252 223.351C217.476 223.717 217.589 224.125 217.589 224.574C217.589 224.895 217.53 225.209 217.414 225.516C217.3 225.82 217.101 226.159 216.817 226.534C216.536 226.906 216.146 227.361 215.646 227.898L213.685 229.994V230.062H217.742V231H212.236ZM221.019 229.807L220.951 230.267C220.903 230.591 220.829 230.938 220.729 231.307C220.633 231.676 220.532 232.024 220.427 232.351C220.322 232.678 220.235 232.938 220.167 233.131H219.4C219.437 232.949 219.485 232.709 219.545 232.411C219.604 232.112 219.664 231.778 219.724 231.409C219.786 231.043 219.837 230.668 219.877 230.284L219.928 229.807H221.019ZM225.407 231.119C224.765 231.119 224.218 230.945 223.767 230.595C223.315 230.243 222.97 229.733 222.731 229.065C222.492 228.395 222.373 227.585 222.373 226.636C222.373 225.693 222.492 224.888 222.731 224.22C222.973 223.55 223.319 223.038 223.771 222.686C224.225 222.331 224.771 222.153 225.407 222.153C226.044 222.153 226.588 222.331 227.039 222.686C227.494 223.038 227.84 223.55 228.079 224.22C228.321 224.888 228.441 225.693 228.441 226.636C228.441 227.585 228.322 228.395 228.083 229.065C227.845 229.733 227.5 230.243 227.048 230.595C226.596 230.945 226.049 231.119 225.407 231.119ZM225.407 230.182C226.044 230.182 226.538 229.875 226.89 229.261C227.242 228.648 227.419 227.773 227.419 226.636C227.419 225.881 227.338 225.237 227.176 224.706C227.017 224.175 226.786 223.77 226.485 223.491C226.187 223.213 225.828 223.074 225.407 223.074C224.777 223.074 224.284 223.385 223.929 224.007C223.573 224.626 223.396 225.503 223.396 226.636C223.396 227.392 223.475 228.034 223.634 228.562C223.794 229.091 224.022 229.493 224.321 229.768C224.622 230.044 224.984 230.182 225.407 230.182ZM232.907 231.119C232.265 231.119 231.718 230.945 231.267 230.595C230.815 230.243 230.47 229.733 230.231 229.065C229.992 228.395 229.873 227.585 229.873 226.636C229.873 225.693 229.992 224.888 230.231 224.22C230.473 223.55 230.819 223.038 231.271 222.686C231.725 222.331 232.271 222.153 232.907 222.153C233.544 222.153 234.088 222.331 234.539 222.686C234.994 223.038 235.34 223.55 235.579 224.22C235.821 224.888 235.941 225.693 235.941 226.636C235.941 227.585 235.822 228.395 235.583 229.065C235.345 229.733 235 230.243 234.548 230.595C234.096 230.945 233.549 231.119 232.907 231.119ZM232.907 230.182C233.544 230.182 234.038 229.875 234.39 229.261C234.742 228.648 234.919 227.773 234.919 226.636C234.919 225.881 234.838 225.237 234.676 224.706C234.517 224.175 234.286 223.77 233.985 223.491C233.687 223.213 233.328 223.074 232.907 223.074C232.277 223.074 231.784 223.385 231.429 224.007C231.073 224.626 230.896 225.503 230.896 226.636C230.896 227.392 230.975 228.034 231.134 228.562C231.294 229.091 231.522 229.493 231.821 229.768C232.122 230.044 232.484 230.182 232.907 230.182ZM240.407 231.119C239.765 231.119 239.218 230.945 238.767 230.595C238.315 230.243 237.97 229.733 237.731 229.065C237.492 228.395 237.373 227.585 237.373 226.636C237.373 225.693 237.492 224.888 237.731 224.22C237.973 223.55 238.319 223.038 238.771 222.686C239.225 222.331 239.771 222.153 240.407 222.153C241.044 222.153 241.588 222.331 242.039 222.686C242.494 223.038 242.84 223.55 243.079 224.22C243.321 224.888 243.441 225.693 243.441 226.636C243.441 227.585 243.322 228.395 243.083 229.065C242.845 229.733 242.5 230.243 242.048 230.595C241.596 230.945 241.049 231.119 240.407 231.119ZM240.407 230.182C241.044 230.182 241.538 229.875 241.89 229.261C242.242 228.648 242.419 227.773 242.419 226.636C242.419 225.881 242.338 225.237 242.176 224.706C242.017 224.175 241.786 223.77 241.485 223.491C241.187 223.213 240.828 223.074 240.407 223.074C239.777 223.074 239.284 223.385 238.929 224.007C238.573 224.626 238.396 225.503 238.396 226.636C238.396 227.392 238.475 228.034 238.634 228.562C238.794 229.091 239.022 229.493 239.321 229.768C239.622 230.044 239.984 230.182 240.407 230.182Z" fill="black" fill-opacity="0.4"/>
<path d="M288.352 231.119C287.79 231.119 287.288 231.023 286.848 230.83C286.411 230.636 286.063 230.368 285.804 230.024C285.548 229.678 285.409 229.276 285.386 228.818H286.46C286.483 229.099 286.58 229.342 286.75 229.547C286.92 229.749 287.143 229.905 287.419 230.016C287.695 230.126 288 230.182 288.335 230.182C288.71 230.182 289.043 230.116 289.332 229.986C289.622 229.855 289.849 229.673 290.014 229.44C290.179 229.207 290.261 228.938 290.261 228.631C290.261 228.31 290.182 228.027 290.023 227.783C289.864 227.536 289.631 227.342 289.324 227.203C289.017 227.064 288.642 226.994 288.199 226.994H287.5V226.057H288.199C288.545 226.057 288.849 225.994 289.111 225.869C289.375 225.744 289.581 225.568 289.729 225.341C289.879 225.114 289.955 224.847 289.955 224.54C289.955 224.244 289.889 223.987 289.759 223.768C289.628 223.55 289.443 223.379 289.205 223.257C288.969 223.135 288.69 223.074 288.369 223.074C288.068 223.074 287.784 223.129 287.517 223.24C287.253 223.348 287.037 223.506 286.869 223.713C286.702 223.918 286.611 224.165 286.597 224.455H285.574C285.591 223.997 285.729 223.597 285.987 223.253C286.246 222.906 286.584 222.636 287.001 222.443C287.422 222.25 287.884 222.153 288.386 222.153C288.926 222.153 289.389 222.263 289.776 222.482C290.162 222.697 290.459 222.983 290.666 223.338C290.874 223.693 290.977 224.077 290.977 224.489C290.977 224.98 290.848 225.399 290.589 225.746C290.334 226.092 289.986 226.332 289.545 226.466V226.534C290.097 226.625 290.527 226.859 290.837 227.237C291.146 227.612 291.301 228.077 291.301 228.631C291.301 229.105 291.172 229.531 290.913 229.909C290.658 230.284 290.308 230.58 289.865 230.795C289.422 231.011 288.918 231.119 288.352 231.119ZM294.292 229.807L294.223 230.267C294.175 230.591 294.101 230.938 294.002 231.307C293.905 231.676 293.804 232.024 293.699 232.351C293.594 232.678 293.507 232.938 293.439 233.131H292.672C292.709 232.949 292.757 232.709 292.817 232.411C292.877 232.112 292.936 231.778 292.996 231.409C293.059 231.043 293.11 230.668 293.15 230.284L293.201 229.807H294.292ZM298.68 231.119C298.038 231.119 297.491 230.945 297.039 230.595C296.587 230.243 296.242 229.733 296.004 229.065C295.765 228.395 295.646 227.585 295.646 226.636C295.646 225.693 295.765 224.888 296.004 224.22C296.245 223.55 296.592 223.038 297.043 222.686C297.498 222.331 298.043 222.153 298.68 222.153C299.316 222.153 299.86 222.331 300.312 222.686C300.766 223.038 301.113 223.55 301.352 224.22C301.593 224.888 301.714 225.693 301.714 226.636C301.714 227.585 301.594 228.395 301.356 229.065C301.117 229.733 300.772 230.243 300.32 230.595C299.869 230.945 299.322 231.119 298.68 231.119ZM298.68 230.182C299.316 230.182 299.81 229.875 300.163 229.261C300.515 228.648 300.691 227.773 300.691 226.636C300.691 225.881 300.61 225.237 300.448 224.706C300.289 224.175 300.059 223.77 299.758 223.491C299.46 223.213 299.1 223.074 298.68 223.074C298.049 223.074 297.556 223.385 297.201 224.007C296.846 224.626 296.668 225.503 296.668 226.636C296.668 227.392 296.748 228.034 296.907 228.562C297.066 229.091 297.295 229.493 297.593 229.768C297.894 230.044 298.256 230.182 298.68 230.182ZM306.18 231.119C305.538 231.119 304.991 230.945 304.539 230.595C304.087 230.243 303.742 229.733 303.504 229.065C303.265 228.395 303.146 227.585 303.146 226.636C303.146 225.693 303.265 224.888 303.504 224.22C303.745 223.55 304.092 223.038 304.543 222.686C304.998 222.331 305.543 222.153 306.18 222.153C306.816 222.153 307.36 222.331 307.812 222.686C308.266 223.038 308.613 223.55 308.852 224.22C309.093 224.888 309.214 225.693 309.214 226.636C309.214 227.585 309.094 228.395 308.856 229.065C308.617 229.733 308.272 230.243 307.82 230.595C307.369 230.945 306.822 231.119 306.18 231.119ZM306.18 230.182C306.816 230.182 307.31 229.875 307.663 229.261C308.015 228.648 308.191 227.773 308.191 226.636C308.191 225.881 308.11 225.237 307.948 224.706C307.789 224.175 307.559 223.77 307.258 223.491C306.96 223.213 306.6 223.074 306.18 223.074C305.549 223.074 305.056 223.385 304.701 224.007C304.346 224.626 304.168 225.503 304.168 226.636C304.168 227.392 304.248 228.034 304.407 228.562C304.566 229.091 304.795 229.493 305.093 229.768C305.394 230.044 305.756 230.182 306.18 230.182ZM313.68 231.119C313.038 231.119 312.491 230.945 312.039 230.595C311.587 230.243 311.242 229.733 311.004 229.065C310.765 228.395 310.646 227.585 310.646 226.636C310.646 225.693 310.765 224.888 311.004 224.22C311.245 223.55 311.592 223.038 312.043 222.686C312.498 222.331 313.043 222.153 313.68 222.153C314.316 222.153 314.86 222.331 315.312 222.686C315.766 223.038 316.113 223.55 316.352 224.22C316.593 224.888 316.714 225.693 316.714 226.636C316.714 227.585 316.594 228.395 316.356 229.065C316.117 229.733 315.772 230.243 315.32 230.595C314.869 230.945 314.322 231.119 313.68 231.119ZM313.68 230.182C314.316 230.182 314.81 229.875 315.163 229.261C315.515 228.648 315.691 227.773 315.691 226.636C315.691 225.881 315.61 225.237 315.448 224.706C315.289 224.175 315.059 223.77 314.758 223.491C314.46 223.213 314.1 223.074 313.68 223.074C313.049 223.074 312.556 223.385 312.201 224.007C311.846 224.626 311.668 225.503 311.668 226.636C311.668 227.392 311.748 228.034 311.907 228.562C312.066 229.091 312.295 229.493 312.593 229.768C312.894 230.044 313.256 230.182 313.68 230.182Z" fill="black" fill-opacity="0.4"/>
<path d="M358.366 229.21V228.341L362.201 222.273H362.832V223.619H362.406L359.508 228.205V228.273H364.673V229.21H358.366ZM362.474 231V228.946V228.541V222.273H363.479V231H362.474ZM367.377 229.807L367.308 230.267C367.26 230.591 367.186 230.938 367.087 231.307C366.99 231.676 366.889 232.024 366.784 232.351C366.679 232.678 366.592 232.938 366.524 233.131H365.757C365.794 232.949 365.842 232.709 365.902 232.411C365.962 232.112 366.021 231.778 366.081 231.409C366.144 231.043 366.195 230.668 366.234 230.284L366.286 229.807H367.377ZM371.765 231.119C371.123 231.119 370.576 230.945 370.124 230.595C369.672 230.243 369.327 229.733 369.089 229.065C368.85 228.395 368.731 227.585 368.731 226.636C368.731 225.693 368.85 224.888 369.089 224.22C369.33 223.55 369.677 223.038 370.128 222.686C370.583 222.331 371.128 222.153 371.765 222.153C372.401 222.153 372.945 222.331 373.397 222.686C373.851 223.038 374.198 223.55 374.437 224.22C374.678 224.888 374.799 225.693 374.799 226.636C374.799 227.585 374.679 228.395 374.441 229.065C374.202 229.733 373.857 230.243 373.405 230.595C372.954 230.945 372.407 231.119 371.765 231.119ZM371.765 230.182C372.401 230.182 372.895 229.875 373.248 229.261C373.6 228.648 373.776 227.773 373.776 226.636C373.776 225.881 373.695 225.237 373.533 224.706C373.374 224.175 373.144 223.77 372.843 223.491C372.544 223.213 372.185 223.074 371.765 223.074C371.134 223.074 370.641 223.385 370.286 224.007C369.931 224.626 369.753 225.503 369.753 226.636C369.753 227.392 369.833 228.034 369.992 228.562C370.151 229.091 370.38 229.493 370.678 229.768C370.979 230.044 371.341 230.182 371.765 230.182ZM379.265 231.119C378.623 231.119 378.076 230.945 377.624 230.595C377.172 230.243 376.827 229.733 376.589 229.065C376.35 228.395 376.231 227.585 376.231 226.636C376.231 225.693 376.35 224.888 376.589 224.22C376.83 223.55 377.177 223.038 377.628 222.686C378.083 222.331 378.628 222.153 379.265 222.153C379.901 222.153 380.445 222.331 380.897 222.686C381.351 223.038 381.698 223.55 381.937 224.22C382.178 224.888 382.299 225.693 382.299 226.636C382.299 227.585 382.179 228.395 381.941 229.065C381.702 229.733 381.357 230.243 380.905 230.595C380.454 230.945 379.907 231.119 379.265 231.119ZM379.265 230.182C379.901 230.182 380.395 229.875 380.748 229.261C381.1 228.648 381.276 227.773 381.276 226.636C381.276 225.881 381.195 225.237 381.033 224.706C380.874 224.175 380.644 223.77 380.343 223.491C380.044 223.213 379.685 223.074 379.265 223.074C378.634 223.074 378.141 223.385 377.786 224.007C377.431 224.626 377.253 225.503 377.253 226.636C377.253 227.392 377.333 228.034 377.492 228.562C377.651 229.091 377.88 229.493 378.178 229.768C378.479 230.044 378.841 230.182 379.265 230.182ZM386.765 231.119C386.123 231.119 385.576 230.945 385.124 230.595C384.672 230.243 384.327 229.733 384.089 229.065C383.85 228.395 383.731 227.585 383.731 226.636C383.731 225.693 383.85 224.888 384.089 224.22C384.33 223.55 384.677 223.038 385.128 222.686C385.583 222.331 386.128 222.153 386.765 222.153C387.401 222.153 387.945 222.331 388.397 222.686C388.851 223.038 389.198 223.55 389.437 224.22C389.678 224.888 389.799 225.693 389.799 226.636C389.799 227.585 389.679 228.395 389.441 229.065C389.202 229.733 388.857 230.243 388.405 230.595C387.954 230.945 387.407 231.119 386.765 231.119ZM386.765 230.182C387.401 230.182 387.895 229.875 388.248 229.261C388.6 228.648 388.776 227.773 388.776 226.636C388.776 225.881 388.695 225.237 388.533 224.706C388.374 224.175 388.144 223.77 387.843 223.491C387.544 223.213 387.185 223.074 386.765 223.074C386.134 223.074 385.641 223.385 385.286 224.007C384.931 224.626 384.753 225.503 384.753 226.636C384.753 227.392 384.833 228.034 384.992 228.562C385.151 229.091 385.38 229.493 385.678 229.768C385.979 230.044 386.341 230.182 386.765 230.182Z" fill="black" fill-opacity="0.4"/>
<path d="M434.464 231.119C433.964 231.119 433.513 231.02 433.113 230.821C432.712 230.622 432.391 230.349 432.15 230.003C431.908 229.656 431.776 229.261 431.753 228.818H432.776C432.816 229.213 432.995 229.54 433.313 229.798C433.634 230.054 434.018 230.182 434.464 230.182C434.822 230.182 435.14 230.098 435.418 229.93C435.699 229.763 435.92 229.533 436.079 229.24C436.241 228.945 436.322 228.611 436.322 228.239C436.322 227.858 436.238 227.518 436.07 227.22C435.905 226.919 435.678 226.682 435.388 226.509C435.099 226.335 434.768 226.247 434.396 226.244C434.128 226.241 433.854 226.283 433.573 226.368C433.292 226.45 433.06 226.557 432.878 226.688L431.89 226.568L432.418 222.273H436.952V223.21H433.305L432.998 225.784H433.049C433.228 225.642 433.452 225.524 433.722 225.43C433.992 225.337 434.273 225.29 434.566 225.29C435.1 225.29 435.576 225.418 435.994 225.673C436.414 225.926 436.744 226.273 436.982 226.713C437.224 227.153 437.344 227.656 437.344 228.222C437.344 228.778 437.219 229.276 436.969 229.713C436.722 230.148 436.381 230.491 435.947 230.744C435.512 230.994 435.018 231.119 434.464 231.119ZM440.226 229.807L440.158 230.267C440.11 230.591 440.036 230.938 439.936 231.307C439.84 231.676 439.739 232.024 439.634 232.351C439.529 232.678 439.442 232.938 439.374 233.131H438.607C438.644 232.949 438.692 232.709 438.752 232.411C438.811 232.112 438.871 231.778 438.931 231.409C438.993 231.043 439.044 230.668 439.084 230.284L439.135 229.807H440.226ZM444.614 231.119C443.972 231.119 443.425 230.945 442.974 230.595C442.522 230.243 442.177 229.733 441.938 229.065C441.699 228.395 441.58 227.585 441.58 226.636C441.58 225.693 441.699 224.888 441.938 224.22C442.18 223.55 442.526 223.038 442.978 222.686C443.432 222.331 443.978 222.153 444.614 222.153C445.251 222.153 445.795 222.331 446.246 222.686C446.701 223.038 447.047 223.55 447.286 224.22C447.528 224.888 447.648 225.693 447.648 226.636C447.648 227.585 447.529 228.395 447.29 229.065C447.052 229.733 446.707 230.243 446.255 230.595C445.803 230.945 445.256 231.119 444.614 231.119ZM444.614 230.182C445.251 230.182 445.745 229.875 446.097 229.261C446.449 228.648 446.626 227.773 446.626 226.636C446.626 225.881 446.545 225.237 446.383 224.706C446.224 224.175 445.994 223.77 445.692 223.491C445.394 223.213 445.035 223.074 444.614 223.074C443.984 223.074 443.491 223.385 443.136 224.007C442.78 224.626 442.603 225.503 442.603 226.636C442.603 227.392 442.682 228.034 442.842 228.562C443.001 229.091 443.229 229.493 443.528 229.768C443.829 230.044 444.191 230.182 444.614 230.182ZM452.114 231.119C451.472 231.119 450.925 230.945 450.474 230.595C450.022 230.243 449.677 229.733 449.438 229.065C449.199 228.395 449.08 227.585 449.08 226.636C449.08 225.693 449.199 224.888 449.438 224.22C449.68 223.55 450.026 223.038 450.478 222.686C450.932 222.331 451.478 222.153 452.114 222.153C452.751 222.153 453.295 222.331 453.746 222.686C454.201 223.038 454.547 223.55 454.786 224.22C455.028 224.888 455.148 225.693 455.148 226.636C455.148 227.585 455.029 228.395 454.79 229.065C454.552 229.733 454.207 230.243 453.755 230.595C453.303 230.945 452.756 231.119 452.114 231.119ZM452.114 230.182C452.751 230.182 453.245 229.875 453.597 229.261C453.949 228.648 454.126 227.773 454.126 226.636C454.126 225.881 454.045 225.237 453.883 224.706C453.724 224.175 453.494 223.77 453.192 223.491C452.894 223.213 452.535 223.074 452.114 223.074C451.484 223.074 450.991 223.385 450.636 224.007C450.28 224.626 450.103 225.503 450.103 226.636C450.103 227.392 450.182 228.034 450.342 228.562C450.501 229.091 450.729 229.493 451.028 229.768C451.329 230.044 451.691 230.182 452.114 230.182ZM459.614 231.119C458.972 231.119 458.425 230.945 457.974 230.595C457.522 230.243 457.177 229.733 456.938 229.065C456.699 228.395 456.58 227.585 456.58 226.636C456.58 225.693 456.699 224.888 456.938 224.22C457.18 223.55 457.526 223.038 457.978 222.686C458.432 222.331 458.978 222.153 459.614 222.153C460.251 222.153 460.795 222.331 461.246 222.686C461.701 223.038 462.047 223.55 462.286 224.22C462.528 224.888 462.648 225.693 462.648 226.636C462.648 227.585 462.529 228.395 462.29 229.065C462.052 229.733 461.707 230.243 461.255 230.595C460.803 230.945 460.256 231.119 459.614 231.119ZM459.614 230.182C460.251 230.182 460.745 229.875 461.097 229.261C461.449 228.648 461.626 227.773 461.626 226.636C461.626 225.881 461.545 225.237 461.383 224.706C461.224 224.175 460.994 223.77 460.692 223.491C460.394 223.213 460.035 223.074 459.614 223.074C458.984 223.074 458.491 223.385 458.136 224.007C457.78 224.626 457.603 225.503 457.603 226.636C457.603 227.392 457.682 228.034 457.842 228.562C458.001 229.091 458.229 229.493 458.528 229.768C458.829 230.044 459.191 230.182 459.614 230.182Z" fill="black" fill-opacity="0.4"/>
<rect opacity="0.2" x="58" y="76" width="338" height="18" rx="4" fill="url(#paint0_linear_24476_69850)"/>
<rect opacity="0.2" x="58" y="113" width="216" height="18" rx="4" fill="url(#paint1_linear_24476_69850)"/>
<rect opacity="0.2" x="58" y="151" width="249" height="18" rx="4" fill="url(#paint2_linear_24476_69850)"/>
<rect opacity="0.2" x="58" y="188" width="385" height="18" rx="4" fill="url(#paint3_linear_24476_69850)"/>
<path d="M58 76H346V94H58V76Z" fill="url(#paint4_linear_24476_69850)"/>
<path d="M58 113H242V131H58V113Z" fill="url(#paint5_linear_24476_69850)"/>
<path d="M58 151H270V169H58V151Z" fill="url(#paint6_linear_24476_69850)"/>
<path d="M58 188H386V206H58V188Z" fill="url(#paint7_linear_24476_69850)"/>
<defs>
<linearGradient id="paint0_linear_24476_69850" x1="396" y1="85" x2="276.5" y2="85" gradientUnits="userSpaceOnUse">
<stop stop-color="#1C1C1C"/>
<stop offset="1" stop-color="#1C1C1C" stop-opacity="0"/>
</linearGradient>
<linearGradient id="paint1_linear_24476_69850" x1="274" y1="131" x2="217.5" y2="131" gradientUnits="userSpaceOnUse">
<stop stop-color="#A1E3CB"/>
<stop offset="1" stop-color="#A1E3CB" stop-opacity="0"/>
</linearGradient>
<linearGradient id="paint2_linear_24476_69850" x1="307" y1="160" x2="218.966" y2="160" gradientUnits="userSpaceOnUse">
<stop stop-color="#1C1C1C"/>
<stop offset="1" stop-color="#1C1C1C" stop-opacity="0"/>
</linearGradient>
<linearGradient id="paint3_linear_24476_69850" x1="438" y1="206" x2="286.5" y2="206" gradientUnits="userSpaceOnUse">
<stop stop-color="#B1E3FF"/>
<stop offset="1" stop-color="#B1E3FF" stop-opacity="0"/>
</linearGradient>
<linearGradient id="paint4_linear_24476_69850" x1="346" y1="85" x2="58" y2="85" gradientUnits="userSpaceOnUse">
<stop stop-color="#1C1C1C"/>
<stop offset="1" stop-color="#1C1C1C" stop-opacity="0.6"/>
</linearGradient>
<linearGradient id="paint5_linear_24476_69850" x1="242" y1="122" x2="58" y2="122" gradientUnits="userSpaceOnUse">
<stop stop-color="#A1E3CB"/>
<stop offset="1" stop-color="#A1E3CB" stop-opacity="0.6"/>
</linearGradient>
<linearGradient id="paint6_linear_24476_69850" x1="270" y1="160" x2="58" y2="160" gradientUnits="userSpaceOnUse">
<stop stop-color="#1C1C1C"/>
<stop offset="1" stop-color="#1C1C1C" stop-opacity="0.6"/>
</linearGradient>
<linearGradient id="paint7_linear_24476_69850" x1="386" y1="206" x2="58" y2="206" gradientUnits="userSpaceOnUse">
<stop stop-color="#B1E3FF"/>
<stop offset="1" stop-color="#B1E3FF" stop-opacity="0.6"/>
</linearGradient>
</defs>
</svg>
