<svg width="520" height="260" viewBox="0 0 520 260" fill="none" xmlns="http://www.w3.org/2000/svg">
<rect width="520" height="260" rx="16" fill="#F7F9FB"/>
<path d="M25.0043 39V28.8182H28.902C29.6378 28.8182 30.2493 28.9342 30.7365 29.1662C31.227 29.3949 31.5933 29.7081 31.8352 30.1058C32.0805 30.5036 32.2031 30.9543 32.2031 31.4581C32.2031 31.8724 32.1236 32.227 31.9645 32.522C31.8054 32.8137 31.5916 33.0507 31.3232 33.233C31.0547 33.4152 30.7547 33.5462 30.4233 33.6257V33.7251C30.7846 33.745 31.1309 33.8561 31.4624 34.0582C31.7971 34.2571 32.0705 34.5388 32.2827 34.9034C32.4948 35.268 32.6009 35.7088 32.6009 36.2259C32.6009 36.7528 32.4732 37.2268 32.218 37.6477C31.9628 38.0653 31.5784 38.3951 31.0646 38.6371C30.5509 38.879 29.9046 39 29.1257 39H25.0043ZM26.8487 37.4588H28.8324C29.5019 37.4588 29.9841 37.3312 30.2791 37.076C30.5774 36.8175 30.7266 36.486 30.7266 36.0817C30.7266 35.7801 30.652 35.5083 30.5028 35.2663C30.3537 35.0211 30.1416 34.8288 29.8665 34.6896C29.5914 34.5471 29.2633 34.4759 28.8821 34.4759H26.8487V37.4588ZM26.8487 33.1484H28.6733C28.9915 33.1484 29.2782 33.0904 29.5334 32.9744C29.7886 32.8551 29.9891 32.6877 30.1349 32.4723C30.2841 32.2536 30.3587 31.995 30.3587 31.6967C30.3587 31.3023 30.2195 30.9775 29.9411 30.7223C29.666 30.4671 29.2566 30.3395 28.7131 30.3395H26.8487V33.1484ZM36.3233 39.1541C35.8394 39.1541 35.4036 39.0679 35.0158 38.8956C34.6313 38.7199 34.3264 38.4614 34.101 38.12C33.879 37.7786 33.7679 37.3577 33.7679 36.8572C33.7679 36.4264 33.8475 36.0701 34.0066 35.7884C34.1657 35.5066 34.3828 35.2812 34.6578 35.1122C34.9329 34.9432 35.2428 34.8156 35.5875 34.7294C35.9355 34.6399 36.2952 34.5753 36.6664 34.5355C37.1138 34.4891 37.4767 34.4477 37.7551 34.4112C38.0336 34.3714 38.2357 34.3118 38.3617 34.2322C38.4909 34.1494 38.5556 34.0218 38.5556 33.8494V33.8196C38.5556 33.4451 38.4445 33.1551 38.2225 32.9496C38.0004 32.7441 37.6806 32.6413 37.263 32.6413C36.8221 32.6413 36.4725 32.7375 36.214 32.9297C35.9587 33.1219 35.7864 33.349 35.6969 33.6108L34.0165 33.3722C34.1491 32.9081 34.3678 32.5204 34.6728 32.2088C34.9777 31.8939 35.3506 31.6586 35.7914 31.5028C36.2322 31.3438 36.7194 31.2642 37.253 31.2642C37.6209 31.2642 37.9872 31.3073 38.3517 31.3935C38.7163 31.4796 39.0494 31.6222 39.351 31.821C39.6526 32.0166 39.8946 32.2834 40.0769 32.6214C40.2625 32.9595 40.3553 33.3821 40.3553 33.8892V39H38.6252V37.951H38.5655C38.4561 38.1631 38.302 38.362 38.1032 38.5476C37.9076 38.7299 37.6607 38.8774 37.3624 38.9901C37.0674 39.0994 36.7211 39.1541 36.3233 39.1541ZM36.7907 37.8317C37.1519 37.8317 37.4651 37.7604 37.7303 37.6179C37.9954 37.4721 38.1993 37.2798 38.3418 37.0412C38.4876 36.8026 38.5605 36.5424 38.5605 36.2607V35.3608C38.5042 35.4072 38.4081 35.4503 38.2722 35.4901C38.1396 35.5298 37.9905 35.5646 37.8248 35.5945C37.659 35.6243 37.495 35.6508 37.3326 35.674C37.1702 35.6972 37.0293 35.7171 36.91 35.7337C36.6415 35.7701 36.4012 35.8298 36.1891 35.9126C35.977 35.9955 35.8096 36.1115 35.687 36.2607C35.5643 36.4065 35.503 36.5954 35.503 36.8274C35.503 37.1589 35.624 37.4091 35.8659 37.5781C36.1079 37.7472 36.4161 37.8317 36.7907 37.8317ZM42.165 39V31.3636H43.91V32.6364H43.9895C44.1287 32.1955 44.3674 31.8558 44.7054 31.6172C45.0468 31.3752 45.4363 31.2543 45.8738 31.2543C45.9732 31.2543 46.0842 31.2592 46.2069 31.2692C46.3328 31.2758 46.4372 31.2874 46.5201 31.304V32.9595C46.4438 32.933 46.3229 32.9098 46.1571 32.8899C45.9947 32.8667 45.8373 32.8551 45.6848 32.8551C45.3567 32.8551 45.0617 32.9264 44.7999 33.0689C44.5414 33.2081 44.3375 33.402 44.1884 33.6506C44.0392 33.8991 43.9647 34.1858 43.9647 34.5107V39H42.165ZM54.5194 39.1491C53.757 39.1491 53.1025 38.9818 52.5556 38.647C52.012 38.3123 51.5927 37.8499 51.2978 37.2599C51.0061 36.6667 50.8603 35.9839 50.8603 35.2116C50.8603 34.4361 51.0094 33.7517 51.3077 33.1584C51.606 32.5618 52.0269 32.0978 52.5705 31.7663C53.1174 31.4316 53.7637 31.2642 54.5094 31.2642C55.1292 31.2642 55.6777 31.3786 56.155 31.6072C56.6356 31.8326 57.0184 32.1525 57.3034 32.5668C57.5885 32.9777 57.7509 33.4583 57.7907 34.0085H56.0705C56.0009 33.6406 55.8352 33.334 55.5733 33.0888C55.3148 32.8402 54.9685 32.7159 54.5343 32.7159C54.1664 32.7159 53.8432 32.8153 53.5648 33.0142C53.2864 33.2098 53.0693 33.4915 52.9135 33.8594C52.7611 34.2273 52.6848 34.6681 52.6848 35.1818C52.6848 35.7022 52.7611 36.1496 52.9135 36.5241C53.066 36.8954 53.2798 37.1821 53.5549 37.3842C53.8333 37.5831 54.1597 37.6825 54.5343 37.6825C54.7994 37.6825 55.0364 37.6328 55.2452 37.5334C55.4573 37.4306 55.6346 37.2831 55.7772 37.0909C55.9197 36.8987 56.0175 36.665 56.0705 36.3899H57.7907C57.7476 36.9302 57.5885 37.4091 57.3134 37.8267C57.0383 38.241 56.6638 38.5658 56.1898 38.8011C55.7159 39.0331 55.159 39.1491 54.5194 39.1491ZM61.0682 34.5256V39H59.2685V28.8182H61.0284V32.6612H61.1179C61.2969 32.2304 61.5736 31.8906 61.9482 31.642C62.326 31.3902 62.8066 31.2642 63.3899 31.2642C63.9202 31.2642 64.3826 31.3752 64.777 31.5973C65.1714 31.8194 65.4763 32.1442 65.6918 32.5717C65.9105 32.9993 66.0199 33.5213 66.0199 34.1378V39H64.2202V34.4162C64.2202 33.9025 64.0876 33.5031 63.8224 33.218C63.5606 32.9297 63.1927 32.7855 62.7188 32.7855C62.4006 32.7855 62.1155 32.8551 61.8636 32.9943C61.6151 33.1302 61.4195 33.3274 61.277 33.5859C61.1378 33.8445 61.0682 34.1577 61.0682 34.5256ZM70.0518 39.1541C69.5679 39.1541 69.1321 39.0679 68.7443 38.8956C68.3598 38.7199 68.0549 38.4614 67.8295 38.12C67.6075 37.7786 67.4964 37.3577 67.4964 36.8572C67.4964 36.4264 67.576 36.0701 67.7351 35.7884C67.8942 35.5066 68.1113 35.2812 68.3864 35.1122C68.6615 34.9432 68.9714 34.8156 69.3161 34.7294C69.6641 34.6399 70.0237 34.5753 70.3949 34.5355C70.8423 34.4891 71.2053 34.4477 71.4837 34.4112C71.7621 34.3714 71.9643 34.3118 72.0902 34.2322C72.2195 34.1494 72.2841 34.0218 72.2841 33.8494V33.8196C72.2841 33.4451 72.1731 33.1551 71.951 32.9496C71.7289 32.7441 71.4091 32.6413 70.9915 32.6413C70.5507 32.6413 70.201 32.7375 69.9425 32.9297C69.6873 33.1219 69.5149 33.349 69.4254 33.6108L67.745 33.3722C67.8776 32.9081 68.0964 32.5204 68.4013 32.2088C68.7062 31.8939 69.0791 31.6586 69.5199 31.5028C69.9607 31.3438 70.4479 31.2642 70.9815 31.2642C71.3494 31.2642 71.7157 31.3073 72.0803 31.3935C72.4448 31.4796 72.7779 31.6222 73.0795 31.821C73.3812 32.0166 73.6231 32.2834 73.8054 32.6214C73.991 32.9595 74.0838 33.3821 74.0838 33.8892V39H72.3537V37.951H72.294C72.1847 38.1631 72.0305 38.362 71.8317 38.5476C71.6361 38.7299 71.3892 38.8774 71.0909 38.9901C70.7959 39.0994 70.4496 39.1541 70.0518 39.1541ZM70.5192 37.8317C70.8804 37.8317 71.1937 37.7604 71.4588 37.6179C71.724 37.4721 71.9278 37.2798 72.0703 37.0412C72.2161 36.8026 72.2891 36.5424 72.2891 36.2607V35.3608C72.2327 35.4072 72.1366 35.4503 72.0007 35.4901C71.8681 35.5298 71.719 35.5646 71.5533 35.5945C71.3875 35.6243 71.2235 35.6508 71.0611 35.674C70.8987 35.6972 70.7578 35.7171 70.6385 35.7337C70.37 35.7701 70.1297 35.8298 69.9176 35.9126C69.7055 35.9955 69.5381 36.1115 69.4155 36.2607C69.2929 36.4065 69.2315 36.5954 69.2315 36.8274C69.2315 37.1589 69.3525 37.4091 69.5945 37.5781C69.8364 37.7472 70.1446 37.8317 70.5192 37.8317ZM75.8935 39V31.3636H77.6385V32.6364H77.718C77.8572 32.1955 78.0959 31.8558 78.4339 31.6172C78.7753 31.3752 79.1648 31.2543 79.6023 31.2543C79.7017 31.2543 79.8127 31.2592 79.9354 31.2692C80.0613 31.2758 80.1657 31.2874 80.2486 31.304V32.9595C80.1723 32.933 80.0514 32.9098 79.8857 32.8899C79.7232 32.8667 79.5658 32.8551 79.4134 32.8551C79.0852 32.8551 78.7902 32.9264 78.5284 33.0689C78.2699 33.2081 78.0661 33.402 77.9169 33.6506C77.7678 33.8991 77.6932 34.1858 77.6932 34.5107V39H75.8935ZM85.6676 31.3636V32.7557H81.2777V31.3636H85.6676ZM82.3615 29.5341H84.1612V36.7031C84.1612 36.9451 84.1977 37.1307 84.2706 37.2599C84.3468 37.3859 84.4463 37.4721 84.5689 37.5185C84.6915 37.5649 84.8274 37.5881 84.9766 37.5881C85.0893 37.5881 85.192 37.5798 85.2848 37.5632C85.3809 37.5466 85.4538 37.5317 85.5036 37.5185L85.8068 38.9254C85.7107 38.9586 85.5732 38.995 85.3942 39.0348C85.2185 39.0746 85.0031 39.0978 84.7479 39.1044C84.2971 39.1177 83.8911 39.0497 83.5298 38.9006C83.1686 38.7481 82.8819 38.5128 82.6697 38.1946C82.4609 37.8764 82.3582 37.4787 82.3615 37.0014V29.5341Z" fill="#1C1C1C"/>
<path d="M28.2116 73.1193C27.6491 73.1193 27.1477 73.0227 26.7074 72.8295C26.2699 72.6364 25.9219 72.3679 25.6634 72.0241C25.4077 71.6776 25.2685 71.2756 25.2457 70.8182H26.3196C26.3423 71.0994 26.4389 71.3423 26.6094 71.5469C26.7798 71.7486 27.0028 71.9048 27.2784 72.0156C27.554 72.1264 27.8594 72.1818 28.1946 72.1818C28.5696 72.1818 28.902 72.1165 29.1918 71.9858C29.4815 71.8551 29.7088 71.6733 29.8736 71.4403C30.0384 71.2074 30.1207 70.9375 30.1207 70.6307C30.1207 70.3097 30.0412 70.027 29.8821 69.7827C29.723 69.5355 29.4901 69.3423 29.1832 69.2031C28.8764 69.0639 28.5014 68.9943 28.0582 68.9943H27.3594V68.0568H28.0582C28.4048 68.0568 28.7088 67.9943 28.9702 67.8693C29.2344 67.7443 29.4403 67.5682 29.5881 67.3409C29.7386 67.1136 29.8139 66.8466 29.8139 66.5398C29.8139 66.2443 29.7486 65.9872 29.6179 65.7685C29.4872 65.5497 29.3026 65.3793 29.0639 65.2571C28.8281 65.1349 28.5497 65.0739 28.2287 65.0739C27.9276 65.0739 27.6435 65.1293 27.3764 65.2401C27.1122 65.348 26.8963 65.5057 26.7287 65.7131C26.5611 65.9176 26.4702 66.1648 26.456 66.4545H25.4332C25.4503 65.9972 25.5881 65.5966 25.8466 65.2528C26.1051 64.9062 26.4432 64.6364 26.8608 64.4432C27.2813 64.25 27.7429 64.1534 28.2457 64.1534C28.7855 64.1534 29.2486 64.2628 29.6349 64.4815C30.0213 64.6974 30.3182 64.983 30.5256 65.3381C30.733 65.6932 30.8366 66.0767 30.8366 66.4886C30.8366 66.9801 30.7074 67.3991 30.4489 67.7457C30.1932 68.0923 29.8452 68.3324 29.4048 68.4659V68.5341C29.956 68.625 30.3864 68.8594 30.696 69.2372C31.0057 69.6122 31.1605 70.0767 31.1605 70.6307C31.1605 71.1051 31.0313 71.5312 30.7727 71.9091C30.517 72.2841 30.1676 72.5795 29.7244 72.7955C29.2813 73.0114 28.777 73.1193 28.2116 73.1193ZM35.75 73.1193C35.108 73.1193 34.5611 72.9446 34.1094 72.5952C33.6577 72.2429 33.3125 71.733 33.0739 71.0653C32.8352 70.3949 32.7159 69.5852 32.7159 68.6364C32.7159 67.6932 32.8352 66.8878 33.0739 66.2202C33.3153 65.5497 33.6619 65.0384 34.1136 64.6861C34.5682 64.331 35.1136 64.1534 35.75 64.1534C36.3864 64.1534 36.9304 64.331 37.3821 64.6861C37.8366 65.0384 38.1832 65.5497 38.4219 66.2202C38.6634 66.8878 38.7841 67.6932 38.7841 68.6364C38.7841 69.5852 38.6648 70.3949 38.4261 71.0653C38.1875 71.733 37.8423 72.2429 37.3906 72.5952C36.9389 72.9446 36.392 73.1193 35.75 73.1193ZM35.75 72.1818C36.3864 72.1818 36.8807 71.875 37.233 71.2614C37.5852 70.6477 37.7614 69.7727 37.7614 68.6364C37.7614 67.8807 37.6804 67.2372 37.5185 66.706C37.3594 66.1747 37.1293 65.7699 36.8281 65.4915C36.5298 65.2131 36.1705 65.0739 35.75 65.0739C35.1193 65.0739 34.6264 65.3849 34.2713 66.0071C33.9162 66.6264 33.7386 67.5028 33.7386 68.6364C33.7386 69.392 33.8182 70.0341 33.9773 70.5625C34.1364 71.0909 34.3651 71.4929 34.6634 71.7685C34.9645 72.044 35.3267 72.1818 35.75 72.1818ZM43.25 73.1193C42.608 73.1193 42.0611 72.9446 41.6094 72.5952C41.1577 72.2429 40.8125 71.733 40.5739 71.0653C40.3352 70.3949 40.2159 69.5852 40.2159 68.6364C40.2159 67.6932 40.3352 66.8878 40.5739 66.2202C40.8153 65.5497 41.1619 65.0384 41.6136 64.6861C42.0682 64.331 42.6136 64.1534 43.25 64.1534C43.8864 64.1534 44.4304 64.331 44.8821 64.6861C45.3366 65.0384 45.6832 65.5497 45.9219 66.2202C46.1634 66.8878 46.2841 67.6932 46.2841 68.6364C46.2841 69.5852 46.1648 70.3949 45.9261 71.0653C45.6875 71.733 45.3423 72.2429 44.8906 72.5952C44.4389 72.9446 43.892 73.1193 43.25 73.1193ZM43.25 72.1818C43.8864 72.1818 44.3807 71.875 44.733 71.2614C45.0852 70.6477 45.2614 69.7727 45.2614 68.6364C45.2614 67.8807 45.1804 67.2372 45.0185 66.706C44.8594 66.1747 44.6293 65.7699 44.3281 65.4915C44.0298 65.2131 43.6705 65.0739 43.25 65.0739C42.6193 65.0739 42.1264 65.3849 41.7713 66.0071C41.4162 66.6264 41.2386 67.5028 41.2386 68.6364C41.2386 69.392 41.3182 70.0341 41.4773 70.5625C41.6364 71.0909 41.8651 71.4929 42.1634 71.7685C42.4645 72.044 42.8267 72.1818 43.25 72.1818Z" fill="black" fill-opacity="0.4"/>
<path d="M25.6378 115.667V114.9L28.5185 111.747C28.8565 111.377 29.1349 111.056 29.3537 110.783C29.5724 110.508 29.7344 110.249 29.8395 110.008C29.9474 109.764 30.0014 109.508 30.0014 109.241C30.0014 108.934 29.9276 108.668 29.7798 108.444C29.6349 108.22 29.4361 108.046 29.1832 107.924C28.9304 107.802 28.6463 107.741 28.331 107.741C27.9957 107.741 27.7031 107.81 27.4531 107.95C27.206 108.086 27.0142 108.278 26.8778 108.525C26.7443 108.772 26.6776 109.062 26.6776 109.394H25.6719C25.6719 108.883 25.7898 108.434 26.0256 108.048C26.2614 107.661 26.5824 107.36 26.9886 107.144C27.3977 106.928 27.8565 106.82 28.3651 106.82C28.8764 106.82 29.3295 106.928 29.7244 107.144C30.1193 107.36 30.429 107.651 30.6534 108.018C30.8778 108.384 30.9901 108.792 30.9901 109.241C30.9901 109.562 30.9318 109.876 30.8153 110.183C30.7017 110.487 30.5028 110.826 30.2188 111.201C29.9375 111.573 29.5469 112.028 29.0469 112.565L27.0866 114.661V114.729H31.1435V115.667H25.6378ZM35.75 115.786C35.108 115.786 34.5611 115.612 34.1094 115.262C33.6577 114.91 33.3125 114.4 33.0739 113.732C32.8352 113.062 32.7159 112.252 32.7159 111.303C32.7159 110.36 32.8352 109.555 33.0739 108.887C33.3153 108.217 33.6619 107.705 34.1136 107.353C34.5682 106.998 35.1136 106.82 35.75 106.82C36.3864 106.82 36.9304 106.998 37.3821 107.353C37.8366 107.705 38.1832 108.217 38.4219 108.887C38.6634 109.555 38.7841 110.36 38.7841 111.303C38.7841 112.252 38.6648 113.062 38.4261 113.732C38.1875 114.4 37.8423 114.91 37.3906 115.262C36.9389 115.612 36.392 115.786 35.75 115.786ZM35.75 114.849C36.3864 114.849 36.8807 114.542 37.233 113.928C37.5852 113.315 37.7614 112.44 37.7614 111.303C37.7614 110.548 37.6804 109.904 37.5185 109.373C37.3594 108.842 37.1293 108.437 36.8281 108.158C36.5298 107.88 36.1705 107.741 35.75 107.741C35.1193 107.741 34.6264 108.052 34.2713 108.674C33.9162 109.293 33.7386 110.17 33.7386 111.303C33.7386 112.059 33.8182 112.701 33.9773 113.229C34.1364 113.758 34.3651 114.16 34.6634 114.435C34.9645 114.711 35.3267 114.849 35.75 114.849ZM43.25 115.786C42.608 115.786 42.0611 115.612 41.6094 115.262C41.1577 114.91 40.8125 114.4 40.5739 113.732C40.3352 113.062 40.2159 112.252 40.2159 111.303C40.2159 110.36 40.3352 109.555 40.5739 108.887C40.8153 108.217 41.1619 107.705 41.6136 107.353C42.0682 106.998 42.6136 106.82 43.25 106.82C43.8864 106.82 44.4304 106.998 44.8821 107.353C45.3366 107.705 45.6832 108.217 45.9219 108.887C46.1634 109.555 46.2841 110.36 46.2841 111.303C46.2841 112.252 46.1648 113.062 45.9261 113.732C45.6875 114.4 45.3423 114.91 44.8906 115.262C44.4389 115.612 43.892 115.786 43.25 115.786ZM43.25 114.849C43.8864 114.849 44.3807 114.542 44.733 113.928C45.0852 113.315 45.2614 112.44 45.2614 111.303C45.2614 110.548 45.1804 109.904 45.0185 109.373C44.8594 108.842 44.6293 108.437 44.3281 108.158C44.0298 107.88 43.6705 107.741 43.25 107.741C42.6193 107.741 42.1264 108.052 41.7713 108.674C41.4162 109.293 41.2386 110.17 41.2386 111.303C41.2386 112.059 41.3182 112.701 41.4773 113.229C41.6364 113.758 41.8651 114.16 42.1634 114.435C42.4645 114.711 42.8267 114.849 43.25 114.849Z" fill="black" fill-opacity="0.4"/>
<path d="M30.3935 149.606V158.333H29.3366V150.714H29.2855L27.1548 152.128V151.055L29.3366 149.606H30.3935ZM35.75 158.452C35.108 158.452 34.5611 158.278 34.1094 157.928C33.6577 157.576 33.3125 157.066 33.0739 156.398C32.8352 155.728 32.7159 154.918 32.7159 153.969C32.7159 153.026 32.8352 152.221 33.0739 151.553C33.3153 150.883 33.6619 150.371 34.1136 150.019C34.5682 149.664 35.1136 149.486 35.75 149.486C36.3864 149.486 36.9304 149.664 37.3821 150.019C37.8366 150.371 38.1832 150.883 38.4219 151.553C38.6634 152.221 38.7841 153.026 38.7841 153.969C38.7841 154.918 38.6648 155.728 38.4261 156.398C38.1875 157.066 37.8423 157.576 37.3906 157.928C36.9389 158.278 36.392 158.452 35.75 158.452ZM35.75 157.515C36.3864 157.515 36.8807 157.208 37.233 156.594C37.5852 155.981 37.7614 155.106 37.7614 153.969C37.7614 153.214 37.6804 152.57 37.5185 152.039C37.3594 151.508 37.1293 151.103 36.8281 150.824C36.5298 150.546 36.1705 150.407 35.75 150.407C35.1193 150.407 34.6264 150.718 34.2713 151.34C33.9162 151.959 33.7386 152.836 33.7386 153.969C33.7386 154.725 33.8182 155.367 33.9773 155.896C34.1364 156.424 34.3651 156.826 34.6634 157.101C34.9645 157.377 35.3267 157.515 35.75 157.515ZM43.25 158.452C42.608 158.452 42.0611 158.278 41.6094 157.928C41.1577 157.576 40.8125 157.066 40.5739 156.398C40.3352 155.728 40.2159 154.918 40.2159 153.969C40.2159 153.026 40.3352 152.221 40.5739 151.553C40.8153 150.883 41.1619 150.371 41.6136 150.019C42.0682 149.664 42.6136 149.486 43.25 149.486C43.8864 149.486 44.4304 149.664 44.8821 150.019C45.3366 150.371 45.6832 150.883 45.9219 151.553C46.1634 152.221 46.2841 153.026 46.2841 153.969C46.2841 154.918 46.1648 155.728 45.9261 156.398C45.6875 157.066 45.3423 157.576 44.8906 157.928C44.4389 158.278 43.892 158.452 43.25 158.452ZM43.25 157.515C43.8864 157.515 44.3807 157.208 44.733 156.594C45.0852 155.981 45.2614 155.106 45.2614 153.969C45.2614 153.214 45.1804 152.57 45.0185 152.039C44.8594 151.508 44.6293 151.103 44.3281 150.824C44.0298 150.546 43.6705 150.407 43.25 150.407C42.6193 150.407 42.1264 150.718 41.7713 151.34C41.4162 151.959 41.2386 152.836 41.2386 153.969C41.2386 154.725 41.3182 155.367 41.4773 155.896C41.6364 156.424 41.8651 156.826 42.1634 157.101C42.4645 157.377 42.8267 157.515 43.25 157.515Z" fill="black" fill-opacity="0.4"/>
<path d="M43.25 201.119C42.608 201.119 42.0611 200.945 41.6094 200.595C41.1577 200.243 40.8125 199.733 40.5739 199.065C40.3352 198.395 40.2159 197.585 40.2159 196.636C40.2159 195.693 40.3352 194.888 40.5739 194.22C40.8153 193.55 41.1619 193.038 41.6136 192.686C42.0682 192.331 42.6136 192.153 43.25 192.153C43.8864 192.153 44.4304 192.331 44.8821 192.686C45.3366 193.038 45.6832 193.55 45.9219 194.22C46.1634 194.888 46.2841 195.693 46.2841 196.636C46.2841 197.585 46.1648 198.395 45.9261 199.065C45.6875 199.733 45.3423 200.243 44.8906 200.595C44.4389 200.945 43.892 201.119 43.25 201.119ZM43.25 200.182C43.8864 200.182 44.3807 199.875 44.733 199.261C45.0852 198.648 45.2614 197.773 45.2614 196.636C45.2614 195.881 45.1804 195.237 45.0185 194.706C44.8594 194.175 44.6293 193.77 44.3281 193.491C44.0298 193.213 43.6705 193.074 43.25 193.074C42.6193 193.074 42.1264 193.385 41.7713 194.007C41.4162 194.626 41.2386 195.503 41.2386 196.636C41.2386 197.392 41.3182 198.034 41.4773 198.562C41.6364 199.091 41.8651 199.493 42.1634 199.768C42.4645 200.044 42.8267 200.182 43.25 200.182Z" fill="black" fill-opacity="0.4"/>
<line x1="63.5" y1="75.5" x2="495.5" y2="75.5" stroke="black" stroke-opacity="0.05" stroke-linecap="round"/>
<line x1="63.5" y1="118.833" x2="495.5" y2="118.833" stroke="black" stroke-opacity="0.05" stroke-linecap="round"/>
<line x1="63.5" y1="162.167" x2="495.5" y2="162.167" stroke="black" stroke-opacity="0.05" stroke-linecap="round"/>
<line x1="63.5" y1="205.5" x2="495.5" y2="205.5" stroke="black" stroke-opacity="0.2" stroke-linecap="round"/>
<path d="M87.7124 222.273H88.9738L91.9397 229.517H92.042L95.0079 222.273H96.2692V231H95.2806V224.369H95.1954L92.4681 231H91.5136L88.7863 224.369H88.7011V231H87.7124V222.273ZM100.911 231.136C100.32 231.136 99.8015 230.996 99.3555 230.714C98.9123 230.433 98.5658 230.04 98.3158 229.534C98.0686 229.028 97.945 228.437 97.945 227.761C97.945 227.08 98.0686 226.484 98.3158 225.976C98.5658 225.467 98.9123 225.072 99.3555 224.791C99.8015 224.51 100.32 224.369 100.911 224.369C101.502 224.369 102.019 224.51 102.462 224.791C102.908 225.072 103.255 225.467 103.502 225.976C103.752 226.484 103.877 227.08 103.877 227.761C103.877 228.437 103.752 229.028 103.502 229.534C103.255 230.04 102.908 230.433 102.462 230.714C102.019 230.996 101.502 231.136 100.911 231.136ZM100.911 230.233C101.36 230.233 101.729 230.118 102.019 229.888C102.309 229.658 102.523 229.355 102.662 228.98C102.802 228.605 102.871 228.199 102.871 227.761C102.871 227.324 102.802 226.916 102.662 226.538C102.523 226.161 102.309 225.855 102.019 225.622C101.729 225.389 101.36 225.273 100.911 225.273C100.462 225.273 100.093 225.389 99.803 225.622C99.5132 225.855 99.2987 226.161 99.1595 226.538C99.0203 226.916 98.9507 227.324 98.9507 227.761C98.9507 228.199 99.0203 228.605 99.1595 228.98C99.2987 229.355 99.5132 229.658 99.803 229.888C100.093 230.118 100.462 230.233 100.911 230.233ZM106.418 227.062V231H105.412V224.455H106.384V225.477H106.469C106.622 225.145 106.855 224.878 107.168 224.676C107.48 224.472 107.884 224.369 108.378 224.369C108.821 224.369 109.209 224.46 109.541 224.642C109.874 224.821 110.132 225.094 110.317 225.46C110.501 225.824 110.594 226.284 110.594 226.841V231H109.588V226.909C109.588 226.395 109.455 225.994 109.188 225.707C108.921 225.418 108.554 225.273 108.088 225.273C107.767 225.273 107.48 225.342 107.227 225.482C106.977 225.621 106.78 225.824 106.635 226.091C106.49 226.358 106.418 226.682 106.418 227.062Z" fill="black" fill-opacity="0.4"/>
<path d="M161.447 223.21V222.273H167.993V223.21H165.248V231H164.191V223.21H161.447ZM172.722 228.324V224.455H173.727V231H172.722V229.892H172.653C172.5 230.224 172.261 230.507 171.937 230.74C171.614 230.97 171.205 231.085 170.71 231.085C170.301 231.085 169.937 230.996 169.619 230.817C169.301 230.635 169.051 230.362 168.869 229.999C168.687 229.632 168.597 229.17 168.597 228.614V224.455H169.602V228.545C169.602 229.023 169.736 229.403 170.003 229.688C170.273 229.972 170.616 230.114 171.034 230.114C171.284 230.114 171.538 230.05 171.797 229.922C172.058 229.794 172.277 229.598 172.453 229.334C172.632 229.07 172.722 228.733 172.722 228.324ZM178.314 231.136C177.683 231.136 177.139 230.997 176.681 230.719C176.227 230.438 175.876 230.045 175.629 229.543C175.385 229.037 175.262 228.449 175.262 227.778C175.262 227.108 175.385 226.517 175.629 226.006C175.876 225.491 176.22 225.091 176.66 224.804C177.103 224.514 177.62 224.369 178.211 224.369C178.552 224.369 178.889 224.426 179.221 224.54C179.554 224.653 179.856 224.838 180.129 225.094C180.402 225.347 180.619 225.682 180.781 226.099C180.943 226.517 181.024 227.031 181.024 227.642V228.068H175.978V227.199H180.001C180.001 226.83 179.927 226.5 179.779 226.21C179.635 225.92 179.427 225.692 179.157 225.524C178.89 225.357 178.575 225.273 178.211 225.273C177.811 225.273 177.464 225.372 177.171 225.571C176.882 225.767 176.659 226.023 176.502 226.338C176.346 226.653 176.268 226.991 176.268 227.352V227.932C176.268 228.426 176.353 228.845 176.524 229.189C176.697 229.53 176.937 229.79 177.244 229.969C177.551 230.145 177.907 230.233 178.314 230.233C178.578 230.233 178.816 230.196 179.029 230.122C179.245 230.045 179.431 229.932 179.588 229.781C179.744 229.628 179.865 229.437 179.95 229.21L180.921 229.483C180.819 229.812 180.647 230.102 180.406 230.352C180.164 230.599 179.866 230.793 179.511 230.932C179.156 231.068 178.757 231.136 178.314 231.136Z" fill="black" fill-opacity="0.4"/>
<path d="M233.449 231L231.063 222.273H232.137L233.96 229.381H234.046L235.904 222.273H237.097L238.955 229.381H239.04L240.864 222.273H241.938L239.551 231H238.46L236.534 224.045H236.466L234.54 231H233.449ZM245.253 231.136C244.622 231.136 244.078 230.997 243.621 230.719C243.166 230.438 242.815 230.045 242.568 229.543C242.324 229.037 242.202 228.449 242.202 227.778C242.202 227.108 242.324 226.517 242.568 226.006C242.815 225.491 243.159 225.091 243.6 224.804C244.043 224.514 244.56 224.369 245.151 224.369C245.492 224.369 245.828 224.426 246.161 224.54C246.493 224.653 246.796 224.838 247.068 225.094C247.341 225.347 247.558 225.682 247.72 226.099C247.882 226.517 247.963 227.031 247.963 227.642V228.068H242.918V227.199H246.94C246.94 226.83 246.867 226.5 246.719 226.21C246.574 225.92 246.367 225.692 246.097 225.524C245.83 225.357 245.514 225.273 245.151 225.273C244.75 225.273 244.404 225.372 244.111 225.571C243.821 225.767 243.598 226.023 243.442 226.338C243.286 226.653 243.208 226.991 243.208 227.352V227.932C243.208 228.426 243.293 228.845 243.463 229.189C243.637 229.53 243.877 229.79 244.183 229.969C244.49 230.145 244.847 230.233 245.253 230.233C245.517 230.233 245.756 230.196 245.969 230.122C246.185 230.045 246.371 229.932 246.527 229.781C246.683 229.628 246.804 229.437 246.889 229.21L247.861 229.483C247.759 229.812 247.587 230.102 247.345 230.352C247.104 230.599 246.806 230.793 246.45 230.932C246.095 231.068 245.696 231.136 245.253 231.136ZM251.965 231.136C251.419 231.136 250.938 230.999 250.52 230.723C250.102 230.445 249.776 230.053 249.54 229.547C249.304 229.038 249.186 228.438 249.186 227.744C249.186 227.057 249.304 226.46 249.54 225.955C249.776 225.449 250.104 225.058 250.524 224.783C250.945 224.507 251.431 224.369 251.982 224.369C252.408 224.369 252.744 224.44 252.992 224.582C253.242 224.722 253.432 224.881 253.563 225.06C253.696 225.236 253.8 225.381 253.874 225.494H253.959V222.273H254.965V231H253.993V229.994H253.874C253.8 230.114 253.695 230.264 253.558 230.446C253.422 230.625 253.227 230.786 252.975 230.928C252.722 231.067 252.385 231.136 251.965 231.136ZM252.101 230.233C252.504 230.233 252.845 230.128 253.124 229.918C253.402 229.705 253.614 229.411 253.759 229.036C253.904 228.658 253.976 228.222 253.976 227.727C253.976 227.239 253.905 226.811 253.763 226.445C253.621 226.075 253.411 225.788 253.132 225.584C252.854 225.376 252.51 225.273 252.101 225.273C251.675 225.273 251.32 225.382 251.036 225.601C250.754 225.817 250.543 226.111 250.401 226.483C250.262 226.852 250.192 227.267 250.192 227.727C250.192 228.193 250.263 228.616 250.405 228.997C250.55 229.375 250.763 229.676 251.044 229.901C251.328 230.122 251.681 230.233 252.101 230.233Z" fill="black" fill-opacity="0.4"/>
<path d="M305.282 223.21V222.273H311.827V223.21H309.083V231H308.026V223.21H305.282ZM314.328 227.062V231H313.322V222.273H314.328V225.477H314.413C314.566 225.139 314.797 224.871 315.103 224.672C315.413 224.47 315.825 224.369 316.339 224.369C316.785 224.369 317.176 224.459 317.511 224.638C317.846 224.814 318.106 225.085 318.291 225.452C318.478 225.815 318.572 226.278 318.572 226.841V231H317.566V226.909C317.566 226.389 317.432 225.987 317.162 225.703C316.895 225.416 316.524 225.273 316.049 225.273C315.72 225.273 315.424 225.342 315.163 225.482C314.905 225.621 314.7 225.824 314.549 226.091C314.402 226.358 314.328 226.682 314.328 227.062ZM324.537 228.324V224.455H325.543V231H324.537V229.892H324.469C324.315 230.224 324.077 230.507 323.753 230.74C323.429 230.97 323.02 231.085 322.526 231.085C322.117 231.085 321.753 230.996 321.435 230.817C321.117 230.635 320.867 230.362 320.685 229.999C320.503 229.632 320.412 229.17 320.412 228.614V224.455H321.418V228.545C321.418 229.023 321.551 229.403 321.818 229.688C322.088 229.972 322.432 230.114 322.849 230.114C323.099 230.114 323.354 230.05 323.612 229.922C323.874 229.794 324.092 229.598 324.269 229.334C324.448 229.07 324.537 228.733 324.537 228.324Z" fill="black" fill-opacity="0.4"/>
<path d="M381.665 231V222.273H386.898V223.21H382.721V226.159H386.505V227.097H382.721V231H381.665ZM388.501 231V224.455H389.472V225.443H389.541C389.66 225.119 389.876 224.857 390.188 224.655C390.501 224.453 390.853 224.352 391.245 224.352C391.319 224.352 391.411 224.354 391.522 224.357C391.633 224.359 391.717 224.364 391.774 224.369V225.392C391.739 225.384 391.661 225.371 391.539 225.354C391.42 225.334 391.293 225.324 391.16 225.324C390.842 225.324 390.558 225.391 390.308 225.524C390.061 225.655 389.864 225.837 389.72 226.07C389.578 226.3 389.507 226.562 389.507 226.858V231H388.501ZM392.966 231V224.455H393.971V231H392.966ZM393.477 223.364C393.281 223.364 393.112 223.297 392.97 223.163C392.831 223.03 392.761 222.869 392.761 222.682C392.761 222.494 392.831 222.334 392.97 222.2C393.112 222.067 393.281 222 393.477 222C393.673 222 393.841 222.067 393.98 222.2C394.122 222.334 394.193 222.494 394.193 222.682C394.193 222.869 394.122 223.03 393.98 223.163C393.841 223.297 393.673 223.364 393.477 223.364Z" fill="black" fill-opacity="0.4"/>
<path d="M456.359 224.455C456.308 224.023 456.101 223.688 455.737 223.449C455.373 223.21 454.927 223.091 454.399 223.091C454.013 223.091 453.675 223.153 453.385 223.278C453.098 223.403 452.873 223.575 452.711 223.794C452.552 224.013 452.473 224.261 452.473 224.54C452.473 224.773 452.528 224.973 452.639 225.141C452.753 225.305 452.898 225.443 453.074 225.554C453.25 225.662 453.434 225.751 453.628 225.822C453.821 225.891 453.998 225.946 454.16 225.989L455.047 226.227C455.274 226.287 455.527 226.369 455.805 226.474C456.086 226.58 456.355 226.723 456.611 226.905C456.869 227.084 457.082 227.314 457.25 227.595C457.417 227.876 457.501 228.222 457.501 228.631C457.501 229.102 457.378 229.528 457.13 229.909C456.886 230.29 456.528 230.592 456.057 230.817C455.588 231.041 455.018 231.153 454.348 231.153C453.723 231.153 453.182 231.053 452.724 230.851C452.27 230.649 451.912 230.368 451.65 230.007C451.392 229.646 451.246 229.227 451.211 228.75H452.302C452.331 229.08 452.442 229.352 452.635 229.568C452.831 229.781 453.078 229.94 453.376 230.045C453.677 230.148 454.001 230.199 454.348 230.199C454.751 230.199 455.113 230.134 455.434 230.003C455.755 229.869 456.01 229.685 456.197 229.449C456.385 229.21 456.478 228.932 456.478 228.614C456.478 228.324 456.398 228.088 456.236 227.906C456.074 227.724 455.861 227.577 455.596 227.463C455.332 227.349 455.047 227.25 454.74 227.165L453.666 226.858C452.984 226.662 452.444 226.382 452.047 226.018C451.649 225.655 451.45 225.179 451.45 224.591C451.45 224.102 451.582 223.676 451.846 223.312C452.113 222.946 452.471 222.662 452.92 222.46C453.372 222.256 453.876 222.153 454.433 222.153C454.996 222.153 455.496 222.254 455.933 222.456C456.371 222.655 456.717 222.928 456.973 223.274C457.231 223.621 457.368 224.014 457.382 224.455H456.359ZM461.029 231.153C460.614 231.153 460.237 231.075 459.899 230.919C459.561 230.76 459.293 230.531 459.094 230.233C458.895 229.932 458.796 229.568 458.796 229.142C458.796 228.767 458.869 228.463 459.017 228.23C459.165 227.994 459.362 227.81 459.61 227.676C459.857 227.543 460.129 227.443 460.428 227.378C460.729 227.31 461.031 227.256 461.335 227.216C461.733 227.165 462.056 227.126 462.303 227.101C462.553 227.072 462.735 227.026 462.848 226.96C462.965 226.895 463.023 226.781 463.023 226.619V226.585C463.023 226.165 462.908 225.838 462.678 225.605C462.45 225.372 462.105 225.256 461.642 225.256C461.162 225.256 460.786 225.361 460.513 225.571C460.24 225.781 460.048 226.006 459.938 226.244L458.983 225.903C459.154 225.506 459.381 225.196 459.665 224.974C459.952 224.75 460.264 224.594 460.602 224.506C460.943 224.415 461.279 224.369 461.608 224.369C461.818 224.369 462.06 224.395 462.333 224.446C462.608 224.494 462.874 224.595 463.129 224.749C463.388 224.902 463.602 225.134 463.773 225.443C463.943 225.753 464.029 226.168 464.029 226.688V231H463.023V230.114H462.972C462.904 230.256 462.79 230.408 462.631 230.57C462.472 230.732 462.26 230.869 461.996 230.983C461.732 231.097 461.409 231.153 461.029 231.153ZM461.182 230.25C461.58 230.25 461.915 230.172 462.188 230.016C462.463 229.859 462.671 229.658 462.81 229.411C462.952 229.163 463.023 228.903 463.023 228.631V227.71C462.98 227.761 462.887 227.808 462.742 227.851C462.6 227.891 462.435 227.926 462.247 227.957C462.063 227.986 461.882 228.011 461.706 228.034C461.533 228.054 461.392 228.071 461.284 228.085C461.023 228.119 460.779 228.175 460.551 228.251C460.327 228.325 460.145 228.437 460.006 228.588C459.869 228.736 459.801 228.937 459.801 229.193C459.801 229.543 459.931 229.807 460.189 229.986C460.45 230.162 460.781 230.25 461.182 230.25ZM468.711 224.455V225.307H465.319V224.455H468.711ZM466.307 222.886H467.313V229.125C467.313 229.409 467.354 229.622 467.437 229.764C467.522 229.903 467.63 229.997 467.76 230.045C467.894 230.091 468.035 230.114 468.182 230.114C468.293 230.114 468.384 230.108 468.455 230.097C468.526 230.082 468.583 230.071 468.626 230.062L468.83 230.966C468.762 230.991 468.667 231.017 468.545 231.043C468.422 231.071 468.268 231.085 468.08 231.085C467.796 231.085 467.518 231.024 467.245 230.902C466.975 230.78 466.751 230.594 466.572 230.344C466.395 230.094 466.307 229.778 466.307 229.398V222.886Z" fill="black" fill-opacity="0.4"/>
<rect x="90" y="158" width="18" height="47" fill="url(#paint0_linear_24476_69618)"/>
<rect x="162" y="124" width="18" height="81" fill="url(#paint1_linear_24476_69618)"/>
<rect x="234" y="134" width="18" height="71" fill="url(#paint2_linear_24476_69618)"/>
<rect x="306" y="170" width="18" height="35" fill="url(#paint3_linear_24476_69618)"/>
<rect x="378" y="170" width="18" height="35" fill="url(#paint4_linear_24476_69618)"/>
<rect x="450" y="117" width="18" height="88" fill="url(#paint5_linear_24476_69618)"/>
<rect x="90" y="133" width="18" height="28" fill="#C6C7F8"/>
<rect x="162" y="120" width="18" height="9" fill="#C6C7F8"/>
<rect x="234" y="110" width="18" height="28" fill="#C6C7F8"/>
<rect x="306" y="140" width="18" height="34" fill="#C6C7F8"/>
<rect x="378" y="164" width="18" height="10" fill="#C6C7F8"/>
<rect x="450" y="113" width="18" height="10" fill="#C6C7F8"/>
<path d="M90 108C90 105.791 91.7909 104 94 104H104C106.209 104 108 105.791 108 108V133H90V108Z" fill="#95A4FC"/>
<path d="M162 88C162 85.7909 163.791 84 166 84H176C178.209 84 180 85.7909 180 88V120H162V88Z" fill="#95A4FC"/>
<path d="M234 84C234 81.7909 235.791 80 238 80H248C250.209 80 252 81.7909 252 84V110H234V84Z" fill="#95A4FC"/>
<path d="M306 79C306 76.7909 307.791 75 310 75H320C322.209 75 324 76.7909 324 79V140H306V79Z" fill="#95A4FC"/>
<path d="M378 118C378 115.791 379.791 114 382 114H392C394.209 114 396 115.791 396 118V164H378V118Z" fill="#95A4FC"/>
<path d="M450 88C450 85.7909 451.791 84 454 84H464C466.209 84 468 85.7909 468 88V114H450V88Z" fill="#95A4FC"/>
<defs>
<linearGradient id="paint0_linear_24476_69618" x1="99" y1="158" x2="99" y2="205" gradientUnits="userSpaceOnUse">
<stop stop-color="#1C1C1C"/>
<stop offset="1" stop-color="#1C1C1C" stop-opacity="0.8"/>
</linearGradient>
<linearGradient id="paint1_linear_24476_69618" x1="171" y1="124" x2="171" y2="205" gradientUnits="userSpaceOnUse">
<stop stop-color="#1C1C1C"/>
<stop offset="1" stop-color="#1C1C1C" stop-opacity="0.8"/>
</linearGradient>
<linearGradient id="paint2_linear_24476_69618" x1="243" y1="134" x2="243" y2="205" gradientUnits="userSpaceOnUse">
<stop stop-color="#1C1C1C"/>
<stop offset="1" stop-color="#1C1C1C" stop-opacity="0.8"/>
</linearGradient>
<linearGradient id="paint3_linear_24476_69618" x1="315" y1="170" x2="315" y2="205" gradientUnits="userSpaceOnUse">
<stop stop-color="#1C1C1C"/>
<stop offset="1" stop-color="#1C1C1C" stop-opacity="0.8"/>
</linearGradient>
<linearGradient id="paint4_linear_24476_69618" x1="387" y1="170" x2="387" y2="205" gradientUnits="userSpaceOnUse">
<stop stop-color="#1C1C1C"/>
<stop offset="1" stop-color="#1C1C1C" stop-opacity="0.8"/>
</linearGradient>
<linearGradient id="paint5_linear_24476_69618" x1="459" y1="117" x2="459" y2="205" gradientUnits="userSpaceOnUse">
<stop stop-color="#1C1C1C"/>
<stop offset="1" stop-color="#1C1C1C" stop-opacity="0.8"/>
</linearGradient>
</defs>
</svg>
