<svg width="520" height="260" viewBox="0 0 520 260" fill="none" xmlns="http://www.w3.org/2000/svg">
<rect width="520" height="260" rx="16" fill="#F7F9FB"/>
<path d="M28.4545 39H25.0043V28.8182H28.5241C29.535 28.8182 30.4034 29.022 31.1293 29.4297C31.8584 29.834 32.4186 30.4157 32.8097 31.1747C33.2008 31.9337 33.3963 32.8419 33.3963 33.8991C33.3963 34.9598 33.1991 35.8712 32.8047 36.6335C32.4136 37.3958 31.8485 37.9808 31.1094 38.3885C30.3736 38.7962 29.4886 39 28.4545 39ZM26.8487 37.4041H28.3651C29.0743 37.4041 29.666 37.2749 30.1399 37.0163C30.6139 36.7545 30.9702 36.3651 31.2088 35.848C31.4474 35.3277 31.5668 34.678 31.5668 33.8991C31.5668 33.1203 31.4474 32.474 31.2088 31.9602C30.9702 31.4432 30.6172 31.0571 30.1499 30.8018C29.6858 30.5433 29.1091 30.4141 28.4197 30.4141H26.8487V37.4041ZM38.4002 39.1491C37.6545 39.1491 37.0082 38.9851 36.4613 38.657C35.9144 38.3288 35.4902 37.8698 35.1886 37.2798C34.8903 36.6899 34.7411 36.0005 34.7411 35.2116C34.7411 34.4228 34.8903 33.7318 35.1886 33.1385C35.4902 32.5452 35.9144 32.0845 36.4613 31.7564C37.0082 31.4283 37.6545 31.2642 38.4002 31.2642C39.146 31.2642 39.7923 31.4283 40.3391 31.7564C40.886 32.0845 41.3086 32.5452 41.6069 33.1385C41.9085 33.7318 42.0593 34.4228 42.0593 35.2116C42.0593 36.0005 41.9085 36.6899 41.6069 37.2798C41.3086 37.8698 40.886 38.3288 40.3391 38.657C39.7923 38.9851 39.146 39.1491 38.4002 39.1491ZM38.4102 37.7074C38.8145 37.7074 39.1526 37.5964 39.4244 37.3743C39.6961 37.1489 39.8983 36.8473 40.0309 36.4695C40.1668 36.0916 40.2347 35.6707 40.2347 35.2067C40.2347 34.7393 40.1668 34.3168 40.0309 33.9389C39.8983 33.5578 39.6961 33.2545 39.4244 33.0291C39.1526 32.8037 38.8145 32.6911 38.4102 32.6911C37.9959 32.6911 37.6512 32.8037 37.3761 33.0291C37.1043 33.2545 36.9004 33.5578 36.7646 33.9389C36.632 34.3168 36.5657 34.7393 36.5657 35.2067C36.5657 35.6707 36.632 36.0916 36.7646 36.4695C36.9004 36.8473 37.1043 37.1489 37.3761 37.3743C37.6512 37.5964 37.9959 37.7074 38.4102 37.7074ZM48.454 35.7884V31.3636H50.2537V39H48.5087V37.6428H48.4292C48.2568 38.0703 47.9734 38.42 47.579 38.6918C47.1879 38.9635 46.7057 39.0994 46.1323 39.0994C45.6318 39.0994 45.1893 38.9884 44.8049 38.7663C44.4237 38.541 44.1254 38.2145 43.91 37.7869C43.6945 37.3561 43.5868 36.8357 43.5868 36.2259V31.3636H45.3865V35.9474C45.3865 36.4313 45.5191 36.8158 45.7843 37.1009C46.0494 37.3859 46.3974 37.5284 46.8283 37.5284C47.0935 37.5284 47.3503 37.4638 47.5989 37.3345C47.8475 37.2053 48.0513 37.013 48.2104 36.7578C48.3728 36.4993 48.454 36.1761 48.454 35.7884ZM55.4254 42.0227C54.7791 42.0227 54.224 41.9349 53.7599 41.7592C53.2959 41.5869 52.9231 41.3549 52.6413 41.0632C52.3596 40.7715 52.1641 40.4484 52.0547 40.0938L53.6754 39.701C53.7483 39.8501 53.8544 39.9976 53.9936 40.1435C54.1328 40.2926 54.3201 40.4152 54.5554 40.5114C54.794 40.6108 55.094 40.6605 55.4553 40.6605C55.9657 40.6605 56.3883 40.5362 56.723 40.2876C57.0578 40.0424 57.2251 39.638 57.2251 39.0746V37.6278H57.1357C57.0429 37.8134 56.907 38.004 56.728 38.1996C56.5523 38.3951 56.3187 38.5592 56.027 38.6918C55.7386 38.8243 55.3757 38.8906 54.9382 38.8906C54.3516 38.8906 53.8196 38.7531 53.3423 38.478C52.8684 38.1996 52.4905 37.7853 52.2088 37.2351C51.9304 36.6816 51.7912 35.9889 51.7912 35.157C51.7912 34.3184 51.9304 33.6108 52.2088 33.0341C52.4905 32.4541 52.87 32.0149 53.3473 31.7166C53.8246 31.415 54.3565 31.2642 54.9432 31.2642C55.3906 31.2642 55.7585 31.3404 56.0469 31.4929C56.3385 31.642 56.5705 31.8227 56.7429 32.0348C56.9152 32.2436 57.0462 32.4408 57.1357 32.6264H57.2351V31.3636H59.0099V39.1243C59.0099 39.7772 58.8542 40.3175 58.5426 40.745C58.2311 41.1726 57.8052 41.4924 57.2649 41.7045C56.7247 41.9167 56.1115 42.0227 55.4254 42.0227ZM55.4403 37.4787C55.8215 37.4787 56.1463 37.3859 56.4148 37.2003C56.6832 37.0147 56.8871 36.7479 57.0263 36.3999C57.1655 36.0518 57.2351 35.6342 57.2351 35.147C57.2351 34.6664 57.1655 34.2455 57.0263 33.8842C56.8904 33.523 56.6882 33.2429 56.4197 33.044C56.1546 32.8419 55.8281 32.7408 55.4403 32.7408C55.0393 32.7408 54.7045 32.8452 54.4361 33.054C54.1676 33.2628 53.9654 33.5495 53.8295 33.9141C53.6937 34.2753 53.6257 34.6863 53.6257 35.147C53.6257 35.6143 53.6937 36.0237 53.8295 36.375C53.9688 36.723 54.1726 36.9948 54.4411 37.1903C54.7128 37.3826 55.0459 37.4787 55.4403 37.4787ZM62.6541 34.5256V39H60.8544V28.8182H62.6143V32.6612H62.7038C62.8828 32.2304 63.1596 31.8906 63.5341 31.642C63.9119 31.3902 64.3925 31.2642 64.9759 31.2642C65.5062 31.2642 65.9685 31.3752 66.3629 31.5973C66.7573 31.8194 67.0623 32.1442 67.2777 32.5717C67.4964 32.9993 67.6058 33.5213 67.6058 34.1378V39H65.8061V34.4162C65.8061 33.9025 65.6735 33.5031 65.4084 33.218C65.1465 32.9297 64.7786 32.7855 64.3047 32.7855C63.9865 32.7855 63.7015 32.8551 63.4496 32.9943C63.201 33.1302 63.0054 33.3274 62.8629 33.5859C62.7237 33.8445 62.6541 34.1577 62.6541 34.5256ZM71.2401 34.5256V39H69.4403V31.3636H71.1605V32.6612H71.25C71.4257 32.2337 71.7057 31.8939 72.0902 31.642C72.478 31.3902 72.9569 31.2642 73.527 31.2642C74.054 31.2642 74.513 31.3769 74.9041 31.6023C75.2985 31.8277 75.6035 32.1541 75.8189 32.5817C76.0376 33.0092 76.1454 33.5279 76.142 34.1378V39H74.3423V34.4162C74.3423 33.9058 74.2098 33.5064 73.9446 33.218C73.6828 32.9297 73.3198 32.7855 72.8558 32.7855C72.541 32.7855 72.2609 32.8551 72.0156 32.9943C71.7737 33.1302 71.5831 33.3274 71.4439 33.5859C71.308 33.8445 71.2401 34.1577 71.2401 34.5256ZM82.8388 35.7884V31.3636H84.6385V39H82.8935V37.6428H82.8139C82.6416 38.0703 82.3582 38.42 81.9638 38.6918C81.5727 38.9635 81.0904 39.0994 80.517 39.0994C80.0166 39.0994 79.5741 38.9884 79.1896 38.7663C78.8085 38.541 78.5102 38.2145 78.2947 37.7869C78.0793 37.3561 77.9716 36.8357 77.9716 36.2259V31.3636H79.7713V35.9474C79.7713 36.4313 79.9039 36.8158 80.169 37.1009C80.4342 37.3859 80.7822 37.5284 81.2131 37.5284C81.4782 37.5284 81.7351 37.4638 81.9837 37.3345C82.2322 37.2053 82.4361 37.013 82.5952 36.7578C82.7576 36.4993 82.8388 36.1761 82.8388 35.7884ZM90.3024 31.3636V32.7557H85.9125V31.3636H90.3024ZM86.9963 29.5341H88.796V36.7031C88.796 36.9451 88.8324 37.1307 88.9054 37.2599C88.9816 37.3859 89.081 37.4721 89.2037 37.5185C89.3263 37.5649 89.4622 37.5881 89.6113 37.5881C89.724 37.5881 89.8268 37.5798 89.9196 37.5632C90.0157 37.5466 90.0886 37.5317 90.1383 37.5185L90.4416 38.9254C90.3455 38.9586 90.2079 38.995 90.0289 39.0348C89.8533 39.0746 89.6378 39.0978 89.3826 39.1044C88.9319 39.1177 88.5259 39.0497 88.1646 38.9006C87.8033 38.7481 87.5166 38.5128 87.3045 38.1946C87.0957 37.8764 86.993 37.4787 86.9963 37.0014V29.5341ZM98.6112 39.1491C97.8488 39.1491 97.1942 38.9818 96.6474 38.647C96.1038 38.3123 95.6845 37.8499 95.3896 37.2599C95.0979 36.6667 94.9521 35.9839 94.9521 35.2116C94.9521 34.4361 95.1012 33.7517 95.3995 33.1584C95.6978 32.5618 96.1187 32.0978 96.6623 31.7663C97.2092 31.4316 97.8555 31.2642 98.6012 31.2642C99.221 31.2642 99.7695 31.3786 100.247 31.6072C100.727 31.8326 101.11 32.1525 101.395 32.5668C101.68 32.9777 101.843 33.4583 101.882 34.0085H100.162C100.093 33.6406 99.927 33.334 99.6651 33.0888C99.4066 32.8402 99.0603 32.7159 98.6261 32.7159C98.2582 32.7159 97.935 32.8153 97.6566 33.0142C97.3782 33.2098 97.1611 33.4915 97.0053 33.8594C96.8529 34.2273 96.7766 34.6681 96.7766 35.1818C96.7766 35.7022 96.8529 36.1496 97.0053 36.5241C97.1578 36.8954 97.3716 37.1821 97.6467 37.3842C97.9251 37.5831 98.2515 37.6825 98.6261 37.6825C98.8912 37.6825 99.1282 37.6328 99.337 37.5334C99.5491 37.4306 99.7264 37.2831 99.869 37.0909C100.011 36.8987 100.109 36.665 100.162 36.3899H101.882C101.839 36.9302 101.68 37.4091 101.405 37.8267C101.13 38.241 100.756 38.5658 100.282 38.8011C99.8076 39.0331 99.2508 39.1491 98.6112 39.1491ZM105.16 34.5256V39H103.36V28.8182H105.12V32.6612H105.21C105.389 32.2304 105.665 31.8906 106.04 31.642C106.418 31.3902 106.898 31.2642 107.482 31.2642C108.012 31.2642 108.474 31.3752 108.869 31.5973C109.263 31.8194 109.568 32.1442 109.784 32.5717C110.002 32.9993 110.112 33.5213 110.112 34.1378V39H108.312V34.4162C108.312 33.9025 108.179 33.5031 107.914 33.218C107.652 32.9297 107.285 32.7855 106.811 32.7855C106.492 32.7855 106.207 32.8551 105.955 32.9943C105.707 33.1302 105.511 33.3274 105.369 33.5859C105.23 33.8445 105.16 34.1577 105.16 34.5256ZM114.144 39.1541C113.66 39.1541 113.224 39.0679 112.836 38.8956C112.452 38.7199 112.147 38.4614 111.921 38.12C111.699 37.7786 111.588 37.3577 111.588 36.8572C111.588 36.4264 111.668 36.0701 111.827 35.7884C111.986 35.5066 112.203 35.2812 112.478 35.1122C112.753 34.9432 113.063 34.8156 113.408 34.7294C113.756 34.6399 114.115 34.5753 114.487 34.5355C114.934 34.4891 115.297 34.4477 115.575 34.4112C115.854 34.3714 116.056 34.3118 116.182 34.2322C116.311 34.1494 116.376 34.0218 116.376 33.8494V33.8196C116.376 33.4451 116.265 33.1551 116.043 32.9496C115.821 32.7441 115.501 32.6413 115.083 32.6413C114.642 32.6413 114.293 32.7375 114.034 32.9297C113.779 33.1219 113.607 33.349 113.517 33.6108L111.837 33.3722C111.969 32.9081 112.188 32.5204 112.493 32.2088C112.798 31.8939 113.171 31.6586 113.612 31.5028C114.052 31.3438 114.54 31.2642 115.073 31.2642C115.441 31.2642 115.807 31.3073 116.172 31.3935C116.537 31.4796 116.87 31.6222 117.171 31.821C117.473 32.0166 117.715 32.2834 117.897 32.6214C118.083 32.9595 118.176 33.3821 118.176 33.8892V39H116.445V37.951H116.386C116.276 38.1631 116.122 38.362 115.923 38.5476C115.728 38.7299 115.481 38.8774 115.183 38.9901C114.888 39.0994 114.541 39.1541 114.144 39.1541ZM114.611 37.8317C114.972 37.8317 115.285 37.7604 115.551 37.6179C115.816 37.4721 116.02 37.2798 116.162 37.0412C116.308 36.8026 116.381 36.5424 116.381 36.2607V35.3608C116.325 35.4072 116.228 35.4503 116.093 35.4901C115.96 35.5298 115.811 35.5646 115.645 35.5945C115.479 35.6243 115.315 35.6508 115.153 35.674C114.99 35.6972 114.85 35.7171 114.73 35.7337C114.462 35.7701 114.222 35.8298 114.009 35.9126C113.797 35.9955 113.63 36.1115 113.507 36.2607C113.385 36.4065 113.323 36.5954 113.323 36.8274C113.323 37.1589 113.444 37.4091 113.686 37.5781C113.928 37.7472 114.236 37.8317 114.611 37.8317ZM119.985 39V31.3636H121.73V32.6364H121.81C121.949 32.1955 122.188 31.8558 122.526 31.6172C122.867 31.3752 123.257 31.2543 123.694 31.2543C123.794 31.2543 123.905 31.2592 124.027 31.2692C124.153 31.2758 124.258 31.2874 124.34 31.304V32.9595C124.264 32.933 124.143 32.9098 123.977 32.8899C123.815 32.8667 123.658 32.8551 123.505 32.8551C123.177 32.8551 122.882 32.9264 122.62 33.0689C122.362 33.2081 122.158 33.402 122.009 33.6506C121.86 33.8991 121.785 34.1858 121.785 34.5107V39H119.985ZM129.759 31.3636V32.7557H125.369V31.3636H129.759ZM126.453 29.5341H128.253V36.7031C128.253 36.9451 128.289 37.1307 128.362 37.2599C128.439 37.3859 128.538 37.4721 128.661 37.5185C128.783 37.5649 128.919 37.5881 129.068 37.5881C129.181 37.5881 129.284 37.5798 129.377 37.5632C129.473 37.5466 129.546 37.5317 129.595 37.5185L129.899 38.9254C129.802 38.9586 129.665 38.995 129.486 39.0348C129.31 39.0746 129.095 39.0978 128.84 39.1044C128.389 39.1177 127.983 39.0497 127.622 38.9006C127.26 38.7481 126.974 38.5128 126.762 38.1946C126.553 37.8764 126.45 37.4787 126.453 37.0014V29.5341Z" fill="#1C1C1C"/>
<path d="M439.852 103.119C439.29 103.119 438.788 103.023 438.348 102.83C437.911 102.636 437.563 102.368 437.304 102.024C437.048 101.678 436.909 101.276 436.886 100.818H437.96C437.983 101.099 438.08 101.342 438.25 101.547C438.42 101.749 438.643 101.905 438.919 102.016C439.195 102.126 439.5 102.182 439.835 102.182C440.21 102.182 440.543 102.116 440.832 101.986C441.122 101.855 441.349 101.673 441.514 101.44C441.679 101.207 441.761 100.938 441.761 100.631C441.761 100.31 441.682 100.027 441.523 99.7827C441.364 99.5355 441.131 99.3423 440.824 99.2031C440.517 99.0639 440.142 98.9943 439.699 98.9943H439V98.0568H439.699C440.045 98.0568 440.349 97.9943 440.611 97.8693C440.875 97.7443 441.081 97.5682 441.229 97.3409C441.379 97.1136 441.455 96.8466 441.455 96.5398C441.455 96.2443 441.389 95.9872 441.259 95.7685C441.128 95.5497 440.943 95.3793 440.705 95.2571C440.469 95.1349 440.19 95.0739 439.869 95.0739C439.568 95.0739 439.284 95.1293 439.017 95.2401C438.753 95.348 438.537 95.5057 438.369 95.7131C438.202 95.9176 438.111 96.1648 438.097 96.4545H437.074C437.091 95.9972 437.229 95.5966 437.487 95.2528C437.746 94.9062 438.084 94.6364 438.501 94.4432C438.922 94.25 439.384 94.1534 439.886 94.1534C440.426 94.1534 440.889 94.2628 441.276 94.4815C441.662 94.6974 441.959 94.983 442.166 95.3381C442.374 95.6932 442.477 96.0767 442.477 96.4886C442.477 96.9801 442.348 97.3991 442.089 97.7457C441.834 98.0923 441.486 98.3324 441.045 98.4659V98.5341C441.597 98.625 442.027 98.8594 442.337 99.2372C442.646 99.6122 442.801 100.077 442.801 100.631C442.801 101.105 442.672 101.531 442.413 101.909C442.158 102.284 441.808 102.58 441.365 102.795C440.922 103.011 440.418 103.119 439.852 103.119ZM447.339 103.119C446.754 103.119 446.237 103.016 445.788 102.808C445.342 102.598 444.994 102.31 444.744 101.943C444.494 101.574 444.371 101.153 444.374 100.682C444.371 100.312 444.443 99.9716 444.591 99.6591C444.739 99.3437 444.94 99.081 445.196 98.8707C445.455 98.6577 445.743 98.5227 446.061 98.4659V98.4148C445.643 98.3068 445.311 98.0724 445.064 97.7116C444.817 97.348 444.695 96.9347 444.697 96.4716C444.695 96.0284 444.807 95.6321 445.034 95.2827C445.261 94.9332 445.574 94.6577 445.972 94.456C446.372 94.2543 446.828 94.1534 447.339 94.1534C447.845 94.1534 448.297 94.2543 448.695 94.456C449.092 94.6577 449.405 94.9332 449.632 95.2827C449.862 95.6321 449.979 96.0284 449.982 96.4716C449.979 96.9347 449.852 97.348 449.602 97.7116C449.355 98.0724 449.027 98.3068 448.618 98.4148V98.4659C448.933 98.5227 449.217 98.6577 449.47 98.8707C449.723 99.081 449.925 99.3437 450.075 99.6591C450.226 99.9716 450.303 100.312 450.305 100.682C450.303 101.153 450.175 101.574 449.922 101.943C449.672 102.31 449.324 102.598 448.878 102.808C448.435 103.016 447.922 103.119 447.339 103.119ZM447.339 102.182C447.734 102.182 448.075 102.118 448.362 101.99C448.649 101.862 448.871 101.682 449.027 101.449C449.183 101.216 449.263 100.943 449.266 100.631C449.263 100.301 449.178 100.01 449.01 99.7571C448.842 99.5043 448.614 99.3054 448.324 99.1605C448.037 99.0156 447.709 98.9432 447.339 98.9432C446.967 98.9432 446.635 99.0156 446.342 99.1605C446.053 99.3054 445.824 99.5043 445.656 99.7571C445.491 100.01 445.411 100.301 445.413 100.631C445.411 100.943 445.486 101.216 445.639 101.449C445.795 101.682 446.018 101.862 446.308 101.99C446.598 102.118 446.942 102.182 447.339 102.182ZM447.339 98.0398C447.652 98.0398 447.929 97.9773 448.17 97.8523C448.415 97.7273 448.607 97.5526 448.746 97.3281C448.885 97.1037 448.956 96.8409 448.959 96.5398C448.956 96.2443 448.886 95.9872 448.75 95.7685C448.614 95.5469 448.425 95.3764 448.183 95.2571C447.942 95.1349 447.661 95.0739 447.339 95.0739C447.013 95.0739 446.727 95.1349 446.483 95.2571C446.239 95.3764 446.05 95.5469 445.916 95.7685C445.783 95.9872 445.717 96.2443 445.72 96.5398C445.717 96.8409 445.784 97.1037 445.92 97.3281C446.06 97.5526 446.251 97.7273 446.496 97.8523C446.74 97.9773 447.021 98.0398 447.339 98.0398ZM452.419 103.068C452.209 103.068 452.028 102.993 451.878 102.842C451.727 102.692 451.652 102.511 451.652 102.301C451.652 102.091 451.727 101.911 451.878 101.76C452.028 101.609 452.209 101.534 452.419 101.534C452.629 101.534 452.81 101.609 452.96 101.76C453.111 101.911 453.186 102.091 453.186 102.301C453.186 102.44 453.151 102.568 453.08 102.685C453.011 102.801 452.919 102.895 452.803 102.966C452.689 103.034 452.561 103.068 452.419 103.068ZM457.567 103.119C457.209 103.114 456.851 103.045 456.493 102.915C456.135 102.784 455.808 102.564 455.513 102.254C455.217 101.942 454.98 101.52 454.801 100.989C454.622 100.455 454.533 99.7841 454.533 98.9773C454.533 98.2045 454.605 97.5199 454.75 96.9233C454.895 96.3239 455.105 95.8196 455.381 95.4105C455.656 94.9986 455.989 94.6861 456.378 94.473C456.77 94.2599 457.212 94.1534 457.703 94.1534C458.192 94.1534 458.626 94.2514 459.007 94.4474C459.391 94.6406 459.703 94.9105 459.945 95.2571C460.186 95.6037 460.342 96.0028 460.413 96.4545H459.374C459.277 96.0625 459.089 95.7372 458.811 95.4787C458.533 95.2202 458.163 95.0909 457.703 95.0909C457.027 95.0909 456.494 95.3849 456.105 95.973C455.719 96.5611 455.524 97.3864 455.521 98.4489H455.589C455.749 98.2074 455.938 98.0014 456.156 97.831C456.378 97.6577 456.622 97.5241 456.889 97.4304C457.156 97.3366 457.439 97.2898 457.737 97.2898C458.237 97.2898 458.695 97.4148 459.109 97.6648C459.524 97.9119 459.857 98.2543 460.107 98.6918C460.357 99.1264 460.482 99.625 460.482 100.188C460.482 100.727 460.361 101.222 460.119 101.67C459.878 102.116 459.538 102.472 459.101 102.736C458.666 102.997 458.155 103.125 457.567 103.119ZM457.567 102.182C457.925 102.182 458.246 102.092 458.53 101.913C458.817 101.734 459.043 101.494 459.207 101.193C459.375 100.892 459.459 100.557 459.459 100.188C459.459 99.8267 459.378 99.4986 459.216 99.2031C459.057 98.9048 458.837 98.6676 458.555 98.4915C458.277 98.3153 457.959 98.2273 457.601 98.2273C457.331 98.2273 457.08 98.2812 456.847 98.3892C456.614 98.4943 456.409 98.6392 456.233 98.8239C456.06 99.0085 455.923 99.2202 455.824 99.4588C455.724 99.6946 455.675 99.9432 455.675 100.205C455.675 100.551 455.756 100.875 455.918 101.176C456.082 101.477 456.307 101.72 456.591 101.905C456.878 102.089 457.203 102.182 457.567 102.182ZM466.606 101.364V100.903C466.606 100.585 466.672 100.294 466.802 100.03C466.936 99.7628 467.129 99.5497 467.382 99.3906C467.637 99.2287 467.947 99.1477 468.311 99.1477C468.68 99.1477 468.99 99.2287 469.24 99.3906C469.49 99.5497 469.679 99.7628 469.806 100.03C469.934 100.294 469.998 100.585 469.998 100.903V101.364C469.998 101.682 469.933 101.974 469.802 102.241C469.674 102.506 469.484 102.719 469.231 102.881C468.981 103.04 468.674 103.119 468.311 103.119C467.941 103.119 467.63 103.04 467.377 102.881C467.125 102.719 466.933 102.506 466.802 102.241C466.672 101.974 466.606 101.682 466.606 101.364ZM467.475 100.903V101.364C467.475 101.628 467.538 101.865 467.663 102.075C467.788 102.283 468.004 102.386 468.311 102.386C468.609 102.386 468.819 102.283 468.941 102.075C469.066 101.865 469.129 101.628 469.129 101.364V100.903C469.129 100.639 469.069 100.403 468.95 100.196C468.831 99.9858 468.618 99.8807 468.311 99.8807C468.012 99.8807 467.798 99.9858 467.667 100.196C467.539 100.403 467.475 100.639 467.475 100.903ZM462.26 96.3693V95.9091C462.26 95.5909 462.325 95.2997 462.456 95.0355C462.589 94.7685 462.782 94.5554 463.035 94.3963C463.291 94.2344 463.6 94.1534 463.964 94.1534C464.333 94.1534 464.643 94.2344 464.893 94.3963C465.143 94.5554 465.332 94.7685 465.46 95.0355C465.588 95.2997 465.652 95.5909 465.652 95.9091V96.3693C465.652 96.6875 465.586 96.9801 465.456 97.2472C465.328 97.5114 465.137 97.7244 464.885 97.8864C464.635 98.0455 464.328 98.125 463.964 98.125C463.595 98.125 463.284 98.0455 463.031 97.8864C462.778 97.7244 462.586 97.5114 462.456 97.2472C462.325 96.9801 462.26 96.6875 462.26 96.3693ZM463.129 95.9091V96.3693C463.129 96.6335 463.191 96.8707 463.316 97.081C463.441 97.2884 463.657 97.392 463.964 97.392C464.262 97.392 464.473 97.2884 464.595 97.081C464.72 96.8707 464.782 96.6335 464.782 96.3693V95.9091C464.782 95.6449 464.723 95.4091 464.603 95.2017C464.484 94.9915 464.271 94.8864 463.964 94.8864C463.666 94.8864 463.451 94.9915 463.321 95.2017C463.193 95.4091 463.129 95.6449 463.129 95.9091ZM462.583 103L468.583 94.2727H469.555L463.555 103H462.583Z" fill="#1C1C1C"/>
<path d="M436.903 139V138.233L439.784 135.08C440.122 134.71 440.401 134.389 440.619 134.116C440.838 133.841 441 133.582 441.105 133.341C441.213 133.097 441.267 132.841 441.267 132.574C441.267 132.267 441.193 132.001 441.045 131.777C440.901 131.553 440.702 131.379 440.449 131.257C440.196 131.135 439.912 131.074 439.597 131.074C439.261 131.074 438.969 131.143 438.719 131.283C438.472 131.419 438.28 131.611 438.143 131.858C438.01 132.105 437.943 132.395 437.943 132.727H436.938C436.938 132.216 437.055 131.767 437.291 131.381C437.527 130.994 437.848 130.693 438.254 130.477C438.663 130.261 439.122 130.153 439.631 130.153C440.142 130.153 440.595 130.261 440.99 130.477C441.385 130.693 441.695 130.984 441.919 131.351C442.143 131.717 442.256 132.125 442.256 132.574C442.256 132.895 442.197 133.209 442.081 133.516C441.967 133.82 441.768 134.159 441.484 134.534C441.203 134.906 440.812 135.361 440.312 135.898L438.352 137.994V138.062H442.409V139H436.903ZM444.169 139V138.233L447.05 135.08C447.388 134.71 447.666 134.389 447.885 134.116C448.104 133.841 448.266 133.582 448.371 133.341C448.479 133.097 448.533 132.841 448.533 132.574C448.533 132.267 448.459 132.001 448.311 131.777C448.166 131.553 447.967 131.379 447.714 131.257C447.462 131.135 447.178 131.074 446.862 131.074C446.527 131.074 446.234 131.143 445.984 131.283C445.737 131.419 445.545 131.611 445.409 131.858C445.276 132.105 445.209 132.395 445.209 132.727H444.203C444.203 132.216 444.321 131.767 444.557 131.381C444.793 130.994 445.114 130.693 445.52 130.477C445.929 130.261 446.388 130.153 446.896 130.153C447.408 130.153 447.861 130.261 448.256 130.477C448.651 130.693 448.96 130.984 449.185 131.351C449.409 131.717 449.521 132.125 449.521 132.574C449.521 132.895 449.463 133.209 449.347 133.516C449.233 133.82 449.034 134.159 448.75 134.534C448.469 134.906 448.078 135.361 447.578 135.898L445.618 137.994V138.062H449.675V139H444.169ZM452.185 139.068C451.974 139.068 451.794 138.993 451.643 138.842C451.493 138.692 451.418 138.511 451.418 138.301C451.418 138.091 451.493 137.911 451.643 137.76C451.794 137.609 451.974 137.534 452.185 137.534C452.395 137.534 452.575 137.609 452.726 137.76C452.876 137.911 452.952 138.091 452.952 138.301C452.952 138.44 452.916 138.568 452.845 138.685C452.777 138.801 452.685 138.895 452.568 138.966C452.455 139.034 452.327 139.068 452.185 139.068ZM457.291 139.119C456.791 139.119 456.341 139.02 455.94 138.821C455.539 138.622 455.218 138.349 454.977 138.003C454.735 137.656 454.603 137.261 454.581 136.818H455.603C455.643 137.213 455.822 137.54 456.14 137.798C456.461 138.054 456.845 138.182 457.291 138.182C457.649 138.182 457.967 138.098 458.245 137.93C458.527 137.763 458.747 137.533 458.906 137.24C459.068 136.945 459.149 136.611 459.149 136.239C459.149 135.858 459.065 135.518 458.897 135.22C458.733 134.919 458.505 134.682 458.216 134.509C457.926 134.335 457.595 134.247 457.223 134.244C456.956 134.241 456.681 134.283 456.4 134.368C456.119 134.45 455.887 134.557 455.706 134.688L454.717 134.568L455.245 130.273H459.779V131.21H456.132L455.825 133.784H455.876C456.055 133.642 456.279 133.524 456.549 133.43C456.819 133.337 457.1 133.29 457.393 133.29C457.927 133.29 458.403 133.418 458.821 133.673C459.241 133.926 459.571 134.273 459.809 134.713C460.051 135.153 460.172 135.656 460.172 136.222C460.172 136.778 460.047 137.276 459.797 137.713C459.549 138.148 459.208 138.491 458.774 138.744C458.339 138.994 457.845 139.119 457.291 139.119ZM466.313 137.364V136.903C466.313 136.585 466.379 136.294 466.509 136.03C466.643 135.763 466.836 135.55 467.089 135.391C467.344 135.229 467.654 135.148 468.018 135.148C468.387 135.148 468.697 135.229 468.947 135.391C469.197 135.55 469.386 135.763 469.513 136.03C469.641 136.294 469.705 136.585 469.705 136.903V137.364C469.705 137.682 469.64 137.974 469.509 138.241C469.381 138.506 469.191 138.719 468.938 138.881C468.688 139.04 468.381 139.119 468.018 139.119C467.648 139.119 467.337 139.04 467.085 138.881C466.832 138.719 466.64 138.506 466.509 138.241C466.379 137.974 466.313 137.682 466.313 137.364ZM467.183 136.903V137.364C467.183 137.628 467.245 137.865 467.37 138.075C467.495 138.283 467.711 138.386 468.018 138.386C468.316 138.386 468.526 138.283 468.648 138.075C468.773 137.865 468.836 137.628 468.836 137.364V136.903C468.836 136.639 468.776 136.403 468.657 136.196C468.538 135.986 468.325 135.881 468.018 135.881C467.719 135.881 467.505 135.986 467.374 136.196C467.246 136.403 467.183 136.639 467.183 136.903ZM461.967 132.369V131.909C461.967 131.591 462.032 131.3 462.163 131.036C462.296 130.768 462.489 130.555 462.742 130.396C462.998 130.234 463.308 130.153 463.671 130.153C464.04 130.153 464.35 130.234 464.6 130.396C464.85 130.555 465.039 130.768 465.167 131.036C465.295 131.3 465.359 131.591 465.359 131.909V132.369C465.359 132.687 465.293 132.98 465.163 133.247C465.035 133.511 464.844 133.724 464.592 133.886C464.342 134.045 464.035 134.125 463.671 134.125C463.302 134.125 462.991 134.045 462.738 133.886C462.485 133.724 462.293 133.511 462.163 133.247C462.032 132.98 461.967 132.687 461.967 132.369ZM462.836 131.909V132.369C462.836 132.634 462.898 132.871 463.023 133.081C463.148 133.288 463.364 133.392 463.671 133.392C463.969 133.392 464.18 133.288 464.302 133.081C464.427 132.871 464.489 132.634 464.489 132.369V131.909C464.489 131.645 464.43 131.409 464.31 131.202C464.191 130.991 463.978 130.886 463.671 130.886C463.373 130.886 463.158 130.991 463.028 131.202C462.9 131.409 462.836 131.645 462.836 131.909ZM462.29 139L468.29 130.273H469.262L463.262 139H462.29Z" fill="#1C1C1C"/>
<path d="M439.852 175.119C439.29 175.119 438.788 175.023 438.348 174.83C437.911 174.636 437.563 174.368 437.304 174.024C437.048 173.678 436.909 173.276 436.886 172.818H437.96C437.983 173.099 438.08 173.342 438.25 173.547C438.42 173.749 438.643 173.905 438.919 174.016C439.195 174.126 439.5 174.182 439.835 174.182C440.21 174.182 440.543 174.116 440.832 173.986C441.122 173.855 441.349 173.673 441.514 173.44C441.679 173.207 441.761 172.938 441.761 172.631C441.761 172.31 441.682 172.027 441.523 171.783C441.364 171.536 441.131 171.342 440.824 171.203C440.517 171.064 440.142 170.994 439.699 170.994H439V170.057H439.699C440.045 170.057 440.349 169.994 440.611 169.869C440.875 169.744 441.081 169.568 441.229 169.341C441.379 169.114 441.455 168.847 441.455 168.54C441.455 168.244 441.389 167.987 441.259 167.768C441.128 167.55 440.943 167.379 440.705 167.257C440.469 167.135 440.19 167.074 439.869 167.074C439.568 167.074 439.284 167.129 439.017 167.24C438.753 167.348 438.537 167.506 438.369 167.713C438.202 167.918 438.111 168.165 438.097 168.455H437.074C437.091 167.997 437.229 167.597 437.487 167.253C437.746 166.906 438.084 166.636 438.501 166.443C438.922 166.25 439.384 166.153 439.886 166.153C440.426 166.153 440.889 166.263 441.276 166.482C441.662 166.697 441.959 166.983 442.166 167.338C442.374 167.693 442.477 168.077 442.477 168.489C442.477 168.98 442.348 169.399 442.089 169.746C441.834 170.092 441.486 170.332 441.045 170.466V170.534C441.597 170.625 442.027 170.859 442.337 171.237C442.646 171.612 442.801 172.077 442.801 172.631C442.801 173.105 442.672 173.531 442.413 173.909C442.158 174.284 441.808 174.58 441.365 174.795C440.922 175.011 440.418 175.119 439.852 175.119ZM447.391 175.119C446.749 175.119 446.202 174.945 445.75 174.595C445.298 174.243 444.953 173.733 444.714 173.065C444.476 172.395 444.357 171.585 444.357 170.636C444.357 169.693 444.476 168.888 444.714 168.22C444.956 167.55 445.303 167.038 445.754 166.686C446.209 166.331 446.754 166.153 447.391 166.153C448.027 166.153 448.571 166.331 449.023 166.686C449.477 167.038 449.824 167.55 450.062 168.22C450.304 168.888 450.425 169.693 450.425 170.636C450.425 171.585 450.305 172.395 450.067 173.065C449.828 173.733 449.483 174.243 449.031 174.595C448.58 174.945 448.033 175.119 447.391 175.119ZM447.391 174.182C448.027 174.182 448.521 173.875 448.874 173.261C449.226 172.648 449.402 171.773 449.402 170.636C449.402 169.881 449.321 169.237 449.159 168.706C449 168.175 448.77 167.77 448.469 167.491C448.17 167.213 447.811 167.074 447.391 167.074C446.76 167.074 446.267 167.385 445.912 168.007C445.557 168.626 445.379 169.503 445.379 170.636C445.379 171.392 445.459 172.034 445.618 172.562C445.777 173.091 446.006 173.493 446.304 173.768C446.605 174.044 446.967 174.182 447.391 174.182ZM452.489 175.068C452.279 175.068 452.099 174.993 451.948 174.842C451.798 174.692 451.722 174.511 451.722 174.301C451.722 174.091 451.798 173.911 451.948 173.76C452.099 173.609 452.279 173.534 452.489 173.534C452.7 173.534 452.88 173.609 453.031 173.76C453.181 173.911 453.256 174.091 453.256 174.301C453.256 174.44 453.221 174.568 453.15 174.685C453.082 174.801 452.989 174.895 452.873 174.966C452.759 175.034 452.631 175.068 452.489 175.068ZM457.57 175.119C456.985 175.119 456.468 175.016 456.019 174.808C455.573 174.598 455.225 174.31 454.975 173.943C454.725 173.574 454.601 173.153 454.604 172.682C454.601 172.312 454.674 171.972 454.821 171.659C454.969 171.344 455.171 171.081 455.426 170.871C455.685 170.658 455.973 170.523 456.292 170.466V170.415C455.874 170.307 455.542 170.072 455.294 169.712C455.047 169.348 454.925 168.935 454.928 168.472C454.925 168.028 455.037 167.632 455.265 167.283C455.492 166.933 455.804 166.658 456.202 166.456C456.603 166.254 457.059 166.153 457.57 166.153C458.076 166.153 458.527 166.254 458.925 166.456C459.323 166.658 459.635 166.933 459.863 167.283C460.093 167.632 460.209 168.028 460.212 168.472C460.209 168.935 460.083 169.348 459.833 169.712C459.586 170.072 459.257 170.307 458.848 170.415V170.466C459.164 170.523 459.448 170.658 459.701 170.871C459.953 171.081 460.155 171.344 460.306 171.659C460.456 171.972 460.533 172.312 460.536 172.682C460.533 173.153 460.405 173.574 460.152 173.943C459.902 174.31 459.554 174.598 459.108 174.808C458.665 175.016 458.152 175.119 457.57 175.119ZM457.57 174.182C457.965 174.182 458.306 174.118 458.593 173.99C458.88 173.862 459.101 173.682 459.257 173.449C459.414 173.216 459.493 172.943 459.496 172.631C459.493 172.301 459.408 172.01 459.24 171.757C459.073 171.504 458.844 171.305 458.554 171.161C458.267 171.016 457.939 170.943 457.57 170.943C457.198 170.943 456.865 171.016 456.573 171.161C456.283 171.305 456.054 171.504 455.887 171.757C455.722 172.01 455.641 172.301 455.644 172.631C455.641 172.943 455.716 173.216 455.87 173.449C456.026 173.682 456.249 173.862 456.539 173.99C456.828 174.118 457.172 174.182 457.57 174.182ZM457.57 170.04C457.882 170.04 458.159 169.977 458.401 169.852C458.645 169.727 458.837 169.553 458.976 169.328C459.115 169.104 459.186 168.841 459.189 168.54C459.186 168.244 459.117 167.987 458.98 167.768C458.844 167.547 458.655 167.376 458.414 167.257C458.172 167.135 457.891 167.074 457.57 167.074C457.243 167.074 456.958 167.135 456.713 167.257C456.469 167.376 456.28 167.547 456.147 167.768C456.013 167.987 455.948 168.244 455.951 168.54C455.948 168.841 456.015 169.104 456.151 169.328C456.29 169.553 456.482 169.727 456.726 169.852C456.971 169.977 457.252 170.04 457.57 170.04ZM466.618 173.364V172.903C466.618 172.585 466.683 172.294 466.814 172.03C466.947 171.763 467.141 171.55 467.393 171.391C467.649 171.229 467.959 171.148 468.322 171.148C468.692 171.148 469.001 171.229 469.251 171.391C469.501 171.55 469.69 171.763 469.818 172.03C469.946 172.294 470.01 172.585 470.01 172.903V173.364C470.01 173.682 469.945 173.974 469.814 174.241C469.686 174.506 469.496 174.719 469.243 174.881C468.993 175.04 468.686 175.119 468.322 175.119C467.953 175.119 467.642 175.04 467.389 174.881C467.136 174.719 466.945 174.506 466.814 174.241C466.683 173.974 466.618 173.682 466.618 173.364ZM467.487 172.903V173.364C467.487 173.628 467.55 173.865 467.675 174.075C467.8 174.283 468.016 174.386 468.322 174.386C468.621 174.386 468.831 174.283 468.953 174.075C469.078 173.865 469.141 173.628 469.141 173.364V172.903C469.141 172.639 469.081 172.403 468.962 172.196C468.842 171.986 468.629 171.881 468.322 171.881C468.024 171.881 467.81 171.986 467.679 172.196C467.551 172.403 467.487 172.639 467.487 172.903ZM462.271 168.369V167.909C462.271 167.591 462.337 167.3 462.467 167.036C462.601 166.768 462.794 166.555 463.047 166.396C463.303 166.234 463.612 166.153 463.976 166.153C464.345 166.153 464.655 166.234 464.905 166.396C465.155 166.555 465.344 166.768 465.472 167.036C465.599 167.3 465.663 167.591 465.663 167.909V168.369C465.663 168.687 465.598 168.98 465.467 169.247C465.339 169.511 465.149 169.724 464.896 169.886C464.646 170.045 464.339 170.125 463.976 170.125C463.607 170.125 463.295 170.045 463.043 169.886C462.79 169.724 462.598 169.511 462.467 169.247C462.337 168.98 462.271 168.687 462.271 168.369ZM463.141 167.909V168.369C463.141 168.634 463.203 168.871 463.328 169.081C463.453 169.288 463.669 169.392 463.976 169.392C464.274 169.392 464.484 169.288 464.607 169.081C464.732 168.871 464.794 168.634 464.794 168.369V167.909C464.794 167.645 464.734 167.409 464.615 167.202C464.496 166.991 464.283 166.886 463.976 166.886C463.678 166.886 463.463 166.991 463.332 167.202C463.205 167.409 463.141 167.645 463.141 167.909ZM462.595 175L468.595 166.273H469.567L463.567 175H462.595Z" fill="#1C1C1C"/>
<path d="M439.699 211.119C439.114 211.119 438.597 211.016 438.148 210.808C437.702 210.598 437.354 210.31 437.104 209.943C436.854 209.574 436.73 209.153 436.733 208.682C436.73 208.312 436.803 207.972 436.95 207.659C437.098 207.344 437.3 207.081 437.555 206.871C437.814 206.658 438.102 206.523 438.42 206.466V206.415C438.003 206.307 437.67 206.072 437.423 205.712C437.176 205.348 437.054 204.935 437.057 204.472C437.054 204.028 437.166 203.632 437.393 203.283C437.621 202.933 437.933 202.658 438.331 202.456C438.732 202.254 439.188 202.153 439.699 202.153C440.205 202.153 440.656 202.254 441.054 202.456C441.452 202.658 441.764 202.933 441.991 203.283C442.222 203.632 442.338 204.028 442.341 204.472C442.338 204.935 442.212 205.348 441.962 205.712C441.714 206.072 441.386 206.307 440.977 206.415V206.466C441.293 206.523 441.577 206.658 441.83 206.871C442.082 207.081 442.284 207.344 442.435 207.659C442.585 207.972 442.662 208.312 442.665 208.682C442.662 209.153 442.534 209.574 442.281 209.943C442.031 210.31 441.683 210.598 441.237 210.808C440.794 211.016 440.281 211.119 439.699 211.119ZM439.699 210.182C440.094 210.182 440.435 210.118 440.722 209.99C441.009 209.862 441.23 209.682 441.386 209.449C441.543 209.216 441.622 208.943 441.625 208.631C441.622 208.301 441.537 208.01 441.369 207.757C441.202 207.504 440.973 207.305 440.683 207.161C440.396 207.016 440.068 206.943 439.699 206.943C439.327 206.943 438.994 207.016 438.702 207.161C438.412 207.305 438.183 207.504 438.016 207.757C437.851 208.01 437.77 208.301 437.773 208.631C437.77 208.943 437.845 209.216 437.999 209.449C438.155 209.682 438.378 209.862 438.668 209.99C438.957 210.118 439.301 210.182 439.699 210.182ZM439.699 206.04C440.011 206.04 440.288 205.977 440.53 205.852C440.774 205.727 440.966 205.553 441.105 205.328C441.244 205.104 441.315 204.841 441.318 204.54C441.315 204.244 441.246 203.987 441.109 203.768C440.973 203.547 440.784 203.376 440.543 203.257C440.301 203.135 440.02 203.074 439.699 203.074C439.372 203.074 439.087 203.135 438.842 203.257C438.598 203.376 438.409 203.547 438.276 203.768C438.142 203.987 438.077 204.244 438.08 204.54C438.077 204.841 438.143 205.104 438.28 205.328C438.419 205.553 438.611 205.727 438.855 205.852C439.099 205.977 439.381 206.04 439.699 206.04ZM444.778 211.068C444.568 211.068 444.388 210.993 444.237 210.842C444.087 210.692 444.011 210.511 444.011 210.301C444.011 210.091 444.087 209.911 444.237 209.76C444.388 209.609 444.568 209.534 444.778 209.534C444.989 209.534 445.169 209.609 445.32 209.76C445.47 209.911 445.545 210.091 445.545 210.301C445.545 210.44 445.51 210.568 445.439 210.685C445.371 210.801 445.278 210.895 445.162 210.966C445.048 211.034 444.92 211.068 444.778 211.068ZM449.358 202.273V211H448.301V203.381H448.25L446.12 204.795V203.722L448.301 202.273H449.358ZM456.317 209.364V208.903C456.317 208.585 456.382 208.294 456.513 208.03C456.647 207.763 456.84 207.55 457.093 207.391C457.348 207.229 457.658 207.148 458.022 207.148C458.391 207.148 458.701 207.229 458.951 207.391C459.201 207.55 459.39 207.763 459.517 208.03C459.645 208.294 459.709 208.585 459.709 208.903V209.364C459.709 209.682 459.644 209.974 459.513 210.241C459.385 210.506 459.195 210.719 458.942 210.881C458.692 211.04 458.385 211.119 458.022 211.119C457.652 211.119 457.341 211.04 457.088 210.881C456.836 210.719 456.644 210.506 456.513 210.241C456.382 209.974 456.317 209.682 456.317 209.364ZM457.186 208.903V209.364C457.186 209.628 457.249 209.865 457.374 210.075C457.499 210.283 457.715 210.386 458.022 210.386C458.32 210.386 458.53 210.283 458.652 210.075C458.777 209.865 458.84 209.628 458.84 209.364V208.903C458.84 208.639 458.78 208.403 458.661 208.196C458.542 207.986 458.328 207.881 458.022 207.881C457.723 207.881 457.509 207.986 457.378 208.196C457.25 208.403 457.186 208.639 457.186 208.903ZM451.971 204.369V203.909C451.971 203.591 452.036 203.3 452.167 203.036C452.3 202.768 452.493 202.555 452.746 202.396C453.002 202.234 453.311 202.153 453.675 202.153C454.044 202.153 454.354 202.234 454.604 202.396C454.854 202.555 455.043 202.768 455.171 203.036C455.299 203.3 455.363 203.591 455.363 203.909V204.369C455.363 204.687 455.297 204.98 455.167 205.247C455.039 205.511 454.848 205.724 454.596 205.886C454.346 206.045 454.039 206.125 453.675 206.125C453.306 206.125 452.995 206.045 452.742 205.886C452.489 205.724 452.297 205.511 452.167 205.247C452.036 204.98 451.971 204.687 451.971 204.369ZM452.84 203.909V204.369C452.84 204.634 452.902 204.871 453.027 205.081C453.152 205.288 453.368 205.392 453.675 205.392C453.973 205.392 454.184 205.288 454.306 205.081C454.431 204.871 454.493 204.634 454.493 204.369V203.909C454.493 203.645 454.434 203.409 454.314 203.202C454.195 202.991 453.982 202.886 453.675 202.886C453.377 202.886 453.162 202.991 453.032 203.202C452.904 203.409 452.84 203.645 452.84 203.909ZM452.294 211L458.294 202.273H459.266L453.266 211H452.294Z" fill="#1C1C1C"/>
<path d="M251 99C251 100.657 249.657 102 248 102C246.343 102 245 100.657 245 99C245 97.3431 246.343 96 248 96C249.657 96 251 97.3431 251 99Z" fill="#1C1C1C"/>
<path d="M262.784 94.2727H263.841V100.051C263.841 100.648 263.7 101.18 263.419 101.649C263.141 102.115 262.747 102.483 262.239 102.753C261.73 103.02 261.134 103.153 260.449 103.153C259.764 103.153 259.168 103.02 258.659 102.753C258.151 102.483 257.756 102.115 257.474 101.649C257.196 101.18 257.057 100.648 257.057 100.051V94.2727H258.114V99.9659C258.114 100.392 258.207 100.771 258.395 101.104C258.582 101.433 258.849 101.693 259.196 101.884C259.545 102.071 259.963 102.165 260.449 102.165C260.935 102.165 261.352 102.071 261.702 101.884C262.051 101.693 262.318 101.433 262.503 101.104C262.69 100.771 262.784 100.392 262.784 99.9659V94.2727ZM266.821 99.0625V103H265.815V96.4545H266.787V97.4773H266.872C267.025 97.1449 267.258 96.8778 267.571 96.6761C267.883 96.4716 268.287 96.3693 268.781 96.3693C269.224 96.3693 269.612 96.4602 269.944 96.642C270.277 96.821 270.535 97.0938 270.72 97.4602C270.904 97.8239 270.997 98.2841 270.997 98.8409V103H269.991V98.9091C269.991 98.3949 269.858 97.9943 269.591 97.7074C269.324 97.4176 268.957 97.2727 268.491 97.2727C268.17 97.2727 267.883 97.3423 267.63 97.4815C267.38 97.6207 267.183 97.8239 267.038 98.0909C266.893 98.358 266.821 98.6818 266.821 99.0625ZM272.835 103V96.4545H273.84V103H272.835ZM273.346 95.3636C273.15 95.3636 272.981 95.2969 272.839 95.1634C272.7 95.0298 272.63 94.8693 272.63 94.6818C272.63 94.4943 272.7 94.3338 272.839 94.2003C272.981 94.0668 273.15 94 273.346 94C273.542 94 273.71 94.0668 273.849 94.2003C273.991 94.3338 274.062 94.4943 274.062 94.6818C274.062 94.8693 273.991 95.0298 273.849 95.1634C273.71 95.2969 273.542 95.3636 273.346 95.3636ZM278.529 96.4545V97.3068H275.137V96.4545H278.529ZM276.125 94.8864H277.131V101.125C277.131 101.409 277.172 101.622 277.255 101.764C277.34 101.903 277.448 101.997 277.578 102.045C277.712 102.091 277.853 102.114 278 102.114C278.111 102.114 278.202 102.108 278.273 102.097C278.344 102.082 278.401 102.071 278.444 102.062L278.648 102.966C278.58 102.991 278.485 103.017 278.363 103.043C278.24 103.071 278.086 103.085 277.898 103.085C277.614 103.085 277.336 103.024 277.063 102.902C276.793 102.78 276.569 102.594 276.39 102.344C276.213 102.094 276.125 101.778 276.125 101.398V94.8864ZM282.716 103.136C282.085 103.136 281.541 102.997 281.083 102.719C280.629 102.438 280.278 102.045 280.031 101.543C279.787 101.037 279.664 100.449 279.664 99.7784C279.664 99.108 279.787 98.517 280.031 98.0057C280.278 97.4915 280.622 97.0909 281.062 96.804C281.505 96.5142 282.022 96.3693 282.613 96.3693C282.954 96.3693 283.291 96.4261 283.623 96.5398C283.956 96.6534 284.258 96.8381 284.531 97.0938C284.804 97.3466 285.021 97.6818 285.183 98.0994C285.345 98.517 285.426 99.0312 285.426 99.642V100.068H280.38V99.1989H284.403C284.403 98.8295 284.329 98.5 284.181 98.2102C284.037 97.9205 283.829 97.6918 283.559 97.5241C283.292 97.3565 282.977 97.2727 282.613 97.2727C282.213 97.2727 281.866 97.3722 281.574 97.571C281.284 97.767 281.061 98.0227 280.904 98.3381C280.748 98.6534 280.67 98.9915 280.67 99.3523V99.9318C280.67 100.426 280.755 100.845 280.926 101.189C281.099 101.53 281.339 101.79 281.646 101.969C281.953 102.145 282.309 102.233 282.716 102.233C282.98 102.233 283.218 102.196 283.431 102.122C283.647 102.045 283.833 101.932 283.99 101.781C284.146 101.628 284.267 101.437 284.352 101.21L285.324 101.483C285.221 101.812 285.049 102.102 284.808 102.352C284.566 102.599 284.268 102.793 283.913 102.932C283.558 103.068 283.159 103.136 282.716 103.136ZM289.427 103.136C288.882 103.136 288.4 102.999 287.983 102.723C287.565 102.445 287.238 102.053 287.002 101.547C286.767 101.038 286.649 100.438 286.649 99.7443C286.649 99.0568 286.767 98.4602 287.002 97.9545C287.238 97.4489 287.566 97.0582 287.987 96.7827C288.407 96.5071 288.893 96.3693 289.444 96.3693C289.87 96.3693 290.207 96.4403 290.454 96.5824C290.704 96.7216 290.895 96.8807 291.025 97.0597C291.159 97.2358 291.262 97.3807 291.336 97.4943H291.422V94.2727H292.427V103H291.456V101.994H291.336C291.262 102.114 291.157 102.264 291.021 102.446C290.885 102.625 290.69 102.786 290.437 102.928C290.184 103.067 289.848 103.136 289.427 103.136ZM289.564 102.233C289.967 102.233 290.308 102.128 290.586 101.918C290.865 101.705 291.076 101.411 291.221 101.036C291.366 100.658 291.439 100.222 291.439 99.7273C291.439 99.2386 291.368 98.8111 291.225 98.4446C291.083 98.0753 290.873 97.7884 290.595 97.5838C290.316 97.3764 289.973 97.2727 289.564 97.2727C289.137 97.2727 288.782 97.3821 288.498 97.6009C288.217 97.8168 288.005 98.1108 287.863 98.483C287.724 98.8523 287.654 99.267 287.654 99.7273C287.654 100.193 287.725 100.616 287.868 100.997C288.012 101.375 288.225 101.676 288.507 101.901C288.791 102.122 289.143 102.233 289.564 102.233ZM302.693 96.4545C302.642 96.0227 302.434 95.6875 302.071 95.4489C301.707 95.2102 301.261 95.0909 300.733 95.0909C300.346 95.0909 300.008 95.1534 299.718 95.2784C299.431 95.4034 299.207 95.5753 299.045 95.794C298.886 96.0128 298.806 96.2614 298.806 96.5398C298.806 96.7727 298.862 96.973 298.973 97.1406C299.086 97.3054 299.231 97.4432 299.407 97.554C299.583 97.6619 299.768 97.7514 299.961 97.8224C300.154 97.8906 300.332 97.946 300.494 97.9886L301.38 98.2273C301.608 98.2869 301.86 98.3693 302.139 98.4744C302.42 98.5795 302.689 98.723 302.944 98.9048C303.203 99.0838 303.416 99.3139 303.583 99.5952C303.751 99.8764 303.835 100.222 303.835 100.631C303.835 101.102 303.711 101.528 303.464 101.909C303.22 102.29 302.862 102.592 302.39 102.817C301.922 103.041 301.352 103.153 300.681 103.153C300.056 103.153 299.515 103.053 299.058 102.851C298.603 102.649 298.245 102.368 297.984 102.007C297.725 101.646 297.579 101.227 297.545 100.75H298.636C298.664 101.08 298.775 101.352 298.968 101.568C299.164 101.781 299.412 101.94 299.71 102.045C300.011 102.148 300.335 102.199 300.681 102.199C301.085 102.199 301.447 102.134 301.768 102.003C302.089 101.869 302.343 101.685 302.531 101.449C302.718 101.21 302.812 100.932 302.812 100.614C302.812 100.324 302.731 100.088 302.569 99.9062C302.407 99.7244 302.194 99.5767 301.93 99.4631C301.666 99.3494 301.38 99.25 301.074 99.1648L300 98.858C299.318 98.6619 298.778 98.3821 298.38 98.0185C297.983 97.6548 297.784 97.179 297.784 96.5909C297.784 96.1023 297.916 95.6761 298.18 95.3125C298.447 94.946 298.805 94.6619 299.254 94.4602C299.706 94.2557 300.21 94.1534 300.767 94.1534C301.329 94.1534 301.829 94.2543 302.267 94.456C302.704 94.6548 303.051 94.9276 303.306 95.2741C303.565 95.6207 303.701 96.0142 303.716 96.4545H302.693ZM308.283 96.4545V97.3068H304.891V96.4545H308.283ZM305.879 94.8864H306.885V101.125C306.885 101.409 306.926 101.622 307.009 101.764C307.094 101.903 307.202 101.997 307.332 102.045C307.466 102.091 307.607 102.114 307.754 102.114C307.865 102.114 307.956 102.108 308.027 102.097C308.098 102.082 308.155 102.071 308.197 102.062L308.402 102.966C308.334 102.991 308.239 103.017 308.116 103.043C307.994 103.071 307.839 103.085 307.652 103.085C307.368 103.085 307.089 103.024 306.817 102.902C306.547 102.78 306.322 102.594 306.143 102.344C305.967 102.094 305.879 101.778 305.879 101.398V94.8864ZM311.722 103.153C311.307 103.153 310.93 103.075 310.592 102.919C310.254 102.76 309.986 102.531 309.787 102.233C309.588 101.932 309.489 101.568 309.489 101.142C309.489 100.767 309.563 100.463 309.71 100.23C309.858 99.9943 310.055 99.8097 310.303 99.6761C310.55 99.5426 310.822 99.4432 311.121 99.3778C311.422 99.3097 311.724 99.2557 312.028 99.2159C312.426 99.1648 312.749 99.1264 312.996 99.1009C313.246 99.0724 313.428 99.0256 313.541 98.9602C313.658 98.8949 313.716 98.7812 313.716 98.6193V98.5852C313.716 98.1648 313.601 97.8381 313.371 97.6051C313.143 97.3722 312.798 97.2557 312.335 97.2557C311.855 97.2557 311.479 97.3608 311.206 97.571C310.933 97.7812 310.741 98.0057 310.631 98.2443L309.676 97.9034C309.847 97.5057 310.074 97.196 310.358 96.9744C310.645 96.75 310.957 96.5937 311.295 96.5057C311.636 96.4148 311.972 96.3693 312.301 96.3693C312.511 96.3693 312.753 96.3949 313.026 96.446C313.301 96.4943 313.567 96.5952 313.822 96.7486C314.081 96.902 314.295 97.1335 314.466 97.4432C314.636 97.7528 314.722 98.1676 314.722 98.6875V103H313.716V102.114H313.665C313.597 102.256 313.483 102.408 313.324 102.57C313.165 102.732 312.953 102.869 312.689 102.983C312.425 103.097 312.102 103.153 311.722 103.153ZM311.875 102.25C312.273 102.25 312.608 102.172 312.881 102.016C313.156 101.859 313.364 101.658 313.503 101.411C313.645 101.163 313.716 100.903 313.716 100.631V99.7102C313.673 99.7614 313.58 99.8082 313.435 99.8509C313.293 99.8906 313.128 99.9261 312.94 99.9574C312.756 99.9858 312.575 100.011 312.399 100.034C312.226 100.054 312.085 100.071 311.977 100.085C311.716 100.119 311.472 100.175 311.244 100.251C311.02 100.325 310.838 100.437 310.699 100.588C310.563 100.736 310.494 100.937 310.494 101.193C310.494 101.543 310.624 101.807 310.882 101.986C311.143 102.162 311.474 102.25 311.875 102.25ZM319.404 96.4545V97.3068H316.012V96.4545H319.404ZM317 94.8864H318.006V101.125C318.006 101.409 318.047 101.622 318.13 101.764C318.215 101.903 318.323 101.997 318.453 102.045C318.587 102.091 318.728 102.114 318.875 102.114C318.986 102.114 319.077 102.108 319.148 102.097C319.219 102.082 319.276 102.071 319.319 102.062L319.523 102.966C319.455 102.991 319.36 103.017 319.238 103.043C319.115 103.071 318.961 103.085 318.773 103.085C318.489 103.085 318.211 103.024 317.938 102.902C317.668 102.78 317.444 102.594 317.265 102.344C317.088 102.094 317 101.778 317 101.398V94.8864ZM323.591 103.136C322.96 103.136 322.416 102.997 321.958 102.719C321.504 102.438 321.153 102.045 320.906 101.543C320.662 101.037 320.539 100.449 320.539 99.7784C320.539 99.108 320.662 98.517 320.906 98.0057C321.153 97.4915 321.497 97.0909 321.937 96.804C322.38 96.5142 322.897 96.3693 323.488 96.3693C323.829 96.3693 324.166 96.4261 324.498 96.5398C324.831 96.6534 325.133 96.8381 325.406 97.0938C325.679 97.3466 325.896 97.6818 326.058 98.0994C326.22 98.517 326.301 99.0312 326.301 99.642V100.068H321.255V99.1989H325.278C325.278 98.8295 325.204 98.5 325.056 98.2102C324.912 97.9205 324.704 97.6918 324.434 97.5241C324.167 97.3565 323.852 97.2727 323.488 97.2727C323.088 97.2727 322.741 97.3722 322.449 97.571C322.159 97.767 321.936 98.0227 321.779 98.3381C321.623 98.6534 321.545 98.9915 321.545 99.3523V99.9318C321.545 100.426 321.63 100.845 321.801 101.189C321.974 101.53 322.214 101.79 322.521 101.969C322.828 102.145 323.184 102.233 323.591 102.233C323.855 102.233 324.093 102.196 324.306 102.122C324.522 102.045 324.708 101.932 324.865 101.781C325.021 101.628 325.142 101.437 325.227 101.21L326.199 101.483C326.096 101.812 325.924 102.102 325.683 102.352C325.441 102.599 325.143 102.793 324.788 102.932C324.433 103.068 324.034 103.136 323.591 103.136ZM332.467 97.9205L331.564 98.1761C331.507 98.0256 331.423 97.8793 331.312 97.7372C331.204 97.5923 331.056 97.473 330.869 97.3793C330.681 97.2855 330.441 97.2386 330.149 97.2386C329.748 97.2386 329.414 97.331 329.147 97.5156C328.883 97.6974 328.751 97.929 328.751 98.2102C328.751 98.4602 328.842 98.6577 329.024 98.8026C329.206 98.9474 329.49 99.0682 329.876 99.1648L330.848 99.4034C331.433 99.5455 331.869 99.7628 332.156 100.055C332.443 100.345 332.586 100.719 332.586 101.176C332.586 101.551 332.478 101.886 332.262 102.182C332.049 102.477 331.751 102.71 331.368 102.881C330.984 103.051 330.538 103.136 330.029 103.136C329.362 103.136 328.809 102.991 328.372 102.702C327.934 102.412 327.657 101.989 327.541 101.432L328.495 101.193C328.586 101.545 328.758 101.81 329.011 101.986C329.267 102.162 329.6 102.25 330.012 102.25C330.481 102.25 330.853 102.151 331.129 101.952C331.407 101.75 331.547 101.509 331.547 101.227C331.547 101 331.467 100.81 331.308 100.656C331.149 100.5 330.904 100.384 330.575 100.307L329.484 100.051C328.885 99.9091 328.444 99.6889 328.163 99.3906C327.885 99.0895 327.745 98.7131 327.745 98.2614C327.745 97.892 327.849 97.5653 328.056 97.2812C328.267 96.9972 328.552 96.7741 328.913 96.6122C329.277 96.4503 329.689 96.3693 330.149 96.3693C330.797 96.3693 331.305 96.5114 331.674 96.7955C332.047 97.0795 332.311 97.4545 332.467 97.9205Z" fill="#1C1C1C"/>
<path d="M251 135C251 136.657 249.657 138 248 138C246.343 138 245 136.657 245 135C245 133.343 246.343 132 248 132C249.657 132 251 133.343 251 135Z" fill="#C6C7F8"/>
<path d="M264.08 133H263.023C262.96 132.696 262.851 132.429 262.695 132.199C262.541 131.969 262.354 131.776 262.132 131.619C261.913 131.46 261.67 131.341 261.403 131.261C261.136 131.182 260.858 131.142 260.568 131.142C260.04 131.142 259.561 131.276 259.132 131.543C258.706 131.81 258.366 132.203 258.114 132.723C257.864 133.243 257.739 133.881 257.739 134.636C257.739 135.392 257.864 136.03 258.114 136.55C258.366 137.07 258.706 137.463 259.132 137.73C259.561 137.997 260.04 138.131 260.568 138.131C260.858 138.131 261.136 138.091 261.403 138.011C261.67 137.932 261.913 137.814 262.132 137.658C262.354 137.499 262.541 137.304 262.695 137.074C262.851 136.841 262.96 136.574 263.023 136.273H264.08C264 136.719 263.855 137.118 263.645 137.47C263.435 137.822 263.173 138.122 262.861 138.369C262.548 138.614 262.197 138.8 261.808 138.928C261.422 139.055 261.009 139.119 260.568 139.119C259.824 139.119 259.162 138.938 258.582 138.574C258.003 138.21 257.547 137.693 257.214 137.023C256.882 136.352 256.716 135.557 256.716 134.636C256.716 133.716 256.882 132.92 257.214 132.25C257.547 131.58 258.003 131.062 258.582 130.699C259.162 130.335 259.824 130.153 260.568 130.153C261.009 130.153 261.422 130.217 261.808 130.345C262.197 130.473 262.548 130.661 262.861 130.908C263.173 131.152 263.435 131.45 263.645 131.803C263.855 132.152 264 132.551 264.08 133ZM267.577 139.153C267.162 139.153 266.786 139.075 266.448 138.919C266.11 138.76 265.841 138.531 265.642 138.233C265.444 137.932 265.344 137.568 265.344 137.142C265.344 136.767 265.418 136.463 265.566 136.23C265.713 135.994 265.911 135.81 266.158 135.676C266.405 135.543 266.678 135.443 266.976 135.378C267.277 135.31 267.58 135.256 267.884 135.216C268.282 135.165 268.604 135.126 268.851 135.101C269.101 135.072 269.283 135.026 269.397 134.96C269.513 134.895 269.571 134.781 269.571 134.619V134.585C269.571 134.165 269.456 133.838 269.226 133.605C268.999 133.372 268.654 133.256 268.191 133.256C267.711 133.256 267.334 133.361 267.061 133.571C266.789 133.781 266.597 134.006 266.486 134.244L265.532 133.903C265.702 133.506 265.929 133.196 266.213 132.974C266.5 132.75 266.813 132.594 267.151 132.506C267.492 132.415 267.827 132.369 268.157 132.369C268.367 132.369 268.608 132.395 268.881 132.446C269.157 132.494 269.422 132.595 269.678 132.749C269.936 132.902 270.151 133.134 270.321 133.443C270.492 133.753 270.577 134.168 270.577 134.688V139H269.571V138.114H269.52C269.452 138.256 269.338 138.408 269.179 138.57C269.02 138.732 268.809 138.869 268.544 138.983C268.28 139.097 267.958 139.153 267.577 139.153ZM267.73 138.25C268.128 138.25 268.463 138.172 268.736 138.016C269.012 137.859 269.219 137.658 269.358 137.411C269.5 137.163 269.571 136.903 269.571 136.631V135.71C269.529 135.761 269.435 135.808 269.29 135.851C269.148 135.891 268.983 135.926 268.796 135.957C268.611 135.986 268.431 136.011 268.255 136.034C268.081 136.054 267.941 136.071 267.833 136.085C267.571 136.119 267.327 136.175 267.1 136.251C266.875 136.325 266.694 136.437 266.554 136.588C266.418 136.736 266.35 136.937 266.35 137.193C266.35 137.543 266.479 137.807 266.738 137.986C266.999 138.162 267.33 138.25 267.73 138.25ZM273.418 135.062V139H272.413V132.455H273.384V133.477H273.469C273.623 133.145 273.856 132.878 274.168 132.676C274.481 132.472 274.884 132.369 275.379 132.369C275.822 132.369 276.21 132.46 276.542 132.642C276.874 132.821 277.133 133.094 277.317 133.46C277.502 133.824 277.594 134.284 277.594 134.841V139H276.589V134.909C276.589 134.395 276.455 133.994 276.188 133.707C275.921 133.418 275.555 133.273 275.089 133.273C274.768 133.273 274.481 133.342 274.228 133.482C273.978 133.621 273.781 133.824 273.636 134.091C273.491 134.358 273.418 134.682 273.418 135.062ZM281.358 139.153C280.944 139.153 280.567 139.075 280.229 138.919C279.891 138.76 279.623 138.531 279.424 138.233C279.225 137.932 279.125 137.568 279.125 137.142C279.125 136.767 279.199 136.463 279.347 136.23C279.495 135.994 279.692 135.81 279.939 135.676C280.186 135.543 280.459 135.443 280.757 135.378C281.059 135.31 281.361 135.256 281.665 135.216C282.063 135.165 282.385 135.126 282.632 135.101C282.882 135.072 283.064 135.026 283.178 134.96C283.294 134.895 283.353 134.781 283.353 134.619V134.585C283.353 134.165 283.238 133.838 283.007 133.605C282.78 133.372 282.435 133.256 281.972 133.256C281.492 133.256 281.115 133.361 280.843 133.571C280.57 133.781 280.378 134.006 280.267 134.244L279.313 133.903C279.483 133.506 279.711 133.196 279.995 132.974C280.282 132.75 280.594 132.594 280.932 132.506C281.273 132.415 281.608 132.369 281.938 132.369C282.148 132.369 282.39 132.395 282.662 132.446C282.938 132.494 283.203 132.595 283.459 132.749C283.718 132.902 283.932 133.134 284.103 133.443C284.273 133.753 284.358 134.168 284.358 134.688V139H283.353V138.114H283.301C283.233 138.256 283.12 138.408 282.961 138.57C282.801 138.732 282.59 138.869 282.326 138.983C282.061 139.097 281.739 139.153 281.358 139.153ZM281.512 138.25C281.909 138.25 282.245 138.172 282.517 138.016C282.793 137.859 283 137.658 283.14 137.411C283.282 137.163 283.353 136.903 283.353 136.631V135.71C283.31 135.761 283.216 135.808 283.071 135.851C282.929 135.891 282.765 135.926 282.577 135.957C282.392 135.986 282.212 136.011 282.036 136.034C281.863 136.054 281.722 136.071 281.614 136.085C281.353 136.119 281.108 136.175 280.881 136.251C280.657 136.325 280.475 136.437 280.336 136.588C280.199 136.736 280.131 136.937 280.131 137.193C280.131 137.543 280.26 137.807 280.519 137.986C280.78 138.162 281.111 138.25 281.512 138.25ZM288.665 139.136C288.12 139.136 287.638 138.999 287.221 138.723C286.803 138.445 286.477 138.053 286.241 137.547C286.005 137.038 285.887 136.438 285.887 135.744C285.887 135.057 286.005 134.46 286.241 133.955C286.477 133.449 286.805 133.058 287.225 132.783C287.646 132.507 288.131 132.369 288.683 132.369C289.109 132.369 289.445 132.44 289.692 132.582C289.942 132.722 290.133 132.881 290.263 133.06C290.397 133.236 290.501 133.381 290.575 133.494H290.66V130.273H291.665V139H290.694V137.994H290.575C290.501 138.114 290.396 138.264 290.259 138.446C290.123 138.625 289.928 138.786 289.675 138.928C289.423 139.067 289.086 139.136 288.665 139.136ZM288.802 138.233C289.205 138.233 289.546 138.128 289.825 137.918C290.103 137.705 290.315 137.411 290.46 137.036C290.604 136.658 290.677 136.222 290.677 135.727C290.677 135.239 290.606 134.811 290.464 134.445C290.322 134.075 290.112 133.788 289.833 133.584C289.555 133.376 289.211 133.273 288.802 133.273C288.376 133.273 288.021 133.382 287.737 133.601C287.455 133.817 287.244 134.111 287.102 134.483C286.962 134.852 286.893 135.267 286.893 135.727C286.893 136.193 286.964 136.616 287.106 136.997C287.251 137.375 287.464 137.676 287.745 137.901C288.029 138.122 288.381 138.233 288.802 138.233ZM295.573 139.153C295.158 139.153 294.782 139.075 294.444 138.919C294.106 138.76 293.837 138.531 293.638 138.233C293.44 137.932 293.34 137.568 293.34 137.142C293.34 136.767 293.414 136.463 293.562 136.23C293.71 135.994 293.907 135.81 294.154 135.676C294.401 135.543 294.674 135.443 294.972 135.378C295.273 135.31 295.576 135.256 295.88 135.216C296.278 135.165 296.6 135.126 296.847 135.101C297.097 135.072 297.279 135.026 297.393 134.96C297.509 134.895 297.567 134.781 297.567 134.619V134.585C297.567 134.165 297.452 133.838 297.222 133.605C296.995 133.372 296.65 133.256 296.187 133.256C295.707 133.256 295.33 133.361 295.058 133.571C294.785 133.781 294.593 134.006 294.482 134.244L293.528 133.903C293.698 133.506 293.925 133.196 294.21 132.974C294.496 132.75 294.809 132.594 295.147 132.506C295.488 132.415 295.823 132.369 296.153 132.369C296.363 132.369 296.604 132.395 296.877 132.446C297.153 132.494 297.418 132.595 297.674 132.749C297.933 132.902 298.147 133.134 298.317 133.443C298.488 133.753 298.573 134.168 298.573 134.688V139H297.567V138.114H297.516C297.448 138.256 297.335 138.408 297.175 138.57C297.016 138.732 296.805 138.869 296.54 138.983C296.276 139.097 295.954 139.153 295.573 139.153ZM295.727 138.25C296.124 138.25 296.46 138.172 296.732 138.016C297.008 137.859 297.215 137.658 297.354 137.411C297.496 137.163 297.567 136.903 297.567 136.631V135.71C297.525 135.761 297.431 135.808 297.286 135.851C297.144 135.891 296.979 135.926 296.792 135.957C296.607 135.986 296.427 136.011 296.251 136.034C296.077 136.054 295.937 136.071 295.829 136.085C295.567 136.119 295.323 136.175 295.096 136.251C294.871 136.325 294.69 136.437 294.55 136.588C294.414 136.736 294.346 136.937 294.346 137.193C294.346 137.543 294.475 137.807 294.734 137.986C294.995 138.162 295.326 138.25 295.727 138.25Z" fill="#1C1C1C"/>
<path d="M251 171C251 172.657 249.657 174 248 174C246.343 174 245 172.657 245 171C245 169.343 246.343 168 248 168C249.657 168 251 169.343 251 171Z" fill="#BAEDBD"/>
<path d="M257.057 166.273H258.318L261.284 173.517H261.386L264.352 166.273H265.614V175H264.625V168.369H264.54L261.812 175H260.858L258.131 168.369H258.045V175H257.057V166.273ZM270.341 175.136C269.71 175.136 269.166 174.997 268.708 174.719C268.254 174.438 267.903 174.045 267.656 173.543C267.412 173.037 267.289 172.449 267.289 171.778C267.289 171.108 267.412 170.517 267.656 170.006C267.903 169.491 268.247 169.091 268.687 168.804C269.13 168.514 269.647 168.369 270.238 168.369C270.579 168.369 270.916 168.426 271.248 168.54C271.581 168.653 271.883 168.838 272.156 169.094C272.429 169.347 272.646 169.682 272.808 170.099C272.97 170.517 273.051 171.031 273.051 171.642V172.068H268.005V171.199H272.028C272.028 170.83 271.954 170.5 271.806 170.21C271.662 169.92 271.454 169.692 271.184 169.524C270.917 169.357 270.602 169.273 270.238 169.273C269.838 169.273 269.491 169.372 269.199 169.571C268.909 169.767 268.686 170.023 268.529 170.338C268.373 170.653 268.295 170.991 268.295 171.352V171.932C268.295 172.426 268.38 172.845 268.551 173.189C268.724 173.53 268.964 173.79 269.271 173.969C269.578 174.145 269.934 174.233 270.341 174.233C270.605 174.233 270.843 174.196 271.056 174.122C271.272 174.045 271.458 173.932 271.615 173.781C271.771 173.628 271.892 173.437 271.977 173.21L272.949 173.483C272.846 173.812 272.674 174.102 272.433 174.352C272.191 174.599 271.893 174.793 271.538 174.932C271.183 175.068 270.784 175.136 270.341 175.136ZM275.155 168.455L276.723 171.131L278.291 168.455H279.45L277.337 171.727L279.45 175H278.291L276.723 172.46L275.155 175H273.996L276.075 171.727L273.996 168.455H275.155ZM280.885 175V168.455H281.891V175H280.885ZM281.397 167.364C281.201 167.364 281.032 167.297 280.89 167.163C280.75 167.03 280.681 166.869 280.681 166.682C280.681 166.494 280.75 166.334 280.89 166.2C281.032 166.067 281.201 166 281.397 166C281.593 166 281.76 166.067 281.9 166.2C282.042 166.334 282.113 166.494 282.113 166.682C282.113 166.869 282.042 167.03 281.9 167.163C281.76 167.297 281.593 167.364 281.397 167.364ZM286.392 175.136C285.778 175.136 285.25 174.991 284.807 174.702C284.364 174.412 284.023 174.013 283.784 173.504C283.545 172.996 283.426 172.415 283.426 171.761C283.426 171.097 283.548 170.51 283.793 170.001C284.04 169.49 284.384 169.091 284.824 168.804C285.267 168.514 285.784 168.369 286.375 168.369C286.835 168.369 287.25 168.455 287.619 168.625C287.989 168.795 288.291 169.034 288.527 169.341C288.763 169.648 288.909 170.006 288.966 170.415H287.96C287.884 170.116 287.713 169.852 287.449 169.622C287.188 169.389 286.835 169.273 286.392 169.273C286 169.273 285.656 169.375 285.361 169.58C285.068 169.781 284.839 170.067 284.675 170.436C284.513 170.803 284.432 171.233 284.432 171.727C284.432 172.233 284.511 172.673 284.67 173.048C284.832 173.423 285.06 173.714 285.352 173.922C285.648 174.129 285.994 174.233 286.392 174.233C286.653 174.233 286.891 174.188 287.104 174.097C287.317 174.006 287.497 173.875 287.645 173.705C287.793 173.534 287.898 173.33 287.96 173.091H288.966C288.909 173.477 288.768 173.825 288.544 174.135C288.322 174.442 288.028 174.686 287.662 174.868C287.298 175.047 286.875 175.136 286.392 175.136ZM293.095 175.136C292.504 175.136 291.986 174.996 291.54 174.714C291.097 174.433 290.75 174.04 290.5 173.534C290.253 173.028 290.129 172.437 290.129 171.761C290.129 171.08 290.253 170.484 290.5 169.976C290.75 169.467 291.097 169.072 291.54 168.791C291.986 168.51 292.504 168.369 293.095 168.369C293.686 168.369 294.203 168.51 294.646 168.791C295.092 169.072 295.439 169.467 295.686 169.976C295.936 170.484 296.061 171.08 296.061 171.761C296.061 172.437 295.936 173.028 295.686 173.534C295.439 174.04 295.092 174.433 294.646 174.714C294.203 174.996 293.686 175.136 293.095 175.136ZM293.095 174.233C293.544 174.233 293.913 174.118 294.203 173.888C294.493 173.658 294.707 173.355 294.847 172.98C294.986 172.605 295.055 172.199 295.055 171.761C295.055 171.324 294.986 170.916 294.847 170.538C294.707 170.161 294.493 169.855 294.203 169.622C293.913 169.389 293.544 169.273 293.095 169.273C292.646 169.273 292.277 169.389 291.987 169.622C291.697 169.855 291.483 170.161 291.344 170.538C291.205 170.916 291.135 171.324 291.135 171.761C291.135 172.199 291.205 172.605 291.344 172.98C291.483 173.355 291.697 173.658 291.987 173.888C292.277 174.118 292.646 174.233 293.095 174.233Z" fill="#1C1C1C"/>
<path d="M251 207C251 208.657 249.657 210 248 210C246.343 210 245 208.657 245 207C245 205.343 246.343 204 248 204C249.657 204 251 205.343 251 207Z" fill="#95A4FC"/>
<path d="M264.42 206.636C264.42 207.557 264.254 208.352 263.922 209.023C263.589 209.693 263.134 210.21 262.554 210.574C261.974 210.938 261.313 211.119 260.568 211.119C259.824 211.119 259.162 210.938 258.582 210.574C258.003 210.21 257.547 209.693 257.214 209.023C256.882 208.352 256.716 207.557 256.716 206.636C256.716 205.716 256.882 204.92 257.214 204.25C257.547 203.58 258.003 203.062 258.582 202.699C259.162 202.335 259.824 202.153 260.568 202.153C261.313 202.153 261.974 202.335 262.554 202.699C263.134 203.062 263.589 203.58 263.922 204.25C264.254 204.92 264.42 205.716 264.42 206.636ZM263.398 206.636C263.398 205.881 263.271 205.243 263.018 204.723C262.768 204.203 262.429 203.81 262 203.543C261.574 203.276 261.097 203.142 260.568 203.142C260.04 203.142 259.561 203.276 259.132 203.543C258.706 203.81 258.366 204.203 258.114 204.723C257.864 205.243 257.739 205.881 257.739 206.636C257.739 207.392 257.864 208.03 258.114 208.55C258.366 209.07 258.706 209.463 259.132 209.73C259.561 209.997 260.04 210.131 260.568 210.131C261.097 210.131 261.574 209.997 262 209.73C262.429 209.463 262.768 209.07 263.018 208.55C263.271 208.03 263.398 207.392 263.398 206.636ZM268.908 204.455V205.307H265.516V204.455H268.908ZM266.504 202.886H267.51V209.125C267.51 209.409 267.551 209.622 267.634 209.764C267.719 209.903 267.827 209.997 267.957 210.045C268.091 210.091 268.232 210.114 268.379 210.114C268.49 210.114 268.581 210.108 268.652 210.097C268.723 210.082 268.78 210.071 268.822 210.062L269.027 210.966C268.959 210.991 268.864 211.017 268.741 211.043C268.619 211.071 268.464 211.085 268.277 211.085C267.993 211.085 267.714 211.024 267.442 210.902C267.172 210.78 266.947 210.594 266.768 210.344C266.592 210.094 266.504 209.778 266.504 209.398V202.886ZM271.567 207.062V211H270.561V202.273H271.567V205.477H271.652C271.805 205.139 272.036 204.871 272.342 204.672C272.652 204.47 273.064 204.369 273.578 204.369C274.024 204.369 274.415 204.459 274.75 204.638C275.085 204.814 275.345 205.085 275.53 205.452C275.717 205.815 275.811 206.278 275.811 206.841V211H274.805V206.909C274.805 206.389 274.67 205.987 274.401 205.703C274.134 205.416 273.763 205.273 273.288 205.273C272.959 205.273 272.663 205.342 272.402 205.482C272.143 205.621 271.939 205.824 271.788 206.091C271.641 206.358 271.567 206.682 271.567 207.062ZM280.395 211.136C279.765 211.136 279.221 210.997 278.763 210.719C278.309 210.438 277.958 210.045 277.711 209.543C277.466 209.037 277.344 208.449 277.344 207.778C277.344 207.108 277.466 206.517 277.711 206.006C277.958 205.491 278.301 205.091 278.742 204.804C279.185 204.514 279.702 204.369 280.293 204.369C280.634 204.369 280.971 204.426 281.303 204.54C281.635 204.653 281.938 204.838 282.211 205.094C282.483 205.347 282.701 205.682 282.863 206.099C283.025 206.517 283.105 207.031 283.105 207.642V208.068H278.06V207.199H282.083C282.083 206.83 282.009 206.5 281.861 206.21C281.716 205.92 281.509 205.692 281.239 205.524C280.972 205.357 280.657 205.273 280.293 205.273C279.892 205.273 279.546 205.372 279.253 205.571C278.963 205.767 278.74 206.023 278.584 206.338C278.428 206.653 278.35 206.991 278.35 207.352V207.932C278.35 208.426 278.435 208.845 278.605 209.189C278.779 209.53 279.019 209.79 279.326 209.969C279.632 210.145 279.989 210.233 280.395 210.233C280.659 210.233 280.898 210.196 281.111 210.122C281.327 210.045 281.513 209.932 281.669 209.781C281.826 209.628 281.946 209.437 282.032 209.21L283.003 209.483C282.901 209.812 282.729 210.102 282.488 210.352C282.246 210.599 281.948 210.793 281.593 210.932C281.238 211.068 280.838 211.136 280.395 211.136ZM284.635 211V204.455H285.607V205.443H285.675C285.794 205.119 286.01 204.857 286.323 204.655C286.635 204.453 286.988 204.352 287.38 204.352C287.453 204.352 287.546 204.354 287.657 204.357C287.767 204.359 287.851 204.364 287.908 204.369V205.392C287.874 205.384 287.796 205.371 287.674 205.354C287.554 205.334 287.428 205.324 287.294 205.324C286.976 205.324 286.692 205.391 286.442 205.524C286.195 205.655 285.999 205.837 285.854 206.07C285.712 206.3 285.641 206.562 285.641 206.858V211H284.635Z" fill="#1C1C1C"/>
<path fill-rule="evenodd" clip-rule="evenodd" d="M140.435 106.435C145.194 102.156 152.52 102.545 156.799 107.304C167.679 119.405 174.314 135.441 174.314 153C174.314 190.757 143.706 221.365 105.949 221.365C68.192 221.365 37.584 190.757 37.584 153C37.584 149.211 37.8932 145.487 38.4901 141.852C39.5271 135.537 45.487 131.259 51.8019 132.296C58.1169 133.333 62.3955 139.293 61.3585 145.607C60.9646 148.006 60.7586 150.474 60.7586 153C60.7586 177.958 80.991 198.19 105.949 198.19C130.907 198.19 151.139 177.958 151.139 153C151.139 141.381 146.77 130.811 139.566 122.799C135.287 118.04 135.676 110.713 140.435 106.435Z" fill="url(#paint0_linear_24476_69746)"/>
<path fill-rule="evenodd" clip-rule="evenodd" d="M137.761 103.46C144.162 97.7045 154.018 98.228 159.774 104.63C171.288 117.436 178.314 134.416 178.314 153C178.314 192.966 145.915 225.365 105.949 225.365C65.9829 225.365 33.584 192.966 33.584 153C33.584 148.993 33.911 145.052 34.543 141.204C35.938 132.709 43.9553 126.954 52.4501 128.349C60.945 129.743 66.7006 137.761 65.3056 146.256C64.9468 148.44 64.7586 150.692 64.7586 153C64.7586 175.748 83.2002 194.19 105.949 194.19C128.698 194.19 147.139 175.748 147.139 153C147.139 142.406 143.161 132.779 136.592 125.473C130.836 119.072 131.359 109.216 137.761 103.46V103.46ZM156.799 107.304C152.52 102.545 145.194 102.156 140.435 106.435C135.676 110.714 135.287 118.04 139.566 122.799C146.77 130.811 151.139 141.381 151.139 153C151.139 177.958 130.907 198.19 105.949 198.19C80.991 198.19 60.7586 177.958 60.7586 153C60.7586 150.474 60.9646 148.006 61.3585 145.607C62.3955 139.293 58.1169 133.333 51.8019 132.296C45.487 131.259 39.5271 135.537 38.4901 141.852C37.8932 145.487 37.584 149.211 37.584 153C37.584 190.757 68.192 221.365 105.949 221.365C143.706 221.365 174.314 190.757 174.314 153C174.314 135.441 167.679 119.405 156.799 107.304Z" fill="#F7F9FB"/>
<path fill-rule="evenodd" clip-rule="evenodd" d="M71.3334 106.435C76.0922 110.713 76.4813 118.04 72.2026 122.799C68.7413 126.648 65.9367 131.088 63.9567 135.941C61.5391 141.866 54.7758 144.709 48.8506 142.292C42.9253 139.874 40.0818 133.111 42.4994 127.186C45.5035 119.823 49.7489 113.11 54.9695 107.304C59.2482 102.545 66.5746 102.156 71.3334 106.435Z" fill="#95A4FC"/>
<path fill-rule="evenodd" clip-rule="evenodd" d="M74.4308 102.988C81.0931 108.979 81.6379 119.235 75.6477 125.898C72.5383 129.356 70.0218 133.341 68.2466 137.692C64.862 145.987 55.3934 149.968 47.098 146.583C38.8027 143.199 34.8218 133.73 38.2064 125.435C41.4153 117.57 45.9489 110.403 51.5213 104.205C57.5116 97.5429 67.7685 96.9981 74.4308 102.988ZM72.2011 122.799C76.4798 118.04 76.0906 110.714 71.3318 106.435C66.5731 102.156 59.2467 102.545 54.968 107.304C49.7473 113.11 45.5019 119.823 42.4979 127.186C40.0803 133.111 42.9238 139.874 48.849 142.292C54.7743 144.71 61.5376 141.866 63.9552 135.941C65.9352 131.088 68.7398 126.648 72.2011 122.799Z" fill="#F7F9FB"/>
<path fill-rule="evenodd" clip-rule="evenodd" d="M105.663 107.809C96.0459 107.809 87.1624 110.8 79.8473 115.903C74.5985 119.564 67.3756 118.277 63.7145 113.028C60.0533 107.779 61.3404 100.556 66.5891 96.8952C77.6673 89.168 91.1529 84.6348 105.663 84.6348C120.172 84.6348 133.658 89.168 144.736 96.8952C149.985 100.556 151.272 107.779 147.611 113.028C143.95 118.277 136.727 119.564 131.478 115.903C124.163 110.8 115.279 107.809 105.663 107.809Z" fill="#C6C7F8"/>
<path fill-rule="evenodd" clip-rule="evenodd" d="M105.661 112.445C97.0228 112.445 89.0599 115.127 82.4976 119.704C75.1493 124.83 65.0372 123.028 59.9116 115.68C54.786 108.332 56.5878 98.2195 63.9361 93.0939C75.7667 84.8418 90.1727 80 105.661 80C121.15 80 135.556 84.8418 147.386 93.0939C154.735 98.2195 156.536 108.332 151.411 115.68C146.285 123.028 136.173 124.83 128.825 119.704C122.263 115.127 114.3 112.445 105.661 112.445ZM79.8459 115.903C87.1611 110.8 96.0445 107.81 105.661 107.81C115.278 107.81 124.161 110.8 131.477 115.903C136.725 119.564 143.948 118.277 147.609 113.028C151.27 107.779 149.983 100.557 144.735 96.8954C133.657 89.1682 120.171 84.6349 105.661 84.6349C91.1515 84.6349 77.6659 89.1682 66.5878 96.8954C61.339 100.557 60.0519 107.779 63.7131 113.028C67.3742 118.277 74.5971 119.564 79.8459 115.903Z" fill="#F7F9FB"/>
<path fill-rule="evenodd" clip-rule="evenodd" d="M140.436 106.435C145.195 102.156 152.521 102.545 156.8 107.304C167.68 119.405 174.315 135.441 174.315 153C174.315 190.757 143.707 221.365 105.95 221.365C99.5501 221.365 94.3623 216.177 94.3623 209.777C94.3623 203.378 99.5501 198.19 105.95 198.19C130.908 198.19 151.14 177.958 151.14 153C151.14 141.381 146.771 130.811 139.567 122.799C135.288 118.04 135.677 110.713 140.436 106.435Z" fill="#1C1C1C"/>
<path fill-rule="evenodd" clip-rule="evenodd" d="M137.336 102.988C143.999 96.9981 154.255 97.5429 160.246 104.205C171.861 117.124 178.949 134.253 178.949 153C178.949 193.317 146.266 226 105.949 226C96.9895 226 89.7266 218.737 89.7266 209.777C89.7266 200.818 96.9895 193.555 105.949 193.555C128.347 193.555 146.504 175.398 146.504 153C146.504 142.569 142.587 133.092 136.119 125.898C130.129 119.235 130.674 108.979 137.336 102.988ZM156.799 107.304C152.52 102.545 145.194 102.156 140.435 106.435C135.676 110.714 135.287 118.04 139.566 122.799C146.77 130.811 151.139 141.381 151.139 153C151.139 177.958 130.907 198.19 105.949 198.19C99.5493 198.19 94.3615 203.378 94.3615 209.777C94.3615 216.177 99.5493 221.365 105.949 221.365C143.706 221.365 174.314 190.757 174.314 153C174.314 135.441 167.679 119.405 156.799 107.304Z" fill="#F7F9FB"/>
<path fill-rule="evenodd" clip-rule="evenodd" d="M105.949 193.304C109.7 193.304 113.307 192.799 116.719 191.863C125.358 189.492 134.285 194.573 136.656 203.213C139.027 211.853 133.946 220.779 125.306 223.15C119.123 224.847 112.628 225.749 105.949 225.749C96.9895 225.749 89.7266 218.486 89.7266 209.526C89.7266 200.567 96.9895 193.304 105.949 193.304Z" fill="#F7F9FB"/>
<path fill-rule="evenodd" clip-rule="evenodd" d="M105.948 197.939C110.117 197.939 114.137 197.377 117.944 196.332C124.115 194.638 130.491 198.268 132.185 204.439C133.879 210.611 130.249 216.986 124.078 218.68C118.291 220.269 112.209 221.113 105.948 221.113C91.438 221.113 77.9524 216.58 66.8743 208.853C61.6255 205.192 60.3385 197.969 63.9996 192.72C67.6608 187.471 74.8837 186.184 80.1325 189.845C87.4476 194.948 96.331 197.939 105.948 197.939Z" fill="#A1E3CB"/>
<defs>
<linearGradient id="paint0_linear_24476_69746" x1="48.5" y1="171.5" x2="52.5" y2="123.5" gradientUnits="userSpaceOnUse">
<stop stop-color="#A1E3CB"/>
<stop offset="1" stop-color="#A1E3CB" stop-opacity="0"/>
</linearGradient>
</defs>
</svg>
