<svg width="520" height="260" viewBox="0 0 520 260" fill="none" xmlns="http://www.w3.org/2000/svg">
<rect width="520" height="260" rx="16" fill="#F7F9FB"/>
<path d="M28.4545 39H25.0043V28.8182H28.5241C29.535 28.8182 30.4034 29.022 31.1293 29.4297C31.8584 29.834 32.4186 30.4157 32.8097 31.1747C33.2008 31.9337 33.3963 32.8419 33.3963 33.8991C33.3963 34.9598 33.1991 35.8712 32.8047 36.6335C32.4136 37.3958 31.8485 37.9808 31.1094 38.3885C30.3736 38.7962 29.4886 39 28.4545 39ZM26.8487 37.4041H28.3651C29.0743 37.4041 29.666 37.2749 30.1399 37.0163C30.6139 36.7545 30.9702 36.3651 31.2088 35.848C31.4474 35.3277 31.5668 34.678 31.5668 33.8991C31.5668 33.1203 31.4474 32.474 31.2088 31.9602C30.9702 31.4432 30.6172 31.0571 30.1499 30.8018C29.6858 30.5433 29.1091 30.4141 28.4197 30.4141H26.8487V37.4041ZM38.4002 39.1491C37.6545 39.1491 37.0082 38.9851 36.4613 38.657C35.9144 38.3288 35.4902 37.8698 35.1886 37.2798C34.8903 36.6899 34.7411 36.0005 34.7411 35.2116C34.7411 34.4228 34.8903 33.7318 35.1886 33.1385C35.4902 32.5452 35.9144 32.0845 36.4613 31.7564C37.0082 31.4283 37.6545 31.2642 38.4002 31.2642C39.146 31.2642 39.7923 31.4283 40.3391 31.7564C40.886 32.0845 41.3086 32.5452 41.6069 33.1385C41.9085 33.7318 42.0593 34.4228 42.0593 35.2116C42.0593 36.0005 41.9085 36.6899 41.6069 37.2798C41.3086 37.8698 40.886 38.3288 40.3391 38.657C39.7923 38.9851 39.146 39.1491 38.4002 39.1491ZM38.4102 37.7074C38.8145 37.7074 39.1526 37.5964 39.4244 37.3743C39.6961 37.1489 39.8983 36.8473 40.0309 36.4695C40.1668 36.0916 40.2347 35.6707 40.2347 35.2067C40.2347 34.7393 40.1668 34.3168 40.0309 33.9389C39.8983 33.5578 39.6961 33.2545 39.4244 33.0291C39.1526 32.8037 38.8145 32.6911 38.4102 32.6911C37.9959 32.6911 37.6512 32.8037 37.3761 33.0291C37.1043 33.2545 36.9004 33.5578 36.7646 33.9389C36.632 34.3168 36.5657 34.7393 36.5657 35.2067C36.5657 35.6707 36.632 36.0916 36.7646 36.4695C36.9004 36.8473 37.1043 37.1489 37.3761 37.3743C37.6512 37.5964 37.9959 37.7074 38.4102 37.7074ZM48.454 35.7884V31.3636H50.2537V39H48.5087V37.6428H48.4292C48.2568 38.0703 47.9734 38.42 47.579 38.6918C47.1879 38.9635 46.7057 39.0994 46.1323 39.0994C45.6318 39.0994 45.1893 38.9884 44.8049 38.7663C44.4237 38.541 44.1254 38.2145 43.91 37.7869C43.6945 37.3561 43.5868 36.8357 43.5868 36.2259V31.3636H45.3865V35.9474C45.3865 36.4313 45.5191 36.8158 45.7843 37.1009C46.0494 37.3859 46.3974 37.5284 46.8283 37.5284C47.0935 37.5284 47.3503 37.4638 47.5989 37.3345C47.8475 37.2053 48.0513 37.013 48.2104 36.7578C48.3728 36.4993 48.454 36.1761 48.454 35.7884ZM55.4254 42.0227C54.7791 42.0227 54.224 41.9349 53.7599 41.7592C53.2959 41.5869 52.9231 41.3549 52.6413 41.0632C52.3596 40.7715 52.1641 40.4484 52.0547 40.0938L53.6754 39.701C53.7483 39.8501 53.8544 39.9976 53.9936 40.1435C54.1328 40.2926 54.3201 40.4152 54.5554 40.5114C54.794 40.6108 55.094 40.6605 55.4553 40.6605C55.9657 40.6605 56.3883 40.5362 56.723 40.2876C57.0578 40.0424 57.2251 39.638 57.2251 39.0746V37.6278H57.1357C57.0429 37.8134 56.907 38.004 56.728 38.1996C56.5523 38.3951 56.3187 38.5592 56.027 38.6918C55.7386 38.8243 55.3757 38.8906 54.9382 38.8906C54.3516 38.8906 53.8196 38.7531 53.3423 38.478C52.8684 38.1996 52.4905 37.7853 52.2088 37.2351C51.9304 36.6816 51.7912 35.9889 51.7912 35.157C51.7912 34.3184 51.9304 33.6108 52.2088 33.0341C52.4905 32.4541 52.87 32.0149 53.3473 31.7166C53.8246 31.415 54.3565 31.2642 54.9432 31.2642C55.3906 31.2642 55.7585 31.3404 56.0469 31.4929C56.3385 31.642 56.5705 31.8227 56.7429 32.0348C56.9152 32.2436 57.0462 32.4408 57.1357 32.6264H57.2351V31.3636H59.0099V39.1243C59.0099 39.7772 58.8542 40.3175 58.5426 40.745C58.2311 41.1726 57.8052 41.4924 57.2649 41.7045C56.7247 41.9167 56.1115 42.0227 55.4254 42.0227ZM55.4403 37.4787C55.8215 37.4787 56.1463 37.3859 56.4148 37.2003C56.6832 37.0147 56.8871 36.7479 57.0263 36.3999C57.1655 36.0518 57.2351 35.6342 57.2351 35.147C57.2351 34.6664 57.1655 34.2455 57.0263 33.8842C56.8904 33.523 56.6882 33.2429 56.4197 33.044C56.1546 32.8419 55.8281 32.7408 55.4403 32.7408C55.0393 32.7408 54.7045 32.8452 54.4361 33.054C54.1676 33.2628 53.9654 33.5495 53.8295 33.9141C53.6937 34.2753 53.6257 34.6863 53.6257 35.147C53.6257 35.6143 53.6937 36.0237 53.8295 36.375C53.9688 36.723 54.1726 36.9948 54.4411 37.1903C54.7128 37.3826 55.0459 37.4787 55.4403 37.4787ZM62.6541 34.5256V39H60.8544V28.8182H62.6143V32.6612H62.7038C62.8828 32.2304 63.1596 31.8906 63.5341 31.642C63.9119 31.3902 64.3925 31.2642 64.9759 31.2642C65.5062 31.2642 65.9685 31.3752 66.3629 31.5973C66.7573 31.8194 67.0623 32.1442 67.2777 32.5717C67.4964 32.9993 67.6058 33.5213 67.6058 34.1378V39H65.8061V34.4162C65.8061 33.9025 65.6735 33.5031 65.4084 33.218C65.1465 32.9297 64.7786 32.7855 64.3047 32.7855C63.9865 32.7855 63.7015 32.8551 63.4496 32.9943C63.201 33.1302 63.0054 33.3274 62.8629 33.5859C62.7237 33.8445 62.6541 34.1577 62.6541 34.5256ZM71.2401 34.5256V39H69.4403V31.3636H71.1605V32.6612H71.25C71.4257 32.2337 71.7057 31.8939 72.0902 31.642C72.478 31.3902 72.9569 31.2642 73.527 31.2642C74.054 31.2642 74.513 31.3769 74.9041 31.6023C75.2985 31.8277 75.6035 32.1541 75.8189 32.5817C76.0376 33.0092 76.1454 33.5279 76.142 34.1378V39H74.3423V34.4162C74.3423 33.9058 74.2098 33.5064 73.9446 33.218C73.6828 32.9297 73.3198 32.7855 72.8558 32.7855C72.541 32.7855 72.2609 32.8551 72.0156 32.9943C71.7737 33.1302 71.5831 33.3274 71.4439 33.5859C71.308 33.8445 71.2401 34.1577 71.2401 34.5256ZM82.8388 35.7884V31.3636H84.6385V39H82.8935V37.6428H82.8139C82.6416 38.0703 82.3582 38.42 81.9638 38.6918C81.5727 38.9635 81.0904 39.0994 80.517 39.0994C80.0166 39.0994 79.5741 38.9884 79.1896 38.7663C78.8085 38.541 78.5102 38.2145 78.2947 37.7869C78.0793 37.3561 77.9716 36.8357 77.9716 36.2259V31.3636H79.7713V35.9474C79.7713 36.4313 79.9039 36.8158 80.169 37.1009C80.4342 37.3859 80.7822 37.5284 81.2131 37.5284C81.4782 37.5284 81.7351 37.4638 81.9837 37.3345C82.2322 37.2053 82.4361 37.013 82.5952 36.7578C82.7576 36.4993 82.8388 36.1761 82.8388 35.7884ZM90.3024 31.3636V32.7557H85.9125V31.3636H90.3024ZM86.9963 29.5341H88.796V36.7031C88.796 36.9451 88.8324 37.1307 88.9054 37.2599C88.9816 37.3859 89.081 37.4721 89.2037 37.5185C89.3263 37.5649 89.4622 37.5881 89.6113 37.5881C89.724 37.5881 89.8268 37.5798 89.9196 37.5632C90.0157 37.5466 90.0886 37.5317 90.1383 37.5185L90.4416 38.9254C90.3455 38.9586 90.2079 38.995 90.0289 39.0348C89.8533 39.0746 89.6378 39.0978 89.3826 39.1044C88.9319 39.1177 88.5259 39.0497 88.1646 38.9006C87.8033 38.7481 87.5166 38.5128 87.3045 38.1946C87.0957 37.8764 86.993 37.4787 86.9963 37.0014V29.5341ZM98.6112 39.1491C97.8488 39.1491 97.1942 38.9818 96.6474 38.647C96.1038 38.3123 95.6845 37.8499 95.3896 37.2599C95.0979 36.6667 94.9521 35.9839 94.9521 35.2116C94.9521 34.4361 95.1012 33.7517 95.3995 33.1584C95.6978 32.5618 96.1187 32.0978 96.6623 31.7663C97.2092 31.4316 97.8555 31.2642 98.6012 31.2642C99.221 31.2642 99.7695 31.3786 100.247 31.6072C100.727 31.8326 101.11 32.1525 101.395 32.5668C101.68 32.9777 101.843 33.4583 101.882 34.0085H100.162C100.093 33.6406 99.927 33.334 99.6651 33.0888C99.4066 32.8402 99.0603 32.7159 98.6261 32.7159C98.2582 32.7159 97.935 32.8153 97.6566 33.0142C97.3782 33.2098 97.1611 33.4915 97.0053 33.8594C96.8529 34.2273 96.7766 34.6681 96.7766 35.1818C96.7766 35.7022 96.8529 36.1496 97.0053 36.5241C97.1578 36.8954 97.3716 37.1821 97.6467 37.3842C97.9251 37.5831 98.2515 37.6825 98.6261 37.6825C98.8912 37.6825 99.1282 37.6328 99.337 37.5334C99.5491 37.4306 99.7264 37.2831 99.869 37.0909C100.011 36.8987 100.109 36.665 100.162 36.3899H101.882C101.839 36.9302 101.68 37.4091 101.405 37.8267C101.13 38.241 100.756 38.5658 100.282 38.8011C99.8076 39.0331 99.2508 39.1491 98.6112 39.1491ZM105.16 34.5256V39H103.36V28.8182H105.12V32.6612H105.21C105.389 32.2304 105.665 31.8906 106.04 31.642C106.418 31.3902 106.898 31.2642 107.482 31.2642C108.012 31.2642 108.474 31.3752 108.869 31.5973C109.263 31.8194 109.568 32.1442 109.784 32.5717C110.002 32.9993 110.112 33.5213 110.112 34.1378V39H108.312V34.4162C108.312 33.9025 108.179 33.5031 107.914 33.218C107.652 32.9297 107.285 32.7855 106.811 32.7855C106.492 32.7855 106.207 32.8551 105.955 32.9943C105.707 33.1302 105.511 33.3274 105.369 33.5859C105.23 33.8445 105.16 34.1577 105.16 34.5256ZM114.144 39.1541C113.66 39.1541 113.224 39.0679 112.836 38.8956C112.452 38.7199 112.147 38.4614 111.921 38.12C111.699 37.7786 111.588 37.3577 111.588 36.8572C111.588 36.4264 111.668 36.0701 111.827 35.7884C111.986 35.5066 112.203 35.2812 112.478 35.1122C112.753 34.9432 113.063 34.8156 113.408 34.7294C113.756 34.6399 114.115 34.5753 114.487 34.5355C114.934 34.4891 115.297 34.4477 115.575 34.4112C115.854 34.3714 116.056 34.3118 116.182 34.2322C116.311 34.1494 116.376 34.0218 116.376 33.8494V33.8196C116.376 33.4451 116.265 33.1551 116.043 32.9496C115.821 32.7441 115.501 32.6413 115.083 32.6413C114.642 32.6413 114.293 32.7375 114.034 32.9297C113.779 33.1219 113.607 33.349 113.517 33.6108L111.837 33.3722C111.969 32.9081 112.188 32.5204 112.493 32.2088C112.798 31.8939 113.171 31.6586 113.612 31.5028C114.052 31.3438 114.54 31.2642 115.073 31.2642C115.441 31.2642 115.807 31.3073 116.172 31.3935C116.537 31.4796 116.87 31.6222 117.171 31.821C117.473 32.0166 117.715 32.2834 117.897 32.6214C118.083 32.9595 118.176 33.3821 118.176 33.8892V39H116.445V37.951H116.386C116.276 38.1631 116.122 38.362 115.923 38.5476C115.728 38.7299 115.481 38.8774 115.183 38.9901C114.888 39.0994 114.541 39.1541 114.144 39.1541ZM114.611 37.8317C114.972 37.8317 115.285 37.7604 115.551 37.6179C115.816 37.4721 116.02 37.2798 116.162 37.0412C116.308 36.8026 116.381 36.5424 116.381 36.2607V35.3608C116.325 35.4072 116.228 35.4503 116.093 35.4901C115.96 35.5298 115.811 35.5646 115.645 35.5945C115.479 35.6243 115.315 35.6508 115.153 35.674C114.99 35.6972 114.85 35.7171 114.73 35.7337C114.462 35.7701 114.222 35.8298 114.009 35.9126C113.797 35.9955 113.63 36.1115 113.507 36.2607C113.385 36.4065 113.323 36.5954 113.323 36.8274C113.323 37.1589 113.444 37.4091 113.686 37.5781C113.928 37.7472 114.236 37.8317 114.611 37.8317ZM119.985 39V31.3636H121.73V32.6364H121.81C121.949 32.1955 122.188 31.8558 122.526 31.6172C122.867 31.3752 123.257 31.2543 123.694 31.2543C123.794 31.2543 123.905 31.2592 124.027 31.2692C124.153 31.2758 124.258 31.2874 124.34 31.304V32.9595C124.264 32.933 124.143 32.9098 123.977 32.8899C123.815 32.8667 123.658 32.8551 123.505 32.8551C123.177 32.8551 122.882 32.9264 122.62 33.0689C122.362 33.2081 122.158 33.402 122.009 33.6506C121.86 33.8991 121.785 34.1858 121.785 34.5107V39H119.985ZM129.759 31.3636V32.7557H125.369V31.3636H129.759ZM126.453 29.5341H128.253V36.7031C128.253 36.9451 128.289 37.1307 128.362 37.2599C128.439 37.3859 128.538 37.4721 128.661 37.5185C128.783 37.5649 128.919 37.5881 129.068 37.5881C129.181 37.5881 129.284 37.5798 129.377 37.5632C129.473 37.5466 129.546 37.5317 129.595 37.5185L129.899 38.9254C129.802 38.9586 129.665 38.995 129.486 39.0348C129.31 39.0746 129.095 39.0978 128.84 39.1044C128.389 39.1177 127.983 39.0497 127.622 38.9006C127.26 38.7481 126.974 38.5128 126.762 38.1946C126.553 37.8764 126.45 37.4787 126.453 37.0014V29.5341Z" fill="#1C1C1C"/>
<path d="M242.619 172.651C241.483 172.651 240.466 172.438 239.568 172.012C238.67 171.58 237.957 170.989 237.429 170.239C236.906 169.489 236.628 168.631 236.594 167.665H239.662C239.719 168.381 240.028 168.966 240.591 169.421C241.153 169.869 241.83 170.094 242.619 170.094C243.239 170.094 243.79 169.952 244.273 169.668C244.756 169.384 245.136 168.989 245.415 168.483C245.693 167.977 245.83 167.401 245.824 166.753C245.83 166.094 245.69 165.509 245.406 164.997C245.122 164.486 244.733 164.085 244.239 163.796C243.744 163.5 243.176 163.352 242.534 163.352C242.011 163.347 241.497 163.443 240.991 163.642C240.486 163.841 240.085 164.102 239.79 164.426L236.935 163.958L237.847 154.958H247.972V157.6H240.463L239.96 162.227H240.062C240.386 161.847 240.844 161.531 241.435 161.281C242.026 161.026 242.673 160.898 243.378 160.898C244.435 160.898 245.378 161.148 246.207 161.648C247.037 162.142 247.69 162.824 248.168 163.693C248.645 164.563 248.884 165.557 248.884 166.676C248.884 167.83 248.616 168.858 248.082 169.762C247.554 170.659 246.818 171.367 245.875 171.884C244.938 172.395 243.852 172.651 242.619 172.651ZM257.943 172.651C256.676 172.651 255.551 172.438 254.568 172.012C253.591 171.585 252.824 171.003 252.267 170.264C251.716 169.52 251.443 168.676 251.449 167.733C251.443 167 251.602 166.327 251.926 165.713C252.25 165.1 252.688 164.588 253.239 164.179C253.795 163.764 254.415 163.5 255.097 163.387V163.267C254.199 163.068 253.472 162.611 252.915 161.895C252.364 161.173 252.091 160.341 252.097 159.398C252.091 158.5 252.341 157.699 252.847 156.994C253.352 156.29 254.045 155.736 254.926 155.333C255.807 154.923 256.813 154.719 257.943 154.719C259.063 154.719 260.06 154.923 260.935 155.333C261.815 155.736 262.509 156.29 263.014 156.994C263.526 157.699 263.781 158.5 263.781 159.398C263.781 160.341 263.5 161.173 262.938 161.895C262.381 162.611 261.662 163.068 260.781 163.267V163.387C261.463 163.5 262.077 163.764 262.622 164.179C263.173 164.588 263.611 165.1 263.935 165.713C264.264 166.327 264.429 167 264.429 167.733C264.429 168.676 264.151 169.52 263.594 170.264C263.037 171.003 262.27 171.585 261.293 172.012C260.321 172.438 259.205 172.651 257.943 172.651ZM257.943 170.213C258.597 170.213 259.165 170.102 259.648 169.881C260.131 169.654 260.506 169.335 260.773 168.926C261.04 168.517 261.176 168.046 261.182 167.512C261.176 166.955 261.031 166.463 260.747 166.037C260.469 165.605 260.085 165.267 259.597 165.023C259.114 164.779 258.563 164.656 257.943 164.656C257.318 164.656 256.761 164.779 256.273 165.023C255.784 165.267 255.398 165.605 255.114 166.037C254.835 166.463 254.699 166.955 254.705 167.512C254.699 168.046 254.83 168.517 255.097 168.926C255.364 169.33 255.739 169.645 256.222 169.872C256.71 170.1 257.284 170.213 257.943 170.213ZM257.943 162.262C258.477 162.262 258.949 162.154 259.358 161.938C259.773 161.722 260.099 161.421 260.338 161.034C260.577 160.648 260.699 160.202 260.705 159.696C260.699 159.196 260.58 158.759 260.347 158.384C260.114 158.003 259.79 157.71 259.375 157.506C258.96 157.296 258.483 157.191 257.943 157.191C257.392 157.191 256.906 157.296 256.486 157.506C256.071 157.71 255.747 158.003 255.514 158.384C255.287 158.759 255.176 159.196 255.182 159.696C255.176 160.202 255.29 160.648 255.523 161.034C255.761 161.415 256.088 161.716 256.503 161.938C256.923 162.154 257.403 162.262 257.943 162.262ZM276.563 169.139V168.219C276.563 167.543 276.705 166.921 276.989 166.352C277.279 165.784 277.7 165.327 278.251 164.98C278.802 164.634 279.469 164.46 280.254 164.46C281.06 164.46 281.737 164.634 282.282 164.98C282.827 165.321 283.239 165.776 283.518 166.344C283.802 166.912 283.944 167.537 283.944 168.219V169.139C283.944 169.816 283.802 170.438 283.518 171.006C283.234 171.574 282.816 172.031 282.265 172.378C281.719 172.725 281.049 172.898 280.254 172.898C279.458 172.898 278.785 172.725 278.234 172.378C277.683 172.031 277.265 171.574 276.981 171.006C276.702 170.438 276.563 169.816 276.563 169.139ZM278.788 168.219V169.139C278.788 169.588 278.896 170 279.112 170.375C279.327 170.75 279.708 170.938 280.254 170.938C280.805 170.938 281.183 170.753 281.387 170.384C281.597 170.009 281.702 169.594 281.702 169.139V168.219C281.702 167.764 281.603 167.35 281.404 166.975C281.205 166.594 280.822 166.404 280.254 166.404C279.719 166.404 279.342 166.594 279.12 166.975C278.898 167.35 278.788 167.764 278.788 168.219ZM267.691 159.151V158.23C267.691 157.548 267.836 156.923 268.126 156.355C268.415 155.787 268.836 155.333 269.387 154.992C269.938 154.645 270.606 154.472 271.39 154.472C272.191 154.472 272.864 154.645 273.41 154.992C273.961 155.333 274.376 155.787 274.654 156.355C274.933 156.923 275.072 157.548 275.072 158.23V159.151C275.072 159.833 274.93 160.458 274.646 161.026C274.367 161.588 273.952 162.04 273.401 162.381C272.85 162.722 272.18 162.892 271.39 162.892C270.589 162.892 269.913 162.722 269.362 162.381C268.816 162.04 268.401 161.585 268.117 161.017C267.833 160.449 267.691 159.827 267.691 159.151ZM269.933 158.23V159.151C269.933 159.605 270.038 160.02 270.248 160.395C270.464 160.764 270.844 160.949 271.39 160.949C271.935 160.949 272.31 160.764 272.515 160.395C272.725 160.02 272.83 159.605 272.83 159.151V158.23C272.83 157.776 272.731 157.361 272.532 156.986C272.333 156.605 271.952 156.415 271.39 156.415C270.85 156.415 270.472 156.605 270.256 156.986C270.04 157.367 269.933 157.781 269.933 158.23ZM268.663 172.412L280.663 154.958H282.793L270.793 172.412H268.663Z" fill="#1C1C1C"/>
<path d="M228.92 142.867V133.867H229.892V134.906H230.011C230.085 134.793 230.188 134.648 230.318 134.472C230.452 134.293 230.642 134.134 230.889 133.994C231.139 133.852 231.477 133.781 231.903 133.781C232.455 133.781 232.94 133.919 233.361 134.195C233.781 134.47 234.109 134.861 234.345 135.367C234.581 135.872 234.699 136.469 234.699 137.156C234.699 137.85 234.581 138.45 234.345 138.959C234.109 139.465 233.783 139.857 233.365 140.135C232.947 140.411 232.466 140.548 231.92 140.548C231.5 140.548 231.163 140.479 230.911 140.34C230.658 140.198 230.463 140.037 230.327 139.858C230.19 139.676 230.085 139.526 230.011 139.406H229.926V142.867H228.92ZM229.909 137.139C229.909 137.634 229.982 138.07 230.126 138.448C230.271 138.823 230.483 139.117 230.761 139.33C231.04 139.54 231.381 139.645 231.784 139.645C232.205 139.645 232.555 139.534 232.837 139.313C233.121 139.088 233.334 138.787 233.476 138.409C233.621 138.029 233.693 137.605 233.693 137.139C233.693 136.679 233.622 136.264 233.48 135.895C233.341 135.523 233.129 135.229 232.845 135.013C232.564 134.794 232.21 134.685 231.784 134.685C231.375 134.685 231.031 134.789 230.753 134.996C230.474 135.2 230.264 135.487 230.122 135.857C229.98 136.223 229.909 136.651 229.909 137.139ZM238.977 140.548C238.347 140.548 237.803 140.409 237.345 140.131C236.891 139.85 236.54 139.458 236.293 138.955C236.048 138.449 235.926 137.861 235.926 137.191C235.926 136.52 236.048 135.929 236.293 135.418C236.54 134.904 236.884 134.503 237.324 134.216C237.767 133.926 238.284 133.781 238.875 133.781C239.216 133.781 239.553 133.838 239.885 133.952C240.217 134.066 240.52 134.25 240.793 134.506C241.065 134.759 241.283 135.094 241.445 135.512C241.607 135.929 241.688 136.443 241.688 137.054V137.48H236.642V136.611H240.665C240.665 136.242 240.591 135.912 240.443 135.622C240.298 135.333 240.091 135.104 239.821 134.936C239.554 134.769 239.239 134.685 238.875 134.685C238.474 134.685 238.128 134.784 237.835 134.983C237.545 135.179 237.322 135.435 237.166 135.75C237.01 136.066 236.932 136.404 236.932 136.764V137.344C236.932 137.838 237.017 138.257 237.188 138.601C237.361 138.942 237.601 139.202 237.908 139.381C238.214 139.557 238.571 139.645 238.977 139.645C239.241 139.645 239.48 139.608 239.693 139.534C239.909 139.458 240.095 139.344 240.251 139.193C240.408 139.04 240.528 138.85 240.614 138.622L241.585 138.895C241.483 139.225 241.311 139.514 241.07 139.764C240.828 140.012 240.53 140.205 240.175 140.344C239.82 140.48 239.42 140.548 238.977 140.548ZM243.217 140.412V133.867H244.189V134.855H244.257C244.376 134.531 244.592 134.269 244.905 134.067C245.217 133.865 245.57 133.764 245.962 133.764C246.036 133.764 246.128 133.766 246.239 133.769C246.349 133.771 246.433 133.776 246.49 133.781V134.804C246.456 134.796 246.378 134.783 246.256 134.766C246.136 134.746 246.01 134.736 245.876 134.736C245.558 134.736 245.274 134.803 245.024 134.936C244.777 135.067 244.581 135.249 244.436 135.482C244.294 135.712 244.223 135.975 244.223 136.27V140.412H243.217ZM250.142 140.548C249.528 140.548 249 140.404 248.557 140.114C248.114 139.824 247.773 139.425 247.534 138.916C247.295 138.408 247.176 137.827 247.176 137.173C247.176 136.509 247.298 135.922 247.543 135.414C247.79 134.902 248.134 134.503 248.574 134.216C249.017 133.926 249.534 133.781 250.125 133.781C250.585 133.781 251 133.867 251.369 134.037C251.739 134.208 252.041 134.446 252.277 134.753C252.513 135.06 252.659 135.418 252.716 135.827H251.71C251.634 135.529 251.463 135.264 251.199 135.034C250.938 134.801 250.585 134.685 250.142 134.685C249.75 134.685 249.406 134.787 249.111 134.992C248.818 135.193 248.589 135.479 248.425 135.848C248.263 136.215 248.182 136.645 248.182 137.139C248.182 137.645 248.261 138.085 248.42 138.46C248.582 138.835 248.81 139.127 249.102 139.334C249.398 139.541 249.744 139.645 250.142 139.645C250.403 139.645 250.641 139.6 250.854 139.509C251.067 139.418 251.247 139.287 251.395 139.117C251.543 138.946 251.648 138.742 251.71 138.503H252.716C252.659 138.889 252.518 139.237 252.294 139.547C252.072 139.854 251.778 140.098 251.412 140.28C251.048 140.459 250.625 140.548 250.142 140.548ZM256.93 140.548C256.3 140.548 255.756 140.409 255.298 140.131C254.844 139.85 254.493 139.458 254.246 138.955C254.001 138.449 253.879 137.861 253.879 137.191C253.879 136.52 254.001 135.929 254.246 135.418C254.493 134.904 254.837 134.503 255.277 134.216C255.72 133.926 256.237 133.781 256.828 133.781C257.169 133.781 257.506 133.838 257.838 133.952C258.17 134.066 258.473 134.25 258.746 134.506C259.018 134.759 259.236 135.094 259.398 135.512C259.56 135.929 259.641 136.443 259.641 137.054V137.48H254.595V136.611H258.618C258.618 136.242 258.544 135.912 258.396 135.622C258.251 135.333 258.044 135.104 257.774 134.936C257.507 134.769 257.192 134.685 256.828 134.685C256.428 134.685 256.081 134.784 255.788 134.983C255.499 135.179 255.276 135.435 255.119 135.75C254.963 136.066 254.885 136.404 254.885 136.764V137.344C254.885 137.838 254.97 138.257 255.141 138.601C255.314 138.942 255.554 139.202 255.861 139.381C256.168 139.557 256.524 139.645 256.93 139.645C257.195 139.645 257.433 139.608 257.646 139.534C257.862 139.458 258.048 139.344 258.205 139.193C258.361 139.04 258.482 138.85 258.567 138.622L259.538 138.895C259.436 139.225 259.264 139.514 259.023 139.764C258.781 140.012 258.483 140.205 258.128 140.344C257.773 140.48 257.374 140.548 256.93 140.548ZM262.176 136.475V140.412H261.17V133.867H262.142V134.889H262.227C262.381 134.557 262.614 134.29 262.926 134.088C263.239 133.884 263.642 133.781 264.136 133.781C264.58 133.781 264.967 133.872 265.3 134.054C265.632 134.233 265.891 134.506 266.075 134.872C266.26 135.236 266.352 135.696 266.352 136.253V140.412H265.347V136.321C265.347 135.807 265.213 135.406 264.946 135.119C264.679 134.83 264.313 134.685 263.847 134.685C263.526 134.685 263.239 134.754 262.986 134.894C262.736 135.033 262.538 135.236 262.393 135.503C262.249 135.77 262.176 136.094 262.176 136.475ZM271.037 133.867V134.719H267.645V133.867H271.037ZM268.633 132.298H269.639V138.537C269.639 138.821 269.68 139.034 269.762 139.176C269.848 139.316 269.956 139.409 270.086 139.458C270.22 139.503 270.36 139.526 270.508 139.526C270.619 139.526 270.71 139.52 270.781 139.509C270.852 139.494 270.909 139.483 270.951 139.475L271.156 140.378C271.088 140.404 270.993 140.429 270.87 140.455C270.748 140.483 270.593 140.497 270.406 140.497C270.122 140.497 269.843 140.436 269.571 140.314C269.301 140.192 269.076 140.006 268.897 139.756C268.721 139.506 268.633 139.191 268.633 138.81V132.298ZM274.475 140.566C274.061 140.566 273.684 140.487 273.346 140.331C273.008 140.172 272.74 139.943 272.541 139.645C272.342 139.344 272.243 138.98 272.243 138.554C272.243 138.179 272.316 137.875 272.464 137.642C272.612 137.406 272.809 137.222 273.056 137.088C273.304 136.955 273.576 136.855 273.875 136.79C274.176 136.722 274.478 136.668 274.782 136.628C275.18 136.577 275.502 136.539 275.75 136.513C276 136.485 276.181 136.438 276.295 136.372C276.412 136.307 276.47 136.193 276.47 136.031V135.997C276.47 135.577 276.355 135.25 276.125 135.017C275.897 134.784 275.552 134.668 275.089 134.668C274.609 134.668 274.233 134.773 273.96 134.983C273.687 135.193 273.495 135.418 273.385 135.656L272.43 135.316C272.6 134.918 272.828 134.608 273.112 134.387C273.399 134.162 273.711 134.006 274.049 133.918C274.39 133.827 274.725 133.781 275.055 133.781C275.265 133.781 275.507 133.807 275.779 133.858C276.055 133.906 276.321 134.007 276.576 134.161C276.835 134.314 277.049 134.546 277.22 134.855C277.39 135.165 277.475 135.58 277.475 136.1V140.412H276.47V139.526H276.419C276.35 139.668 276.237 139.82 276.078 139.982C275.919 140.144 275.707 140.281 275.443 140.395C275.179 140.509 274.856 140.566 274.475 140.566ZM274.629 139.662C275.027 139.662 275.362 139.584 275.635 139.428C275.91 139.271 276.118 139.07 276.257 138.823C276.399 138.575 276.47 138.316 276.47 138.043V137.122C276.427 137.173 276.333 137.22 276.189 137.263C276.047 137.303 275.882 137.338 275.694 137.369C275.51 137.398 275.329 137.423 275.153 137.446C274.98 137.466 274.839 137.483 274.731 137.497C274.47 137.531 274.225 137.587 273.998 137.664C273.774 137.737 273.592 137.85 273.453 138C273.316 138.148 273.248 138.35 273.248 138.605C273.248 138.955 273.377 139.219 273.636 139.398C273.897 139.574 274.228 139.662 274.629 139.662ZM281.953 143.003C281.467 143.003 281.05 142.941 280.7 142.816C280.351 142.693 280.06 142.531 279.827 142.33C279.597 142.131 279.413 141.918 279.277 141.691L280.078 141.128C280.169 141.247 280.284 141.384 280.423 141.537C280.563 141.693 280.753 141.828 280.994 141.942C281.239 142.058 281.558 142.117 281.953 142.117C282.482 142.117 282.918 141.989 283.261 141.733C283.605 141.477 283.777 141.077 283.777 140.531V139.202H283.692C283.618 139.321 283.513 139.469 283.376 139.645C283.243 139.818 283.05 139.973 282.797 140.11C282.547 140.243 282.209 140.31 281.783 140.31C281.254 140.31 280.78 140.185 280.359 139.935C279.942 139.685 279.611 139.321 279.366 138.844C279.125 138.367 279.004 137.787 279.004 137.105C279.004 136.435 279.122 135.851 279.358 135.354C279.594 134.854 279.922 134.468 280.342 134.195C280.763 133.919 281.249 133.781 281.8 133.781C282.226 133.781 282.564 133.852 282.814 133.994C283.067 134.134 283.26 134.293 283.393 134.472C283.53 134.648 283.635 134.793 283.709 134.906H283.811V133.867H284.783V140.6C284.783 141.162 284.655 141.619 284.399 141.972C284.146 142.327 283.805 142.587 283.376 142.752C282.95 142.919 282.476 143.003 281.953 143.003ZM281.919 139.406C282.322 139.406 282.663 139.314 282.942 139.129C283.22 138.945 283.432 138.679 283.577 138.333C283.722 137.986 283.794 137.571 283.794 137.088C283.794 136.617 283.723 136.2 283.581 135.84C283.439 135.479 283.229 135.196 282.95 134.992C282.672 134.787 282.328 134.685 281.919 134.685C281.493 134.685 281.138 134.793 280.854 135.009C280.572 135.225 280.361 135.514 280.219 135.878C280.08 136.242 280.01 136.645 280.01 137.088C280.01 137.543 280.081 137.945 280.223 138.294C280.368 138.641 280.581 138.914 280.862 139.112C281.146 139.308 281.499 139.406 281.919 139.406ZM289.368 140.548C288.737 140.548 288.193 140.409 287.736 140.131C287.281 139.85 286.93 139.458 286.683 138.955C286.439 138.449 286.317 137.861 286.317 137.191C286.317 136.52 286.439 135.929 286.683 135.418C286.93 134.904 287.274 134.503 287.714 134.216C288.158 133.926 288.675 133.781 289.266 133.781C289.607 133.781 289.943 133.838 290.276 133.952C290.608 134.066 290.911 134.25 291.183 134.506C291.456 134.759 291.673 135.094 291.835 135.512C291.997 135.929 292.078 136.443 292.078 137.054V137.48H287.033V136.611H291.055C291.055 136.242 290.982 135.912 290.834 135.622C290.689 135.333 290.482 135.104 290.212 134.936C289.945 134.769 289.629 134.685 289.266 134.685C288.865 134.685 288.518 134.784 288.226 134.983C287.936 135.179 287.713 135.435 287.557 135.75C287.401 136.066 287.322 136.404 287.322 136.764V137.344C287.322 137.838 287.408 138.257 287.578 138.601C287.751 138.942 287.991 139.202 288.298 139.381C288.605 139.557 288.962 139.645 289.368 139.645C289.632 139.645 289.871 139.608 290.084 139.534C290.3 139.458 290.486 139.344 290.642 139.193C290.798 139.04 290.919 138.85 291.004 138.622L291.976 138.895C291.874 139.225 291.702 139.514 291.46 139.764C291.219 140.012 290.92 140.205 290.565 140.344C290.21 140.48 289.811 140.548 289.368 140.548Z" fill="black" fill-opacity="0.4"/>
<path fill-rule="evenodd" clip-rule="evenodd" d="M166.946 154.727C168.923 155.713 169.719 158.111 168.815 160.127C163.884 171.131 160.931 183.221 160.418 195.962C160.329 198.169 158.547 199.961 156.338 199.961H139C136.791 199.961 134.993 198.169 135.064 195.961C135.601 179.196 139.503 163.255 146.125 148.813C147.045 146.805 149.453 146.004 151.43 146.99L166.946 154.727Z" fill="url(#paint0_linear_24476_69771)" fill-opacity="0.2"/>
<path fill-rule="evenodd" clip-rule="evenodd" d="M259.014 99.3378C222.216 99.3378 190.157 119.718 173.547 149.859C172.481 151.794 170.086 152.602 168.109 151.616L152.593 143.879C150.616 142.894 149.807 140.488 150.857 138.544C171.604 100.135 212.246 74 259.014 74C268.211 74 277.186 75.013 285.828 76.9377C287.984 77.418 289.27 79.6054 288.72 81.7448L284.398 98.5354C283.848 100.675 281.668 101.954 279.508 101.493C272.91 100.082 266.055 99.3378 259.014 99.3378Z" fill="url(#paint1_linear_24476_69771)"/>
<path fill-rule="evenodd" clip-rule="evenodd" d="M363.662 198.17C361.453 198.17 359.671 196.377 359.582 194.17C357.876 151.905 329.261 116.544 290.39 104.806C288.275 104.167 286.983 101.994 287.534 99.8548L291.856 83.0642C292.406 80.9248 294.592 79.631 296.712 80.2515C346.503 94.8247 383.204 140.066 384.936 194.165C385.007 196.373 383.209 198.17 381 198.17H363.662Z" fill="url(#paint2_linear_24476_69771)"/>
<path d="M147 226C147 227.657 145.657 229 144 229C142.343 229 141 227.657 141 226C141 224.343 142.343 223 144 223C145.657 223 147 224.343 147 226Z" fill="black" fill-opacity="0.2"/>
<path d="M158.784 221.273H159.841V227.051C159.841 227.648 159.7 228.18 159.419 228.649C159.141 229.115 158.747 229.483 158.239 229.753C157.73 230.02 157.134 230.153 156.449 230.153C155.764 230.153 155.168 230.02 154.659 229.753C154.151 229.483 153.756 229.115 153.474 228.649C153.196 228.18 153.057 227.648 153.057 227.051V221.273H154.114V226.966C154.114 227.392 154.207 227.771 154.395 228.104C154.582 228.433 154.849 228.693 155.196 228.884C155.545 229.071 155.963 229.165 156.449 229.165C156.935 229.165 157.352 229.071 157.702 228.884C158.051 228.693 158.318 228.433 158.503 228.104C158.69 227.771 158.784 227.392 158.784 226.966V221.273ZM162.821 226.062V230H161.815V223.455H162.787V224.477H162.872C163.025 224.145 163.258 223.878 163.571 223.676C163.883 223.472 164.287 223.369 164.781 223.369C165.224 223.369 165.612 223.46 165.944 223.642C166.277 223.821 166.535 224.094 166.72 224.46C166.904 224.824 166.997 225.284 166.997 225.841V230H165.991V225.909C165.991 225.395 165.858 224.994 165.591 224.707C165.324 224.418 164.957 224.273 164.491 224.273C164.17 224.273 163.883 224.342 163.63 224.482C163.38 224.621 163.183 224.824 163.038 225.091C162.893 225.358 162.821 225.682 162.821 226.062ZM168.835 230V223.455H169.84V230H168.835ZM169.346 222.364C169.15 222.364 168.981 222.297 168.839 222.163C168.7 222.03 168.63 221.869 168.63 221.682C168.63 221.494 168.7 221.334 168.839 221.2C168.981 221.067 169.15 221 169.346 221C169.542 221 169.71 221.067 169.849 221.2C169.991 221.334 170.062 221.494 170.062 221.682C170.062 221.869 169.991 222.03 169.849 222.163C169.71 222.297 169.542 222.364 169.346 222.364ZM174.529 223.455V224.307H171.137V223.455H174.529ZM172.125 221.886H173.131V228.125C173.131 228.409 173.172 228.622 173.255 228.764C173.34 228.903 173.448 228.997 173.578 229.045C173.712 229.091 173.853 229.114 174 229.114C174.111 229.114 174.202 229.108 174.273 229.097C174.344 229.082 174.401 229.071 174.444 229.062L174.648 229.966C174.58 229.991 174.485 230.017 174.363 230.043C174.24 230.071 174.086 230.085 173.898 230.085C173.614 230.085 173.336 230.024 173.063 229.902C172.793 229.78 172.569 229.594 172.39 229.344C172.213 229.094 172.125 228.778 172.125 228.398V221.886ZM178.716 230.136C178.085 230.136 177.541 229.997 177.083 229.719C176.629 229.438 176.278 229.045 176.031 228.543C175.787 228.037 175.664 227.449 175.664 226.778C175.664 226.108 175.787 225.517 176.031 225.006C176.278 224.491 176.622 224.091 177.062 223.804C177.505 223.514 178.022 223.369 178.613 223.369C178.954 223.369 179.291 223.426 179.623 223.54C179.956 223.653 180.258 223.838 180.531 224.094C180.804 224.347 181.021 224.682 181.183 225.099C181.345 225.517 181.426 226.031 181.426 226.642V227.068H176.38V226.199H180.403C180.403 225.83 180.329 225.5 180.181 225.21C180.037 224.92 179.829 224.692 179.559 224.524C179.292 224.357 178.977 224.273 178.613 224.273C178.213 224.273 177.866 224.372 177.574 224.571C177.284 224.767 177.061 225.023 176.904 225.338C176.748 225.653 176.67 225.991 176.67 226.352V226.932C176.67 227.426 176.755 227.845 176.926 228.189C177.099 228.53 177.339 228.79 177.646 228.969C177.953 229.145 178.309 229.233 178.716 229.233C178.98 229.233 179.218 229.196 179.431 229.122C179.647 229.045 179.833 228.932 179.99 228.781C180.146 228.628 180.267 228.437 180.352 228.21L181.324 228.483C181.221 228.812 181.049 229.102 180.808 229.352C180.566 229.599 180.268 229.793 179.913 229.932C179.558 230.068 179.159 230.136 178.716 230.136ZM185.427 230.136C184.882 230.136 184.4 229.999 183.983 229.723C183.565 229.445 183.238 229.053 183.002 228.547C182.767 228.038 182.649 227.438 182.649 226.744C182.649 226.057 182.767 225.46 183.002 224.955C183.238 224.449 183.566 224.058 183.987 223.783C184.407 223.507 184.893 223.369 185.444 223.369C185.87 223.369 186.207 223.44 186.454 223.582C186.704 223.722 186.895 223.881 187.025 224.06C187.159 224.236 187.262 224.381 187.336 224.494H187.422V221.273H188.427V230H187.456V228.994H187.336C187.262 229.114 187.157 229.264 187.021 229.446C186.885 229.625 186.69 229.786 186.437 229.928C186.184 230.067 185.848 230.136 185.427 230.136ZM185.564 229.233C185.967 229.233 186.308 229.128 186.586 228.918C186.865 228.705 187.076 228.411 187.221 228.036C187.366 227.658 187.439 227.222 187.439 226.727C187.439 226.239 187.368 225.811 187.225 225.445C187.083 225.075 186.873 224.788 186.595 224.584C186.316 224.376 185.973 224.273 185.564 224.273C185.137 224.273 184.782 224.382 184.498 224.601C184.217 224.817 184.005 225.111 183.863 225.483C183.724 225.852 183.654 226.267 183.654 226.727C183.654 227.193 183.725 227.616 183.868 227.997C184.012 228.375 184.225 228.676 184.507 228.901C184.791 229.122 185.143 229.233 185.564 229.233ZM198.693 223.455C198.642 223.023 198.434 222.688 198.071 222.449C197.707 222.21 197.261 222.091 196.733 222.091C196.346 222.091 196.008 222.153 195.718 222.278C195.431 222.403 195.207 222.575 195.045 222.794C194.886 223.013 194.806 223.261 194.806 223.54C194.806 223.773 194.862 223.973 194.973 224.141C195.086 224.305 195.231 224.443 195.407 224.554C195.583 224.662 195.768 224.751 195.961 224.822C196.154 224.891 196.332 224.946 196.494 224.989L197.38 225.227C197.608 225.287 197.86 225.369 198.139 225.474C198.42 225.58 198.689 225.723 198.944 225.905C199.203 226.084 199.416 226.314 199.583 226.595C199.751 226.876 199.835 227.222 199.835 227.631C199.835 228.102 199.711 228.528 199.464 228.909C199.22 229.29 198.862 229.592 198.39 229.817C197.922 230.041 197.352 230.153 196.681 230.153C196.056 230.153 195.515 230.053 195.058 229.851C194.603 229.649 194.245 229.368 193.984 229.007C193.725 228.646 193.579 228.227 193.545 227.75H194.636C194.664 228.08 194.775 228.352 194.968 228.568C195.164 228.781 195.412 228.94 195.71 229.045C196.011 229.148 196.335 229.199 196.681 229.199C197.085 229.199 197.447 229.134 197.768 229.003C198.089 228.869 198.343 228.685 198.531 228.449C198.718 228.21 198.812 227.932 198.812 227.614C198.812 227.324 198.731 227.088 198.569 226.906C198.407 226.724 198.194 226.577 197.93 226.463C197.666 226.349 197.38 226.25 197.074 226.165L196 225.858C195.318 225.662 194.778 225.382 194.38 225.018C193.983 224.655 193.784 224.179 193.784 223.591C193.784 223.102 193.916 222.676 194.18 222.312C194.447 221.946 194.805 221.662 195.254 221.46C195.706 221.256 196.21 221.153 196.767 221.153C197.329 221.153 197.829 221.254 198.267 221.456C198.704 221.655 199.051 221.928 199.306 222.274C199.565 222.621 199.701 223.014 199.716 223.455H198.693ZM204.283 223.455V224.307H200.891V223.455H204.283ZM201.879 221.886H202.885V228.125C202.885 228.409 202.926 228.622 203.009 228.764C203.094 228.903 203.202 228.997 203.332 229.045C203.466 229.091 203.607 229.114 203.754 229.114C203.865 229.114 203.956 229.108 204.027 229.097C204.098 229.082 204.155 229.071 204.197 229.062L204.402 229.966C204.334 229.991 204.239 230.017 204.116 230.043C203.994 230.071 203.839 230.085 203.652 230.085C203.368 230.085 203.089 230.024 202.817 229.902C202.547 229.78 202.322 229.594 202.143 229.344C201.967 229.094 201.879 228.778 201.879 228.398V221.886ZM207.722 230.153C207.307 230.153 206.93 230.075 206.592 229.919C206.254 229.76 205.986 229.531 205.787 229.233C205.588 228.932 205.489 228.568 205.489 228.142C205.489 227.767 205.563 227.463 205.71 227.23C205.858 226.994 206.055 226.81 206.303 226.676C206.55 226.543 206.822 226.443 207.121 226.378C207.422 226.31 207.724 226.256 208.028 226.216C208.426 226.165 208.749 226.126 208.996 226.101C209.246 226.072 209.428 226.026 209.541 225.96C209.658 225.895 209.716 225.781 209.716 225.619V225.585C209.716 225.165 209.601 224.838 209.371 224.605C209.143 224.372 208.798 224.256 208.335 224.256C207.855 224.256 207.479 224.361 207.206 224.571C206.933 224.781 206.741 225.006 206.631 225.244L205.676 224.903C205.847 224.506 206.074 224.196 206.358 223.974C206.645 223.75 206.957 223.594 207.295 223.506C207.636 223.415 207.972 223.369 208.301 223.369C208.511 223.369 208.753 223.395 209.026 223.446C209.301 223.494 209.567 223.595 209.822 223.749C210.081 223.902 210.295 224.134 210.466 224.443C210.636 224.753 210.722 225.168 210.722 225.688V230H209.716V229.114H209.665C209.597 229.256 209.483 229.408 209.324 229.57C209.165 229.732 208.953 229.869 208.689 229.983C208.425 230.097 208.102 230.153 207.722 230.153ZM207.875 229.25C208.273 229.25 208.608 229.172 208.881 229.016C209.156 228.859 209.364 228.658 209.503 228.411C209.645 228.163 209.716 227.903 209.716 227.631V226.71C209.673 226.761 209.58 226.808 209.435 226.851C209.293 226.891 209.128 226.926 208.94 226.957C208.756 226.986 208.575 227.011 208.399 227.034C208.226 227.054 208.085 227.071 207.977 227.085C207.716 227.119 207.472 227.175 207.244 227.251C207.02 227.325 206.838 227.437 206.699 227.588C206.563 227.736 206.494 227.937 206.494 228.193C206.494 228.543 206.624 228.807 206.882 228.986C207.143 229.162 207.474 229.25 207.875 229.25ZM215.404 223.455V224.307H212.012V223.455H215.404ZM213 221.886H214.006V228.125C214.006 228.409 214.047 228.622 214.13 228.764C214.215 228.903 214.323 228.997 214.453 229.045C214.587 229.091 214.728 229.114 214.875 229.114C214.986 229.114 215.077 229.108 215.148 229.097C215.219 229.082 215.276 229.071 215.319 229.062L215.523 229.966C215.455 229.991 215.36 230.017 215.238 230.043C215.115 230.071 214.961 230.085 214.773 230.085C214.489 230.085 214.211 230.024 213.938 229.902C213.668 229.78 213.444 229.594 213.265 229.344C213.088 229.094 213 228.778 213 228.398V221.886ZM219.591 230.136C218.96 230.136 218.416 229.997 217.958 229.719C217.504 229.438 217.153 229.045 216.906 228.543C216.662 228.037 216.539 227.449 216.539 226.778C216.539 226.108 216.662 225.517 216.906 225.006C217.153 224.491 217.497 224.091 217.937 223.804C218.38 223.514 218.897 223.369 219.488 223.369C219.829 223.369 220.166 223.426 220.498 223.54C220.831 223.653 221.133 223.838 221.406 224.094C221.679 224.347 221.896 224.682 222.058 225.099C222.22 225.517 222.301 226.031 222.301 226.642V227.068H217.255V226.199H221.278C221.278 225.83 221.204 225.5 221.056 225.21C220.912 224.92 220.704 224.692 220.434 224.524C220.167 224.357 219.852 224.273 219.488 224.273C219.088 224.273 218.741 224.372 218.449 224.571C218.159 224.767 217.936 225.023 217.779 225.338C217.623 225.653 217.545 225.991 217.545 226.352V226.932C217.545 227.426 217.63 227.845 217.801 228.189C217.974 228.53 218.214 228.79 218.521 228.969C218.828 229.145 219.184 229.233 219.591 229.233C219.855 229.233 220.093 229.196 220.306 229.122C220.522 229.045 220.708 228.932 220.865 228.781C221.021 228.628 221.142 228.437 221.227 228.21L222.199 228.483C222.096 228.812 221.924 229.102 221.683 229.352C221.441 229.599 221.143 229.793 220.788 229.932C220.433 230.068 220.034 230.136 219.591 230.136ZM228.467 224.92L227.564 225.176C227.507 225.026 227.423 224.879 227.312 224.737C227.204 224.592 227.056 224.473 226.869 224.379C226.681 224.286 226.441 224.239 226.149 224.239C225.748 224.239 225.414 224.331 225.147 224.516C224.883 224.697 224.751 224.929 224.751 225.21C224.751 225.46 224.842 225.658 225.024 225.803C225.206 225.947 225.49 226.068 225.876 226.165L226.848 226.403C227.433 226.545 227.869 226.763 228.156 227.055C228.443 227.345 228.586 227.719 228.586 228.176C228.586 228.551 228.478 228.886 228.262 229.182C228.049 229.477 227.751 229.71 227.368 229.881C226.984 230.051 226.538 230.136 226.029 230.136C225.362 230.136 224.809 229.991 224.372 229.702C223.934 229.412 223.657 228.989 223.541 228.432L224.495 228.193C224.586 228.545 224.758 228.81 225.011 228.986C225.267 229.162 225.6 229.25 226.012 229.25C226.481 229.25 226.853 229.151 227.129 228.952C227.407 228.75 227.547 228.509 227.547 228.227C227.547 228 227.467 227.81 227.308 227.656C227.149 227.5 226.904 227.384 226.575 227.307L225.484 227.051C224.885 226.909 224.444 226.689 224.163 226.391C223.885 226.089 223.745 225.713 223.745 225.261C223.745 224.892 223.849 224.565 224.056 224.281C224.267 223.997 224.552 223.774 224.913 223.612C225.277 223.45 225.689 223.369 226.149 223.369C226.797 223.369 227.305 223.511 227.674 223.795C228.047 224.08 228.311 224.455 228.467 224.92Z" fill="#1C1C1C"/>
<path d="M263 226C263 227.657 261.657 229 260 229C258.343 229 257 227.657 257 226C257 224.343 258.343 223 260 223C261.657 223 263 224.343 263 226Z" fill="#1C1C1C"/>
<path d="M276.08 224H275.023C274.96 223.696 274.851 223.429 274.695 223.199C274.541 222.969 274.354 222.776 274.132 222.619C273.913 222.46 273.67 222.341 273.403 222.261C273.136 222.182 272.858 222.142 272.568 222.142C272.04 222.142 271.561 222.276 271.132 222.543C270.706 222.81 270.366 223.203 270.114 223.723C269.864 224.243 269.739 224.881 269.739 225.636C269.739 226.392 269.864 227.03 270.114 227.55C270.366 228.07 270.706 228.463 271.132 228.73C271.561 228.997 272.04 229.131 272.568 229.131C272.858 229.131 273.136 229.091 273.403 229.011C273.67 228.932 273.913 228.814 274.132 228.658C274.354 228.499 274.541 228.304 274.695 228.074C274.851 227.841 274.96 227.574 275.023 227.273H276.08C276 227.719 275.855 228.118 275.645 228.47C275.435 228.822 275.173 229.122 274.861 229.369C274.548 229.614 274.197 229.8 273.808 229.928C273.422 230.055 273.009 230.119 272.568 230.119C271.824 230.119 271.162 229.938 270.582 229.574C270.003 229.21 269.547 228.693 269.214 228.023C268.882 227.352 268.716 226.557 268.716 225.636C268.716 224.716 268.882 223.92 269.214 223.25C269.547 222.58 270.003 222.062 270.582 221.699C271.162 221.335 271.824 221.153 272.568 221.153C273.009 221.153 273.422 221.217 273.808 221.345C274.197 221.473 274.548 221.661 274.861 221.908C275.173 222.152 275.435 222.45 275.645 222.803C275.855 223.152 276 223.551 276.08 224ZM279.577 230.153C279.162 230.153 278.786 230.075 278.448 229.919C278.11 229.76 277.841 229.531 277.642 229.233C277.444 228.932 277.344 228.568 277.344 228.142C277.344 227.767 277.418 227.463 277.566 227.23C277.713 226.994 277.911 226.81 278.158 226.676C278.405 226.543 278.678 226.443 278.976 226.378C279.277 226.31 279.58 226.256 279.884 226.216C280.282 226.165 280.604 226.126 280.851 226.101C281.101 226.072 281.283 226.026 281.397 225.96C281.513 225.895 281.571 225.781 281.571 225.619V225.585C281.571 225.165 281.456 224.838 281.226 224.605C280.999 224.372 280.654 224.256 280.191 224.256C279.711 224.256 279.334 224.361 279.061 224.571C278.789 224.781 278.597 225.006 278.486 225.244L277.532 224.903C277.702 224.506 277.929 224.196 278.213 223.974C278.5 223.75 278.813 223.594 279.151 223.506C279.492 223.415 279.827 223.369 280.157 223.369C280.367 223.369 280.608 223.395 280.881 223.446C281.157 223.494 281.422 223.595 281.678 223.749C281.936 223.902 282.151 224.134 282.321 224.443C282.492 224.753 282.577 225.168 282.577 225.688V230H281.571V229.114H281.52C281.452 229.256 281.338 229.408 281.179 229.57C281.02 229.732 280.809 229.869 280.544 229.983C280.28 230.097 279.958 230.153 279.577 230.153ZM279.73 229.25C280.128 229.25 280.463 229.172 280.736 229.016C281.012 228.859 281.219 228.658 281.358 228.411C281.5 228.163 281.571 227.903 281.571 227.631V226.71C281.529 226.761 281.435 226.808 281.29 226.851C281.148 226.891 280.983 226.926 280.796 226.957C280.611 226.986 280.431 227.011 280.255 227.034C280.081 227.054 279.941 227.071 279.833 227.085C279.571 227.119 279.327 227.175 279.1 227.251C278.875 227.325 278.694 227.437 278.554 227.588C278.418 227.736 278.35 227.937 278.35 228.193C278.35 228.543 278.479 228.807 278.738 228.986C278.999 229.162 279.33 229.25 279.73 229.25ZM285.418 226.062V230H284.413V223.455H285.384V224.477H285.469C285.623 224.145 285.856 223.878 286.168 223.676C286.481 223.472 286.884 223.369 287.379 223.369C287.822 223.369 288.21 223.46 288.542 223.642C288.874 223.821 289.133 224.094 289.317 224.46C289.502 224.824 289.594 225.284 289.594 225.841V230H288.589V225.909C288.589 225.395 288.455 224.994 288.188 224.707C287.921 224.418 287.555 224.273 287.089 224.273C286.768 224.273 286.481 224.342 286.228 224.482C285.978 224.621 285.781 224.824 285.636 225.091C285.491 225.358 285.418 225.682 285.418 226.062ZM293.358 230.153C292.944 230.153 292.567 230.075 292.229 229.919C291.891 229.76 291.623 229.531 291.424 229.233C291.225 228.932 291.125 228.568 291.125 228.142C291.125 227.767 291.199 227.463 291.347 227.23C291.495 226.994 291.692 226.81 291.939 226.676C292.186 226.543 292.459 226.443 292.757 226.378C293.059 226.31 293.361 226.256 293.665 226.216C294.063 226.165 294.385 226.126 294.632 226.101C294.882 226.072 295.064 226.026 295.178 225.96C295.294 225.895 295.353 225.781 295.353 225.619V225.585C295.353 225.165 295.238 224.838 295.007 224.605C294.78 224.372 294.435 224.256 293.972 224.256C293.492 224.256 293.115 224.361 292.843 224.571C292.57 224.781 292.378 225.006 292.267 225.244L291.313 224.903C291.483 224.506 291.711 224.196 291.995 223.974C292.282 223.75 292.594 223.594 292.932 223.506C293.273 223.415 293.608 223.369 293.938 223.369C294.148 223.369 294.39 223.395 294.662 223.446C294.938 223.494 295.203 223.595 295.459 223.749C295.718 223.902 295.932 224.134 296.103 224.443C296.273 224.753 296.358 225.168 296.358 225.688V230H295.353V229.114H295.301C295.233 229.256 295.12 229.408 294.961 229.57C294.801 229.732 294.59 229.869 294.326 229.983C294.061 230.097 293.739 230.153 293.358 230.153ZM293.512 229.25C293.909 229.25 294.245 229.172 294.517 229.016C294.793 228.859 295 228.658 295.14 228.411C295.282 228.163 295.353 227.903 295.353 227.631V226.71C295.31 226.761 295.216 226.808 295.071 226.851C294.929 226.891 294.765 226.926 294.577 226.957C294.392 226.986 294.212 227.011 294.036 227.034C293.863 227.054 293.722 227.071 293.614 227.085C293.353 227.119 293.108 227.175 292.881 227.251C292.657 227.325 292.475 227.437 292.336 227.588C292.199 227.736 292.131 227.937 292.131 228.193C292.131 228.543 292.26 228.807 292.519 228.986C292.78 229.162 293.111 229.25 293.512 229.25ZM300.665 230.136C300.12 230.136 299.638 229.999 299.221 229.723C298.803 229.445 298.477 229.053 298.241 228.547C298.005 228.038 297.887 227.438 297.887 226.744C297.887 226.057 298.005 225.46 298.241 224.955C298.477 224.449 298.805 224.058 299.225 223.783C299.646 223.507 300.131 223.369 300.683 223.369C301.109 223.369 301.445 223.44 301.692 223.582C301.942 223.722 302.133 223.881 302.263 224.06C302.397 224.236 302.501 224.381 302.575 224.494H302.66V221.273H303.665V230H302.694V228.994H302.575C302.501 229.114 302.396 229.264 302.259 229.446C302.123 229.625 301.928 229.786 301.675 229.928C301.423 230.067 301.086 230.136 300.665 230.136ZM300.802 229.233C301.205 229.233 301.546 229.128 301.825 228.918C302.103 228.705 302.315 228.411 302.46 228.036C302.604 227.658 302.677 227.222 302.677 226.727C302.677 226.239 302.606 225.811 302.464 225.445C302.322 225.075 302.112 224.788 301.833 224.584C301.555 224.376 301.211 224.273 300.802 224.273C300.376 224.273 300.021 224.382 299.737 224.601C299.455 224.817 299.244 225.111 299.102 225.483C298.962 225.852 298.893 226.267 298.893 226.727C298.893 227.193 298.964 227.616 299.106 227.997C299.251 228.375 299.464 228.676 299.745 228.901C300.029 229.122 300.381 229.233 300.802 229.233ZM307.573 230.153C307.158 230.153 306.782 230.075 306.444 229.919C306.106 229.76 305.837 229.531 305.638 229.233C305.44 228.932 305.34 228.568 305.34 228.142C305.34 227.767 305.414 227.463 305.562 227.23C305.71 226.994 305.907 226.81 306.154 226.676C306.401 226.543 306.674 226.443 306.972 226.378C307.273 226.31 307.576 226.256 307.88 226.216C308.278 226.165 308.6 226.126 308.847 226.101C309.097 226.072 309.279 226.026 309.393 225.96C309.509 225.895 309.567 225.781 309.567 225.619V225.585C309.567 225.165 309.452 224.838 309.222 224.605C308.995 224.372 308.65 224.256 308.187 224.256C307.707 224.256 307.33 224.361 307.058 224.571C306.785 224.781 306.593 225.006 306.482 225.244L305.528 224.903C305.698 224.506 305.925 224.196 306.21 223.974C306.496 223.75 306.809 223.594 307.147 223.506C307.488 223.415 307.823 223.369 308.153 223.369C308.363 223.369 308.604 223.395 308.877 223.446C309.153 223.494 309.418 223.595 309.674 223.749C309.933 223.902 310.147 224.134 310.317 224.443C310.488 224.753 310.573 225.168 310.573 225.688V230H309.567V229.114H309.516C309.448 229.256 309.335 229.408 309.175 229.57C309.016 229.732 308.805 229.869 308.54 229.983C308.276 230.097 307.954 230.153 307.573 230.153ZM307.727 229.25C308.124 229.25 308.46 229.172 308.732 229.016C309.008 228.859 309.215 228.658 309.354 228.411C309.496 228.163 309.567 227.903 309.567 227.631V226.71C309.525 226.761 309.431 226.808 309.286 226.851C309.144 226.891 308.979 226.926 308.792 226.957C308.607 226.986 308.427 227.011 308.251 227.034C308.077 227.054 307.937 227.071 307.829 227.085C307.567 227.119 307.323 227.175 307.096 227.251C306.871 227.325 306.69 227.437 306.55 227.588C306.414 227.736 306.346 227.937 306.346 228.193C306.346 228.543 306.475 228.807 306.734 228.986C306.995 229.162 307.326 229.25 307.727 229.25Z" fill="#1C1C1C"/>
<path d="M345 226C345 227.657 343.657 229 342 229C340.343 229 339 227.657 339 226C339 224.343 340.343 223 342 223C343.657 223 345 224.343 345 226Z" fill="#95A4FC"/>
<path d="M358.42 225.636C358.42 226.557 358.254 227.352 357.922 228.023C357.589 228.693 357.134 229.21 356.554 229.574C355.974 229.938 355.313 230.119 354.568 230.119C353.824 230.119 353.162 229.938 352.582 229.574C352.003 229.21 351.547 228.693 351.214 228.023C350.882 227.352 350.716 226.557 350.716 225.636C350.716 224.716 350.882 223.92 351.214 223.25C351.547 222.58 352.003 222.062 352.582 221.699C353.162 221.335 353.824 221.153 354.568 221.153C355.313 221.153 355.974 221.335 356.554 221.699C357.134 222.062 357.589 222.58 357.922 223.25C358.254 223.92 358.42 224.716 358.42 225.636ZM357.398 225.636C357.398 224.881 357.271 224.243 357.018 223.723C356.768 223.203 356.429 222.81 356 222.543C355.574 222.276 355.097 222.142 354.568 222.142C354.04 222.142 353.561 222.276 353.132 222.543C352.706 222.81 352.366 223.203 352.114 223.723C351.864 224.243 351.739 224.881 351.739 225.636C351.739 226.392 351.864 227.03 352.114 227.55C352.366 228.07 352.706 228.463 353.132 228.73C353.561 228.997 354.04 229.131 354.568 229.131C355.097 229.131 355.574 228.997 356 228.73C356.429 228.463 356.768 228.07 357.018 227.55C357.271 227.03 357.398 226.392 357.398 225.636ZM362.908 223.455V224.307H359.516V223.455H362.908ZM360.504 221.886H361.51V228.125C361.51 228.409 361.551 228.622 361.634 228.764C361.719 228.903 361.827 228.997 361.957 229.045C362.091 229.091 362.232 229.114 362.379 229.114C362.49 229.114 362.581 229.108 362.652 229.097C362.723 229.082 362.78 229.071 362.822 229.062L363.027 229.966C362.959 229.991 362.864 230.017 362.741 230.043C362.619 230.071 362.464 230.085 362.277 230.085C361.993 230.085 361.714 230.024 361.442 229.902C361.172 229.78 360.947 229.594 360.768 229.344C360.592 229.094 360.504 228.778 360.504 228.398V221.886ZM365.567 226.062V230H364.561V221.273H365.567V224.477H365.652C365.805 224.139 366.036 223.871 366.342 223.672C366.652 223.47 367.064 223.369 367.578 223.369C368.024 223.369 368.415 223.459 368.75 223.638C369.085 223.814 369.345 224.085 369.53 224.452C369.717 224.815 369.811 225.278 369.811 225.841V230H368.805V225.909C368.805 225.389 368.67 224.987 368.401 224.703C368.134 224.416 367.763 224.273 367.288 224.273C366.959 224.273 366.663 224.342 366.402 224.482C366.143 224.621 365.939 224.824 365.788 225.091C365.641 225.358 365.567 225.682 365.567 226.062ZM374.395 230.136C373.765 230.136 373.221 229.997 372.763 229.719C372.309 229.438 371.958 229.045 371.711 228.543C371.466 228.037 371.344 227.449 371.344 226.778C371.344 226.108 371.466 225.517 371.711 225.006C371.958 224.491 372.301 224.091 372.742 223.804C373.185 223.514 373.702 223.369 374.293 223.369C374.634 223.369 374.971 223.426 375.303 223.54C375.635 223.653 375.938 223.838 376.211 224.094C376.483 224.347 376.701 224.682 376.863 225.099C377.025 225.517 377.105 226.031 377.105 226.642V227.068H372.06V226.199H376.083C376.083 225.83 376.009 225.5 375.861 225.21C375.716 224.92 375.509 224.692 375.239 224.524C374.972 224.357 374.657 224.273 374.293 224.273C373.892 224.273 373.546 224.372 373.253 224.571C372.963 224.767 372.74 225.023 372.584 225.338C372.428 225.653 372.35 225.991 372.35 226.352V226.932C372.35 227.426 372.435 227.845 372.605 228.189C372.779 228.53 373.019 228.79 373.326 228.969C373.632 229.145 373.989 229.233 374.395 229.233C374.659 229.233 374.898 229.196 375.111 229.122C375.327 229.045 375.513 228.932 375.669 228.781C375.826 228.628 375.946 228.437 376.032 228.21L377.003 228.483C376.901 228.812 376.729 229.102 376.488 229.352C376.246 229.599 375.948 229.793 375.593 229.932C375.238 230.068 374.838 230.136 374.395 230.136ZM378.635 230V223.455H379.607V224.443H379.675C379.794 224.119 380.01 223.857 380.323 223.655C380.635 223.453 380.988 223.352 381.38 223.352C381.453 223.352 381.546 223.354 381.657 223.357C381.767 223.359 381.851 223.364 381.908 223.369V224.392C381.874 224.384 381.796 224.371 381.674 224.354C381.554 224.334 381.428 224.324 381.294 224.324C380.976 224.324 380.692 224.391 380.442 224.524C380.195 224.655 379.999 224.837 379.854 225.07C379.712 225.3 379.641 225.562 379.641 225.858V230H378.635Z" fill="#1C1C1C"/>
<defs>
<linearGradient id="paint0_linear_24476_69771" x1="152.763" y1="145.205" x2="146.824" y2="199.845" gradientUnits="userSpaceOnUse">
<stop stop-opacity="0.8"/>
<stop offset="1"/>
</linearGradient>
<linearGradient id="paint1_linear_24476_69771" x1="175.119" y1="117.919" x2="116.419" y2="216.314" gradientUnits="userSpaceOnUse">
<stop stop-color="#1C1C1C"/>
<stop offset="1" stop-color="#1C1C1C" stop-opacity="0"/>
</linearGradient>
<linearGradient id="paint2_linear_24476_69771" x1="385" y1="181.263" x2="268.868" y2="79.0675" gradientUnits="userSpaceOnUse">
<stop stop-color="#95A4FC"/>
<stop offset="1" stop-color="#95A4FC" stop-opacity="0.6"/>
</linearGradient>
</defs>
</svg>
