<svg width="520" height="260" viewBox="0 0 520 260" fill="none" xmlns="http://www.w3.org/2000/svg">
<rect width="520" height="260" rx="16" fill="#F7F9FB"/>
<path d="M25.0043 39V28.8182H26.8487V37.4538H31.3331V39H25.0043ZM32.8544 39V31.3636H34.6541V39H32.8544ZM33.7592 30.2798C33.4742 30.2798 33.2289 30.1854 33.0234 29.9964C32.8179 29.8042 32.7152 29.5739 32.7152 29.3054C32.7152 29.0336 32.8179 28.8033 33.0234 28.6143C33.2289 28.4221 33.4742 28.326 33.7592 28.326C34.0476 28.326 34.2929 28.4221 34.495 28.6143C34.7005 28.8033 34.8033 29.0336 34.8033 29.3054C34.8033 29.5739 34.7005 29.8042 34.495 29.9964C34.2929 30.1854 34.0476 30.2798 33.7592 30.2798ZM38.3045 34.5256V39H36.5048V31.3636H38.225V32.6612H38.3145C38.4901 32.2337 38.7702 31.8939 39.1547 31.642C39.5424 31.3902 40.0214 31.2642 40.5914 31.2642C41.1184 31.2642 41.5775 31.3769 41.9686 31.6023C42.363 31.8277 42.6679 32.1541 42.8833 32.5817C43.1021 33.0092 43.2098 33.5279 43.2065 34.1378V39H41.4068V34.4162C41.4068 33.9058 41.2742 33.5064 41.0091 33.218C40.7472 32.9297 40.3843 32.7855 39.9203 32.7855C39.6054 32.7855 39.3253 32.8551 39.0801 32.9943C38.8381 33.1302 38.6475 33.3274 38.5083 33.5859C38.3725 33.8445 38.3045 34.1577 38.3045 34.5256ZM48.4167 39.1491C47.6511 39.1491 46.9899 38.9901 46.4331 38.6719C45.8796 38.3504 45.4537 37.8963 45.1554 37.3097C44.8571 36.7197 44.7079 36.0253 44.7079 35.2266C44.7079 34.4411 44.8571 33.7517 45.1554 33.1584C45.457 32.5618 45.8779 32.0978 46.4181 31.7663C46.9584 31.4316 47.5931 31.2642 48.3223 31.2642C48.7929 31.2642 49.237 31.3404 49.6547 31.4929C50.0756 31.642 50.4468 31.8741 50.7683 32.1889C51.0931 32.5038 51.3483 32.9048 51.5339 33.392C51.7195 33.8759 51.8123 34.4527 51.8123 35.1222V35.674H45.5531V34.4609H50.0872C50.0839 34.1162 50.0093 33.8097 49.8635 33.5412C49.7176 33.2694 49.5138 33.0556 49.252 32.8999C48.9934 32.7441 48.6918 32.6662 48.3471 32.6662C47.9792 32.6662 47.6561 32.7557 47.3777 32.9347C47.0993 33.1103 46.8822 33.3423 46.7264 33.6307C46.5739 33.9157 46.496 34.2289 46.4927 34.5703V35.6293C46.4927 36.0734 46.5739 36.4545 46.7363 36.7727C46.8987 37.0876 47.1258 37.3295 47.4174 37.4986C47.7091 37.6643 48.0505 37.7472 48.4416 37.7472C48.7034 37.7472 48.9404 37.7107 49.1525 37.6378C49.3646 37.5616 49.5486 37.4505 49.7044 37.3047C49.8601 37.1589 49.9778 36.9782 50.0574 36.7628L51.7377 36.9517C51.6317 37.3958 51.4295 37.7836 51.1312 38.1151C50.8362 38.4432 50.4584 38.6984 49.9977 38.8807C49.537 39.0597 49.01 39.1491 48.4167 39.1491ZM60.1385 39.1491C59.3762 39.1491 58.7216 38.9818 58.1747 38.647C57.6312 38.3123 57.2119 37.8499 56.9169 37.2599C56.6252 36.6667 56.4794 35.9839 56.4794 35.2116C56.4794 34.4361 56.6286 33.7517 56.9268 33.1584C57.2251 32.5618 57.6461 32.0978 58.1896 31.7663C58.7365 31.4316 59.3828 31.2642 60.1286 31.2642C60.7483 31.2642 61.2969 31.3786 61.7741 31.6072C62.2547 31.8326 62.6375 32.1525 62.9226 32.5668C63.2076 32.9777 63.37 33.4583 63.4098 34.0085H61.6896C61.62 33.6406 61.4543 33.334 61.1925 33.0888C60.9339 32.8402 60.5876 32.7159 60.1534 32.7159C59.7855 32.7159 59.4624 32.8153 59.1839 33.0142C58.9055 33.2098 58.6884 33.4915 58.5327 33.8594C58.3802 34.2273 58.304 34.6681 58.304 35.1818C58.304 35.7022 58.3802 36.1496 58.5327 36.5241C58.6851 36.8954 58.8989 37.1821 59.174 37.3842C59.4524 37.5831 59.7789 37.6825 60.1534 37.6825C60.4186 37.6825 60.6555 37.6328 60.8643 37.5334C61.0765 37.4306 61.2538 37.2831 61.3963 37.0909C61.5388 36.8987 61.6366 36.665 61.6896 36.3899H63.4098C63.3667 36.9302 63.2076 37.4091 62.9325 37.8267C62.6574 38.241 62.2829 38.5658 61.8089 38.8011C61.335 39.0331 60.7782 39.1491 60.1385 39.1491ZM66.6873 34.5256V39H64.8876V28.8182H66.6475V32.6612H66.737C66.916 32.2304 67.1928 31.8906 67.5673 31.642C67.9451 31.3902 68.4257 31.2642 69.0091 31.2642C69.5394 31.2642 70.0017 31.3752 70.3961 31.5973C70.7905 31.8194 71.0955 32.1442 71.3109 32.5717C71.5297 32.9993 71.639 33.5213 71.639 34.1378V39H69.8393V34.4162C69.8393 33.9025 69.7067 33.5031 69.4416 33.218C69.1797 32.9297 68.8118 32.7855 68.3379 32.7855C68.0197 32.7855 67.7347 32.8551 67.4828 32.9943C67.2342 33.1302 67.0386 33.3274 66.8961 33.5859C66.7569 33.8445 66.6873 34.1577 66.6873 34.5256ZM75.671 39.1541C75.1871 39.1541 74.7512 39.0679 74.3635 38.8956C73.979 38.7199 73.6741 38.4614 73.4487 38.12C73.2266 37.7786 73.1156 37.3577 73.1156 36.8572C73.1156 36.4264 73.1951 36.0701 73.3542 35.7884C73.5133 35.5066 73.7304 35.2812 74.0055 35.1122C74.2806 34.9432 74.5905 34.8156 74.9352 34.7294C75.2832 34.6399 75.6428 34.5753 76.014 34.5355C76.4615 34.4891 76.8244 34.4477 77.1028 34.4112C77.3812 34.3714 77.5834 34.3118 77.7093 34.2322C77.8386 34.1494 77.9032 34.0218 77.9032 33.8494V33.8196C77.9032 33.4451 77.7922 33.1551 77.5701 32.9496C77.3481 32.7441 77.0282 32.6413 76.6106 32.6413C76.1698 32.6413 75.8201 32.7375 75.5616 32.9297C75.3064 33.1219 75.1341 33.349 75.0446 33.6108L73.3642 33.3722C73.4967 32.9081 73.7155 32.5204 74.0204 32.2088C74.3253 31.8939 74.6982 31.6586 75.139 31.5028C75.5798 31.3438 76.0671 31.2642 76.6007 31.2642C76.9686 31.2642 77.3348 31.3073 77.6994 31.3935C78.064 31.4796 78.3971 31.6222 78.6987 31.821C79.0003 32.0166 79.2422 32.2834 79.4245 32.6214C79.6101 32.9595 79.7029 33.3821 79.7029 33.8892V39H77.9728V37.951H77.9132C77.8038 38.1631 77.6497 38.362 77.4508 38.5476C77.2553 38.7299 77.0083 38.8774 76.71 38.9901C76.4151 39.0994 76.0687 39.1541 75.671 39.1541ZM76.1383 37.8317C76.4996 37.8317 76.8128 37.7604 77.0779 37.6179C77.3431 37.4721 77.5469 37.2798 77.6895 37.0412C77.8353 36.8026 77.9082 36.5424 77.9082 36.2607V35.3608C77.8519 35.4072 77.7557 35.4503 77.6199 35.4901C77.4873 35.5298 77.3381 35.5646 77.1724 35.5945C77.0067 35.6243 76.8426 35.6508 76.6802 35.674C76.5178 35.6972 76.377 35.7171 76.2576 35.7337C75.9892 35.7701 75.7489 35.8298 75.5368 35.9126C75.3246 35.9955 75.1573 36.1115 75.0346 36.2607C74.912 36.4065 74.8507 36.5954 74.8507 36.8274C74.8507 37.1589 74.9717 37.4091 75.2136 37.5781C75.4556 37.7472 75.7638 37.8317 76.1383 37.8317ZM81.5126 39V31.3636H83.2576V32.6364H83.3372C83.4764 32.1955 83.715 31.8558 84.0531 31.6172C84.3945 31.3752 84.7839 31.2543 85.2214 31.2543C85.3208 31.2543 85.4319 31.2592 85.5545 31.2692C85.6805 31.2758 85.7849 31.2874 85.8677 31.304V32.9595C85.7915 32.933 85.6705 32.9098 85.5048 32.8899C85.3424 32.8667 85.185 32.8551 85.0325 32.8551C84.7044 32.8551 84.4094 32.9264 84.1475 33.0689C83.889 33.2081 83.6852 33.402 83.536 33.6506C83.3869 33.8991 83.3123 34.1858 83.3123 34.5107V39H81.5126ZM91.2868 31.3636V32.7557H86.8968V31.3636H91.2868ZM87.9806 29.5341H89.7804V36.7031C89.7804 36.9451 89.8168 37.1307 89.8897 37.2599C89.966 37.3859 90.0654 37.4721 90.188 37.5185C90.3107 37.5649 90.4466 37.5881 90.5957 37.5881C90.7084 37.5881 90.8111 37.5798 90.9039 37.5632C91.0001 37.5466 91.073 37.5317 91.1227 37.5185L91.426 38.9254C91.3298 38.9586 91.1923 38.995 91.0133 39.0348C90.8377 39.0746 90.6222 39.0978 90.367 39.1044C89.9163 39.1177 89.5102 39.0497 89.149 38.9006C88.7877 38.7481 88.501 38.5128 88.2889 38.1946C88.0801 37.8764 87.9773 37.4787 87.9806 37.0014V29.5341Z" fill="#1C1C1C"/>
<path d="M28.2116 80.1193C27.6491 80.1193 27.1477 80.0227 26.7074 79.8295C26.2699 79.6364 25.9219 79.3679 25.6634 79.0241C25.4077 78.6776 25.2685 78.2756 25.2457 77.8182H26.3196C26.3423 78.0994 26.4389 78.3423 26.6094 78.5469C26.7798 78.7486 27.0028 78.9048 27.2784 79.0156C27.554 79.1264 27.8594 79.1818 28.1946 79.1818C28.5696 79.1818 28.902 79.1165 29.1918 78.9858C29.4815 78.8551 29.7088 78.6733 29.8736 78.4403C30.0384 78.2074 30.1207 77.9375 30.1207 77.6307C30.1207 77.3097 30.0412 77.027 29.8821 76.7827C29.723 76.5355 29.4901 76.3423 29.1832 76.2031C28.8764 76.0639 28.5014 75.9943 28.0582 75.9943H27.3594V75.0568H28.0582C28.4048 75.0568 28.7088 74.9943 28.9702 74.8693C29.2344 74.7443 29.4403 74.5682 29.5881 74.3409C29.7386 74.1136 29.8139 73.8466 29.8139 73.5398C29.8139 73.2443 29.7486 72.9872 29.6179 72.7685C29.4872 72.5497 29.3026 72.3793 29.0639 72.2571C28.8281 72.1349 28.5497 72.0739 28.2287 72.0739C27.9276 72.0739 27.6435 72.1293 27.3764 72.2401C27.1122 72.348 26.8963 72.5057 26.7287 72.7131C26.5611 72.9176 26.4702 73.1648 26.456 73.4545H25.4332C25.4503 72.9972 25.5881 72.5966 25.8466 72.2528C26.1051 71.9062 26.4432 71.6364 26.8608 71.4432C27.2813 71.25 27.7429 71.1534 28.2457 71.1534C28.7855 71.1534 29.2486 71.2628 29.6349 71.4815C30.0213 71.6974 30.3182 71.983 30.5256 72.3381C30.733 72.6932 30.8366 73.0767 30.8366 73.4886C30.8366 73.9801 30.7074 74.3991 30.4489 74.7457C30.1932 75.0923 29.8452 75.3324 29.4048 75.4659V75.5341C29.956 75.625 30.3864 75.8594 30.696 76.2372C31.0057 76.6122 31.1605 77.0767 31.1605 77.6307C31.1605 78.1051 31.0313 78.5312 30.7727 78.9091C30.517 79.2841 30.1676 79.5795 29.7244 79.7955C29.2813 80.0114 28.777 80.1193 28.2116 80.1193ZM35.75 80.1193C35.108 80.1193 34.5611 79.9446 34.1094 79.5952C33.6577 79.2429 33.3125 78.733 33.0739 78.0653C32.8352 77.3949 32.7159 76.5852 32.7159 75.6364C32.7159 74.6932 32.8352 73.8878 33.0739 73.2202C33.3153 72.5497 33.6619 72.0384 34.1136 71.6861C34.5682 71.331 35.1136 71.1534 35.75 71.1534C36.3864 71.1534 36.9304 71.331 37.3821 71.6861C37.8366 72.0384 38.1832 72.5497 38.4219 73.2202C38.6634 73.8878 38.7841 74.6932 38.7841 75.6364C38.7841 76.5852 38.6648 77.3949 38.4261 78.0653C38.1875 78.733 37.8423 79.2429 37.3906 79.5952C36.9389 79.9446 36.392 80.1193 35.75 80.1193ZM35.75 79.1818C36.3864 79.1818 36.8807 78.875 37.233 78.2614C37.5852 77.6477 37.7614 76.7727 37.7614 75.6364C37.7614 74.8807 37.6804 74.2372 37.5185 73.706C37.3594 73.1747 37.1293 72.7699 36.8281 72.4915C36.5298 72.2131 36.1705 72.0739 35.75 72.0739C35.1193 72.0739 34.6264 72.3849 34.2713 73.0071C33.9162 73.6264 33.7386 74.5028 33.7386 75.6364C33.7386 76.392 33.8182 77.0341 33.9773 77.5625C34.1364 78.0909 34.3651 78.4929 34.6634 78.7685C34.9645 79.044 35.3267 79.1818 35.75 79.1818ZM43.25 80.1193C42.608 80.1193 42.0611 79.9446 41.6094 79.5952C41.1577 79.2429 40.8125 78.733 40.5739 78.0653C40.3352 77.3949 40.2159 76.5852 40.2159 75.6364C40.2159 74.6932 40.3352 73.8878 40.5739 73.2202C40.8153 72.5497 41.1619 72.0384 41.6136 71.6861C42.0682 71.331 42.6136 71.1534 43.25 71.1534C43.8864 71.1534 44.4304 71.331 44.8821 71.6861C45.3366 72.0384 45.6832 72.5497 45.9219 73.2202C46.1634 73.8878 46.2841 74.6932 46.2841 75.6364C46.2841 76.5852 46.1648 77.3949 45.9261 78.0653C45.6875 78.733 45.3423 79.2429 44.8906 79.5952C44.4389 79.9446 43.892 80.1193 43.25 80.1193ZM43.25 79.1818C43.8864 79.1818 44.3807 78.875 44.733 78.2614C45.0852 77.6477 45.2614 76.7727 45.2614 75.6364C45.2614 74.8807 45.1804 74.2372 45.0185 73.706C44.8594 73.1747 44.6293 72.7699 44.3281 72.4915C44.0298 72.2131 43.6705 72.0739 43.25 72.0739C42.6193 72.0739 42.1264 72.3849 41.7713 73.0071C41.4162 73.6264 41.2386 74.5028 41.2386 75.6364C41.2386 76.392 41.3182 77.0341 41.4773 77.5625C41.6364 78.0909 41.8651 78.4929 42.1634 78.7685C42.4645 79.044 42.8267 79.1818 43.25 79.1818Z" fill="black" fill-opacity="0.4"/>
<path d="M25.6378 119V118.233L28.5185 115.08C28.8565 114.71 29.1349 114.389 29.3537 114.116C29.5724 113.841 29.7344 113.582 29.8395 113.341C29.9474 113.097 30.0014 112.841 30.0014 112.574C30.0014 112.267 29.9276 112.001 29.7798 111.777C29.6349 111.553 29.4361 111.379 29.1832 111.257C28.9304 111.135 28.6463 111.074 28.331 111.074C27.9957 111.074 27.7031 111.143 27.4531 111.283C27.206 111.419 27.0142 111.611 26.8778 111.858C26.7443 112.105 26.6776 112.395 26.6776 112.727H25.6719C25.6719 112.216 25.7898 111.767 26.0256 111.381C26.2614 110.994 26.5824 110.693 26.9886 110.477C27.3977 110.261 27.8565 110.153 28.3651 110.153C28.8764 110.153 29.3295 110.261 29.7244 110.477C30.1193 110.693 30.429 110.984 30.6534 111.351C30.8778 111.717 30.9901 112.125 30.9901 112.574C30.9901 112.895 30.9318 113.209 30.8153 113.516C30.7017 113.82 30.5028 114.159 30.2188 114.534C29.9375 114.906 29.5469 115.361 29.0469 115.898L27.0866 117.994V118.062H31.1435V119H25.6378ZM35.75 119.119C35.108 119.119 34.5611 118.945 34.1094 118.595C33.6577 118.243 33.3125 117.733 33.0739 117.065C32.8352 116.395 32.7159 115.585 32.7159 114.636C32.7159 113.693 32.8352 112.888 33.0739 112.22C33.3153 111.55 33.6619 111.038 34.1136 110.686C34.5682 110.331 35.1136 110.153 35.75 110.153C36.3864 110.153 36.9304 110.331 37.3821 110.686C37.8366 111.038 38.1832 111.55 38.4219 112.22C38.6634 112.888 38.7841 113.693 38.7841 114.636C38.7841 115.585 38.6648 116.395 38.4261 117.065C38.1875 117.733 37.8423 118.243 37.3906 118.595C36.9389 118.945 36.392 119.119 35.75 119.119ZM35.75 118.182C36.3864 118.182 36.8807 117.875 37.233 117.261C37.5852 116.648 37.7614 115.773 37.7614 114.636C37.7614 113.881 37.6804 113.237 37.5185 112.706C37.3594 112.175 37.1293 111.77 36.8281 111.491C36.5298 111.213 36.1705 111.074 35.75 111.074C35.1193 111.074 34.6264 111.385 34.2713 112.007C33.9162 112.626 33.7386 113.503 33.7386 114.636C33.7386 115.392 33.8182 116.034 33.9773 116.562C34.1364 117.091 34.3651 117.493 34.6634 117.768C34.9645 118.044 35.3267 118.182 35.75 118.182ZM43.25 119.119C42.608 119.119 42.0611 118.945 41.6094 118.595C41.1577 118.243 40.8125 117.733 40.5739 117.065C40.3352 116.395 40.2159 115.585 40.2159 114.636C40.2159 113.693 40.3352 112.888 40.5739 112.22C40.8153 111.55 41.1619 111.038 41.6136 110.686C42.0682 110.331 42.6136 110.153 43.25 110.153C43.8864 110.153 44.4304 110.331 44.8821 110.686C45.3366 111.038 45.6832 111.55 45.9219 112.22C46.1634 112.888 46.2841 113.693 46.2841 114.636C46.2841 115.585 46.1648 116.395 45.9261 117.065C45.6875 117.733 45.3423 118.243 44.8906 118.595C44.4389 118.945 43.892 119.119 43.25 119.119ZM43.25 118.182C43.8864 118.182 44.3807 117.875 44.733 117.261C45.0852 116.648 45.2614 115.773 45.2614 114.636C45.2614 113.881 45.1804 113.237 45.0185 112.706C44.8594 112.175 44.6293 111.77 44.3281 111.491C44.0298 111.213 43.6705 111.074 43.25 111.074C42.6193 111.074 42.1264 111.385 41.7713 112.007C41.4162 112.626 41.2386 113.503 41.2386 114.636C41.2386 115.392 41.3182 116.034 41.4773 116.562C41.6364 117.091 41.8651 117.493 42.1634 117.768C42.4645 118.044 42.8267 118.182 43.25 118.182Z" fill="black" fill-opacity="0.4"/>
<path d="M30.3935 149.273V158H29.3366V150.381H29.2855L27.1548 151.795V150.722L29.3366 149.273H30.3935ZM35.75 158.119C35.108 158.119 34.5611 157.945 34.1094 157.595C33.6577 157.243 33.3125 156.733 33.0739 156.065C32.8352 155.395 32.7159 154.585 32.7159 153.636C32.7159 152.693 32.8352 151.888 33.0739 151.22C33.3153 150.55 33.6619 150.038 34.1136 149.686C34.5682 149.331 35.1136 149.153 35.75 149.153C36.3864 149.153 36.9304 149.331 37.3821 149.686C37.8366 150.038 38.1832 150.55 38.4219 151.22C38.6634 151.888 38.7841 152.693 38.7841 153.636C38.7841 154.585 38.6648 155.395 38.4261 156.065C38.1875 156.733 37.8423 157.243 37.3906 157.595C36.9389 157.945 36.392 158.119 35.75 158.119ZM35.75 157.182C36.3864 157.182 36.8807 156.875 37.233 156.261C37.5852 155.648 37.7614 154.773 37.7614 153.636C37.7614 152.881 37.6804 152.237 37.5185 151.706C37.3594 151.175 37.1293 150.77 36.8281 150.491C36.5298 150.213 36.1705 150.074 35.75 150.074C35.1193 150.074 34.6264 150.385 34.2713 151.007C33.9162 151.626 33.7386 152.503 33.7386 153.636C33.7386 154.392 33.8182 155.034 33.9773 155.562C34.1364 156.091 34.3651 156.493 34.6634 156.768C34.9645 157.044 35.3267 157.182 35.75 157.182ZM43.25 158.119C42.608 158.119 42.0611 157.945 41.6094 157.595C41.1577 157.243 40.8125 156.733 40.5739 156.065C40.3352 155.395 40.2159 154.585 40.2159 153.636C40.2159 152.693 40.3352 151.888 40.5739 151.22C40.8153 150.55 41.1619 150.038 41.6136 149.686C42.0682 149.331 42.6136 149.153 43.25 149.153C43.8864 149.153 44.4304 149.331 44.8821 149.686C45.3366 150.038 45.6832 150.55 45.9219 151.22C46.1634 151.888 46.2841 152.693 46.2841 153.636C46.2841 154.585 46.1648 155.395 45.9261 156.065C45.6875 156.733 45.3423 157.243 44.8906 157.595C44.4389 157.945 43.892 158.119 43.25 158.119ZM43.25 157.182C43.8864 157.182 44.3807 156.875 44.733 156.261C45.0852 155.648 45.2614 154.773 45.2614 153.636C45.2614 152.881 45.1804 152.237 45.0185 151.706C44.8594 151.175 44.6293 150.77 44.3281 150.491C44.0298 150.213 43.6705 150.074 43.25 150.074C42.6193 150.074 42.1264 150.385 41.7713 151.007C41.4162 151.626 41.2386 152.503 41.2386 153.636C41.2386 154.392 41.3182 155.034 41.4773 155.562C41.6364 156.091 41.8651 156.493 42.1634 156.768C42.4645 157.044 42.8267 157.182 43.25 157.182Z" fill="black" fill-opacity="0.4"/>
<path d="M43.25 197.119C42.608 197.119 42.0611 196.945 41.6094 196.595C41.1577 196.243 40.8125 195.733 40.5739 195.065C40.3352 194.395 40.2159 193.585 40.2159 192.636C40.2159 191.693 40.3352 190.888 40.5739 190.22C40.8153 189.55 41.1619 189.038 41.6136 188.686C42.0682 188.331 42.6136 188.153 43.25 188.153C43.8864 188.153 44.4304 188.331 44.8821 188.686C45.3366 189.038 45.6832 189.55 45.9219 190.22C46.1634 190.888 46.2841 191.693 46.2841 192.636C46.2841 193.585 46.1648 194.395 45.9261 195.065C45.6875 195.733 45.3423 196.243 44.8906 196.595C44.4389 196.945 43.892 197.119 43.25 197.119ZM43.25 196.182C43.8864 196.182 44.3807 195.875 44.733 195.261C45.0852 194.648 45.2614 193.773 45.2614 192.636C45.2614 191.881 45.1804 191.237 45.0185 190.706C44.8594 190.175 44.6293 189.77 44.3281 189.491C44.0298 189.213 43.6705 189.074 43.25 189.074C42.6193 189.074 42.1264 189.385 41.7713 190.007C41.4162 190.626 41.2386 191.503 41.2386 192.636C41.2386 193.392 41.3182 194.034 41.4773 194.562C41.6364 195.091 41.8651 195.493 42.1634 195.768C42.4645 196.044 42.8267 196.182 43.25 196.182Z" fill="black" fill-opacity="0.4"/>
<line x1="63.5" y1="82.5" x2="495.5" y2="82.5" stroke="black" stroke-opacity="0.05" stroke-linecap="round"/>
<line x1="63.5" y1="122.167" x2="495.5" y2="122.167" stroke="black" stroke-opacity="0.05" stroke-linecap="round"/>
<line x1="63.5" y1="161.833" x2="495.5" y2="161.833" stroke="black" stroke-opacity="0.05" stroke-linecap="round"/>
<line x1="63.5" y1="201.5" x2="495.5" y2="201.5" stroke="black" stroke-opacity="0.2" stroke-linecap="round"/>
<path d="M87.7124 218.273H88.9738L91.9397 225.517H92.042L95.0079 218.273H96.2692V227H95.2806V220.369H95.1954L92.4681 227H91.5136L88.7863 220.369H88.7011V227H87.7124V218.273ZM100.911 227.136C100.32 227.136 99.8015 226.996 99.3555 226.714C98.9123 226.433 98.5658 226.04 98.3158 225.534C98.0686 225.028 97.945 224.437 97.945 223.761C97.945 223.08 98.0686 222.484 98.3158 221.976C98.5658 221.467 98.9123 221.072 99.3555 220.791C99.8015 220.51 100.32 220.369 100.911 220.369C101.502 220.369 102.019 220.51 102.462 220.791C102.908 221.072 103.255 221.467 103.502 221.976C103.752 222.484 103.877 223.08 103.877 223.761C103.877 224.437 103.752 225.028 103.502 225.534C103.255 226.04 102.908 226.433 102.462 226.714C102.019 226.996 101.502 227.136 100.911 227.136ZM100.911 226.233C101.36 226.233 101.729 226.118 102.019 225.888C102.309 225.658 102.523 225.355 102.662 224.98C102.802 224.605 102.871 224.199 102.871 223.761C102.871 223.324 102.802 222.916 102.662 222.538C102.523 222.161 102.309 221.855 102.019 221.622C101.729 221.389 101.36 221.273 100.911 221.273C100.462 221.273 100.093 221.389 99.803 221.622C99.5132 221.855 99.2987 222.161 99.1595 222.538C99.0203 222.916 98.9507 223.324 98.9507 223.761C98.9507 224.199 99.0203 224.605 99.1595 224.98C99.2987 225.355 99.5132 225.658 99.803 225.888C100.093 226.118 100.462 226.233 100.911 226.233ZM106.418 223.062V227H105.412V220.455H106.384V221.477H106.469C106.622 221.145 106.855 220.878 107.168 220.676C107.48 220.472 107.884 220.369 108.378 220.369C108.821 220.369 109.209 220.46 109.541 220.642C109.874 220.821 110.132 221.094 110.317 221.46C110.501 221.824 110.594 222.284 110.594 222.841V227H109.588V222.909C109.588 222.395 109.455 221.994 109.188 221.707C108.921 221.418 108.554 221.273 108.088 221.273C107.767 221.273 107.48 221.342 107.227 221.482C106.977 221.621 106.78 221.824 106.635 222.091C106.49 222.358 106.418 222.682 106.418 223.062Z" fill="black" fill-opacity="0.4"/>
<path d="M161.447 219.21V218.273H167.993V219.21H165.248V227H164.191V219.21H161.447ZM172.722 224.324V220.455H173.727V227H172.722V225.892H172.653C172.5 226.224 172.261 226.507 171.937 226.74C171.614 226.97 171.205 227.085 170.71 227.085C170.301 227.085 169.937 226.996 169.619 226.817C169.301 226.635 169.051 226.362 168.869 225.999C168.687 225.632 168.597 225.17 168.597 224.614V220.455H169.602V224.545C169.602 225.023 169.736 225.403 170.003 225.688C170.273 225.972 170.616 226.114 171.034 226.114C171.284 226.114 171.538 226.05 171.797 225.922C172.058 225.794 172.277 225.598 172.453 225.334C172.632 225.07 172.722 224.733 172.722 224.324ZM178.314 227.136C177.683 227.136 177.139 226.997 176.681 226.719C176.227 226.438 175.876 226.045 175.629 225.543C175.385 225.037 175.262 224.449 175.262 223.778C175.262 223.108 175.385 222.517 175.629 222.006C175.876 221.491 176.22 221.091 176.66 220.804C177.103 220.514 177.62 220.369 178.211 220.369C178.552 220.369 178.889 220.426 179.221 220.54C179.554 220.653 179.856 220.838 180.129 221.094C180.402 221.347 180.619 221.682 180.781 222.099C180.943 222.517 181.024 223.031 181.024 223.642V224.068H175.978V223.199H180.001C180.001 222.83 179.927 222.5 179.779 222.21C179.635 221.92 179.427 221.692 179.157 221.524C178.89 221.357 178.575 221.273 178.211 221.273C177.811 221.273 177.464 221.372 177.171 221.571C176.882 221.767 176.659 222.023 176.502 222.338C176.346 222.653 176.268 222.991 176.268 223.352V223.932C176.268 224.426 176.353 224.845 176.524 225.189C176.697 225.53 176.937 225.79 177.244 225.969C177.551 226.145 177.907 226.233 178.314 226.233C178.578 226.233 178.816 226.196 179.029 226.122C179.245 226.045 179.431 225.932 179.588 225.781C179.744 225.628 179.865 225.437 179.95 225.21L180.921 225.483C180.819 225.812 180.647 226.102 180.406 226.352C180.164 226.599 179.866 226.793 179.511 226.932C179.156 227.068 178.757 227.136 178.314 227.136Z" fill="black" fill-opacity="0.4"/>
<path d="M233.449 227L231.063 218.273H232.137L233.96 225.381H234.046L235.904 218.273H237.097L238.955 225.381H239.04L240.864 218.273H241.938L239.551 227H238.46L236.534 220.045H236.466L234.54 227H233.449ZM245.253 227.136C244.622 227.136 244.078 226.997 243.621 226.719C243.166 226.438 242.815 226.045 242.568 225.543C242.324 225.037 242.202 224.449 242.202 223.778C242.202 223.108 242.324 222.517 242.568 222.006C242.815 221.491 243.159 221.091 243.6 220.804C244.043 220.514 244.56 220.369 245.151 220.369C245.492 220.369 245.828 220.426 246.161 220.54C246.493 220.653 246.796 220.838 247.068 221.094C247.341 221.347 247.558 221.682 247.72 222.099C247.882 222.517 247.963 223.031 247.963 223.642V224.068H242.918V223.199H246.94C246.94 222.83 246.867 222.5 246.719 222.21C246.574 221.92 246.367 221.692 246.097 221.524C245.83 221.357 245.514 221.273 245.151 221.273C244.75 221.273 244.404 221.372 244.111 221.571C243.821 221.767 243.598 222.023 243.442 222.338C243.286 222.653 243.208 222.991 243.208 223.352V223.932C243.208 224.426 243.293 224.845 243.463 225.189C243.637 225.53 243.877 225.79 244.183 225.969C244.49 226.145 244.847 226.233 245.253 226.233C245.517 226.233 245.756 226.196 245.969 226.122C246.185 226.045 246.371 225.932 246.527 225.781C246.683 225.628 246.804 225.437 246.889 225.21L247.861 225.483C247.759 225.812 247.587 226.102 247.345 226.352C247.104 226.599 246.806 226.793 246.45 226.932C246.095 227.068 245.696 227.136 245.253 227.136ZM251.965 227.136C251.419 227.136 250.938 226.999 250.52 226.723C250.102 226.445 249.776 226.053 249.54 225.547C249.304 225.038 249.186 224.438 249.186 223.744C249.186 223.057 249.304 222.46 249.54 221.955C249.776 221.449 250.104 221.058 250.524 220.783C250.945 220.507 251.431 220.369 251.982 220.369C252.408 220.369 252.744 220.44 252.992 220.582C253.242 220.722 253.432 220.881 253.563 221.06C253.696 221.236 253.8 221.381 253.874 221.494H253.959V218.273H254.965V227H253.993V225.994H253.874C253.8 226.114 253.695 226.264 253.558 226.446C253.422 226.625 253.227 226.786 252.975 226.928C252.722 227.067 252.385 227.136 251.965 227.136ZM252.101 226.233C252.504 226.233 252.845 226.128 253.124 225.918C253.402 225.705 253.614 225.411 253.759 225.036C253.904 224.658 253.976 224.222 253.976 223.727C253.976 223.239 253.905 222.811 253.763 222.445C253.621 222.075 253.411 221.788 253.132 221.584C252.854 221.376 252.51 221.273 252.101 221.273C251.675 221.273 251.32 221.382 251.036 221.601C250.754 221.817 250.543 222.111 250.401 222.483C250.262 222.852 250.192 223.267 250.192 223.727C250.192 224.193 250.263 224.616 250.405 224.997C250.55 225.375 250.763 225.676 251.044 225.901C251.328 226.122 251.681 226.233 252.101 226.233Z" fill="black" fill-opacity="0.4"/>
<path d="M305.282 219.21V218.273H311.827V219.21H309.083V227H308.026V219.21H305.282ZM314.328 223.062V227H313.322V218.273H314.328V221.477H314.413C314.566 221.139 314.797 220.871 315.103 220.672C315.413 220.47 315.825 220.369 316.339 220.369C316.785 220.369 317.176 220.459 317.511 220.638C317.846 220.814 318.106 221.085 318.291 221.452C318.478 221.815 318.572 222.278 318.572 222.841V227H317.566V222.909C317.566 222.389 317.432 221.987 317.162 221.703C316.895 221.416 316.524 221.273 316.049 221.273C315.72 221.273 315.424 221.342 315.163 221.482C314.905 221.621 314.7 221.824 314.549 222.091C314.402 222.358 314.328 222.682 314.328 223.062ZM324.537 224.324V220.455H325.543V227H324.537V225.892H324.469C324.315 226.224 324.077 226.507 323.753 226.74C323.429 226.97 323.02 227.085 322.526 227.085C322.117 227.085 321.753 226.996 321.435 226.817C321.117 226.635 320.867 226.362 320.685 225.999C320.503 225.632 320.412 225.17 320.412 224.614V220.455H321.418V224.545C321.418 225.023 321.551 225.403 321.818 225.688C322.088 225.972 322.432 226.114 322.849 226.114C323.099 226.114 323.354 226.05 323.612 225.922C323.874 225.794 324.092 225.598 324.269 225.334C324.448 225.07 324.537 224.733 324.537 224.324Z" fill="black" fill-opacity="0.4"/>
<path d="M381.665 227V218.273H386.898V219.21H382.721V222.159H386.505V223.097H382.721V227H381.665ZM388.501 227V220.455H389.472V221.443H389.541C389.66 221.119 389.876 220.857 390.188 220.655C390.501 220.453 390.853 220.352 391.245 220.352C391.319 220.352 391.411 220.354 391.522 220.357C391.633 220.359 391.717 220.364 391.774 220.369V221.392C391.739 221.384 391.661 221.371 391.539 221.354C391.42 221.334 391.293 221.324 391.16 221.324C390.842 221.324 390.558 221.391 390.308 221.524C390.061 221.655 389.864 221.837 389.72 222.07C389.578 222.3 389.507 222.562 389.507 222.858V227H388.501ZM392.966 227V220.455H393.971V227H392.966ZM393.477 219.364C393.281 219.364 393.112 219.297 392.97 219.163C392.831 219.03 392.761 218.869 392.761 218.682C392.761 218.494 392.831 218.334 392.97 218.2C393.112 218.067 393.281 218 393.477 218C393.673 218 393.841 218.067 393.98 218.2C394.122 218.334 394.193 218.494 394.193 218.682C394.193 218.869 394.122 219.03 393.98 219.163C393.841 219.297 393.673 219.364 393.477 219.364Z" fill="black" fill-opacity="0.4"/>
<path d="M456.359 220.455C456.308 220.023 456.101 219.688 455.737 219.449C455.373 219.21 454.927 219.091 454.399 219.091C454.013 219.091 453.675 219.153 453.385 219.278C453.098 219.403 452.873 219.575 452.711 219.794C452.552 220.013 452.473 220.261 452.473 220.54C452.473 220.773 452.528 220.973 452.639 221.141C452.753 221.305 452.898 221.443 453.074 221.554C453.25 221.662 453.434 221.751 453.628 221.822C453.821 221.891 453.998 221.946 454.16 221.989L455.047 222.227C455.274 222.287 455.527 222.369 455.805 222.474C456.086 222.58 456.355 222.723 456.611 222.905C456.869 223.084 457.082 223.314 457.25 223.595C457.417 223.876 457.501 224.222 457.501 224.631C457.501 225.102 457.378 225.528 457.13 225.909C456.886 226.29 456.528 226.592 456.057 226.817C455.588 227.041 455.018 227.153 454.348 227.153C453.723 227.153 453.182 227.053 452.724 226.851C452.27 226.649 451.912 226.368 451.65 226.007C451.392 225.646 451.246 225.227 451.211 224.75H452.302C452.331 225.08 452.442 225.352 452.635 225.568C452.831 225.781 453.078 225.94 453.376 226.045C453.677 226.148 454.001 226.199 454.348 226.199C454.751 226.199 455.113 226.134 455.434 226.003C455.755 225.869 456.01 225.685 456.197 225.449C456.385 225.21 456.478 224.932 456.478 224.614C456.478 224.324 456.398 224.088 456.236 223.906C456.074 223.724 455.861 223.577 455.596 223.463C455.332 223.349 455.047 223.25 454.74 223.165L453.666 222.858C452.984 222.662 452.444 222.382 452.047 222.018C451.649 221.655 451.45 221.179 451.45 220.591C451.45 220.102 451.582 219.676 451.846 219.312C452.113 218.946 452.471 218.662 452.92 218.46C453.372 218.256 453.876 218.153 454.433 218.153C454.996 218.153 455.496 218.254 455.933 218.456C456.371 218.655 456.717 218.928 456.973 219.274C457.231 219.621 457.368 220.014 457.382 220.455H456.359ZM461.029 227.153C460.614 227.153 460.237 227.075 459.899 226.919C459.561 226.76 459.293 226.531 459.094 226.233C458.895 225.932 458.796 225.568 458.796 225.142C458.796 224.767 458.869 224.463 459.017 224.23C459.165 223.994 459.362 223.81 459.61 223.676C459.857 223.543 460.129 223.443 460.428 223.378C460.729 223.31 461.031 223.256 461.335 223.216C461.733 223.165 462.056 223.126 462.303 223.101C462.553 223.072 462.735 223.026 462.848 222.96C462.965 222.895 463.023 222.781 463.023 222.619V222.585C463.023 222.165 462.908 221.838 462.678 221.605C462.45 221.372 462.105 221.256 461.642 221.256C461.162 221.256 460.786 221.361 460.513 221.571C460.24 221.781 460.048 222.006 459.938 222.244L458.983 221.903C459.154 221.506 459.381 221.196 459.665 220.974C459.952 220.75 460.264 220.594 460.602 220.506C460.943 220.415 461.279 220.369 461.608 220.369C461.818 220.369 462.06 220.395 462.333 220.446C462.608 220.494 462.874 220.595 463.129 220.749C463.388 220.902 463.602 221.134 463.773 221.443C463.943 221.753 464.029 222.168 464.029 222.688V227H463.023V226.114H462.972C462.904 226.256 462.79 226.408 462.631 226.57C462.472 226.732 462.26 226.869 461.996 226.983C461.732 227.097 461.409 227.153 461.029 227.153ZM461.182 226.25C461.58 226.25 461.915 226.172 462.188 226.016C462.463 225.859 462.671 225.658 462.81 225.411C462.952 225.163 463.023 224.903 463.023 224.631V223.71C462.98 223.761 462.887 223.808 462.742 223.851C462.6 223.891 462.435 223.926 462.247 223.957C462.063 223.986 461.882 224.011 461.706 224.034C461.533 224.054 461.392 224.071 461.284 224.085C461.023 224.119 460.779 224.175 460.551 224.251C460.327 224.325 460.145 224.437 460.006 224.588C459.869 224.736 459.801 224.937 459.801 225.193C459.801 225.543 459.931 225.807 460.189 225.986C460.45 226.162 460.781 226.25 461.182 226.25ZM468.711 220.455V221.307H465.319V220.455H468.711ZM466.307 218.886H467.313V225.125C467.313 225.409 467.354 225.622 467.437 225.764C467.522 225.903 467.63 225.997 467.76 226.045C467.894 226.091 468.035 226.114 468.182 226.114C468.293 226.114 468.384 226.108 468.455 226.097C468.526 226.082 468.583 226.071 468.626 226.062L468.83 226.966C468.762 226.991 468.667 227.017 468.545 227.043C468.422 227.071 468.268 227.085 468.08 227.085C467.796 227.085 467.518 227.024 467.245 226.902C466.975 226.78 466.751 226.594 466.572 226.344C466.395 226.094 466.307 225.778 466.307 225.398V218.886Z" fill="black" fill-opacity="0.4"/>
<mask id="mask0_24476_69655" style="mask-type:alpha" maskUnits="userSpaceOnUse" x="63" y="70" width="433" height="132">
<rect x="63" y="70" width="433" height="132" fill="url(#paint0_linear_24476_69655)"/>
</mask>
<g mask="url(#mask0_24476_69655)">
<path d="M205.4 146.723C124.645 154.251 113.104 154.032 63 173.676V202H496V75C361.512 75 323.011 135.759 205.4 146.723Z" fill="url(#paint1_linear_24476_69655)"/>
<path d="M297.785 144.548C229.946 132.54 112.996 139.544 63 144.548V173.274V202H496V99C456.493 122.291 408.03 164.062 297.785 144.548Z" fill="url(#paint2_linear_24476_69655)"/>
</g>
<path d="M64 174C114.104 154.292 124.645 154.511 205.4 146.958C323.011 135.958 360.512 75 495 75" stroke="#95A4FC" stroke-width="4" stroke-linecap="round"/>
<path d="M64 144C113.996 139.055 229.946 132.146 297.785 144.013C408.03 163.299 455.493 122.518 495 99.5" stroke="#A1E3CB" stroke-width="4" stroke-linecap="round"/>
<g filter="url(#filter0_d_24476_69655)">
<circle cx="3" cy="3" r="4.5" transform="matrix(-1 0 0 1 102 138)" fill="#A1E3CB" stroke="white" stroke-width="3"/>
</g>
<g filter="url(#filter1_d_24476_69655)">
<circle cx="3" cy="3" r="4.5" transform="matrix(-1 0 0 1 174 147)" fill="#95A4FC" stroke="white" stroke-width="3"/>
</g>
<g filter="url(#filter2_d_24476_69655)">
<circle cx="3" cy="3" r="4.5" transform="matrix(-1 0 0 1 174 134)" fill="#A1E3CB" stroke="white" stroke-width="3"/>
</g>
<g filter="url(#filter3_d_24476_69655)">
<circle cx="3" cy="3" r="4.5" transform="matrix(-1 0 0 1 102 158)" fill="#95A4FC" stroke="white" stroke-width="3"/>
</g>
<g filter="url(#filter4_d_24476_69655)">
<circle cx="3" cy="3" r="4.5" transform="matrix(-1 0 0 1 246 135)" fill="#A1E3CB" stroke="white" stroke-width="3"/>
</g>
<g filter="url(#filter5_d_24476_69655)">
<circle cx="3" cy="3" r="4.5" transform="matrix(-1 0 0 1 319 143)" fill="#A1E3CB" stroke="white" stroke-width="3"/>
</g>
<g filter="url(#filter6_d_24476_69655)">
<circle cx="3" cy="3" r="4.5" transform="matrix(-1 0 0 1 391 143)" fill="#A1E3CB" stroke="white" stroke-width="3"/>
</g>
<g filter="url(#filter7_d_24476_69655)">
<circle cx="3" cy="3" r="4.5" transform="matrix(-1 0 0 1 463 117)" fill="#A1E3CB" stroke="white" stroke-width="3"/>
</g>
<g filter="url(#filter8_d_24476_69655)">
<circle cx="3" cy="3" r="4.5" transform="matrix(-1 0 0 1 319 115)" fill="#95A4FC" stroke="white" stroke-width="3"/>
</g>
<g filter="url(#filter9_d_24476_69655)">
<circle cx="3" cy="3" r="4.5" transform="matrix(-1 0 0 1 391 87)" fill="#95A4FC" stroke="white" stroke-width="3"/>
</g>
<g filter="url(#filter10_d_24476_69655)">
<circle cx="3" cy="3" r="4.5" transform="matrix(-1 0 0 1 463 72)" fill="#95A4FC" stroke="white" stroke-width="3"/>
</g>
<defs>
<filter id="filter0_d_24476_69655" x="91" y="135" width="16" height="16" filterUnits="userSpaceOnUse" color-interpolation-filters="sRGB">
<feFlood flood-opacity="0" result="BackgroundImageFix"/>
<feColorMatrix in="SourceAlpha" type="matrix" values="0 0 0 0 0 0 0 0 0 0 0 0 0 0 0 0 0 0 127 0" result="hardAlpha"/>
<feOffset dy="2"/>
<feGaussianBlur stdDeviation="1"/>
<feComposite in2="hardAlpha" operator="out"/>
<feColorMatrix type="matrix" values="0 0 0 0 0 0 0 0 0 0 0 0 0 0 0 0 0 0 0.1 0"/>
<feBlend mode="normal" in2="BackgroundImageFix" result="effect1_dropShadow_24476_69655"/>
<feBlend mode="normal" in="SourceGraphic" in2="effect1_dropShadow_24476_69655" result="shape"/>
</filter>
<filter id="filter1_d_24476_69655" x="163" y="144" width="16" height="16" filterUnits="userSpaceOnUse" color-interpolation-filters="sRGB">
<feFlood flood-opacity="0" result="BackgroundImageFix"/>
<feColorMatrix in="SourceAlpha" type="matrix" values="0 0 0 0 0 0 0 0 0 0 0 0 0 0 0 0 0 0 127 0" result="hardAlpha"/>
<feOffset dy="2"/>
<feGaussianBlur stdDeviation="1"/>
<feComposite in2="hardAlpha" operator="out"/>
<feColorMatrix type="matrix" values="0 0 0 0 0 0 0 0 0 0 0 0 0 0 0 0 0 0 0.1 0"/>
<feBlend mode="normal" in2="BackgroundImageFix" result="effect1_dropShadow_24476_69655"/>
<feBlend mode="normal" in="SourceGraphic" in2="effect1_dropShadow_24476_69655" result="shape"/>
</filter>
<filter id="filter2_d_24476_69655" x="163" y="131" width="16" height="16" filterUnits="userSpaceOnUse" color-interpolation-filters="sRGB">
<feFlood flood-opacity="0" result="BackgroundImageFix"/>
<feColorMatrix in="SourceAlpha" type="matrix" values="0 0 0 0 0 0 0 0 0 0 0 0 0 0 0 0 0 0 127 0" result="hardAlpha"/>
<feOffset dy="2"/>
<feGaussianBlur stdDeviation="1"/>
<feComposite in2="hardAlpha" operator="out"/>
<feColorMatrix type="matrix" values="0 0 0 0 0 0 0 0 0 0 0 0 0 0 0 0 0 0 0.1 0"/>
<feBlend mode="normal" in2="BackgroundImageFix" result="effect1_dropShadow_24476_69655"/>
<feBlend mode="normal" in="SourceGraphic" in2="effect1_dropShadow_24476_69655" result="shape"/>
</filter>
<filter id="filter3_d_24476_69655" x="91" y="155" width="16" height="16" filterUnits="userSpaceOnUse" color-interpolation-filters="sRGB">
<feFlood flood-opacity="0" result="BackgroundImageFix"/>
<feColorMatrix in="SourceAlpha" type="matrix" values="0 0 0 0 0 0 0 0 0 0 0 0 0 0 0 0 0 0 127 0" result="hardAlpha"/>
<feOffset dy="2"/>
<feGaussianBlur stdDeviation="1"/>
<feComposite in2="hardAlpha" operator="out"/>
<feColorMatrix type="matrix" values="0 0 0 0 0 0 0 0 0 0 0 0 0 0 0 0 0 0 0.1 0"/>
<feBlend mode="normal" in2="BackgroundImageFix" result="effect1_dropShadow_24476_69655"/>
<feBlend mode="normal" in="SourceGraphic" in2="effect1_dropShadow_24476_69655" result="shape"/>
</filter>
<filter id="filter4_d_24476_69655" x="235" y="132" width="16" height="16" filterUnits="userSpaceOnUse" color-interpolation-filters="sRGB">
<feFlood flood-opacity="0" result="BackgroundImageFix"/>
<feColorMatrix in="SourceAlpha" type="matrix" values="0 0 0 0 0 0 0 0 0 0 0 0 0 0 0 0 0 0 127 0" result="hardAlpha"/>
<feOffset dy="2"/>
<feGaussianBlur stdDeviation="1"/>
<feComposite in2="hardAlpha" operator="out"/>
<feColorMatrix type="matrix" values="0 0 0 0 0 0 0 0 0 0 0 0 0 0 0 0 0 0 0.1 0"/>
<feBlend mode="normal" in2="BackgroundImageFix" result="effect1_dropShadow_24476_69655"/>
<feBlend mode="normal" in="SourceGraphic" in2="effect1_dropShadow_24476_69655" result="shape"/>
</filter>
<filter id="filter5_d_24476_69655" x="308" y="140" width="16" height="16" filterUnits="userSpaceOnUse" color-interpolation-filters="sRGB">
<feFlood flood-opacity="0" result="BackgroundImageFix"/>
<feColorMatrix in="SourceAlpha" type="matrix" values="0 0 0 0 0 0 0 0 0 0 0 0 0 0 0 0 0 0 127 0" result="hardAlpha"/>
<feOffset dy="2"/>
<feGaussianBlur stdDeviation="1"/>
<feComposite in2="hardAlpha" operator="out"/>
<feColorMatrix type="matrix" values="0 0 0 0 0 0 0 0 0 0 0 0 0 0 0 0 0 0 0.1 0"/>
<feBlend mode="normal" in2="BackgroundImageFix" result="effect1_dropShadow_24476_69655"/>
<feBlend mode="normal" in="SourceGraphic" in2="effect1_dropShadow_24476_69655" result="shape"/>
</filter>
<filter id="filter6_d_24476_69655" x="380" y="140" width="16" height="16" filterUnits="userSpaceOnUse" color-interpolation-filters="sRGB">
<feFlood flood-opacity="0" result="BackgroundImageFix"/>
<feColorMatrix in="SourceAlpha" type="matrix" values="0 0 0 0 0 0 0 0 0 0 0 0 0 0 0 0 0 0 127 0" result="hardAlpha"/>
<feOffset dy="2"/>
<feGaussianBlur stdDeviation="1"/>
<feComposite in2="hardAlpha" operator="out"/>
<feColorMatrix type="matrix" values="0 0 0 0 0 0 0 0 0 0 0 0 0 0 0 0 0 0 0.1 0"/>
<feBlend mode="normal" in2="BackgroundImageFix" result="effect1_dropShadow_24476_69655"/>
<feBlend mode="normal" in="SourceGraphic" in2="effect1_dropShadow_24476_69655" result="shape"/>
</filter>
<filter id="filter7_d_24476_69655" x="452" y="114" width="16" height="16" filterUnits="userSpaceOnUse" color-interpolation-filters="sRGB">
<feFlood flood-opacity="0" result="BackgroundImageFix"/>
<feColorMatrix in="SourceAlpha" type="matrix" values="0 0 0 0 0 0 0 0 0 0 0 0 0 0 0 0 0 0 127 0" result="hardAlpha"/>
<feOffset dy="2"/>
<feGaussianBlur stdDeviation="1"/>
<feComposite in2="hardAlpha" operator="out"/>
<feColorMatrix type="matrix" values="0 0 0 0 0 0 0 0 0 0 0 0 0 0 0 0 0 0 0.1 0"/>
<feBlend mode="normal" in2="BackgroundImageFix" result="effect1_dropShadow_24476_69655"/>
<feBlend mode="normal" in="SourceGraphic" in2="effect1_dropShadow_24476_69655" result="shape"/>
</filter>
<filter id="filter8_d_24476_69655" x="308" y="112" width="16" height="16" filterUnits="userSpaceOnUse" color-interpolation-filters="sRGB">
<feFlood flood-opacity="0" result="BackgroundImageFix"/>
<feColorMatrix in="SourceAlpha" type="matrix" values="0 0 0 0 0 0 0 0 0 0 0 0 0 0 0 0 0 0 127 0" result="hardAlpha"/>
<feOffset dy="2"/>
<feGaussianBlur stdDeviation="1"/>
<feComposite in2="hardAlpha" operator="out"/>
<feColorMatrix type="matrix" values="0 0 0 0 0 0 0 0 0 0 0 0 0 0 0 0 0 0 0.1 0"/>
<feBlend mode="normal" in2="BackgroundImageFix" result="effect1_dropShadow_24476_69655"/>
<feBlend mode="normal" in="SourceGraphic" in2="effect1_dropShadow_24476_69655" result="shape"/>
</filter>
<filter id="filter9_d_24476_69655" x="380" y="84" width="16" height="16" filterUnits="userSpaceOnUse" color-interpolation-filters="sRGB">
<feFlood flood-opacity="0" result="BackgroundImageFix"/>
<feColorMatrix in="SourceAlpha" type="matrix" values="0 0 0 0 0 0 0 0 0 0 0 0 0 0 0 0 0 0 127 0" result="hardAlpha"/>
<feOffset dy="2"/>
<feGaussianBlur stdDeviation="1"/>
<feComposite in2="hardAlpha" operator="out"/>
<feColorMatrix type="matrix" values="0 0 0 0 0 0 0 0 0 0 0 0 0 0 0 0 0 0 0.1 0"/>
<feBlend mode="normal" in2="BackgroundImageFix" result="effect1_dropShadow_24476_69655"/>
<feBlend mode="normal" in="SourceGraphic" in2="effect1_dropShadow_24476_69655" result="shape"/>
</filter>
<filter id="filter10_d_24476_69655" x="452" y="69" width="16" height="16" filterUnits="userSpaceOnUse" color-interpolation-filters="sRGB">
<feFlood flood-opacity="0" result="BackgroundImageFix"/>
<feColorMatrix in="SourceAlpha" type="matrix" values="0 0 0 0 0 0 0 0 0 0 0 0 0 0 0 0 0 0 127 0" result="hardAlpha"/>
<feOffset dy="2"/>
<feGaussianBlur stdDeviation="1"/>
<feComposite in2="hardAlpha" operator="out"/>
<feColorMatrix type="matrix" values="0 0 0 0 0 0 0 0 0 0 0 0 0 0 0 0 0 0 0.1 0"/>
<feBlend mode="normal" in2="BackgroundImageFix" result="effect1_dropShadow_24476_69655"/>
<feBlend mode="normal" in="SourceGraphic" in2="effect1_dropShadow_24476_69655" result="shape"/>
</filter>
<linearGradient id="paint0_linear_24476_69655" x1="63" y1="163.71" x2="496.121" y2="104.644" gradientUnits="userSpaceOnUse">
<stop offset="0.00860117" stop-color="#95A4FC" stop-opacity="0"/>
<stop offset="0.178635" stop-color="#95A4FC"/>
<stop offset="0.63031" stop-color="#95A4FC"/>
<stop offset="1" stop-color="#95A4FC" stop-opacity="0"/>
</linearGradient>
<linearGradient id="paint1_linear_24476_69655" x1="274.5" y1="75" x2="279.671" y2="154.518" gradientUnits="userSpaceOnUse">
<stop stop-color="#95A4FC" stop-opacity="0.4"/>
<stop offset="1" stop-color="#95A4FC" stop-opacity="0"/>
</linearGradient>
<linearGradient id="paint2_linear_24476_69655" x1="274.5" y1="99" x2="277.906" y2="163.584" gradientUnits="userSpaceOnUse">
<stop stop-color="#A1E3CB" stop-opacity="0.4"/>
<stop offset="1" stop-color="#A1E3CB" stop-opacity="0"/>
</linearGradient>
</defs>
</svg>
