<svg width="520" height="260" viewBox="0 0 520 260" fill="none" xmlns="http://www.w3.org/2000/svg">
<rect width="520" height="260" rx="16" fill="#F7F9FB"/>
<path d="M30.5376 31.6172C30.4912 31.183 30.2957 30.8449 29.951 30.603C29.6096 30.361 29.1655 30.2401 28.6186 30.2401C28.2341 30.2401 27.9044 30.2981 27.6293 30.4141C27.3542 30.5301 27.1437 30.6875 26.9979 30.8864C26.852 31.0852 26.7775 31.3123 26.7741 31.5675C26.7741 31.7796 26.8222 31.9635 26.9183 32.1193C27.0178 32.2751 27.152 32.4077 27.321 32.517C27.4901 32.6231 27.6773 32.7126 27.8828 32.7855C28.0883 32.8584 28.2955 32.9197 28.5043 32.9695L29.4588 33.2081C29.8433 33.2976 30.2128 33.4186 30.5675 33.571C30.9254 33.7235 31.2453 33.9157 31.527 34.1477C31.812 34.3797 32.0374 34.6598 32.2031 34.9879C32.3688 35.3161 32.4517 35.7005 32.4517 36.1413C32.4517 36.7379 32.2992 37.2633 31.9943 37.7173C31.6894 38.1681 31.2486 38.5211 30.6719 38.7763C30.0985 39.0282 29.4041 39.1541 28.5888 39.1541C27.7966 39.1541 27.1089 39.0315 26.5256 38.7862C25.9455 38.541 25.4915 38.183 25.1634 37.7124C24.8385 37.2417 24.6629 36.6683 24.6364 35.9922H26.451C26.4775 36.3468 26.5869 36.6418 26.7791 36.8771C26.9714 37.1125 27.2216 37.2881 27.5298 37.4041C27.8414 37.5201 28.1894 37.5781 28.5739 37.5781C28.9749 37.5781 29.3262 37.5185 29.6278 37.3991C29.9328 37.2765 30.1714 37.1075 30.3438 36.892C30.5161 36.6733 30.6039 36.4181 30.6072 36.1264C30.6039 35.8613 30.526 35.6425 30.3736 35.4702C30.2211 35.2945 30.0073 35.1487 29.7322 35.0327C29.4605 34.9134 29.1423 34.8073 28.7777 34.7145L27.6193 34.4162C26.7808 34.2008 26.1179 33.8743 25.6307 33.4368C25.1468 32.996 24.9048 32.411 24.9048 31.6818C24.9048 31.0819 25.0672 30.5566 25.392 30.1058C25.7202 29.6551 26.166 29.3054 26.7294 29.0568C27.2929 28.8049 27.9309 28.679 28.6435 28.679C29.366 28.679 29.9991 28.8049 30.5426 29.0568C31.0895 29.3054 31.5187 29.6518 31.8303 30.0959C32.1418 30.5367 32.3026 31.0438 32.3125 31.6172H30.5376ZM37.3475 39.1491C36.5852 39.1491 35.9306 38.9818 35.3837 38.647C34.8401 38.3123 34.4209 37.8499 34.1259 37.2599C33.8342 36.6667 33.6884 35.9839 33.6884 35.2116C33.6884 34.4361 33.8375 33.7517 34.1358 33.1584C34.4341 32.5618 34.8551 32.0978 35.3986 31.7663C35.9455 31.4316 36.5918 31.2642 37.3375 31.2642C37.9573 31.2642 38.5059 31.3786 38.9831 31.6072C39.4637 31.8326 39.8465 32.1525 40.1316 32.5668C40.4166 32.9777 40.579 33.4583 40.6188 34.0085H38.8986C38.829 33.6406 38.6633 33.334 38.4015 33.0888C38.1429 32.8402 37.7966 32.7159 37.3624 32.7159C36.9945 32.7159 36.6713 32.8153 36.3929 33.0142C36.1145 33.2098 35.8974 33.4915 35.7417 33.8594C35.5892 34.2273 35.513 34.6681 35.513 35.1818C35.513 35.7022 35.5892 36.1496 35.7417 36.5241C35.8941 36.8954 36.1079 37.1821 36.383 37.3842C36.6614 37.5831 36.9879 37.6825 37.3624 37.6825C37.6275 37.6825 37.8645 37.6328 38.0733 37.5334C38.2855 37.4306 38.4628 37.2831 38.6053 37.0909C38.7478 36.8987 38.8456 36.665 38.8986 36.3899H40.6188C40.5757 36.9302 40.4166 37.4091 40.1415 37.8267C39.8664 38.241 39.4919 38.5658 39.0179 38.8011C38.544 39.0331 37.9872 39.1491 37.3475 39.1491ZM44.294 39.1541C43.8101 39.1541 43.3743 39.0679 42.9865 38.8956C42.602 38.7199 42.2971 38.4614 42.0717 38.12C41.8497 37.7786 41.7386 37.3577 41.7386 36.8572C41.7386 36.4264 41.8182 36.0701 41.9773 35.7884C42.1364 35.5066 42.3535 35.2812 42.6286 35.1122C42.9036 34.9432 43.2135 34.8156 43.5582 34.7294C43.9063 34.6399 44.2659 34.5753 44.6371 34.5355C45.0845 34.4891 45.4474 34.4477 45.7259 34.4112C46.0043 34.3714 46.2064 34.3118 46.3324 34.2322C46.4616 34.1494 46.5263 34.0218 46.5263 33.8494V33.8196C46.5263 33.4451 46.4152 33.1551 46.1932 32.9496C45.9711 32.7441 45.6513 32.6413 45.2337 32.6413C44.7929 32.6413 44.4432 32.7375 44.1847 32.9297C43.9295 33.1219 43.7571 33.349 43.6676 33.6108L41.9872 33.3722C42.1198 32.9081 42.3385 32.5204 42.6435 32.2088C42.9484 31.8939 43.3213 31.6586 43.7621 31.5028C44.2029 31.3438 44.6901 31.2642 45.2237 31.2642C45.5916 31.2642 45.9579 31.3073 46.3224 31.3935C46.687 31.4796 47.0201 31.6222 47.3217 31.821C47.6233 32.0166 47.8653 32.2834 48.0476 32.6214C48.2332 32.9595 48.326 33.3821 48.326 33.8892V39H46.5959V37.951H46.5362C46.4268 38.1631 46.2727 38.362 46.0739 38.5476C45.8783 38.7299 45.6314 38.8774 45.3331 38.9901C45.0381 39.0994 44.6918 39.1541 44.294 39.1541ZM44.7614 37.8317C45.1226 37.8317 45.4358 37.7604 45.701 37.6179C45.9661 37.4721 46.17 37.2798 46.3125 37.0412C46.4583 36.8026 46.5312 36.5424 46.5312 36.2607V35.3608C46.4749 35.4072 46.3788 35.4503 46.2429 35.4901C46.1103 35.5298 45.9612 35.5646 45.7955 35.5945C45.6297 35.6243 45.4657 35.6508 45.3033 35.674C45.1409 35.6972 45 35.7171 44.8807 35.7337C44.6122 35.7701 44.3719 35.8298 44.1598 35.9126C43.9477 35.9955 43.7803 36.1115 43.6577 36.2607C43.535 36.4065 43.4737 36.5954 43.4737 36.8274C43.4737 37.1589 43.5947 37.4091 43.8366 37.5781C44.0786 37.7472 44.3868 37.8317 44.7614 37.8317ZM53.9489 31.3636V32.7557H49.5589V31.3636H53.9489ZM50.6428 29.5341H52.4425V36.7031C52.4425 36.9451 52.4789 37.1307 52.5518 37.2599C52.6281 37.3859 52.7275 37.4721 52.8501 37.5185C52.9728 37.5649 53.1087 37.5881 53.2578 37.5881C53.3705 37.5881 53.4732 37.5798 53.5661 37.5632C53.6622 37.5466 53.7351 37.5317 53.7848 37.5185L54.0881 38.9254C53.992 38.9586 53.8544 38.995 53.6754 39.0348C53.4998 39.0746 53.2843 39.0978 53.0291 39.1044C52.5784 39.1177 52.1723 39.0497 51.8111 38.9006C51.4498 38.7481 51.1631 38.5128 50.951 38.1946C50.7422 37.8764 50.6394 37.4787 50.6428 37.0014V29.5341ZM59.2672 31.3636V32.7557H54.8773V31.3636H59.2672ZM55.9611 29.5341H57.7608V36.7031C57.7608 36.9451 57.7973 37.1307 57.8702 37.2599C57.9464 37.3859 58.0459 37.4721 58.1685 37.5185C58.2911 37.5649 58.427 37.5881 58.5762 37.5881C58.6889 37.5881 58.7916 37.5798 58.8844 37.5632C58.9805 37.5466 59.0534 37.5317 59.1032 37.5185L59.4064 38.9254C59.3103 38.9586 59.1728 38.995 58.9938 39.0348C58.8181 39.0746 58.6027 39.0978 58.3475 39.1044C57.8967 39.1177 57.4907 39.0497 57.1294 38.9006C56.7682 38.7481 56.4815 38.5128 56.2694 38.1946C56.0605 37.8764 55.9578 37.4787 55.9611 37.0014V29.5341ZM64.071 39.1491C63.3054 39.1491 62.6442 38.9901 62.0874 38.6719C61.5339 38.3504 61.108 37.8963 60.8097 37.3097C60.5114 36.7197 60.3622 36.0253 60.3622 35.2266C60.3622 34.4411 60.5114 33.7517 60.8097 33.1584C61.1113 32.5618 61.5322 32.0978 62.0724 31.7663C62.6127 31.4316 63.2474 31.2642 63.9766 31.2642C64.4472 31.2642 64.8913 31.3404 65.3089 31.4929C65.7299 31.642 66.1011 31.8741 66.4226 32.1889C66.7474 32.5038 67.0026 32.9048 67.1882 33.392C67.3738 33.8759 67.4666 34.4527 67.4666 35.1222V35.674H61.2074V34.4609H65.7415C65.7382 34.1162 65.6636 33.8097 65.5178 33.5412C65.3719 33.2694 65.1681 33.0556 64.9062 32.8999C64.6477 32.7441 64.3461 32.6662 64.0014 32.6662C63.6335 32.6662 63.3104 32.7557 63.032 32.9347C62.7536 33.1103 62.5365 33.3423 62.3807 33.6307C62.2282 33.9157 62.1503 34.2289 62.147 34.5703V35.6293C62.147 36.0734 62.2282 36.4545 62.3906 36.7727C62.553 37.0876 62.7801 37.3295 63.0717 37.4986C63.3634 37.6643 63.7048 37.7472 64.0959 37.7472C64.3577 37.7472 64.5947 37.7107 64.8068 37.6378C65.0189 37.5616 65.2029 37.4505 65.3587 37.3047C65.5144 37.1589 65.6321 36.9782 65.7116 36.7628L67.392 36.9517C67.286 37.3958 67.0838 37.7836 66.7855 38.1151C66.4905 38.4432 66.1127 38.6984 65.652 38.8807C65.1913 39.0597 64.6643 39.1491 64.071 39.1491ZM68.9892 39V31.3636H70.7342V32.6364H70.8137C70.9529 32.1955 71.1916 31.8558 71.5297 31.6172C71.871 31.3752 72.2605 31.2543 72.698 31.2543C72.7974 31.2543 72.9084 31.2592 73.0311 31.2692C73.157 31.2758 73.2614 31.2874 73.3443 31.304V32.9595C73.2681 32.933 73.1471 32.9098 72.9814 32.8899C72.819 32.8667 72.6615 32.8551 72.5091 32.8551C72.1809 32.8551 71.8859 32.9264 71.6241 33.0689C71.3656 33.2081 71.1618 33.402 71.0126 33.6506C70.8635 33.8991 70.7889 34.1858 70.7889 34.5107V39H68.9892ZM86.8074 32.2536H84.948C84.8949 31.9486 84.7972 31.6785 84.6547 31.4432C84.5121 31.2045 84.3348 31.0024 84.1227 30.8366C83.9106 30.6709 83.6686 30.5466 83.3968 30.4638C83.1284 30.3776 82.8384 30.3345 82.5268 30.3345C81.9733 30.3345 81.4828 30.4737 81.0552 30.7521C80.6277 31.0272 80.2929 31.4316 80.051 31.9652C79.809 32.4955 79.688 33.1435 79.688 33.9091C79.688 34.688 79.809 35.3442 80.051 35.8778C80.2962 36.4081 80.631 36.8092 81.0552 37.081C81.4828 37.3494 81.9717 37.4837 82.5218 37.4837C82.8268 37.4837 83.1118 37.4439 83.377 37.3643C83.6454 37.2815 83.8857 37.1605 84.0978 37.0014C84.3133 36.8423 84.4939 36.6468 84.6397 36.4148C84.7889 36.1828 84.8916 35.9176 84.948 35.6193L86.8074 35.6293C86.7377 36.1132 86.5869 36.5672 86.3549 36.9915C86.1262 37.4157 85.8263 37.7902 85.4551 38.1151C85.0839 38.4366 84.6497 38.6884 84.1525 38.8707C83.6554 39.0497 83.1035 39.1392 82.497 39.1392C81.6021 39.1392 80.8033 38.9321 80.1007 38.5178C79.398 38.1035 78.8445 37.5052 78.4402 36.723C78.0358 35.9408 77.8336 35.0028 77.8336 33.9091C77.8336 32.812 78.0375 31.8741 78.4451 31.0952C78.8528 30.313 79.408 29.7147 80.1106 29.3004C80.8133 28.8861 81.6087 28.679 82.497 28.679C83.0637 28.679 83.5907 28.7585 84.0779 28.9176C84.5652 29.0767 84.9993 29.3104 85.3805 29.6186C85.7617 29.9235 86.0749 30.2981 86.3201 30.7422C86.5687 31.183 86.7311 31.6868 86.8074 32.2536ZM90.2166 34.5256V39H88.4169V28.8182H90.1768V32.6612H90.2663C90.4453 32.2304 90.7221 31.8906 91.0966 31.642C91.4744 31.3902 91.955 31.2642 92.5384 31.2642C93.0687 31.2642 93.531 31.3752 93.9254 31.5973C94.3198 31.8194 94.6248 32.1442 94.8402 32.5717C95.0589 32.9993 95.1683 33.5213 95.1683 34.1378V39H93.3686V34.4162C93.3686 33.9025 93.236 33.5031 92.9709 33.218C92.709 32.9297 92.3411 32.7855 91.8672 32.7855C91.549 32.7855 91.264 32.8551 91.0121 32.9943C90.7635 33.1302 90.5679 33.3274 90.4254 33.5859C90.2862 33.8445 90.2166 34.1577 90.2166 34.5256ZM99.2003 39.1541C98.7164 39.1541 98.2805 39.0679 97.8928 38.8956C97.5083 38.7199 97.2034 38.4614 96.978 38.12C96.7559 37.7786 96.6449 37.3577 96.6449 36.8572C96.6449 36.4264 96.7244 36.0701 96.8835 35.7884C97.0426 35.5066 97.2597 35.2812 97.5348 35.1122C97.8099 34.9432 98.1198 34.8156 98.4645 34.7294C98.8125 34.6399 99.1721 34.5753 99.5433 34.5355C99.9908 34.4891 100.354 34.4477 100.632 34.4112C100.911 34.3714 101.113 34.3118 101.239 34.2322C101.368 34.1494 101.433 34.0218 101.433 33.8494V33.8196C101.433 33.4451 101.321 33.1551 101.099 32.9496C100.877 32.7441 100.558 32.6413 100.14 32.6413C99.6991 32.6413 99.3494 32.7375 99.0909 32.9297C98.8357 33.1219 98.6634 33.349 98.5739 33.6108L96.8935 33.3722C97.026 32.9081 97.2448 32.5204 97.5497 32.2088C97.8546 31.8939 98.2275 31.6586 98.6683 31.5028C99.1091 31.3438 99.5964 31.2642 100.13 31.2642C100.498 31.2642 100.864 31.3073 101.229 31.3935C101.593 31.4796 101.926 31.6222 102.228 31.821C102.53 32.0166 102.772 32.2834 102.954 32.6214C103.139 32.9595 103.232 33.3821 103.232 33.8892V39H101.502V37.951H101.442C101.333 38.1631 101.179 38.362 100.98 38.5476C100.785 38.7299 100.538 38.8774 100.239 38.9901C99.9444 39.0994 99.598 39.1541 99.2003 39.1541ZM99.6676 37.8317C100.029 37.8317 100.342 37.7604 100.607 37.6179C100.872 37.4721 101.076 37.2798 101.219 37.0412C101.365 36.8026 101.438 36.5424 101.438 36.2607V35.3608C101.381 35.4072 101.285 35.4503 101.149 35.4901C101.017 35.5298 100.867 35.5646 100.702 35.5945C100.536 35.6243 100.372 35.6508 100.21 35.674C100.047 35.6972 99.9063 35.7171 99.7869 35.7337C99.5185 35.7701 99.2782 35.8298 99.0661 35.9126C98.8539 35.9955 98.6866 36.1115 98.5639 36.2607C98.4413 36.4065 98.38 36.5954 98.38 36.8274C98.38 37.1589 98.5009 37.4091 98.7429 37.5781C98.9848 37.7472 99.2931 37.8317 99.6676 37.8317ZM105.042 39V31.3636H106.787V32.6364H106.866C107.006 32.1955 107.244 31.8558 107.582 31.6172C107.924 31.3752 108.313 31.2543 108.751 31.2543C108.85 31.2543 108.961 31.2592 109.084 31.2692C109.21 31.2758 109.314 31.2874 109.397 31.304V32.9595C109.321 32.933 109.2 32.9098 109.034 32.8899C108.872 32.8667 108.714 32.8551 108.562 32.8551C108.234 32.8551 107.939 32.9264 107.677 33.0689C107.418 33.2081 107.214 33.402 107.065 33.6506C106.916 33.8991 106.842 34.1858 106.842 34.5107V39H105.042ZM114.816 31.3636V32.7557H110.426V31.3636H114.816ZM111.51 29.5341H113.31V36.7031C113.31 36.9451 113.346 37.1307 113.419 37.2599C113.495 37.3859 113.595 37.4721 113.717 37.5185C113.84 37.5649 113.976 37.5881 114.125 37.5881C114.238 37.5881 114.34 37.5798 114.433 37.5632C114.529 37.5466 114.602 37.5317 114.652 37.5185L114.955 38.9254C114.859 38.9586 114.722 38.995 114.543 39.0348C114.367 39.0746 114.152 39.0978 113.896 39.1044C113.446 39.1177 113.04 39.0497 112.678 38.9006C112.317 38.7481 112.03 38.5128 111.818 38.1946C111.609 37.8764 111.507 37.4787 111.51 37.0014V29.5341Z" fill="#1C1C1C"/>
<path d="M28.2116 80.1193C27.6491 80.1193 27.1477 80.0227 26.7074 79.8295C26.2699 79.6364 25.9219 79.3679 25.6634 79.0241C25.4077 78.6776 25.2685 78.2756 25.2457 77.8182H26.3196C26.3423 78.0994 26.4389 78.3423 26.6094 78.5469C26.7798 78.7486 27.0028 78.9048 27.2784 79.0156C27.554 79.1264 27.8594 79.1818 28.1946 79.1818C28.5696 79.1818 28.902 79.1165 29.1918 78.9858C29.4815 78.8551 29.7088 78.6733 29.8736 78.4403C30.0384 78.2074 30.1207 77.9375 30.1207 77.6307C30.1207 77.3097 30.0412 77.027 29.8821 76.7827C29.723 76.5355 29.4901 76.3423 29.1832 76.2031C28.8764 76.0639 28.5014 75.9943 28.0582 75.9943H27.3594V75.0568H28.0582C28.4048 75.0568 28.7088 74.9943 28.9702 74.8693C29.2344 74.7443 29.4403 74.5682 29.5881 74.3409C29.7386 74.1136 29.8139 73.8466 29.8139 73.5398C29.8139 73.2443 29.7486 72.9872 29.6179 72.7685C29.4872 72.5497 29.3026 72.3793 29.0639 72.2571C28.8281 72.1349 28.5497 72.0739 28.2287 72.0739C27.9276 72.0739 27.6435 72.1293 27.3764 72.2401C27.1122 72.348 26.8963 72.5057 26.7287 72.7131C26.5611 72.9176 26.4702 73.1648 26.456 73.4545H25.4332C25.4503 72.9972 25.5881 72.5966 25.8466 72.2528C26.1051 71.9062 26.4432 71.6364 26.8608 71.4432C27.2813 71.25 27.7429 71.1534 28.2457 71.1534C28.7855 71.1534 29.2486 71.2628 29.6349 71.4815C30.0213 71.6974 30.3182 71.983 30.5256 72.3381C30.733 72.6932 30.8366 73.0767 30.8366 73.4886C30.8366 73.9801 30.7074 74.3991 30.4489 74.7457C30.1932 75.0923 29.8452 75.3324 29.4048 75.4659V75.5341C29.956 75.625 30.3864 75.8594 30.696 76.2372C31.0057 76.6122 31.1605 77.0767 31.1605 77.6307C31.1605 78.1051 31.0313 78.5312 30.7727 78.9091C30.517 79.2841 30.1676 79.5795 29.7244 79.7955C29.2813 80.0114 28.777 80.1193 28.2116 80.1193ZM35.75 80.1193C35.108 80.1193 34.5611 79.9446 34.1094 79.5952C33.6577 79.2429 33.3125 78.733 33.0739 78.0653C32.8352 77.3949 32.7159 76.5852 32.7159 75.6364C32.7159 74.6932 32.8352 73.8878 33.0739 73.2202C33.3153 72.5497 33.6619 72.0384 34.1136 71.6861C34.5682 71.331 35.1136 71.1534 35.75 71.1534C36.3864 71.1534 36.9304 71.331 37.3821 71.6861C37.8366 72.0384 38.1832 72.5497 38.4219 73.2202C38.6634 73.8878 38.7841 74.6932 38.7841 75.6364C38.7841 76.5852 38.6648 77.3949 38.4261 78.0653C38.1875 78.733 37.8423 79.2429 37.3906 79.5952C36.9389 79.9446 36.392 80.1193 35.75 80.1193ZM35.75 79.1818C36.3864 79.1818 36.8807 78.875 37.233 78.2614C37.5852 77.6477 37.7614 76.7727 37.7614 75.6364C37.7614 74.8807 37.6804 74.2372 37.5185 73.706C37.3594 73.1747 37.1293 72.7699 36.8281 72.4915C36.5298 72.2131 36.1705 72.0739 35.75 72.0739C35.1193 72.0739 34.6264 72.3849 34.2713 73.0071C33.9162 73.6264 33.7386 74.5028 33.7386 75.6364C33.7386 76.392 33.8182 77.0341 33.9773 77.5625C34.1364 78.0909 34.3651 78.4929 34.6634 78.7685C34.9645 79.044 35.3267 79.1818 35.75 79.1818ZM43.25 80.1193C42.608 80.1193 42.0611 79.9446 41.6094 79.5952C41.1577 79.2429 40.8125 78.733 40.5739 78.0653C40.3352 77.3949 40.2159 76.5852 40.2159 75.6364C40.2159 74.6932 40.3352 73.8878 40.5739 73.2202C40.8153 72.5497 41.1619 72.0384 41.6136 71.6861C42.0682 71.331 42.6136 71.1534 43.25 71.1534C43.8864 71.1534 44.4304 71.331 44.8821 71.6861C45.3366 72.0384 45.6832 72.5497 45.9219 73.2202C46.1634 73.8878 46.2841 74.6932 46.2841 75.6364C46.2841 76.5852 46.1648 77.3949 45.9261 78.0653C45.6875 78.733 45.3423 79.2429 44.8906 79.5952C44.4389 79.9446 43.892 80.1193 43.25 80.1193ZM43.25 79.1818C43.8864 79.1818 44.3807 78.875 44.733 78.2614C45.0852 77.6477 45.2614 76.7727 45.2614 75.6364C45.2614 74.8807 45.1804 74.2372 45.0185 73.706C44.8594 73.1747 44.6293 72.7699 44.3281 72.4915C44.0298 72.2131 43.6705 72.0739 43.25 72.0739C42.6193 72.0739 42.1264 72.3849 41.7713 73.0071C41.4162 73.6264 41.2386 74.5028 41.2386 75.6364C41.2386 76.392 41.3182 77.0341 41.4773 77.5625C41.6364 78.0909 41.8651 78.4929 42.1634 78.7685C42.4645 79.044 42.8267 79.1818 43.25 79.1818Z" fill="black" fill-opacity="0.4"/>
<path d="M25.6378 119V118.233L28.5185 115.08C28.8565 114.71 29.1349 114.389 29.3537 114.116C29.5724 113.841 29.7344 113.582 29.8395 113.341C29.9474 113.097 30.0014 112.841 30.0014 112.574C30.0014 112.267 29.9276 112.001 29.7798 111.777C29.6349 111.553 29.4361 111.379 29.1832 111.257C28.9304 111.135 28.6463 111.074 28.331 111.074C27.9957 111.074 27.7031 111.143 27.4531 111.283C27.206 111.419 27.0142 111.611 26.8778 111.858C26.7443 112.105 26.6776 112.395 26.6776 112.727H25.6719C25.6719 112.216 25.7898 111.767 26.0256 111.381C26.2614 110.994 26.5824 110.693 26.9886 110.477C27.3977 110.261 27.8565 110.153 28.3651 110.153C28.8764 110.153 29.3295 110.261 29.7244 110.477C30.1193 110.693 30.429 110.984 30.6534 111.351C30.8778 111.717 30.9901 112.125 30.9901 112.574C30.9901 112.895 30.9318 113.209 30.8153 113.516C30.7017 113.82 30.5028 114.159 30.2188 114.534C29.9375 114.906 29.5469 115.361 29.0469 115.898L27.0866 117.994V118.062H31.1435V119H25.6378ZM35.75 119.119C35.108 119.119 34.5611 118.945 34.1094 118.595C33.6577 118.243 33.3125 117.733 33.0739 117.065C32.8352 116.395 32.7159 115.585 32.7159 114.636C32.7159 113.693 32.8352 112.888 33.0739 112.22C33.3153 111.55 33.6619 111.038 34.1136 110.686C34.5682 110.331 35.1136 110.153 35.75 110.153C36.3864 110.153 36.9304 110.331 37.3821 110.686C37.8366 111.038 38.1832 111.55 38.4219 112.22C38.6634 112.888 38.7841 113.693 38.7841 114.636C38.7841 115.585 38.6648 116.395 38.4261 117.065C38.1875 117.733 37.8423 118.243 37.3906 118.595C36.9389 118.945 36.392 119.119 35.75 119.119ZM35.75 118.182C36.3864 118.182 36.8807 117.875 37.233 117.261C37.5852 116.648 37.7614 115.773 37.7614 114.636C37.7614 113.881 37.6804 113.237 37.5185 112.706C37.3594 112.175 37.1293 111.77 36.8281 111.491C36.5298 111.213 36.1705 111.074 35.75 111.074C35.1193 111.074 34.6264 111.385 34.2713 112.007C33.9162 112.626 33.7386 113.503 33.7386 114.636C33.7386 115.392 33.8182 116.034 33.9773 116.562C34.1364 117.091 34.3651 117.493 34.6634 117.768C34.9645 118.044 35.3267 118.182 35.75 118.182ZM43.25 119.119C42.608 119.119 42.0611 118.945 41.6094 118.595C41.1577 118.243 40.8125 117.733 40.5739 117.065C40.3352 116.395 40.2159 115.585 40.2159 114.636C40.2159 113.693 40.3352 112.888 40.5739 112.22C40.8153 111.55 41.1619 111.038 41.6136 110.686C42.0682 110.331 42.6136 110.153 43.25 110.153C43.8864 110.153 44.4304 110.331 44.8821 110.686C45.3366 111.038 45.6832 111.55 45.9219 112.22C46.1634 112.888 46.2841 113.693 46.2841 114.636C46.2841 115.585 46.1648 116.395 45.9261 117.065C45.6875 117.733 45.3423 118.243 44.8906 118.595C44.4389 118.945 43.892 119.119 43.25 119.119ZM43.25 118.182C43.8864 118.182 44.3807 117.875 44.733 117.261C45.0852 116.648 45.2614 115.773 45.2614 114.636C45.2614 113.881 45.1804 113.237 45.0185 112.706C44.8594 112.175 44.6293 111.77 44.3281 111.491C44.0298 111.213 43.6705 111.074 43.25 111.074C42.6193 111.074 42.1264 111.385 41.7713 112.007C41.4162 112.626 41.2386 113.503 41.2386 114.636C41.2386 115.392 41.3182 116.034 41.4773 116.562C41.6364 117.091 41.8651 117.493 42.1634 117.768C42.4645 118.044 42.8267 118.182 43.25 118.182Z" fill="black" fill-opacity="0.4"/>
<path d="M30.3935 149.273V158H29.3366V150.381H29.2855L27.1548 151.795V150.722L29.3366 149.273H30.3935ZM35.75 158.119C35.108 158.119 34.5611 157.945 34.1094 157.595C33.6577 157.243 33.3125 156.733 33.0739 156.065C32.8352 155.395 32.7159 154.585 32.7159 153.636C32.7159 152.693 32.8352 151.888 33.0739 151.22C33.3153 150.55 33.6619 150.038 34.1136 149.686C34.5682 149.331 35.1136 149.153 35.75 149.153C36.3864 149.153 36.9304 149.331 37.3821 149.686C37.8366 150.038 38.1832 150.55 38.4219 151.22C38.6634 151.888 38.7841 152.693 38.7841 153.636C38.7841 154.585 38.6648 155.395 38.4261 156.065C38.1875 156.733 37.8423 157.243 37.3906 157.595C36.9389 157.945 36.392 158.119 35.75 158.119ZM35.75 157.182C36.3864 157.182 36.8807 156.875 37.233 156.261C37.5852 155.648 37.7614 154.773 37.7614 153.636C37.7614 152.881 37.6804 152.237 37.5185 151.706C37.3594 151.175 37.1293 150.77 36.8281 150.491C36.5298 150.213 36.1705 150.074 35.75 150.074C35.1193 150.074 34.6264 150.385 34.2713 151.007C33.9162 151.626 33.7386 152.503 33.7386 153.636C33.7386 154.392 33.8182 155.034 33.9773 155.562C34.1364 156.091 34.3651 156.493 34.6634 156.768C34.9645 157.044 35.3267 157.182 35.75 157.182ZM43.25 158.119C42.608 158.119 42.0611 157.945 41.6094 157.595C41.1577 157.243 40.8125 156.733 40.5739 156.065C40.3352 155.395 40.2159 154.585 40.2159 153.636C40.2159 152.693 40.3352 151.888 40.5739 151.22C40.8153 150.55 41.1619 150.038 41.6136 149.686C42.0682 149.331 42.6136 149.153 43.25 149.153C43.8864 149.153 44.4304 149.331 44.8821 149.686C45.3366 150.038 45.6832 150.55 45.9219 151.22C46.1634 151.888 46.2841 152.693 46.2841 153.636C46.2841 154.585 46.1648 155.395 45.9261 156.065C45.6875 156.733 45.3423 157.243 44.8906 157.595C44.4389 157.945 43.892 158.119 43.25 158.119ZM43.25 157.182C43.8864 157.182 44.3807 156.875 44.733 156.261C45.0852 155.648 45.2614 154.773 45.2614 153.636C45.2614 152.881 45.1804 152.237 45.0185 151.706C44.8594 151.175 44.6293 150.77 44.3281 150.491C44.0298 150.213 43.6705 150.074 43.25 150.074C42.6193 150.074 42.1264 150.385 41.7713 151.007C41.4162 151.626 41.2386 152.503 41.2386 153.636C41.2386 154.392 41.3182 155.034 41.4773 155.562C41.6364 156.091 41.8651 156.493 42.1634 156.768C42.4645 157.044 42.8267 157.182 43.25 157.182Z" fill="black" fill-opacity="0.4"/>
<path d="M43.25 197.119C42.608 197.119 42.0611 196.945 41.6094 196.595C41.1577 196.243 40.8125 195.733 40.5739 195.065C40.3352 194.395 40.2159 193.585 40.2159 192.636C40.2159 191.693 40.3352 190.888 40.5739 190.22C40.8153 189.55 41.1619 189.038 41.6136 188.686C42.0682 188.331 42.6136 188.153 43.25 188.153C43.8864 188.153 44.4304 188.331 44.8821 188.686C45.3366 189.038 45.6832 189.55 45.9219 190.22C46.1634 190.888 46.2841 191.693 46.2841 192.636C46.2841 193.585 46.1648 194.395 45.9261 195.065C45.6875 195.733 45.3423 196.243 44.8906 196.595C44.4389 196.945 43.892 197.119 43.25 197.119ZM43.25 196.182C43.8864 196.182 44.3807 195.875 44.733 195.261C45.0852 194.648 45.2614 193.773 45.2614 192.636C45.2614 191.881 45.1804 191.237 45.0185 190.706C44.8594 190.175 44.6293 189.77 44.3281 189.491C44.0298 189.213 43.6705 189.074 43.25 189.074C42.6193 189.074 42.1264 189.385 41.7713 190.007C41.4162 190.626 41.2386 191.503 41.2386 192.636C41.2386 193.392 41.3182 194.034 41.4773 194.562C41.6364 195.091 41.8651 195.493 42.1634 195.768C42.4645 196.044 42.8267 196.182 43.25 196.182Z" fill="black" fill-opacity="0.4"/>
<line x1="63.5" y1="82.5" x2="495.5" y2="82.5" stroke="black" stroke-opacity="0.05" stroke-linecap="round"/>
<line x1="63.5" y1="122.167" x2="495.5" y2="122.167" stroke="black" stroke-opacity="0.05" stroke-linecap="round"/>
<line x1="63.5" y1="161.833" x2="495.5" y2="161.833" stroke="black" stroke-opacity="0.05" stroke-linecap="round"/>
<line x1="63.5" y1="201.5" x2="495.5" y2="201.5" stroke="black" stroke-opacity="0.2" stroke-linecap="round"/>
<path d="M87.7124 218.273H88.9738L91.9397 225.517H92.042L95.0079 218.273H96.2692V227H95.2806V220.369H95.1954L92.4681 227H91.5136L88.7863 220.369H88.7011V227H87.7124V218.273ZM100.911 227.136C100.32 227.136 99.8015 226.996 99.3555 226.714C98.9123 226.433 98.5658 226.04 98.3158 225.534C98.0686 225.028 97.945 224.437 97.945 223.761C97.945 223.08 98.0686 222.484 98.3158 221.976C98.5658 221.467 98.9123 221.072 99.3555 220.791C99.8015 220.51 100.32 220.369 100.911 220.369C101.502 220.369 102.019 220.51 102.462 220.791C102.908 221.072 103.255 221.467 103.502 221.976C103.752 222.484 103.877 223.08 103.877 223.761C103.877 224.437 103.752 225.028 103.502 225.534C103.255 226.04 102.908 226.433 102.462 226.714C102.019 226.996 101.502 227.136 100.911 227.136ZM100.911 226.233C101.36 226.233 101.729 226.118 102.019 225.888C102.309 225.658 102.523 225.355 102.662 224.98C102.802 224.605 102.871 224.199 102.871 223.761C102.871 223.324 102.802 222.916 102.662 222.538C102.523 222.161 102.309 221.855 102.019 221.622C101.729 221.389 101.36 221.273 100.911 221.273C100.462 221.273 100.093 221.389 99.803 221.622C99.5132 221.855 99.2987 222.161 99.1595 222.538C99.0203 222.916 98.9507 223.324 98.9507 223.761C98.9507 224.199 99.0203 224.605 99.1595 224.98C99.2987 225.355 99.5132 225.658 99.803 225.888C100.093 226.118 100.462 226.233 100.911 226.233ZM106.418 223.062V227H105.412V220.455H106.384V221.477H106.469C106.622 221.145 106.855 220.878 107.168 220.676C107.48 220.472 107.884 220.369 108.378 220.369C108.821 220.369 109.209 220.46 109.541 220.642C109.874 220.821 110.132 221.094 110.317 221.46C110.501 221.824 110.594 222.284 110.594 222.841V227H109.588V222.909C109.588 222.395 109.455 221.994 109.188 221.707C108.921 221.418 108.554 221.273 108.088 221.273C107.767 221.273 107.48 221.342 107.227 221.482C106.977 221.621 106.78 221.824 106.635 222.091C106.49 222.358 106.418 222.682 106.418 223.062Z" fill="black" fill-opacity="0.4"/>
<path d="M161.447 219.21V218.273H167.993V219.21H165.248V227H164.191V219.21H161.447ZM172.722 224.324V220.455H173.727V227H172.722V225.892H172.653C172.5 226.224 172.261 226.507 171.937 226.74C171.614 226.97 171.205 227.085 170.71 227.085C170.301 227.085 169.937 226.996 169.619 226.817C169.301 226.635 169.051 226.362 168.869 225.999C168.687 225.632 168.597 225.17 168.597 224.614V220.455H169.602V224.545C169.602 225.023 169.736 225.403 170.003 225.688C170.273 225.972 170.616 226.114 171.034 226.114C171.284 226.114 171.538 226.05 171.797 225.922C172.058 225.794 172.277 225.598 172.453 225.334C172.632 225.07 172.722 224.733 172.722 224.324ZM178.314 227.136C177.683 227.136 177.139 226.997 176.681 226.719C176.227 226.438 175.876 226.045 175.629 225.543C175.385 225.037 175.262 224.449 175.262 223.778C175.262 223.108 175.385 222.517 175.629 222.006C175.876 221.491 176.22 221.091 176.66 220.804C177.103 220.514 177.62 220.369 178.211 220.369C178.552 220.369 178.889 220.426 179.221 220.54C179.554 220.653 179.856 220.838 180.129 221.094C180.402 221.347 180.619 221.682 180.781 222.099C180.943 222.517 181.024 223.031 181.024 223.642V224.068H175.978V223.199H180.001C180.001 222.83 179.927 222.5 179.779 222.21C179.635 221.92 179.427 221.692 179.157 221.524C178.89 221.357 178.575 221.273 178.211 221.273C177.811 221.273 177.464 221.372 177.171 221.571C176.882 221.767 176.659 222.023 176.502 222.338C176.346 222.653 176.268 222.991 176.268 223.352V223.932C176.268 224.426 176.353 224.845 176.524 225.189C176.697 225.53 176.937 225.79 177.244 225.969C177.551 226.145 177.907 226.233 178.314 226.233C178.578 226.233 178.816 226.196 179.029 226.122C179.245 226.045 179.431 225.932 179.588 225.781C179.744 225.628 179.865 225.437 179.95 225.21L180.921 225.483C180.819 225.812 180.647 226.102 180.406 226.352C180.164 226.599 179.866 226.793 179.511 226.932C179.156 227.068 178.757 227.136 178.314 227.136Z" fill="black" fill-opacity="0.4"/>
<path d="M233.449 227L231.063 218.273H232.137L233.96 225.381H234.046L235.904 218.273H237.097L238.955 225.381H239.04L240.864 218.273H241.938L239.551 227H238.46L236.534 220.045H236.466L234.54 227H233.449ZM245.253 227.136C244.622 227.136 244.078 226.997 243.621 226.719C243.166 226.438 242.815 226.045 242.568 225.543C242.324 225.037 242.202 224.449 242.202 223.778C242.202 223.108 242.324 222.517 242.568 222.006C242.815 221.491 243.159 221.091 243.6 220.804C244.043 220.514 244.56 220.369 245.151 220.369C245.492 220.369 245.828 220.426 246.161 220.54C246.493 220.653 246.796 220.838 247.068 221.094C247.341 221.347 247.558 221.682 247.72 222.099C247.882 222.517 247.963 223.031 247.963 223.642V224.068H242.918V223.199H246.94C246.94 222.83 246.867 222.5 246.719 222.21C246.574 221.92 246.367 221.692 246.097 221.524C245.83 221.357 245.514 221.273 245.151 221.273C244.75 221.273 244.404 221.372 244.111 221.571C243.821 221.767 243.598 222.023 243.442 222.338C243.286 222.653 243.208 222.991 243.208 223.352V223.932C243.208 224.426 243.293 224.845 243.463 225.189C243.637 225.53 243.877 225.79 244.183 225.969C244.49 226.145 244.847 226.233 245.253 226.233C245.517 226.233 245.756 226.196 245.969 226.122C246.185 226.045 246.371 225.932 246.527 225.781C246.683 225.628 246.804 225.437 246.889 225.21L247.861 225.483C247.759 225.812 247.587 226.102 247.345 226.352C247.104 226.599 246.806 226.793 246.45 226.932C246.095 227.068 245.696 227.136 245.253 227.136ZM251.965 227.136C251.419 227.136 250.938 226.999 250.52 226.723C250.102 226.445 249.776 226.053 249.54 225.547C249.304 225.038 249.186 224.438 249.186 223.744C249.186 223.057 249.304 222.46 249.54 221.955C249.776 221.449 250.104 221.058 250.524 220.783C250.945 220.507 251.431 220.369 251.982 220.369C252.408 220.369 252.744 220.44 252.992 220.582C253.242 220.722 253.432 220.881 253.563 221.06C253.696 221.236 253.8 221.381 253.874 221.494H253.959V218.273H254.965V227H253.993V225.994H253.874C253.8 226.114 253.695 226.264 253.558 226.446C253.422 226.625 253.227 226.786 252.975 226.928C252.722 227.067 252.385 227.136 251.965 227.136ZM252.101 226.233C252.504 226.233 252.845 226.128 253.124 225.918C253.402 225.705 253.614 225.411 253.759 225.036C253.904 224.658 253.976 224.222 253.976 223.727C253.976 223.239 253.905 222.811 253.763 222.445C253.621 222.075 253.411 221.788 253.132 221.584C252.854 221.376 252.51 221.273 252.101 221.273C251.675 221.273 251.32 221.382 251.036 221.601C250.754 221.817 250.543 222.111 250.401 222.483C250.262 222.852 250.192 223.267 250.192 223.727C250.192 224.193 250.263 224.616 250.405 224.997C250.55 225.375 250.763 225.676 251.044 225.901C251.328 226.122 251.681 226.233 252.101 226.233Z" fill="black" fill-opacity="0.4"/>
<path d="M305.282 219.21V218.273H311.827V219.21H309.083V227H308.026V219.21H305.282ZM314.328 223.062V227H313.322V218.273H314.328V221.477H314.413C314.566 221.139 314.797 220.871 315.103 220.672C315.413 220.47 315.825 220.369 316.339 220.369C316.785 220.369 317.176 220.459 317.511 220.638C317.846 220.814 318.106 221.085 318.291 221.452C318.478 221.815 318.572 222.278 318.572 222.841V227H317.566V222.909C317.566 222.389 317.432 221.987 317.162 221.703C316.895 221.416 316.524 221.273 316.049 221.273C315.72 221.273 315.424 221.342 315.163 221.482C314.905 221.621 314.7 221.824 314.549 222.091C314.402 222.358 314.328 222.682 314.328 223.062ZM324.537 224.324V220.455H325.543V227H324.537V225.892H324.469C324.315 226.224 324.077 226.507 323.753 226.74C323.429 226.97 323.02 227.085 322.526 227.085C322.117 227.085 321.753 226.996 321.435 226.817C321.117 226.635 320.867 226.362 320.685 225.999C320.503 225.632 320.412 225.17 320.412 224.614V220.455H321.418V224.545C321.418 225.023 321.551 225.403 321.818 225.688C322.088 225.972 322.432 226.114 322.849 226.114C323.099 226.114 323.354 226.05 323.612 225.922C323.874 225.794 324.092 225.598 324.269 225.334C324.448 225.07 324.537 224.733 324.537 224.324Z" fill="black" fill-opacity="0.4"/>
<path d="M381.665 227V218.273H386.898V219.21H382.721V222.159H386.505V223.097H382.721V227H381.665ZM388.501 227V220.455H389.472V221.443H389.541C389.66 221.119 389.876 220.857 390.188 220.655C390.501 220.453 390.853 220.352 391.245 220.352C391.319 220.352 391.411 220.354 391.522 220.357C391.633 220.359 391.717 220.364 391.774 220.369V221.392C391.739 221.384 391.661 221.371 391.539 221.354C391.42 221.334 391.293 221.324 391.16 221.324C390.842 221.324 390.558 221.391 390.308 221.524C390.061 221.655 389.864 221.837 389.72 222.07C389.578 222.3 389.507 222.562 389.507 222.858V227H388.501ZM392.966 227V220.455H393.971V227H392.966ZM393.477 219.364C393.281 219.364 393.112 219.297 392.97 219.163C392.831 219.03 392.761 218.869 392.761 218.682C392.761 218.494 392.831 218.334 392.97 218.2C393.112 218.067 393.281 218 393.477 218C393.673 218 393.841 218.067 393.98 218.2C394.122 218.334 394.193 218.494 394.193 218.682C394.193 218.869 394.122 219.03 393.98 219.163C393.841 219.297 393.673 219.364 393.477 219.364Z" fill="black" fill-opacity="0.4"/>
<path d="M456.359 220.455C456.308 220.023 456.101 219.688 455.737 219.449C455.373 219.21 454.927 219.091 454.399 219.091C454.013 219.091 453.675 219.153 453.385 219.278C453.098 219.403 452.873 219.575 452.711 219.794C452.552 220.013 452.473 220.261 452.473 220.54C452.473 220.773 452.528 220.973 452.639 221.141C452.753 221.305 452.898 221.443 453.074 221.554C453.25 221.662 453.434 221.751 453.628 221.822C453.821 221.891 453.998 221.946 454.16 221.989L455.047 222.227C455.274 222.287 455.527 222.369 455.805 222.474C456.086 222.58 456.355 222.723 456.611 222.905C456.869 223.084 457.082 223.314 457.25 223.595C457.417 223.876 457.501 224.222 457.501 224.631C457.501 225.102 457.378 225.528 457.13 225.909C456.886 226.29 456.528 226.592 456.057 226.817C455.588 227.041 455.018 227.153 454.348 227.153C453.723 227.153 453.182 227.053 452.724 226.851C452.27 226.649 451.912 226.368 451.65 226.007C451.392 225.646 451.246 225.227 451.211 224.75H452.302C452.331 225.08 452.442 225.352 452.635 225.568C452.831 225.781 453.078 225.94 453.376 226.045C453.677 226.148 454.001 226.199 454.348 226.199C454.751 226.199 455.113 226.134 455.434 226.003C455.755 225.869 456.01 225.685 456.197 225.449C456.385 225.21 456.478 224.932 456.478 224.614C456.478 224.324 456.398 224.088 456.236 223.906C456.074 223.724 455.861 223.577 455.596 223.463C455.332 223.349 455.047 223.25 454.74 223.165L453.666 222.858C452.984 222.662 452.444 222.382 452.047 222.018C451.649 221.655 451.45 221.179 451.45 220.591C451.45 220.102 451.582 219.676 451.846 219.312C452.113 218.946 452.471 218.662 452.92 218.46C453.372 218.256 453.876 218.153 454.433 218.153C454.996 218.153 455.496 218.254 455.933 218.456C456.371 218.655 456.717 218.928 456.973 219.274C457.231 219.621 457.368 220.014 457.382 220.455H456.359ZM461.029 227.153C460.614 227.153 460.237 227.075 459.899 226.919C459.561 226.76 459.293 226.531 459.094 226.233C458.895 225.932 458.796 225.568 458.796 225.142C458.796 224.767 458.869 224.463 459.017 224.23C459.165 223.994 459.362 223.81 459.61 223.676C459.857 223.543 460.129 223.443 460.428 223.378C460.729 223.31 461.031 223.256 461.335 223.216C461.733 223.165 462.056 223.126 462.303 223.101C462.553 223.072 462.735 223.026 462.848 222.96C462.965 222.895 463.023 222.781 463.023 222.619V222.585C463.023 222.165 462.908 221.838 462.678 221.605C462.45 221.372 462.105 221.256 461.642 221.256C461.162 221.256 460.786 221.361 460.513 221.571C460.24 221.781 460.048 222.006 459.938 222.244L458.983 221.903C459.154 221.506 459.381 221.196 459.665 220.974C459.952 220.75 460.264 220.594 460.602 220.506C460.943 220.415 461.279 220.369 461.608 220.369C461.818 220.369 462.06 220.395 462.333 220.446C462.608 220.494 462.874 220.595 463.129 220.749C463.388 220.902 463.602 221.134 463.773 221.443C463.943 221.753 464.029 222.168 464.029 222.688V227H463.023V226.114H462.972C462.904 226.256 462.79 226.408 462.631 226.57C462.472 226.732 462.26 226.869 461.996 226.983C461.732 227.097 461.409 227.153 461.029 227.153ZM461.182 226.25C461.58 226.25 461.915 226.172 462.188 226.016C462.463 225.859 462.671 225.658 462.81 225.411C462.952 225.163 463.023 224.903 463.023 224.631V223.71C462.98 223.761 462.887 223.808 462.742 223.851C462.6 223.891 462.435 223.926 462.247 223.957C462.063 223.986 461.882 224.011 461.706 224.034C461.533 224.054 461.392 224.071 461.284 224.085C461.023 224.119 460.779 224.175 460.551 224.251C460.327 224.325 460.145 224.437 460.006 224.588C459.869 224.736 459.801 224.937 459.801 225.193C459.801 225.543 459.931 225.807 460.189 225.986C460.45 226.162 460.781 226.25 461.182 226.25ZM468.711 220.455V221.307H465.319V220.455H468.711ZM466.307 218.886H467.313V225.125C467.313 225.409 467.354 225.622 467.437 225.764C467.522 225.903 467.63 225.997 467.76 226.045C467.894 226.091 468.035 226.114 468.182 226.114C468.293 226.114 468.384 226.108 468.455 226.097C468.526 226.082 468.583 226.071 468.626 226.062L468.83 226.966C468.762 226.991 468.667 227.017 468.545 227.043C468.422 227.071 468.268 227.085 468.08 227.085C467.796 227.085 467.518 227.024 467.245 226.902C466.975 226.78 466.751 226.594 466.572 226.344C466.395 226.094 466.307 225.778 466.307 225.398V218.886Z" fill="black" fill-opacity="0.4"/>
<path d="M128 130.5C131.59 130.5 134.5 127.59 134.5 124C134.5 120.41 131.59 117.5 128 117.5C124.41 117.5 121.5 120.41 121.5 124C121.5 127.59 124.41 130.5 128 130.5Z" fill="#95A4FC"/>
<path d="M160 143.5C163.59 143.5 166.5 140.59 166.5 137C166.5 133.41 163.59 130.5 160 130.5C156.41 130.5 153.5 133.41 153.5 137C153.5 140.59 156.41 143.5 160 143.5Z" fill="#95A4FC"/>
<path d="M187 100.5C190.59 100.5 193.5 97.5899 193.5 94C193.5 90.4101 190.59 87.5 187 87.5C183.41 87.5 180.5 90.4101 180.5 94C180.5 97.5899 183.41 100.5 187 100.5Z" fill="#95A4FC"/>
<path d="M219 137.5C222.59 137.5 225.5 134.59 225.5 131C225.5 127.41 222.59 124.5 219 124.5C215.41 124.5 212.5 127.41 212.5 131C212.5 134.59 215.41 137.5 219 137.5Z" fill="#95A4FC"/>
<path d="M107 96.5C110.59 96.5 113.5 93.5899 113.5 90C113.5 86.4101 110.59 83.5 107 83.5C103.41 83.5 100.5 86.4101 100.5 90C100.5 93.5899 103.41 96.5 107 96.5Z" fill="#95A4FC"/>
<path d="M140 183.5C143.59 183.5 146.5 180.59 146.5 177C146.5 173.41 143.59 170.5 140 170.5C136.41 170.5 133.5 173.41 133.5 177C133.5 180.59 136.41 183.5 140 183.5Z" fill="#95A4FC"/>
<path d="M99 160.5C102.59 160.5 105.5 157.59 105.5 154C105.5 150.41 102.59 147.5 99 147.5C95.4101 147.5 92.5 150.41 92.5 154C92.5 157.59 95.4101 160.5 99 160.5Z" fill="#95A4FC"/>
<path d="M295 91.5C298.59 91.5 301.5 88.5899 301.5 85C301.5 81.4101 298.59 78.5 295 78.5C291.41 78.5 288.5 81.4101 288.5 85C288.5 88.5899 291.41 91.5 295 91.5Z" fill="#95A4FC"/>
<path d="M293 149.5C296.59 149.5 299.5 146.59 299.5 143C299.5 139.41 296.59 136.5 293 136.5C289.41 136.5 286.5 139.41 286.5 143C286.5 146.59 289.41 149.5 293 149.5Z" fill="#95A4FC"/>
<path d="M371 120.5C374.59 120.5 377.5 117.59 377.5 114C377.5 110.41 374.59 107.5 371 107.5C367.41 107.5 364.5 110.41 364.5 114C364.5 117.59 367.41 120.5 371 120.5Z" fill="#95A4FC"/>
<path d="M320 124.5C323.59 124.5 326.5 121.59 326.5 118C326.5 114.41 323.59 111.5 320 111.5C316.41 111.5 313.5 114.41 313.5 118C313.5 121.59 316.41 124.5 320 124.5Z" fill="#95A4FC"/>
<path d="M399 149.5C402.59 149.5 405.5 146.59 405.5 143C405.5 139.41 402.59 136.5 399 136.5C395.41 136.5 392.5 139.41 392.5 143C392.5 146.59 395.41 149.5 399 149.5Z" fill="#95A4FC"/>
<path d="M436 103.5C439.59 103.5 442.5 100.59 442.5 97C442.5 93.4101 439.59 90.5 436 90.5C432.41 90.5 429.5 93.4101 429.5 97C429.5 100.59 432.41 103.5 436 103.5Z" fill="#95A4FC"/>
<path d="M399 86.5C402.59 86.5 405.5 83.5899 405.5 80C405.5 76.4101 402.59 73.5 399 73.5C395.41 73.5 392.5 76.4101 392.5 80C392.5 83.5899 395.41 86.5 399 86.5Z" fill="#95A4FC"/>
<path d="M238 86.5C241.59 86.5 244.5 83.5899 244.5 80C244.5 76.4101 241.59 73.5 238 73.5C234.41 73.5 231.5 76.4101 231.5 80C231.5 83.5899 234.41 86.5 238 86.5Z" fill="#95A4FC"/>
<path d="M257 119.5C260.59 119.5 263.5 116.59 263.5 113C263.5 109.41 260.59 106.5 257 106.5C253.41 106.5 250.5 109.41 250.5 113C250.5 116.59 253.41 119.5 257 119.5Z" fill="#95A4FC"/>
<path d="M257 168.5C260.59 168.5 263.5 165.59 263.5 162C263.5 158.41 260.59 155.5 257 155.5C253.41 155.5 250.5 158.41 250.5 162C250.5 165.59 253.41 168.5 257 168.5Z" fill="#95A4FC"/>
<path d="M322 181.5C325.59 181.5 328.5 178.59 328.5 175C328.5 171.41 325.59 168.5 322 168.5C318.41 168.5 315.5 171.41 315.5 175C315.5 178.59 318.41 181.5 322 181.5Z" fill="#95A4FC"/>
<path d="M428 167.5C431.59 167.5 434.5 164.59 434.5 161C434.5 157.41 431.59 154.5 428 154.5C424.41 154.5 421.5 157.41 421.5 161C421.5 164.59 424.41 167.5 428 167.5Z" fill="#95A4FC"/>
<path d="M458 141.5C461.59 141.5 464.5 138.59 464.5 135C464.5 131.41 461.59 128.5 458 128.5C454.41 128.5 451.5 131.41 451.5 135C451.5 138.59 454.41 141.5 458 141.5Z" fill="#95A4FC"/>
<path d="M342 154.5C345.59 154.5 348.5 151.59 348.5 148C348.5 144.41 345.59 141.5 342 141.5C338.41 141.5 335.5 144.41 335.5 148C335.5 151.59 338.41 154.5 342 154.5Z" fill="#95A4FC"/>
<path d="M205 176.5C208.59 176.5 211.5 173.59 211.5 170C211.5 166.41 208.59 163.5 205 163.5C201.41 163.5 198.5 166.41 198.5 170C198.5 173.59 201.41 176.5 205 176.5Z" fill="#95A4FC"/>
<path d="M350 91.5C353.59 91.5 356.5 88.5899 356.5 85C356.5 81.4101 353.59 78.5 350 78.5C346.41 78.5 343.5 81.4101 343.5 85C343.5 88.5899 346.41 91.5 350 91.5Z" fill="#95A4FC"/>
</svg>
