<svg width="520" height="260" viewBox="0 0 520 260" fill="none" xmlns="http://www.w3.org/2000/svg">
<rect width="520" height="260" rx="16" fill="#F7F9FB"/>
<path d="M24.5568 30.3643V28.8182H32.6804V30.3643H29.5334V39H27.7038V30.3643H24.5568ZM33.3739 39V31.3636H35.119V32.6364H35.1985C35.3377 32.1955 35.5763 31.8558 35.9144 31.6172C36.2558 31.3752 36.6452 31.2543 37.0827 31.2543C37.1822 31.2543 37.2932 31.2592 37.4158 31.2692C37.5418 31.2758 37.6462 31.2874 37.729 31.304V32.9595C37.6528 32.933 37.5318 32.9098 37.3661 32.8899C37.2037 32.8667 37.0463 32.8551 36.8938 32.8551C36.5657 32.8551 36.2707 32.9264 36.0089 33.0689C35.7504 33.2081 35.5465 33.402 35.3974 33.6506C35.2482 33.8991 35.1737 34.1858 35.1737 34.5107V39H33.3739ZM41.9909 39.1491C41.2253 39.1491 40.5641 38.9901 40.0073 38.6719C39.4538 38.3504 39.0279 37.8963 38.7296 37.3097C38.4313 36.7197 38.2821 36.0253 38.2821 35.2266C38.2821 34.4411 38.4313 33.7517 38.7296 33.1584C39.0312 32.5618 39.4521 32.0978 39.9924 31.7663C40.5326 31.4316 41.1673 31.2642 41.8965 31.2642C42.3671 31.2642 42.8113 31.3404 43.2289 31.4929C43.6498 31.642 44.021 31.8741 44.3425 32.1889C44.6673 32.5038 44.9225 32.9048 45.1081 33.392C45.2937 33.8759 45.3865 34.4527 45.3865 35.1222V35.674H39.1273V34.4609H43.6614C43.6581 34.1162 43.5835 33.8097 43.4377 33.5412C43.2918 33.2694 43.088 33.0556 42.8262 32.8999C42.5676 32.7441 42.266 32.6662 41.9213 32.6662C41.5534 32.6662 41.2303 32.7557 40.9519 32.9347C40.6735 33.1103 40.4564 33.3423 40.3006 33.6307C40.1481 33.9157 40.0703 34.2289 40.0669 34.5703V35.6293C40.0669 36.0734 40.1481 36.4545 40.3105 36.7727C40.473 37.0876 40.7 37.3295 40.9917 37.4986C41.2833 37.6643 41.6247 37.7472 42.0158 37.7472C42.2776 37.7472 42.5146 37.7107 42.7267 37.6378C42.9389 37.5616 43.1228 37.4505 43.2786 37.3047C43.4344 37.1589 43.552 36.9782 43.6316 36.7628L45.312 36.9517C45.2059 37.3958 45.0037 37.7836 44.7054 38.1151C44.4105 38.4432 44.0326 38.6984 43.5719 38.8807C43.1112 39.0597 42.5842 39.1491 41.9909 39.1491ZM48.7088 34.5256V39H46.9091V31.3636H48.6293V32.6612H48.7188C48.8944 32.2337 49.1745 31.8939 49.5589 31.642C49.9467 31.3902 50.4257 31.2642 50.9957 31.2642C51.5227 31.2642 51.9818 31.3769 52.3729 31.6023C52.7673 31.8277 53.0722 32.1541 53.2876 32.5817C53.5064 33.0092 53.6141 33.5279 53.6108 34.1378V39H51.8111V34.4162C51.8111 33.9058 51.6785 33.5064 51.4134 33.218C51.1515 32.9297 50.7886 32.7855 50.3246 32.7855C50.0097 32.7855 49.7296 32.8551 49.4844 32.9943C49.2424 33.1302 49.0518 33.3274 48.9126 33.5859C48.7768 33.8445 48.7088 34.1577 48.7088 34.5256ZM58.2741 39.1342C57.6742 39.1342 57.1373 38.9801 56.6634 38.6719C56.1894 38.3636 55.8149 37.9162 55.5398 37.3295C55.2647 36.7429 55.1271 36.0303 55.1271 35.1918C55.1271 34.3433 55.2663 33.6274 55.5447 33.044C55.8265 32.4574 56.206 32.0149 56.6832 31.7166C57.1605 31.415 57.6925 31.2642 58.2791 31.2642C58.7266 31.2642 59.0945 31.3404 59.3828 31.4929C59.6712 31.642 59.8999 31.8227 60.0689 32.0348C60.2379 32.2436 60.3688 32.4408 60.4616 32.6264H60.5362V28.8182H62.3409V39H60.571V37.7969H60.4616C60.3688 37.9825 60.2346 38.1797 60.0589 38.3885C59.8833 38.594 59.6513 38.7696 59.3629 38.9155C59.0746 39.0613 58.7116 39.1342 58.2741 39.1342ZM58.7763 37.6577C59.1574 37.6577 59.4822 37.5549 59.7507 37.3494C60.0192 37.1406 60.223 36.8506 60.3622 36.4794C60.5014 36.1082 60.571 35.6757 60.571 35.1818C60.571 34.688 60.5014 34.2588 60.3622 33.8942C60.2263 33.5296 60.0241 33.2462 59.7557 33.044C59.4905 32.8419 59.1641 32.7408 58.7763 32.7408C58.3752 32.7408 58.0405 32.8452 57.772 33.054C57.5036 33.2628 57.3014 33.5511 57.1655 33.919C57.0296 34.2869 56.9616 34.7079 56.9616 35.1818C56.9616 35.6591 57.0296 36.085 57.1655 36.4595C57.3047 36.8307 57.5085 37.1241 57.777 37.3395C58.0488 37.5516 58.3819 37.6577 58.7763 37.6577ZM71.0623 39.1491C70.3 39.1491 69.6454 38.9818 69.0985 38.647C68.555 38.3123 68.1357 37.8499 67.8407 37.2599C67.5491 36.6667 67.4032 35.9839 67.4032 35.2116C67.4032 34.4361 67.5524 33.7517 67.8507 33.1584C68.149 32.5618 68.5699 32.0978 69.1135 31.7663C69.6603 31.4316 70.3066 31.2642 71.0524 31.2642C71.6722 31.2642 72.2207 31.3786 72.698 31.6072C73.1786 31.8326 73.5614 32.1525 73.8464 32.5668C74.1315 32.9777 74.2939 33.4583 74.3336 34.0085H72.6135C72.5439 33.6406 72.3781 33.334 72.1163 33.0888C71.8578 32.8402 71.5114 32.7159 71.0772 32.7159C70.7093 32.7159 70.3862 32.8153 70.1078 33.0142C69.8294 33.2098 69.6123 33.4915 69.4565 33.8594C69.304 34.2273 69.2278 34.6681 69.2278 35.1818C69.2278 35.7022 69.304 36.1496 69.4565 36.5241C69.609 36.8954 69.8227 37.1821 70.0978 37.3842C70.3762 37.5831 70.7027 37.6825 71.0772 37.6825C71.3424 37.6825 71.5794 37.6328 71.7882 37.5334C72.0003 37.4306 72.1776 37.2831 72.3201 37.0909C72.4627 36.8987 72.5604 36.665 72.6135 36.3899H74.3336C74.2905 36.9302 74.1315 37.4091 73.8564 37.8267C73.5813 38.241 73.2067 38.5658 72.7328 38.8011C72.2588 39.0331 71.702 39.1491 71.0623 39.1491ZM77.6112 34.5256V39H75.8114V28.8182H77.5714V32.6612H77.6609C77.8398 32.2304 78.1166 31.8906 78.4911 31.642C78.869 31.3902 79.3496 31.2642 79.9329 31.2642C80.4632 31.2642 80.9255 31.3752 81.32 31.5973C81.7144 31.8194 82.0193 32.1442 82.2347 32.5717C82.4535 32.9993 82.5629 33.5213 82.5629 34.1378V39H80.7631V34.4162C80.7631 33.9025 80.6306 33.5031 80.3654 33.218C80.1036 32.9297 79.7357 32.7855 79.2617 32.7855C78.9435 32.7855 78.6585 32.8551 78.4066 32.9943C78.158 33.1302 77.9625 33.3274 77.82 33.5859C77.6808 33.8445 77.6112 34.1577 77.6112 34.5256ZM86.5948 39.1541C86.1109 39.1541 85.6751 39.0679 85.2873 38.8956C84.9028 38.7199 84.5979 38.4614 84.3725 38.12C84.1504 37.7786 84.0394 37.3577 84.0394 36.8572C84.0394 36.4264 84.119 36.0701 84.2781 35.7884C84.4371 35.5066 84.6542 35.2812 84.9293 35.1122C85.2044 34.9432 85.5143 34.8156 85.859 34.7294C86.207 34.6399 86.5666 34.5753 86.9379 34.5355C87.3853 34.4891 87.7482 34.4477 88.0266 34.4112C88.305 34.3714 88.5072 34.3118 88.6332 34.2322C88.7624 34.1494 88.8271 34.0218 88.8271 33.8494V33.8196C88.8271 33.4451 88.716 33.1551 88.494 32.9496C88.2719 32.7441 87.9521 32.6413 87.5344 32.6413C87.0936 32.6413 86.744 32.7375 86.4854 32.9297C86.2302 33.1219 86.0579 33.349 85.9684 33.6108L84.288 33.3722C84.4206 32.9081 84.6393 32.5204 84.9442 32.2088C85.2492 31.8939 85.622 31.6586 86.0629 31.5028C86.5037 31.3438 86.9909 31.2642 87.5245 31.2642C87.8924 31.2642 88.2586 31.3073 88.6232 31.3935C88.9878 31.4796 89.3209 31.6222 89.6225 31.821C89.9241 32.0166 90.1661 32.2834 90.3484 32.6214C90.534 32.9595 90.6268 33.3821 90.6268 33.8892V39H88.8967V37.951H88.837C88.7276 38.1631 88.5735 38.362 88.3746 38.5476C88.1791 38.7299 87.9322 38.8774 87.6339 38.9901C87.3389 39.0994 86.9925 39.1541 86.5948 39.1541ZM87.0621 37.8317C87.4234 37.8317 87.7366 37.7604 88.0018 37.6179C88.2669 37.4721 88.4708 37.2798 88.6133 37.0412C88.7591 36.8026 88.832 36.5424 88.832 36.2607V35.3608C88.7757 35.4072 88.6796 35.4503 88.5437 35.4901C88.4111 35.5298 88.262 35.5646 88.0962 35.5945C87.9305 35.6243 87.7665 35.6508 87.604 35.674C87.4416 35.6972 87.3008 35.7171 87.1815 35.7337C86.913 35.7701 86.6727 35.8298 86.4606 35.9126C86.2485 35.9955 86.0811 36.1115 85.9585 36.2607C85.8358 36.4065 85.7745 36.5954 85.7745 36.8274C85.7745 37.1589 85.8955 37.4091 86.1374 37.5781C86.3794 37.7472 86.6876 37.8317 87.0621 37.8317ZM92.4364 39V31.3636H94.1815V32.6364H94.261C94.4002 32.1955 94.6388 31.8558 94.9769 31.6172C95.3183 31.3752 95.7077 31.2543 96.1452 31.2543C96.2447 31.2543 96.3557 31.2592 96.4783 31.2692C96.6043 31.2758 96.7087 31.2874 96.7915 31.304V32.9595C96.7153 32.933 96.5943 32.9098 96.4286 32.8899C96.2662 32.8667 96.1088 32.8551 95.9563 32.8551C95.6282 32.8551 95.3332 32.9264 95.0714 33.0689C94.8129 33.2081 94.609 33.402 94.4599 33.6506C94.3107 33.8991 94.2362 34.1858 94.2362 34.5107V39H92.4364ZM102.211 31.3636V32.7557H97.8207V31.3636H102.211ZM98.9045 29.5341H100.704V36.7031C100.704 36.9451 100.741 37.1307 100.814 37.2599C100.89 37.3859 100.989 37.4721 101.112 37.5185C101.234 37.5649 101.37 37.5881 101.52 37.5881C101.632 37.5881 101.735 37.5798 101.828 37.5632C101.924 37.5466 101.997 37.5317 102.047 37.5185L102.35 38.9254C102.254 38.9586 102.116 38.995 101.937 39.0348C101.761 39.0746 101.546 39.0978 101.291 39.1044C100.84 39.1177 100.434 39.0497 100.073 38.9006C99.7115 38.7481 99.4248 38.5128 99.2127 38.1946C99.0039 37.8764 98.9012 37.4787 98.9045 37.0014V29.5341Z" fill="#1C1C1C"/>
<path d="M28.2116 73.1193C27.6491 73.1193 27.1477 73.0227 26.7074 72.8295C26.2699 72.6364 25.9219 72.3679 25.6634 72.0241C25.4077 71.6776 25.2685 71.2756 25.2457 70.8182H26.3196C26.3423 71.0994 26.4389 71.3423 26.6094 71.5469C26.7798 71.7486 27.0028 71.9048 27.2784 72.0156C27.554 72.1264 27.8594 72.1818 28.1946 72.1818C28.5696 72.1818 28.902 72.1165 29.1918 71.9858C29.4815 71.8551 29.7088 71.6733 29.8736 71.4403C30.0384 71.2074 30.1207 70.9375 30.1207 70.6307C30.1207 70.3097 30.0412 70.027 29.8821 69.7827C29.723 69.5355 29.4901 69.3423 29.1832 69.2031C28.8764 69.0639 28.5014 68.9943 28.0582 68.9943H27.3594V68.0568H28.0582C28.4048 68.0568 28.7088 67.9943 28.9702 67.8693C29.2344 67.7443 29.4403 67.5682 29.5881 67.3409C29.7386 67.1136 29.8139 66.8466 29.8139 66.5398C29.8139 66.2443 29.7486 65.9872 29.6179 65.7685C29.4872 65.5497 29.3026 65.3793 29.0639 65.2571C28.8281 65.1349 28.5497 65.0739 28.2287 65.0739C27.9276 65.0739 27.6435 65.1293 27.3764 65.2401C27.1122 65.348 26.8963 65.5057 26.7287 65.7131C26.5611 65.9176 26.4702 66.1648 26.456 66.4545H25.4332C25.4503 65.9972 25.5881 65.5966 25.8466 65.2528C26.1051 64.9062 26.4432 64.6364 26.8608 64.4432C27.2813 64.25 27.7429 64.1534 28.2457 64.1534C28.7855 64.1534 29.2486 64.2628 29.6349 64.4815C30.0213 64.6974 30.3182 64.983 30.5256 65.3381C30.733 65.6932 30.8366 66.0767 30.8366 66.4886C30.8366 66.9801 30.7074 67.3991 30.4489 67.7457C30.1932 68.0923 29.8452 68.3324 29.4048 68.4659V68.5341C29.956 68.625 30.3864 68.8594 30.696 69.2372C31.0057 69.6122 31.1605 70.0767 31.1605 70.6307C31.1605 71.1051 31.0313 71.5312 30.7727 71.9091C30.517 72.2841 30.1676 72.5795 29.7244 72.7955C29.2813 73.0114 28.777 73.1193 28.2116 73.1193ZM35.75 73.1193C35.108 73.1193 34.5611 72.9446 34.1094 72.5952C33.6577 72.2429 33.3125 71.733 33.0739 71.0653C32.8352 70.3949 32.7159 69.5852 32.7159 68.6364C32.7159 67.6932 32.8352 66.8878 33.0739 66.2202C33.3153 65.5497 33.6619 65.0384 34.1136 64.6861C34.5682 64.331 35.1136 64.1534 35.75 64.1534C36.3864 64.1534 36.9304 64.331 37.3821 64.6861C37.8366 65.0384 38.1832 65.5497 38.4219 66.2202C38.6634 66.8878 38.7841 67.6932 38.7841 68.6364C38.7841 69.5852 38.6648 70.3949 38.4261 71.0653C38.1875 71.733 37.8423 72.2429 37.3906 72.5952C36.9389 72.9446 36.392 73.1193 35.75 73.1193ZM35.75 72.1818C36.3864 72.1818 36.8807 71.875 37.233 71.2614C37.5852 70.6477 37.7614 69.7727 37.7614 68.6364C37.7614 67.8807 37.6804 67.2372 37.5185 66.706C37.3594 66.1747 37.1293 65.7699 36.8281 65.4915C36.5298 65.2131 36.1705 65.0739 35.75 65.0739C35.1193 65.0739 34.6264 65.3849 34.2713 66.0071C33.9162 66.6264 33.7386 67.5028 33.7386 68.6364C33.7386 69.392 33.8182 70.0341 33.9773 70.5625C34.1364 71.0909 34.3651 71.4929 34.6634 71.7685C34.9645 72.044 35.3267 72.1818 35.75 72.1818ZM43.25 73.1193C42.608 73.1193 42.0611 72.9446 41.6094 72.5952C41.1577 72.2429 40.8125 71.733 40.5739 71.0653C40.3352 70.3949 40.2159 69.5852 40.2159 68.6364C40.2159 67.6932 40.3352 66.8878 40.5739 66.2202C40.8153 65.5497 41.1619 65.0384 41.6136 64.6861C42.0682 64.331 42.6136 64.1534 43.25 64.1534C43.8864 64.1534 44.4304 64.331 44.8821 64.6861C45.3366 65.0384 45.6832 65.5497 45.9219 66.2202C46.1634 66.8878 46.2841 67.6932 46.2841 68.6364C46.2841 69.5852 46.1648 70.3949 45.9261 71.0653C45.6875 71.733 45.3423 72.2429 44.8906 72.5952C44.4389 72.9446 43.892 73.1193 43.25 73.1193ZM43.25 72.1818C43.8864 72.1818 44.3807 71.875 44.733 71.2614C45.0852 70.6477 45.2614 69.7727 45.2614 68.6364C45.2614 67.8807 45.1804 67.2372 45.0185 66.706C44.8594 66.1747 44.6293 65.7699 44.3281 65.4915C44.0298 65.2131 43.6705 65.0739 43.25 65.0739C42.6193 65.0739 42.1264 65.3849 41.7713 66.0071C41.4162 66.6264 41.2386 67.5028 41.2386 68.6364C41.2386 69.392 41.3182 70.0341 41.4773 70.5625C41.6364 71.0909 41.8651 71.4929 42.1634 71.7685C42.4645 72.044 42.8267 72.1818 43.25 72.1818Z" fill="black" fill-opacity="0.4"/>
<path d="M25.6378 114.333V113.566L28.5185 110.413C28.8565 110.043 29.1349 109.722 29.3537 109.449C29.5724 109.174 29.7344 108.915 29.8395 108.674C29.9474 108.43 30.0014 108.174 30.0014 107.907C30.0014 107.6 29.9276 107.334 29.7798 107.11C29.6349 106.886 29.4361 106.712 29.1832 106.59C28.9304 106.468 28.6463 106.407 28.331 106.407C27.9957 106.407 27.7031 106.476 27.4531 106.616C27.206 106.752 27.0142 106.944 26.8778 107.191C26.7443 107.438 26.6776 107.728 26.6776 108.06H25.6719C25.6719 107.549 25.7898 107.1 26.0256 106.714C26.2614 106.327 26.5824 106.026 26.9886 105.81C27.3977 105.594 27.8565 105.486 28.3651 105.486C28.8764 105.486 29.3295 105.594 29.7244 105.81C30.1193 106.026 30.429 106.317 30.6534 106.684C30.8778 107.05 30.9901 107.458 30.9901 107.907C30.9901 108.228 30.9318 108.542 30.8153 108.849C30.7017 109.153 30.5028 109.492 30.2188 109.867C29.9375 110.239 29.5469 110.694 29.0469 111.231L27.0866 113.327V113.396H31.1435V114.333H25.6378ZM35.75 114.452C35.108 114.452 34.5611 114.278 34.1094 113.928C33.6577 113.576 33.3125 113.066 33.0739 112.398C32.8352 111.728 32.7159 110.918 32.7159 109.969C32.7159 109.026 32.8352 108.221 33.0739 107.553C33.3153 106.883 33.6619 106.371 34.1136 106.019C34.5682 105.664 35.1136 105.486 35.75 105.486C36.3864 105.486 36.9304 105.664 37.3821 106.019C37.8366 106.371 38.1832 106.883 38.4219 107.553C38.6634 108.221 38.7841 109.026 38.7841 109.969C38.7841 110.918 38.6648 111.728 38.4261 112.398C38.1875 113.066 37.8423 113.576 37.3906 113.928C36.9389 114.278 36.392 114.452 35.75 114.452ZM35.75 113.515C36.3864 113.515 36.8807 113.208 37.233 112.594C37.5852 111.981 37.7614 111.106 37.7614 109.969C37.7614 109.214 37.6804 108.57 37.5185 108.039C37.3594 107.508 37.1293 107.103 36.8281 106.824C36.5298 106.546 36.1705 106.407 35.75 106.407C35.1193 106.407 34.6264 106.718 34.2713 107.34C33.9162 107.959 33.7386 108.836 33.7386 109.969C33.7386 110.725 33.8182 111.367 33.9773 111.896C34.1364 112.424 34.3651 112.826 34.6634 113.101C34.9645 113.377 35.3267 113.515 35.75 113.515ZM43.25 114.452C42.608 114.452 42.0611 114.278 41.6094 113.928C41.1577 113.576 40.8125 113.066 40.5739 112.398C40.3352 111.728 40.2159 110.918 40.2159 109.969C40.2159 109.026 40.3352 108.221 40.5739 107.553C40.8153 106.883 41.1619 106.371 41.6136 106.019C42.0682 105.664 42.6136 105.486 43.25 105.486C43.8864 105.486 44.4304 105.664 44.8821 106.019C45.3366 106.371 45.6832 106.883 45.9219 107.553C46.1634 108.221 46.2841 109.026 46.2841 109.969C46.2841 110.918 46.1648 111.728 45.9261 112.398C45.6875 113.066 45.3423 113.576 44.8906 113.928C44.4389 114.278 43.892 114.452 43.25 114.452ZM43.25 113.515C43.8864 113.515 44.3807 113.208 44.733 112.594C45.0852 111.981 45.2614 111.106 45.2614 109.969C45.2614 109.214 45.1804 108.57 45.0185 108.039C44.8594 107.508 44.6293 107.103 44.3281 106.824C44.0298 106.546 43.6705 106.407 43.25 106.407C42.6193 106.407 42.1264 106.718 41.7713 107.34C41.4162 107.959 41.2386 108.836 41.2386 109.969C41.2386 110.725 41.3182 111.367 41.4773 111.896C41.6364 112.424 41.8651 112.826 42.1634 113.101C42.4645 113.377 42.8267 113.515 43.25 113.515Z" fill="black" fill-opacity="0.4"/>
<path d="M30.3935 146.94V155.667H29.3366V148.048H29.2855L27.1548 149.462V148.389L29.3366 146.94H30.3935ZM35.75 155.786C35.108 155.786 34.5611 155.612 34.1094 155.262C33.6577 154.91 33.3125 154.4 33.0739 153.732C32.8352 153.062 32.7159 152.252 32.7159 151.303C32.7159 150.36 32.8352 149.555 33.0739 148.887C33.3153 148.217 33.6619 147.705 34.1136 147.353C34.5682 146.998 35.1136 146.82 35.75 146.82C36.3864 146.82 36.9304 146.998 37.3821 147.353C37.8366 147.705 38.1832 148.217 38.4219 148.887C38.6634 149.555 38.7841 150.36 38.7841 151.303C38.7841 152.252 38.6648 153.062 38.4261 153.732C38.1875 154.4 37.8423 154.91 37.3906 155.262C36.9389 155.612 36.392 155.786 35.75 155.786ZM35.75 154.849C36.3864 154.849 36.8807 154.542 37.233 153.928C37.5852 153.315 37.7614 152.44 37.7614 151.303C37.7614 150.548 37.6804 149.904 37.5185 149.373C37.3594 148.842 37.1293 148.437 36.8281 148.158C36.5298 147.88 36.1705 147.741 35.75 147.741C35.1193 147.741 34.6264 148.052 34.2713 148.674C33.9162 149.293 33.7386 150.17 33.7386 151.303C33.7386 152.059 33.8182 152.701 33.9773 153.229C34.1364 153.758 34.3651 154.16 34.6634 154.435C34.9645 154.711 35.3267 154.849 35.75 154.849ZM43.25 155.786C42.608 155.786 42.0611 155.612 41.6094 155.262C41.1577 154.91 40.8125 154.4 40.5739 153.732C40.3352 153.062 40.2159 152.252 40.2159 151.303C40.2159 150.36 40.3352 149.555 40.5739 148.887C40.8153 148.217 41.1619 147.705 41.6136 147.353C42.0682 146.998 42.6136 146.82 43.25 146.82C43.8864 146.82 44.4304 146.998 44.8821 147.353C45.3366 147.705 45.6832 148.217 45.9219 148.887C46.1634 149.555 46.2841 150.36 46.2841 151.303C46.2841 152.252 46.1648 153.062 45.9261 153.732C45.6875 154.4 45.3423 154.91 44.8906 155.262C44.4389 155.612 43.892 155.786 43.25 155.786ZM43.25 154.849C43.8864 154.849 44.3807 154.542 44.733 153.928C45.0852 153.315 45.2614 152.44 45.2614 151.303C45.2614 150.548 45.1804 149.904 45.0185 149.373C44.8594 148.842 44.6293 148.437 44.3281 148.158C44.0298 147.88 43.6705 147.741 43.25 147.741C42.6193 147.741 42.1264 148.052 41.7713 148.674C41.4162 149.293 41.2386 150.17 41.2386 151.303C41.2386 152.059 41.3182 152.701 41.4773 153.229C41.6364 153.758 41.8651 154.16 42.1634 154.435C42.4645 154.711 42.8267 154.849 43.25 154.849Z" fill="black" fill-opacity="0.4"/>
<path d="M43.25 197.119C42.608 197.119 42.0611 196.945 41.6094 196.595C41.1577 196.243 40.8125 195.733 40.5739 195.065C40.3352 194.395 40.2159 193.585 40.2159 192.636C40.2159 191.693 40.3352 190.888 40.5739 190.22C40.8153 189.55 41.1619 189.038 41.6136 188.686C42.0682 188.331 42.6136 188.153 43.25 188.153C43.8864 188.153 44.4304 188.331 44.8821 188.686C45.3366 189.038 45.6832 189.55 45.9219 190.22C46.1634 190.888 46.2841 191.693 46.2841 192.636C46.2841 193.585 46.1648 194.395 45.9261 195.065C45.6875 195.733 45.3423 196.243 44.8906 196.595C44.4389 196.945 43.892 197.119 43.25 197.119ZM43.25 196.182C43.8864 196.182 44.3807 195.875 44.733 195.261C45.0852 194.648 45.2614 193.773 45.2614 192.636C45.2614 191.881 45.1804 191.237 45.0185 190.706C44.8594 190.175 44.6293 189.77 44.3281 189.491C44.0298 189.213 43.6705 189.074 43.25 189.074C42.6193 189.074 42.1264 189.385 41.7713 190.007C41.4162 190.626 41.2386 191.503 41.2386 192.636C41.2386 193.392 41.3182 194.034 41.4773 194.562C41.6364 195.091 41.8651 195.493 42.1634 195.768C42.4645 196.044 42.8267 196.182 43.25 196.182Z" fill="black" fill-opacity="0.4"/>
<line x1="63.5" y1="75.5" x2="495.5" y2="75.5" stroke="black" stroke-opacity="0.05" stroke-linecap="round"/>
<line x1="63.5" y1="117.5" x2="495.5" y2="117.5" stroke="black" stroke-opacity="0.05" stroke-linecap="round"/>
<line x1="63.5" y1="159.5" x2="495.5" y2="159.5" stroke="black" stroke-opacity="0.05" stroke-linecap="round"/>
<line x1="63.5" y1="201.5" x2="495.5" y2="201.5" stroke="black" stroke-opacity="0.2" stroke-linecap="round"/>
<path d="M87.7124 218.273H88.9738L91.9397 225.517H92.042L95.0079 218.273H96.2692V227H95.2806V220.369H95.1954L92.4681 227H91.5136L88.7863 220.369H88.7011V227H87.7124V218.273ZM100.911 227.136C100.32 227.136 99.8015 226.996 99.3555 226.714C98.9123 226.433 98.5658 226.04 98.3158 225.534C98.0686 225.028 97.945 224.437 97.945 223.761C97.945 223.08 98.0686 222.484 98.3158 221.976C98.5658 221.467 98.9123 221.072 99.3555 220.791C99.8015 220.51 100.32 220.369 100.911 220.369C101.502 220.369 102.019 220.51 102.462 220.791C102.908 221.072 103.255 221.467 103.502 221.976C103.752 222.484 103.877 223.08 103.877 223.761C103.877 224.437 103.752 225.028 103.502 225.534C103.255 226.04 102.908 226.433 102.462 226.714C102.019 226.996 101.502 227.136 100.911 227.136ZM100.911 226.233C101.36 226.233 101.729 226.118 102.019 225.888C102.309 225.658 102.523 225.355 102.662 224.98C102.802 224.605 102.871 224.199 102.871 223.761C102.871 223.324 102.802 222.916 102.662 222.538C102.523 222.161 102.309 221.855 102.019 221.622C101.729 221.389 101.36 221.273 100.911 221.273C100.462 221.273 100.093 221.389 99.803 221.622C99.5132 221.855 99.2987 222.161 99.1595 222.538C99.0203 222.916 98.9507 223.324 98.9507 223.761C98.9507 224.199 99.0203 224.605 99.1595 224.98C99.2987 225.355 99.5132 225.658 99.803 225.888C100.093 226.118 100.462 226.233 100.911 226.233ZM106.418 223.062V227H105.412V220.455H106.384V221.477H106.469C106.622 221.145 106.855 220.878 107.168 220.676C107.48 220.472 107.884 220.369 108.378 220.369C108.821 220.369 109.209 220.46 109.541 220.642C109.874 220.821 110.132 221.094 110.317 221.46C110.501 221.824 110.594 222.284 110.594 222.841V227H109.588V222.909C109.588 222.395 109.455 221.994 109.188 221.707C108.921 221.418 108.554 221.273 108.088 221.273C107.767 221.273 107.48 221.342 107.227 221.482C106.977 221.621 106.78 221.824 106.635 222.091C106.49 222.358 106.418 222.682 106.418 223.062Z" fill="black" fill-opacity="0.4"/>
<path d="M161.447 219.21V218.273H167.993V219.21H165.248V227H164.191V219.21H161.447ZM172.722 224.324V220.455H173.727V227H172.722V225.892H172.653C172.5 226.224 172.261 226.507 171.937 226.74C171.614 226.97 171.205 227.085 170.71 227.085C170.301 227.085 169.937 226.996 169.619 226.817C169.301 226.635 169.051 226.362 168.869 225.999C168.687 225.632 168.597 225.17 168.597 224.614V220.455H169.602V224.545C169.602 225.023 169.736 225.403 170.003 225.688C170.273 225.972 170.616 226.114 171.034 226.114C171.284 226.114 171.538 226.05 171.797 225.922C172.058 225.794 172.277 225.598 172.453 225.334C172.632 225.07 172.722 224.733 172.722 224.324ZM178.314 227.136C177.683 227.136 177.139 226.997 176.681 226.719C176.227 226.438 175.876 226.045 175.629 225.543C175.385 225.037 175.262 224.449 175.262 223.778C175.262 223.108 175.385 222.517 175.629 222.006C175.876 221.491 176.22 221.091 176.66 220.804C177.103 220.514 177.62 220.369 178.211 220.369C178.552 220.369 178.889 220.426 179.221 220.54C179.554 220.653 179.856 220.838 180.129 221.094C180.402 221.347 180.619 221.682 180.781 222.099C180.943 222.517 181.024 223.031 181.024 223.642V224.068H175.978V223.199H180.001C180.001 222.83 179.927 222.5 179.779 222.21C179.635 221.92 179.427 221.692 179.157 221.524C178.89 221.357 178.575 221.273 178.211 221.273C177.811 221.273 177.464 221.372 177.171 221.571C176.882 221.767 176.659 222.023 176.502 222.338C176.346 222.653 176.268 222.991 176.268 223.352V223.932C176.268 224.426 176.353 224.845 176.524 225.189C176.697 225.53 176.937 225.79 177.244 225.969C177.551 226.145 177.907 226.233 178.314 226.233C178.578 226.233 178.816 226.196 179.029 226.122C179.245 226.045 179.431 225.932 179.588 225.781C179.744 225.628 179.865 225.437 179.95 225.21L180.921 225.483C180.819 225.812 180.647 226.102 180.406 226.352C180.164 226.599 179.866 226.793 179.511 226.932C179.156 227.068 178.757 227.136 178.314 227.136Z" fill="black" fill-opacity="0.4"/>
<path d="M233.449 227L231.063 218.273H232.137L233.96 225.381H234.046L235.904 218.273H237.097L238.955 225.381H239.04L240.864 218.273H241.938L239.551 227H238.46L236.534 220.045H236.466L234.54 227H233.449ZM245.253 227.136C244.622 227.136 244.078 226.997 243.621 226.719C243.166 226.438 242.815 226.045 242.568 225.543C242.324 225.037 242.202 224.449 242.202 223.778C242.202 223.108 242.324 222.517 242.568 222.006C242.815 221.491 243.159 221.091 243.6 220.804C244.043 220.514 244.56 220.369 245.151 220.369C245.492 220.369 245.828 220.426 246.161 220.54C246.493 220.653 246.796 220.838 247.068 221.094C247.341 221.347 247.558 221.682 247.72 222.099C247.882 222.517 247.963 223.031 247.963 223.642V224.068H242.918V223.199H246.94C246.94 222.83 246.867 222.5 246.719 222.21C246.574 221.92 246.367 221.692 246.097 221.524C245.83 221.357 245.514 221.273 245.151 221.273C244.75 221.273 244.404 221.372 244.111 221.571C243.821 221.767 243.598 222.023 243.442 222.338C243.286 222.653 243.208 222.991 243.208 223.352V223.932C243.208 224.426 243.293 224.845 243.463 225.189C243.637 225.53 243.877 225.79 244.183 225.969C244.49 226.145 244.847 226.233 245.253 226.233C245.517 226.233 245.756 226.196 245.969 226.122C246.185 226.045 246.371 225.932 246.527 225.781C246.683 225.628 246.804 225.437 246.889 225.21L247.861 225.483C247.759 225.812 247.587 226.102 247.345 226.352C247.104 226.599 246.806 226.793 246.45 226.932C246.095 227.068 245.696 227.136 245.253 227.136ZM251.965 227.136C251.419 227.136 250.938 226.999 250.52 226.723C250.102 226.445 249.776 226.053 249.54 225.547C249.304 225.038 249.186 224.438 249.186 223.744C249.186 223.057 249.304 222.46 249.54 221.955C249.776 221.449 250.104 221.058 250.524 220.783C250.945 220.507 251.431 220.369 251.982 220.369C252.408 220.369 252.744 220.44 252.992 220.582C253.242 220.722 253.432 220.881 253.563 221.06C253.696 221.236 253.8 221.381 253.874 221.494H253.959V218.273H254.965V227H253.993V225.994H253.874C253.8 226.114 253.695 226.264 253.558 226.446C253.422 226.625 253.227 226.786 252.975 226.928C252.722 227.067 252.385 227.136 251.965 227.136ZM252.101 226.233C252.504 226.233 252.845 226.128 253.124 225.918C253.402 225.705 253.614 225.411 253.759 225.036C253.904 224.658 253.976 224.222 253.976 223.727C253.976 223.239 253.905 222.811 253.763 222.445C253.621 222.075 253.411 221.788 253.132 221.584C252.854 221.376 252.51 221.273 252.101 221.273C251.675 221.273 251.32 221.382 251.036 221.601C250.754 221.817 250.543 222.111 250.401 222.483C250.262 222.852 250.192 223.267 250.192 223.727C250.192 224.193 250.263 224.616 250.405 224.997C250.55 225.375 250.763 225.676 251.044 225.901C251.328 226.122 251.681 226.233 252.101 226.233Z" fill="black" fill-opacity="0.4"/>
<path d="M305.282 219.21V218.273H311.827V219.21H309.083V227H308.026V219.21H305.282ZM314.328 223.062V227H313.322V218.273H314.328V221.477H314.413C314.566 221.139 314.797 220.871 315.103 220.672C315.413 220.47 315.825 220.369 316.339 220.369C316.785 220.369 317.176 220.459 317.511 220.638C317.846 220.814 318.106 221.085 318.291 221.452C318.478 221.815 318.572 222.278 318.572 222.841V227H317.566V222.909C317.566 222.389 317.432 221.987 317.162 221.703C316.895 221.416 316.524 221.273 316.049 221.273C315.72 221.273 315.424 221.342 315.163 221.482C314.905 221.621 314.7 221.824 314.549 222.091C314.402 222.358 314.328 222.682 314.328 223.062ZM324.537 224.324V220.455H325.543V227H324.537V225.892H324.469C324.315 226.224 324.077 226.507 323.753 226.74C323.429 226.97 323.02 227.085 322.526 227.085C322.117 227.085 321.753 226.996 321.435 226.817C321.117 226.635 320.867 226.362 320.685 225.999C320.503 225.632 320.412 225.17 320.412 224.614V220.455H321.418V224.545C321.418 225.023 321.551 225.403 321.818 225.688C322.088 225.972 322.432 226.114 322.849 226.114C323.099 226.114 323.354 226.05 323.612 225.922C323.874 225.794 324.092 225.598 324.269 225.334C324.448 225.07 324.537 224.733 324.537 224.324Z" fill="black" fill-opacity="0.4"/>
<path d="M381.665 227V218.273H386.898V219.21H382.721V222.159H386.505V223.097H382.721V227H381.665ZM388.501 227V220.455H389.472V221.443H389.541C389.66 221.119 389.876 220.857 390.188 220.655C390.501 220.453 390.853 220.352 391.245 220.352C391.319 220.352 391.411 220.354 391.522 220.357C391.633 220.359 391.717 220.364 391.774 220.369V221.392C391.739 221.384 391.661 221.371 391.539 221.354C391.42 221.334 391.293 221.324 391.16 221.324C390.842 221.324 390.558 221.391 390.308 221.524C390.061 221.655 389.864 221.837 389.72 222.07C389.578 222.3 389.507 222.562 389.507 222.858V227H388.501ZM392.966 227V220.455H393.971V227H392.966ZM393.477 219.364C393.281 219.364 393.112 219.297 392.97 219.163C392.831 219.03 392.761 218.869 392.761 218.682C392.761 218.494 392.831 218.334 392.97 218.2C393.112 218.067 393.281 218 393.477 218C393.673 218 393.841 218.067 393.98 218.2C394.122 218.334 394.193 218.494 394.193 218.682C394.193 218.869 394.122 219.03 393.98 219.163C393.841 219.297 393.673 219.364 393.477 219.364Z" fill="black" fill-opacity="0.4"/>
<path d="M456.359 220.455C456.308 220.023 456.101 219.688 455.737 219.449C455.373 219.21 454.927 219.091 454.399 219.091C454.013 219.091 453.675 219.153 453.385 219.278C453.098 219.403 452.873 219.575 452.711 219.794C452.552 220.013 452.473 220.261 452.473 220.54C452.473 220.773 452.528 220.973 452.639 221.141C452.753 221.305 452.898 221.443 453.074 221.554C453.25 221.662 453.434 221.751 453.628 221.822C453.821 221.891 453.998 221.946 454.16 221.989L455.047 222.227C455.274 222.287 455.527 222.369 455.805 222.474C456.086 222.58 456.355 222.723 456.611 222.905C456.869 223.084 457.082 223.314 457.25 223.595C457.417 223.876 457.501 224.222 457.501 224.631C457.501 225.102 457.378 225.528 457.13 225.909C456.886 226.29 456.528 226.592 456.057 226.817C455.588 227.041 455.018 227.153 454.348 227.153C453.723 227.153 453.182 227.053 452.724 226.851C452.27 226.649 451.912 226.368 451.65 226.007C451.392 225.646 451.246 225.227 451.211 224.75H452.302C452.331 225.08 452.442 225.352 452.635 225.568C452.831 225.781 453.078 225.94 453.376 226.045C453.677 226.148 454.001 226.199 454.348 226.199C454.751 226.199 455.113 226.134 455.434 226.003C455.755 225.869 456.01 225.685 456.197 225.449C456.385 225.21 456.478 224.932 456.478 224.614C456.478 224.324 456.398 224.088 456.236 223.906C456.074 223.724 455.861 223.577 455.596 223.463C455.332 223.349 455.047 223.25 454.74 223.165L453.666 222.858C452.984 222.662 452.444 222.382 452.047 222.018C451.649 221.655 451.45 221.179 451.45 220.591C451.45 220.102 451.582 219.676 451.846 219.312C452.113 218.946 452.471 218.662 452.92 218.46C453.372 218.256 453.876 218.153 454.433 218.153C454.996 218.153 455.496 218.254 455.933 218.456C456.371 218.655 456.717 218.928 456.973 219.274C457.231 219.621 457.368 220.014 457.382 220.455H456.359ZM461.029 227.153C460.614 227.153 460.237 227.075 459.899 226.919C459.561 226.76 459.293 226.531 459.094 226.233C458.895 225.932 458.796 225.568 458.796 225.142C458.796 224.767 458.869 224.463 459.017 224.23C459.165 223.994 459.362 223.81 459.61 223.676C459.857 223.543 460.129 223.443 460.428 223.378C460.729 223.31 461.031 223.256 461.335 223.216C461.733 223.165 462.056 223.126 462.303 223.101C462.553 223.072 462.735 223.026 462.848 222.96C462.965 222.895 463.023 222.781 463.023 222.619V222.585C463.023 222.165 462.908 221.838 462.678 221.605C462.45 221.372 462.105 221.256 461.642 221.256C461.162 221.256 460.786 221.361 460.513 221.571C460.24 221.781 460.048 222.006 459.938 222.244L458.983 221.903C459.154 221.506 459.381 221.196 459.665 220.974C459.952 220.75 460.264 220.594 460.602 220.506C460.943 220.415 461.279 220.369 461.608 220.369C461.818 220.369 462.06 220.395 462.333 220.446C462.608 220.494 462.874 220.595 463.129 220.749C463.388 220.902 463.602 221.134 463.773 221.443C463.943 221.753 464.029 222.168 464.029 222.688V227H463.023V226.114H462.972C462.904 226.256 462.79 226.408 462.631 226.57C462.472 226.732 462.26 226.869 461.996 226.983C461.732 227.097 461.409 227.153 461.029 227.153ZM461.182 226.25C461.58 226.25 461.915 226.172 462.188 226.016C462.463 225.859 462.671 225.658 462.81 225.411C462.952 225.163 463.023 224.903 463.023 224.631V223.71C462.98 223.761 462.887 223.808 462.742 223.851C462.6 223.891 462.435 223.926 462.247 223.957C462.063 223.986 461.882 224.011 461.706 224.034C461.533 224.054 461.392 224.071 461.284 224.085C461.023 224.119 460.779 224.175 460.551 224.251C460.327 224.325 460.145 224.437 460.006 224.588C459.869 224.736 459.801 224.937 459.801 225.193C459.801 225.543 459.931 225.807 460.189 225.986C460.45 226.162 460.781 226.25 461.182 226.25ZM468.711 220.455V221.307H465.319V220.455H468.711ZM466.307 218.886H467.313V225.125C467.313 225.409 467.354 225.622 467.437 225.764C467.522 225.903 467.63 225.997 467.76 226.045C467.894 226.091 468.035 226.114 468.182 226.114C468.293 226.114 468.384 226.108 468.455 226.097C468.526 226.082 468.583 226.071 468.626 226.062L468.83 226.966C468.762 226.991 468.667 227.017 468.545 227.043C468.422 227.071 468.268 227.085 468.08 227.085C467.796 227.085 467.518 227.024 467.245 226.902C466.975 226.78 466.751 226.594 466.572 226.344C466.395 226.094 466.307 225.778 466.307 225.398V218.886Z" fill="black" fill-opacity="0.4"/>
<line x1="65.5" y1="181.5" x2="65.5" y2="200.5" stroke="url(#paint0_linear_24476_69789)" stroke-width="3" stroke-linecap="round"/>
<line x1="302.723" y1="119.289" x2="302.723" y2="200.5" stroke="url(#paint1_linear_24476_69789)" stroke-width="3" stroke-linecap="round"/>
<line x1="184.111" y1="160.553" x2="184.111" y2="200.5" stroke="url(#paint2_linear_24476_69789)" stroke-width="3" stroke-linecap="round"/>
<line x1="421.5" y1="140.5" x2="421.5" y2="200.5" stroke="url(#paint3_linear_24476_69789)" stroke-width="3" stroke-linecap="round"/>
<line x1="89.2227" y1="178.236" x2="89.2227" y2="200.499" stroke="url(#paint4_linear_24476_69789)" stroke-width="3" stroke-linecap="round"/>
<line x1="326.945" y1="109" x2="326.945" y2="199" stroke="url(#paint5_linear_24476_69789)" stroke-width="6" stroke-linecap="round"/>
<line x1="207.833" y1="154.658" x2="207.833" y2="200.5" stroke="url(#paint6_linear_24476_69789)" stroke-width="3" stroke-linecap="round"/>
<line x1="445.056" y1="145.5" x2="445.056" y2="200.5" stroke="url(#paint7_linear_24476_69789)" stroke-width="3" stroke-linecap="round"/>
<line x1="112.944" y1="174.5" x2="112.944" y2="200.5" stroke="url(#paint8_linear_24476_69789)" stroke-width="3" stroke-linecap="round"/>
<line x1="350.167" y1="115.921" x2="350.167" y2="200.5" stroke="url(#paint9_linear_24476_69789)" stroke-width="3" stroke-linecap="round"/>
<line x1="231.556" y1="147.079" x2="231.556" y2="200.5" stroke="url(#paint10_linear_24476_69789)" stroke-width="3" stroke-linecap="round"/>
<line x1="468.777" y1="148.764" x2="468.777" y2="200.501" stroke="url(#paint11_linear_24476_69789)" stroke-width="3" stroke-linecap="round"/>
<line x1="136.667" y1="170.658" x2="136.667" y2="200.5" stroke="url(#paint12_linear_24476_69789)" stroke-width="3" stroke-linecap="round"/>
<line x1="373.889" y1="127.711" x2="373.889" y2="200.5" stroke="url(#paint13_linear_24476_69789)" stroke-width="3" stroke-linecap="round"/>
<line x1="255.277" y1="138.658" x2="255.277" y2="200.5" stroke="url(#paint14_linear_24476_69789)" stroke-width="3" stroke-linecap="round"/>
<line x1="492.5" y1="152.132" x2="492.5" y2="200.5" stroke="url(#paint15_linear_24476_69789)" stroke-width="3" stroke-linecap="round"/>
<line x1="160.389" y1="165.5" x2="160.389" y2="200.5" stroke="url(#paint16_linear_24476_69789)" stroke-width="3" stroke-linecap="round"/>
<line x1="397.5" y1="135.5" x2="397.5" y2="200.5" stroke="url(#paint17_linear_24476_69789)" stroke-width="3" stroke-linecap="round"/>
<line x1="279" y1="129.395" x2="279" y2="200.5" stroke="url(#paint18_linear_24476_69789)" stroke-width="3" stroke-linecap="round"/>
<line x1="77.3613" y1="180.764" x2="77.3613" y2="200.501" stroke="url(#paint19_linear_24476_69789)" stroke-width="3" stroke-linecap="round"/>
<line x1="314.583" y1="113.395" x2="314.583" y2="200.5" stroke="url(#paint20_linear_24476_69789)" stroke-width="3" stroke-linecap="round"/>
<line x1="195.973" y1="158.026" x2="195.973" y2="200.5" stroke="url(#paint21_linear_24476_69789)" stroke-width="3" stroke-linecap="round"/>
<line x1="433.194" y1="142.868" x2="433.194" y2="200.5" stroke="url(#paint22_linear_24476_69789)" stroke-width="3" stroke-linecap="round"/>
<line x1="101.083" y1="176.553" x2="101.083" y2="200.5" stroke="url(#paint23_linear_24476_69789)" stroke-width="3" stroke-linecap="round"/>
<line x1="338.306" y1="111.5" x2="338.306" y2="200.5" stroke="url(#paint24_linear_24476_69789)" stroke-width="3" stroke-linecap="round"/>
<line x1="219.694" y1="150.447" x2="219.694" y2="200.5" stroke="url(#paint25_linear_24476_69789)" stroke-width="3" stroke-linecap="round"/>
<line x1="456.917" y1="147.079" x2="456.917" y2="200.5" stroke="url(#paint26_linear_24476_69789)" stroke-width="3" stroke-linecap="round"/>
<line x1="124.806" y1="172.5" x2="124.806" y2="200.5" stroke="url(#paint27_linear_24476_69789)" stroke-width="3" stroke-linecap="round"/>
<line x1="362.027" y1="121.815" x2="362.027" y2="200.5" stroke="url(#paint28_linear_24476_69789)" stroke-width="3" stroke-linecap="round"/>
<line x1="243.417" y1="143.711" x2="243.417" y2="200.5" stroke="url(#paint29_linear_24476_69789)" stroke-width="3" stroke-linecap="round"/>
<line x1="480.639" y1="150.447" x2="480.639" y2="200.5" stroke="url(#paint30_linear_24476_69789)" stroke-width="3" stroke-linecap="round"/>
<line x1="148.527" y1="168.974" x2="148.527" y2="200.5" stroke="url(#paint31_linear_24476_69789)" stroke-width="3" stroke-linecap="round"/>
<line x1="385.75" y1="131.921" x2="385.75" y2="200.5" stroke="url(#paint32_linear_24476_69789)" stroke-width="3" stroke-linecap="round"/>
<line x1="267.139" y1="133.605" x2="267.139" y2="200.5" stroke="url(#paint33_linear_24476_69789)" stroke-width="3" stroke-linecap="round"/>
<line x1="172.25" y1="163.079" x2="172.25" y2="200.5" stroke="url(#paint34_linear_24476_69789)" stroke-width="3" stroke-linecap="round"/>
<line x1="409.5" y1="138.5" x2="409.5" y2="200.5" stroke="url(#paint35_linear_24476_69789)" stroke-width="3" stroke-linecap="round"/>
<line x1="290.861" y1="125.185" x2="290.861" y2="200.5" stroke="url(#paint36_linear_24476_69789)" stroke-width="3" stroke-linecap="round"/>
<rect x="307" y="76" width="39" height="26" rx="13" fill="black" fill-opacity="0.8"/>
<path d="M315.903 93V92.233L318.784 89.0795C319.122 88.7102 319.401 88.3892 319.619 88.1165C319.838 87.8409 320 87.5824 320.105 87.3409C320.213 87.0966 320.267 86.8409 320.267 86.5739C320.267 86.267 320.193 86.0014 320.045 85.777C319.901 85.5526 319.702 85.3793 319.449 85.2571C319.196 85.1349 318.912 85.0739 318.597 85.0739C318.261 85.0739 317.969 85.1435 317.719 85.2827C317.472 85.419 317.28 85.6108 317.143 85.858C317.01 86.1051 316.943 86.3949 316.943 86.7273H315.938C315.938 86.2159 316.055 85.767 316.291 85.3807C316.527 84.9943 316.848 84.6932 317.254 84.4773C317.663 84.2614 318.122 84.1534 318.631 84.1534C319.142 84.1534 319.595 84.2614 319.99 84.4773C320.385 84.6932 320.695 84.9844 320.919 85.3509C321.143 85.7173 321.256 86.125 321.256 86.5739C321.256 86.8949 321.197 87.2088 321.081 87.5156C320.967 87.8196 320.768 88.1591 320.484 88.5341C320.203 88.9062 319.812 89.3608 319.312 89.8977L317.352 91.9943V92.0625H321.409V93H315.903ZM323.169 93V92.233L326.05 89.0795C326.388 88.7102 326.666 88.3892 326.885 88.1165C327.104 87.8409 327.266 87.5824 327.371 87.3409C327.479 87.0966 327.533 86.8409 327.533 86.5739C327.533 86.267 327.459 86.0014 327.311 85.777C327.166 85.5526 326.967 85.3793 326.714 85.2571C326.462 85.1349 326.178 85.0739 325.862 85.0739C325.527 85.0739 325.234 85.1435 324.984 85.2827C324.737 85.419 324.545 85.6108 324.409 85.858C324.276 86.1051 324.209 86.3949 324.209 86.7273H323.203C323.203 86.2159 323.321 85.767 323.557 85.3807C323.793 84.9943 324.114 84.6932 324.52 84.4773C324.929 84.2614 325.388 84.1534 325.896 84.1534C326.408 84.1534 326.861 84.2614 327.256 84.4773C327.651 84.6932 327.96 84.9844 328.185 85.3509C328.409 85.7173 328.521 86.125 328.521 86.5739C328.521 86.8949 328.463 87.2088 328.347 87.5156C328.233 87.8196 328.034 88.1591 327.75 88.5341C327.469 88.9062 327.078 89.3608 326.578 89.8977L324.618 91.9943V92.0625H328.675V93H323.169ZM333.281 93.1193C332.639 93.1193 332.092 92.9446 331.641 92.5952C331.189 92.2429 330.844 91.733 330.605 91.0653C330.366 90.3949 330.247 89.5852 330.247 88.6364C330.247 87.6932 330.366 86.8878 330.605 86.2202C330.847 85.5497 331.193 85.0384 331.645 84.6861C332.099 84.331 332.645 84.1534 333.281 84.1534C333.918 84.1534 334.462 84.331 334.913 84.6861C335.368 85.0384 335.714 85.5497 335.953 86.2202C336.195 86.8878 336.315 87.6932 336.315 88.6364C336.315 89.5852 336.196 90.3949 335.957 91.0653C335.719 91.733 335.374 92.2429 334.922 92.5952C334.47 92.9446 333.923 93.1193 333.281 93.1193ZM333.281 92.1818C333.918 92.1818 334.412 91.875 334.764 91.2614C335.116 90.6477 335.293 89.7727 335.293 88.6364C335.293 87.8807 335.212 87.2372 335.05 86.706C334.891 86.1747 334.661 85.7699 334.359 85.4915C334.061 85.2131 333.702 85.0739 333.281 85.0739C332.651 85.0739 332.158 85.3849 331.803 86.0071C331.447 86.6264 331.27 87.5028 331.27 88.6364C331.27 89.392 331.349 90.0341 331.509 90.5625C331.668 91.0909 331.896 91.4929 332.195 91.7685C332.496 92.044 332.858 92.1818 333.281 92.1818Z" fill="white"/>
<defs>
<linearGradient id="paint0_linear_24476_69789" x1="64" y1="180" x2="64" y2="202" gradientUnits="userSpaceOnUse">
<stop/>
<stop offset="0.869792" stop-color="#1C1C1C" stop-opacity="0.4"/>
<stop offset="0.989583" stop-color="#1C1C1C" stop-opacity="0"/>
</linearGradient>
<linearGradient id="paint1_linear_24476_69789" x1="301.223" y1="117.789" x2="301.223" y2="202" gradientUnits="userSpaceOnUse">
<stop/>
<stop offset="0.869792" stop-color="#1C1C1C" stop-opacity="0.4"/>
<stop offset="0.989583" stop-color="#1C1C1C" stop-opacity="0"/>
</linearGradient>
<linearGradient id="paint2_linear_24476_69789" x1="182.611" y1="159.053" x2="182.611" y2="202" gradientUnits="userSpaceOnUse">
<stop/>
<stop offset="0.869792" stop-color="#1C1C1C" stop-opacity="0.4"/>
<stop offset="0.989583" stop-color="#1C1C1C" stop-opacity="0"/>
</linearGradient>
<linearGradient id="paint3_linear_24476_69789" x1="420" y1="139" x2="420" y2="202" gradientUnits="userSpaceOnUse">
<stop/>
<stop offset="0.869792" stop-color="#1C1C1C" stop-opacity="0.4"/>
<stop offset="0.989583" stop-color="#1C1C1C" stop-opacity="0"/>
</linearGradient>
<linearGradient id="paint4_linear_24476_69789" x1="87.7227" y1="176.736" x2="87.7227" y2="201.999" gradientUnits="userSpaceOnUse">
<stop/>
<stop offset="0.869792" stop-color="#1C1C1C" stop-opacity="0.4"/>
<stop offset="0.989583" stop-color="#1C1C1C" stop-opacity="0"/>
</linearGradient>
<linearGradient id="paint5_linear_24476_69789" x1="323.945" y1="106" x2="323.945" y2="202" gradientUnits="userSpaceOnUse">
<stop stop-color="#95A4FC"/>
<stop offset="0.869792" stop-color="#95A4FC" stop-opacity="0.4"/>
<stop offset="0.989583" stop-color="#95A4FC" stop-opacity="0"/>
</linearGradient>
<linearGradient id="paint6_linear_24476_69789" x1="206.333" y1="153.158" x2="206.333" y2="202" gradientUnits="userSpaceOnUse">
<stop/>
<stop offset="0.869792" stop-color="#1C1C1C" stop-opacity="0.4"/>
<stop offset="0.989583" stop-color="#1C1C1C" stop-opacity="0"/>
</linearGradient>
<linearGradient id="paint7_linear_24476_69789" x1="443.556" y1="144" x2="443.556" y2="202" gradientUnits="userSpaceOnUse">
<stop/>
<stop offset="0.869792" stop-color="#1C1C1C" stop-opacity="0.4"/>
<stop offset="0.989583" stop-color="#1C1C1C" stop-opacity="0"/>
</linearGradient>
<linearGradient id="paint8_linear_24476_69789" x1="111.444" y1="173" x2="111.444" y2="202" gradientUnits="userSpaceOnUse">
<stop/>
<stop offset="0.869792" stop-color="#1C1C1C" stop-opacity="0.4"/>
<stop offset="0.989583" stop-color="#1C1C1C" stop-opacity="0"/>
</linearGradient>
<linearGradient id="paint9_linear_24476_69789" x1="348.667" y1="114.421" x2="348.667" y2="202" gradientUnits="userSpaceOnUse">
<stop/>
<stop offset="0.869792" stop-color="#1C1C1C" stop-opacity="0.4"/>
<stop offset="0.989583" stop-color="#1C1C1C" stop-opacity="0"/>
</linearGradient>
<linearGradient id="paint10_linear_24476_69789" x1="230.056" y1="145.579" x2="230.056" y2="202" gradientUnits="userSpaceOnUse">
<stop/>
<stop offset="0.869792" stop-color="#1C1C1C" stop-opacity="0.4"/>
<stop offset="0.989583" stop-color="#1C1C1C" stop-opacity="0"/>
</linearGradient>
<linearGradient id="paint11_linear_24476_69789" x1="467.277" y1="147.264" x2="467.277" y2="202.001" gradientUnits="userSpaceOnUse">
<stop/>
<stop offset="0.869792" stop-color="#1C1C1C" stop-opacity="0.4"/>
<stop offset="0.989583" stop-color="#1C1C1C" stop-opacity="0"/>
</linearGradient>
<linearGradient id="paint12_linear_24476_69789" x1="135.167" y1="169.158" x2="135.167" y2="202" gradientUnits="userSpaceOnUse">
<stop/>
<stop offset="0.869792" stop-color="#1C1C1C" stop-opacity="0.4"/>
<stop offset="0.989583" stop-color="#1C1C1C" stop-opacity="0"/>
</linearGradient>
<linearGradient id="paint13_linear_24476_69789" x1="372.389" y1="126.211" x2="372.389" y2="202" gradientUnits="userSpaceOnUse">
<stop/>
<stop offset="0.869792" stop-color="#1C1C1C" stop-opacity="0.4"/>
<stop offset="0.989583" stop-color="#1C1C1C" stop-opacity="0"/>
</linearGradient>
<linearGradient id="paint14_linear_24476_69789" x1="253.777" y1="137.158" x2="253.777" y2="202" gradientUnits="userSpaceOnUse">
<stop/>
<stop offset="0.869792" stop-color="#1C1C1C" stop-opacity="0.4"/>
<stop offset="0.989583" stop-color="#1C1C1C" stop-opacity="0"/>
</linearGradient>
<linearGradient id="paint15_linear_24476_69789" x1="491" y1="150.632" x2="491" y2="202" gradientUnits="userSpaceOnUse">
<stop/>
<stop offset="0.869792" stop-color="#1C1C1C" stop-opacity="0.4"/>
<stop offset="0.989583" stop-color="#1C1C1C" stop-opacity="0"/>
</linearGradient>
<linearGradient id="paint16_linear_24476_69789" x1="158.889" y1="164" x2="158.889" y2="202" gradientUnits="userSpaceOnUse">
<stop/>
<stop offset="0.869792" stop-color="#1C1C1C" stop-opacity="0.4"/>
<stop offset="0.989583" stop-color="#1C1C1C" stop-opacity="0"/>
</linearGradient>
<linearGradient id="paint17_linear_24476_69789" x1="396" y1="134" x2="396" y2="202" gradientUnits="userSpaceOnUse">
<stop/>
<stop offset="0.869792" stop-color="#1C1C1C" stop-opacity="0.4"/>
<stop offset="0.989583" stop-color="#1C1C1C" stop-opacity="0"/>
</linearGradient>
<linearGradient id="paint18_linear_24476_69789" x1="277.5" y1="127.895" x2="277.5" y2="202" gradientUnits="userSpaceOnUse">
<stop/>
<stop offset="0.869792" stop-color="#1C1C1C" stop-opacity="0.4"/>
<stop offset="0.989583" stop-color="#1C1C1C" stop-opacity="0"/>
</linearGradient>
<linearGradient id="paint19_linear_24476_69789" x1="75.8613" y1="179.264" x2="75.8613" y2="202.001" gradientUnits="userSpaceOnUse">
<stop/>
<stop offset="0.869792" stop-color="#1C1C1C" stop-opacity="0.4"/>
<stop offset="0.989583" stop-color="#1C1C1C" stop-opacity="0"/>
</linearGradient>
<linearGradient id="paint20_linear_24476_69789" x1="313.083" y1="111.895" x2="313.083" y2="202" gradientUnits="userSpaceOnUse">
<stop/>
<stop offset="0.869792" stop-color="#1C1C1C" stop-opacity="0.4"/>
<stop offset="0.989583" stop-color="#1C1C1C" stop-opacity="0"/>
</linearGradient>
<linearGradient id="paint21_linear_24476_69789" x1="194.473" y1="156.526" x2="194.473" y2="202" gradientUnits="userSpaceOnUse">
<stop/>
<stop offset="0.869792" stop-color="#1C1C1C" stop-opacity="0.4"/>
<stop offset="0.989583" stop-color="#1C1C1C" stop-opacity="0"/>
</linearGradient>
<linearGradient id="paint22_linear_24476_69789" x1="431.694" y1="141.368" x2="431.694" y2="202" gradientUnits="userSpaceOnUse">
<stop/>
<stop offset="0.869792" stop-color="#1C1C1C" stop-opacity="0.4"/>
<stop offset="0.989583" stop-color="#1C1C1C" stop-opacity="0"/>
</linearGradient>
<linearGradient id="paint23_linear_24476_69789" x1="99.583" y1="175.053" x2="99.583" y2="202" gradientUnits="userSpaceOnUse">
<stop/>
<stop offset="0.869792" stop-color="#1C1C1C" stop-opacity="0.4"/>
<stop offset="0.989583" stop-color="#1C1C1C" stop-opacity="0"/>
</linearGradient>
<linearGradient id="paint24_linear_24476_69789" x1="336.806" y1="110" x2="336.806" y2="202" gradientUnits="userSpaceOnUse">
<stop/>
<stop offset="0.869792" stop-color="#1C1C1C" stop-opacity="0.4"/>
<stop offset="0.989583" stop-color="#1C1C1C" stop-opacity="0"/>
</linearGradient>
<linearGradient id="paint25_linear_24476_69789" x1="218.194" y1="148.947" x2="218.194" y2="202" gradientUnits="userSpaceOnUse">
<stop/>
<stop offset="0.869792" stop-color="#1C1C1C" stop-opacity="0.4"/>
<stop offset="0.989583" stop-color="#1C1C1C" stop-opacity="0"/>
</linearGradient>
<linearGradient id="paint26_linear_24476_69789" x1="455.417" y1="145.579" x2="455.417" y2="202" gradientUnits="userSpaceOnUse">
<stop/>
<stop offset="0.869792" stop-color="#1C1C1C" stop-opacity="0.4"/>
<stop offset="0.989583" stop-color="#1C1C1C" stop-opacity="0"/>
</linearGradient>
<linearGradient id="paint27_linear_24476_69789" x1="123.306" y1="171" x2="123.306" y2="202" gradientUnits="userSpaceOnUse">
<stop/>
<stop offset="0.869792" stop-color="#1C1C1C" stop-opacity="0.4"/>
<stop offset="0.989583" stop-color="#1C1C1C" stop-opacity="0"/>
</linearGradient>
<linearGradient id="paint28_linear_24476_69789" x1="360.527" y1="120.315" x2="360.527" y2="202" gradientUnits="userSpaceOnUse">
<stop/>
<stop offset="0.869792" stop-color="#1C1C1C" stop-opacity="0.4"/>
<stop offset="0.989583" stop-color="#1C1C1C" stop-opacity="0"/>
</linearGradient>
<linearGradient id="paint29_linear_24476_69789" x1="241.917" y1="142.211" x2="241.917" y2="202" gradientUnits="userSpaceOnUse">
<stop/>
<stop offset="0.869792" stop-color="#1C1C1C" stop-opacity="0.4"/>
<stop offset="0.989583" stop-color="#1C1C1C" stop-opacity="0"/>
</linearGradient>
<linearGradient id="paint30_linear_24476_69789" x1="479.139" y1="148.947" x2="479.139" y2="202" gradientUnits="userSpaceOnUse">
<stop/>
<stop offset="0.869792" stop-color="#1C1C1C" stop-opacity="0.4"/>
<stop offset="0.989583" stop-color="#1C1C1C" stop-opacity="0"/>
</linearGradient>
<linearGradient id="paint31_linear_24476_69789" x1="147.027" y1="167.474" x2="147.027" y2="202" gradientUnits="userSpaceOnUse">
<stop/>
<stop offset="0.869792" stop-color="#1C1C1C" stop-opacity="0.4"/>
<stop offset="0.989583" stop-color="#1C1C1C" stop-opacity="0"/>
</linearGradient>
<linearGradient id="paint32_linear_24476_69789" x1="384.25" y1="130.421" x2="384.25" y2="202" gradientUnits="userSpaceOnUse">
<stop/>
<stop offset="0.869792" stop-color="#1C1C1C" stop-opacity="0.4"/>
<stop offset="0.989583" stop-color="#1C1C1C" stop-opacity="0"/>
</linearGradient>
<linearGradient id="paint33_linear_24476_69789" x1="265.639" y1="132.105" x2="265.639" y2="202" gradientUnits="userSpaceOnUse">
<stop/>
<stop offset="0.869792" stop-color="#1C1C1C" stop-opacity="0.4"/>
<stop offset="0.989583" stop-color="#1C1C1C" stop-opacity="0"/>
</linearGradient>
<linearGradient id="paint34_linear_24476_69789" x1="170.75" y1="161.579" x2="170.75" y2="202" gradientUnits="userSpaceOnUse">
<stop/>
<stop offset="0.869792" stop-color="#1C1C1C" stop-opacity="0.4"/>
<stop offset="0.989583" stop-color="#1C1C1C" stop-opacity="0"/>
</linearGradient>
<linearGradient id="paint35_linear_24476_69789" x1="408" y1="137" x2="408" y2="202" gradientUnits="userSpaceOnUse">
<stop/>
<stop offset="0.869792" stop-color="#1C1C1C" stop-opacity="0.4"/>
<stop offset="0.989583" stop-color="#1C1C1C" stop-opacity="0"/>
</linearGradient>
<linearGradient id="paint36_linear_24476_69789" x1="289.361" y1="123.685" x2="289.361" y2="202" gradientUnits="userSpaceOnUse">
<stop/>
<stop offset="0.869792" stop-color="#1C1C1C" stop-opacity="0.4"/>
<stop offset="0.989583" stop-color="#1C1C1C" stop-opacity="0"/>
</linearGradient>
</defs>
</svg>
