<svg width="160" height="28" viewBox="0 0 160 28" fill="none" xmlns="http://www.w3.org/2000/svg">
<rect width="160" height="28" rx="8" fill="white" fill-opacity="0.8"/>
<path d="M21.3501 20.3563C21.2568 20.4483 21.1311 20.4999 21.0001 20.5001C20.8673 20.4995 20.7398 20.4481 20.6438 20.3563L17.9438 17.6501C16.8067 18.6052 15.3447 19.0845 13.8628 18.9879C12.381 18.8913 10.9936 18.2264 9.99 17.1317C8.98645 16.0371 8.44424 14.5973 8.47645 13.1126C8.50867 11.6279 9.11282 10.213 10.1629 9.1629C11.213 8.11282 12.6279 7.50867 14.1126 7.47645C15.5973 7.44424 17.0371 7.98645 18.1317 8.99C19.2264 9.99355 19.8913 11.381 19.9879 12.8628C20.0845 14.3447 19.6052 15.8067 18.6501 16.9438L21.3501 19.6438C21.3973 19.6904 21.4349 19.7458 21.4605 19.807C21.4861 19.8681 21.4993 19.9338 21.4993 20.0001C21.4993 20.0664 21.4861 20.132 21.4605 20.1932C21.4349 20.2544 21.3973 20.3098 21.3501 20.3563ZM14.2501 18.0001C15.1896 18.0001 16.1079 17.7215 16.8891 17.1996C17.6702 16.6776 18.279 15.9358 18.6385 15.0678C18.998 14.1999 19.0921 13.2448 18.9088 12.3234C18.7255 11.402 18.2732 10.5556 17.6089 9.89134C16.9446 9.22704 16.0982 8.77465 15.1768 8.59137C14.2554 8.40809 13.3003 8.50215 12.4324 8.86167C11.5644 9.22119 10.8226 9.83001 10.3006 10.6111C9.77868 11.3923 9.5001 12.3106 9.5001 13.2501C9.50175 14.5094 10.0027 15.7166 10.8932 16.607C11.7836 17.4975 12.9908 17.9984 14.2501 18.0001Z" fill="black" fill-opacity="0.2"/>
<path d="M33.8011 11.3636C33.7415 10.8598 33.4995 10.4688 33.0753 10.1903C32.651 9.91193 32.1307 9.77273 31.5142 9.77273C31.0634 9.77273 30.669 9.84564 30.331 9.99148C29.9962 10.1373 29.7344 10.3378 29.5455 10.593C29.3598 10.8482 29.267 11.1383 29.267 11.4631C29.267 11.7348 29.3317 11.9685 29.4609 12.1641C29.5935 12.3563 29.7625 12.517 29.968 12.6463C30.1735 12.7723 30.389 12.8767 30.6143 12.9595C30.8397 13.0391 31.0469 13.1037 31.2358 13.1534L32.2699 13.4318C32.535 13.5014 32.83 13.5975 33.1548 13.7202C33.483 13.8428 33.7962 14.0102 34.0945 14.2223C34.3961 14.4311 34.6446 14.6996 34.8402 15.0277C35.0357 15.3558 35.1335 15.7585 35.1335 16.2358C35.1335 16.786 34.9893 17.2831 34.701 17.7273C34.416 18.1714 33.9983 18.5244 33.4482 18.7862C32.9013 19.0481 32.2367 19.179 31.4545 19.179C30.7254 19.179 30.094 19.0613 29.5604 18.826C29.0301 18.5907 28.6125 18.2625 28.3075 17.8416C28.0059 17.4207 27.8352 16.9318 27.7955 16.375H29.0682C29.1013 16.7595 29.2306 17.0777 29.456 17.3295C29.6847 17.5781 29.973 17.7637 30.321 17.8864C30.6723 18.0057 31.0502 18.0653 31.4545 18.0653C31.9252 18.0653 32.3478 17.9891 32.7223 17.8366C33.0968 17.6809 33.3935 17.4654 33.6122 17.1903C33.831 16.9119 33.9403 16.5871 33.9403 16.2159C33.9403 15.8778 33.8459 15.6027 33.657 15.3906C33.468 15.1785 33.2195 15.0062 32.9112 14.8736C32.603 14.741 32.2699 14.625 31.9119 14.5256L30.6591 14.1676C29.8636 13.9389 29.2339 13.6125 28.7699 13.1882C28.3059 12.764 28.0739 12.2088 28.0739 11.5227C28.0739 10.9527 28.228 10.4555 28.5362 10.0312C28.8478 9.60369 29.2654 9.27225 29.7891 9.03693C30.3161 8.7983 30.9044 8.67898 31.554 8.67898C32.2102 8.67898 32.7936 8.79664 33.304 9.03196C33.8144 9.26397 34.2188 9.58215 34.517 9.98651C34.8187 10.3909 34.9777 10.8499 34.9943 11.3636H33.8011ZM40.2033 19.1591C39.4675 19.1591 38.8328 18.9967 38.2992 18.6719C37.7689 18.3438 37.3596 17.8864 37.0712 17.2997C36.7862 16.7098 36.6436 16.0237 36.6436 15.2415C36.6436 14.4593 36.7862 13.7699 37.0712 13.1733C37.3596 12.5734 37.7606 12.1061 38.2743 11.7713C38.7914 11.4332 39.3946 11.2642 40.084 11.2642C40.4817 11.2642 40.8745 11.3305 41.2623 11.4631C41.65 11.5956 42.003 11.8111 42.3212 12.1094C42.6394 12.4044 42.8929 12.7955 43.0819 13.2827C43.2708 13.7699 43.3652 14.3698 43.3652 15.0824V15.5795H37.4789V14.5653H42.1721C42.1721 14.1345 42.0859 13.75 41.9135 13.4119C41.7445 13.0739 41.5025 12.8071 41.1877 12.6115C40.8761 12.416 40.5082 12.3182 40.084 12.3182C39.6167 12.3182 39.2123 12.4342 38.8709 12.6662C38.5328 12.8949 38.2727 13.1932 38.0904 13.5611C37.9081 13.929 37.8169 14.3234 37.8169 14.7443V15.4205C37.8169 15.9972 37.9164 16.486 38.1152 16.8871C38.3174 17.2848 38.5975 17.5881 38.9554 17.7969C39.3134 18.0024 39.7293 18.1051 40.2033 18.1051C40.5115 18.1051 40.79 18.062 41.0385 17.9759C41.2904 17.8864 41.5075 17.7538 41.6898 17.5781C41.8721 17.3991 42.013 17.1771 42.1124 16.9119L43.2459 17.2301C43.1266 17.6146 42.9261 17.9527 42.6444 18.2443C42.3626 18.5327 42.0146 18.758 41.6003 18.9205C41.186 19.0795 40.7203 19.1591 40.2033 19.1591ZM47.3972 19.179C46.9133 19.179 46.4741 19.0878 46.0797 18.9055C45.6853 18.7199 45.3721 18.4531 45.1401 18.1051C44.9081 17.7538 44.7921 17.3295 44.7921 16.8324C44.7921 16.3949 44.8783 16.0402 45.0506 15.7685C45.223 15.4934 45.4533 15.2779 45.7417 15.1222C46.03 14.9664 46.3482 14.8504 46.6962 14.7741C47.0475 14.6946 47.4005 14.6316 47.7551 14.5852C48.2192 14.5256 48.5953 14.4808 48.8837 14.451C49.1754 14.4179 49.3875 14.3632 49.5201 14.2869C49.656 14.2107 49.7239 14.0781 49.7239 13.8892V13.8494C49.7239 13.3589 49.5897 12.9777 49.3212 12.706C49.056 12.4342 48.6534 12.2983 48.1131 12.2983C47.553 12.2983 47.1138 12.4209 46.7956 12.6662C46.4775 12.9115 46.2537 13.1733 46.1245 13.4517L45.0108 13.054C45.2097 12.59 45.4748 12.2287 45.8063 11.9702C46.141 11.7083 46.5056 11.526 46.9 11.4233C47.2978 11.3172 47.6889 11.2642 48.0733 11.2642C48.3186 11.2642 48.6003 11.294 48.9185 11.3537C49.24 11.41 49.5499 11.5277 49.8482 11.7067C50.1498 11.8857 50.4 12.1558 50.5989 12.517C50.7978 12.8783 50.8972 13.3622 50.8972 13.9688V19H49.7239V17.9659H49.6642C49.5847 18.1316 49.4521 18.3089 49.2665 18.4979C49.0809 18.6868 48.834 18.8475 48.5257 18.9801C48.2175 19.1127 47.8413 19.179 47.3972 19.179ZM47.5762 18.125C48.0402 18.125 48.4313 18.0339 48.7495 17.8516C49.071 17.6693 49.3129 17.4339 49.4753 17.1456C49.641 16.8572 49.7239 16.554 49.7239 16.2358V15.1619C49.6742 15.2216 49.5648 15.2763 49.3958 15.326C49.2301 15.3724 49.0378 15.4138 48.8191 15.4503C48.6036 15.4834 48.3932 15.5133 48.1877 15.5398C47.9855 15.563 47.8214 15.5829 47.6955 15.5994C47.3906 15.6392 47.1055 15.7038 46.8404 15.7933C46.5785 15.8795 46.3664 16.0104 46.204 16.1861C46.0449 16.3584 45.9654 16.5937 45.9654 16.892C45.9654 17.2997 46.1162 17.608 46.4178 17.8168C46.7227 18.0223 47.1088 18.125 47.5762 18.125ZM53.0387 19V11.3636H54.1722V12.517H54.2518C54.391 12.1392 54.6429 11.8326 55.0075 11.5973C55.372 11.362 55.783 11.2443 56.2404 11.2443C56.3266 11.2443 56.4343 11.246 56.5636 11.2493C56.6928 11.2526 56.7906 11.2576 56.8569 11.2642V12.4574C56.8171 12.4474 56.726 12.4325 56.5835 12.4126C56.4442 12.3894 56.2968 12.3778 56.141 12.3778C55.7698 12.3778 55.4383 12.4557 55.1467 12.6115C54.8583 12.764 54.6296 12.9761 54.4606 13.2479C54.2949 13.5163 54.212 13.8229 54.212 14.1676V19H53.0387ZM61.1175 19.1591C60.4016 19.1591 59.7852 18.9901 59.2681 18.652C58.7511 18.3139 58.3533 17.8482 58.0749 17.255C57.7965 16.6617 57.6573 15.9839 57.6573 15.2216C57.6573 14.446 57.7998 13.7616 58.0849 13.1683C58.3732 12.5717 58.7743 12.1061 59.288 11.7713C59.805 11.4332 60.4083 11.2642 61.0977 11.2642C61.6346 11.2642 62.1185 11.3636 62.5494 11.5625C62.9802 11.7614 63.3332 12.0398 63.6083 12.3977C63.8834 12.7557 64.0541 13.1733 64.1204 13.6506H62.9471C62.8576 13.3026 62.6587 12.9943 62.3505 12.7259C62.0456 12.4541 61.6346 12.3182 61.1175 12.3182C60.6602 12.3182 60.2591 12.4375 59.9144 12.6761C59.573 12.9115 59.3062 13.2446 59.114 13.6754C58.9251 14.103 58.8306 14.6051 58.8306 15.1818C58.8306 15.7718 58.9234 16.2855 59.109 16.723C59.2979 17.1605 59.5631 17.5002 59.9045 17.7422C60.2492 17.9841 60.6535 18.1051 61.1175 18.1051C61.4225 18.1051 61.6992 18.0521 61.9478 17.946C62.1964 17.84 62.4068 17.6875 62.5792 17.4886C62.7515 17.2898 62.8742 17.0511 62.9471 16.7727H64.1204C64.0541 17.2235 63.89 17.6295 63.6282 17.9908C63.3697 18.3487 63.0266 18.6338 62.5991 18.8459C62.1748 19.0547 61.681 19.1591 61.1175 19.1591ZM67.0089 14.4062V19H65.8356V8.81818H67.0089V12.5568H67.1083C67.2873 12.1624 67.5558 11.8492 67.9137 11.6172C68.275 11.3819 68.7556 11.2642 69.3555 11.2642C69.8758 11.2642 70.3316 11.3686 70.7227 11.5774C71.1138 11.7829 71.417 12.0994 71.6325 12.527C71.8512 12.9512 71.9606 13.4915 71.9606 14.1477V19H70.7873V14.2273C70.7873 13.6207 70.6299 13.1518 70.315 12.8203C70.0034 12.4856 69.5709 12.3182 69.0174 12.3182C68.6329 12.3182 68.2882 12.3994 67.9833 12.5618C67.6817 12.7242 67.4431 12.9612 67.2674 13.2727C67.0951 13.5843 67.0089 13.9621 67.0089 14.4062Z" fill="black" fill-opacity="0.2"/>
<rect x="0.5" y="0.5" width="159" height="27" rx="7.5" stroke="black" stroke-opacity="0.1"/>
</svg>
